<?xml version="1.0" encoding="UTF-8"?>
<svg width="48" height="48" version="1.1" viewBox="0 0 48 48" xml:space="preserve" xmlns="http://www.w3.org/2000/svg"><defs><clipPath id="b"><path d="m24.749-12.957 0.12236-3.49 15.683 0.15836 0.08627 2.6129z" display="none" fill="#fff"/><path class="powerclip" d="m17.102-21.136h28.328v28.328h-28.328zm7.6478 8.1795 15.892-0.71875-0.08627-2.6129-15.683-0.15836z" fill="#fff"/></clipPath><clipPath id="a"><path d="m27.883 11.27-1.1087 1.1118 2.0778 1.1963 0.74376-0.51335z" display="none" fill="#f9f9f9"/><path class="powerclip" d="m19.126 1.7234h15.069v16.43h-15.069zm8.757 9.5461-1.1087 1.1118 2.0778 1.1963 0.74376-0.51335z" display="block" fill="#f9f9f9"/></clipPath></defs><rect transform="matrix(.63806 .76998 -.63806 .76998 0 0)" x="30.061" y="-7.5486" width="16.044" height="16.044" rx="0" fill="none" stroke="#fff" stroke-width="2.56"/><path transform="matrix(.64768 .78159 -.64768 .78159 -.76843 -.066068)" x="23.362717" y="-14.875078" width="15.806116" height="15.806116" rx="0" ry="0" d="m23.363-14.875h15.806v15.806h-15.806z" clip-path="url(#b)" fill="none" stroke="#fff" stroke-width="2.522"/><path transform="matrix(1.0151 0 0 1.0151 -.76843 -.066068)" d="m26.138 6.7234s-1.6984 1.8176 1.6692 4.8073c3.3676 2.9897-0.45563 0.93186-0.45563 0.93186l-3.2259-3.8276z" clip-path="url(#a)" fill="#fff"/><path d="m26.363 18.287 4.4751-5.2351s0.11283 0.45483 0.0033 0.76886c-0.11654 0.33443-1.0013 0.9064-0.28755 1.8866s4.1827 4.6041 4.1827 4.6041l-1.6225 1.8914-3.892-4.3407s-1.0419-0.57241-1.8698 0.35067c-0.82792 0.92308-0.83771 1.128-0.83771 1.128z" fill="#fff"/></svg>
