<?xml version="1.0" encoding="UTF-8"?>
<svg version="1.1" viewBox="0 0 48 48" xmlns="http://www.w3.org/2000/svg">
    <path d="m28.722 10.621c-1.4948 0-2.6982 1.2034-2.6982 2.6982v10.343c0 0.99654-0.80227 1.7988-1.7988 1.7988h-0.4497c-0.99654 0-1.7988-0.80227-1.7988-1.7988v-7.4755c0-1.4948-1.2034-2.6982-2.6982-2.6982-1.4948 0-2.6982 1.2034-2.6982 2.6982v15.12c0 0.99654-0.80227 1.7988-1.7988 1.7988h-0.4497c-0.99654 0-1.7988-0.80227-1.7988-1.7988v-14.84c0-1.4948-1.2034-2.6982-2.6982-2.6982-1.4948 0-2.6982 1.2034-2.6982 2.6982v4.9467c0 0.99654-0.80227 1.7988-1.7988 1.7988h-0.22485v17.089c0 1.4948 1.2034 2.6982 2.6982 2.6982h32.379c1.4948 0 2.6982-1.2034 2.6982-2.6982v-18.888c0-0.20976-0.03148-0.41043-0.07642-0.60605h-0.14844c-0.99654 0-1.7988-0.80227-1.7988-1.7988v-5.6898c0-1.4948-1.2034-2.6982-2.6982-2.6982-1.4948 0-2.6982 1.2034-2.6982 2.6982v5.3964h-0.0202c-0.10253 0.89781-0.85248 1.5933-1.7786 1.5933h-0.4497c-0.92614 0-1.6761-0.69548-1.7786-1.5933h-0.0202v-5.3964c0-1.4948-1.2034-2.6982-2.6982-2.6982z" fill="#fff" style="paint-order:stroke markers fill"/>
    <rect x="5.1124" y="5" width="37.775" height="3.3728" rx="1.3491" fill="#fff" style="paint-order:stroke markers fill"/>
</svg>
