<?xml version="1.0" encoding="UTF-8"?>
<svg version="1.1" viewBox="0 0 48 48" xmlns="http://www.w3.org/2000/svg">
    <defs>
        <style>.cls-1{fill:#fff;}</style>
    </defs>
    <path class="cls-1" d="m37.588 28.548a3.2419 3.2419 0 0 0-2.4824 1.1393l-0.75954-0.44461v-10.485l0.75954-0.44461a3.2605 3.2605 0 0 0 2.4639 1.1393 3.2975 3.2975 0 1 0-3.2975-3.2975 3.2697 3.2697 0 0 0 0.18525 1.0467l-0.75954 0.44461-9.0867-5.2427v-0.87069a3.2975 3.2975 0 1 0-1.2782 0v0.87069l-9.0681 5.2427-0.75954-0.44461a3.2234 3.2234 0 0 0 0.18525-1.0467 3.2975 3.2975 0 1 0-3.2975 3.2975 3.2419 3.2419 0 0 0 2.4824-1.1393l0.75954 0.44461v10.485l-0.75954 0.43534a3.2697 3.2697 0 0 0-2.4639-1.13 3.2975 3.2975 0 1 0 3.2975 3.2975 3.2234 3.2234 0 0 0-0.18525-1.0467l0.75954-0.44461 9.0867 5.2427v0.87069a3.2975 3.2975 0 1 0 1.2782 0v-0.87069l9.0867-5.2427 0.75954 0.44461a3.2234 3.2234 0 0 0-0.18525 1.0467 3.2975 3.2975 0 1 0 3.2975-3.2975zm-11.921 0.37977h-3.1122v-9.7258h3.1122z"/>
</svg>
