<?xml version="1.0" encoding="UTF-8"?>
<svg version="1.1" viewBox="0 0 48 48" xmlns="http://www.w3.org/2000/svg">
    <defs>
        <style>.cls-1{fill:#fff;}</style>
    </defs>
    <path d="m7 5c-1.108 0-2 0.892-2 2v34c0 1.108 0.892 2 2 2h34c1.108 0 2-0.892 2-2v-34c0-1.108-0.892-2-2-2zm16.984 1.5a3.0372 3.0372 0 0 1 0.57812 6.0176v0.80078l8.3691 4.8301 0.70117-0.41016a3.0116 3.0116 0 0 1-0.17187-0.96484 3.0372 3.0372 0 1 1 3.0371 3.0371 3.003 3.003 0 0 1-2.2695-1.0488l-0.69922 0.41016v9.6562l0.69922 0.41016a2.986 2.986 0 0 1 2.2871-1.0488h0.01758a3.0372 3.0372 0 1 1-3.0371 3.0371 2.9689 2.9689 0 0 1 0.16992-0.96484l-0.69922-0.41016-8.3691 4.8301v0.80078a3.0372 3.0372 0 1 1-1.1777 0v-0.80078l-8.3691-4.8301-0.69922 0.41016a2.9689 2.9689 0 0 1 0.16992 0.96484 3.0372 3.0372 0 1 1-3.0371-3.0371 3.0116 3.0116 0 0 1 2.2695 1.041l0.69922-0.40234v-9.6562l-0.69922-0.41016a2.986 2.986 0 0 1-2.2871 1.0488 3.0372 3.0372 0 1 1 3.0371-3.0371 2.9689 2.9689 0 0 1-0.16992 0.96484l0.69922 0.41016 8.3516-4.8301v-0.80078a3.0372 3.0372 0 0 1 0.59961-6.0176zm-1.3145 13.08v8.959h2.8652v-8.959z" fill="#fff"/>
</svg>
