<?xml version="1.0" encoding="UTF-8"?>
<svg version="1.1" viewBox="0 0 48 48" xmlns="http://www.w3.org/2000/svg">
    <path d="m24.271 5a6.8558 6.6266 0 0 0-6.8544 6.6256 6.8558 6.6266 0 0 0 1.0236 3.4759l-2.7569 2.9688a6.8558 6.6266 0 0 0-3.8269-1.1303 6.8558 6.6266 0 0 0-6.856 6.6271 6.8558 6.6266 0 0 0 6.856 6.6256 6.8558 6.6266 0 0 0 6.5823-4.7809h10.927a6.8558 6.6266 0 0 0 0.94783 2.4956l-2.7569 2.9688a6.8558 6.6266 0 0 0-3.8254-1.1303 6.8558 6.6266 0 0 0-6.856 6.6271 6.8558 6.6266 0 0 0 6.856 6.6271 6.8558 6.6266 0 0 0 6.8544-6.6271 6.8558 6.6266 0 0 0-0.89217-3.2672l2.8327-3.0507a6.8558 6.6266 0 0 0 3.6197 1.0035 6.8558 6.6266 0 0 0 6.8544-6.6271 6.8558 6.6266 0 0 0-6.8544-6.6256 6.8558 6.6266 0 0 0-6.2839 3.9877h-11.405a6.8558 6.6266 0 0 0-0.63859-1.4937l2.8342-3.0522a6.8558 6.6266 0 0 0 3.6182 1.005 6.8558 6.6266 0 0 0 6.856-6.6271 6.8558 6.6266 0 0 0-6.856-6.6256zm0.1175 3.7681a3.2031 3.096 0 0 1 3.2038 3.0955 3.2031 3.096 0 0 1-3.2038 3.0955 3.2031 3.096 0 0 1-3.2022-3.0955 3.2031 3.096 0 0 1 3.2022-3.0955zm-12.415 11.94a3.2031 3.096 0 0 1 3.2038 3.0955 3.2031 3.096 0 0 1-3.2038 3.0971 3.2031 3.096 0 0 1-3.2022-3.0971 3.2031 3.096 0 0 1 3.2022-3.0955zm24.288 0.86589a3.2031 3.096 0 0 1 3.2038 3.0955 3.2031 3.096 0 0 1-3.2038 3.0971 3.2031 3.096 0 0 1-3.2022-3.0971 3.2031 3.096 0 0 1 3.2022-3.0955zm-12.415 11.941a3.2031 3.096 0 0 1 3.2038 3.0955 3.2031 3.096 0 0 1-3.2038 3.0955 3.2031 3.096 0 0 1-3.2022-3.0955 3.2031 3.096 0 0 1 3.2022-3.0955z" fill="#fff" stroke-linecap="round" stroke-linejoin="bevel" stroke-width="3.7795"/>
</svg>
