<?xml version="1.0" encoding="UTF-8"?>
<svg version="1.1" viewBox="0 0 48 48" xmlns="http://www.w3.org/2000/svg">
    <path d="m7.8575 4.0008c-1.1909 0.0352-1.2378 1.1542-1.9384 3.5585-0.76674 2.631-3.6221 20.553 0 24.046 1.9898 2.2152 14.474 12.395 18.111 12.395 3.6368 0 15.5-9.7472 18.111-12.395 3.6221-3.6221 0.5312-20.824 0-24.046-1.6642-10.094-10.519 5.1771-15.403 11.438-1.4159 1.815-0.65235 1.1231-2.7078 1.1231s-1.1093 0.56913-2.7997-1.1213c-4.2515-4.2515-9.6758-15.107-13.373-14.998zm10.532 24.936c1.0002 0 1.8111 0.81084 1.8111 1.8111s-0.81084 1.8111-1.8111 1.8111-1.8111-0.81084-1.8111-1.8111 0.81084-1.8111 1.8111-1.8111zm11.28 0c1.0002 0 1.8111 0.81084 1.8111 1.8111s-0.81084 1.8111-1.8111 1.8111-1.8111-0.81084-1.8111-1.8111 0.81084-1.8111 1.8111-1.8111zm-5.6401 10.573c0.75017 0 1.3583 0.60813 1.3583 1.3583s-0.60813 1.3583-1.3583 1.3583-1.3583-0.60813-1.3583-1.3583 0.60813-1.3583 1.3583-1.3583z" fill="#fff" stroke-width="1.1319"/>
</svg>
