<?xml version="1.0" encoding="UTF-8"?>
<svg version="1.1" viewBox="0 0 48 48" xml:space="preserve" xmlns="http://www.w3.org/2000/svg"><path d="m28.307 9.645c-2.3678 9e-7 -4.735 4.1019-9.4707 12.304-0.38456 0.66608-0.66995 1.1742-1.018 1.7805l5.6894 9.5262c0.40346 0.67453 0.18291 1.5485-0.49232 1.9508-0.67413 0.4022-1.5467 0.18179-1.9489-0.49232l-4.8677-8.1529c-0.0018 0.0032-0.0038 0.0079-0.0056 0.01111-3.6446-6.0955-4.1862-5.1797-8.7785 2.7744-5.1998 9.0063-5.1988 9.008 5.2008 9.008h15.691c18.943 0 18.944-9.23e-4 9.4725-16.406-4.7356-8.2024-7.1046-12.304-9.4725-12.304z" fill="#fff" stroke-width="1.7261"/></svg>
