<?xml version="1.0" encoding="UTF-8"?>
<svg version="1.1" viewBox="0 0 48 48" xml:space="preserve" xmlns="http://www.w3.org/2000/svg"><path d="m15.667 4c-1.8467 0-3.3333 1.4867-3.3333 3.3333v33.333c0 1.8467 1.4867 3.3333 3.3333 3.3333h16.667c1.8467 0 3.3333-1.4867 3.3333-3.3333v-33.333c0-1.8467-1.4867-3.3333-3.3333-3.3333zm0.76172 4.8796h15.143c0.36933 0 0.66732 0.29798 0.66732 0.66732v29.857c0 0.36933-0.29798 0.66732-0.66732 0.66732h-15.143c-0.36933 0-0.66732-0.29798-0.66732-0.66732v-29.857c0-0.36933 0.29798-0.66732 0.66732-0.66732zm6.3997 6.5365c-0.36933 0-0.66406 0.29473-0.66406 0.66406v8.2096h-4.9674l6.8034 6.8034 6.8034-6.8034h-4.9674v-8.2096c0-0.36933-0.29473-0.66406-0.66406-0.66406z" fill="#fff" stroke-width="1.6667"/></svg>
