<?xml version="1.0" encoding="UTF-8"?>
<svg version="1.1" viewBox="0 0 48 48" xmlns="http://www.w3.org/2000/svg">
  <path fill="#fff" d="M5.906 16.207c-.945.012-1.962.036-3.064.074a.268.268 0 0 0-.26.268.268.268 0 0 0 .055.16s.178.243.427.498c.25.255.549.544.936.615 3.57.657 9.184 1.863 13.186 5.399 3.591 3.173 4.28 5.85 4.418 6.625.003.02 0 .058-.094.156a2.336 2.336 0 0 1-.492.355c-.452.26-1.108.544-1.809.862-1.401.635-2.995 1.358-3.588 2.494a.268.268 0 0 0 .078.342c.187.135.391.15.658.164.268.014.597.005.99-.016.788-.042 1.825-.132 3.05-.2 2.073-.113 4.296.225 7.078.009 1.31-.102 2.647-.803 3.925-1.637 1.279-.834 2.499-1.807 3.524-2.484.113-.075.438-.11.84-.086.401.023.868.078 1.314.047a.268.268 0 0 0 .117-.5c-.73-.425-1.546-.878-2.496-.971-.54-.602-1.172-.935-1.826-1.05-.502-.09-1-.073-1.496-.077 4.435-5.595 9.87-6.665 13.836-7.625a.268.268 0 0 0 .07-.494c-.234-.136-.535-.175-.953-.196a10.62 10.62 0 0 0-1.547.057c-1.211.122-2.755.42-4.428.945-3.344 1.05-7.195 3.016-9.814 6.366-.327.418-.621.601-.88.648-.26.047-.525-.032-.837-.246-.623-.429-1.34-1.404-2.111-2.559-1.541-2.31-3.322-5.355-5.842-6.265-3.308-1.196-6.35-1.76-12.965-1.678z"/>
</svg>
