<?xml version="1.0" encoding="UTF-8"?>
<svg version="1.1" viewBox="0 0 48 48" xml:space="preserve" xmlns="http://www.w3.org/2000/svg"><path d="m14.772 6.0081a10.772 10.772 0 0 0-10.772 10.772 10.772 10.772 0 0 0 10.772 10.772 10.772 10.772 0 0 0 10.772-10.772 10.772 10.772 0 0 0-10.772-10.772zm26.236 6.9873a2.9922 2.9922 0 0 0-2.9922 2.9922 2.9922 2.9922 0 0 0 2.9922 2.9922 2.9922 2.9922 0 0 0 2.9922-2.9922 2.9922 2.9922 0 0 0-2.9922-2.9922zm-8.3595 4.2289a4.7876 4.7876 0 0 0-4.7876 4.7876 4.7876 4.7876 0 0 0 4.7876 4.7876 4.7876 4.7876 0 0 0 4.7876-4.7876 4.7876 4.7876 0 0 0-4.7876-4.7876zm0.13792 12.799a5.9845 5.9845 0 0 0-5.9845 5.9845 5.9845 5.9845 0 0 0 5.9845 5.9845 5.9845 5.9845 0 0 0 5.9845-5.9845 5.9845 5.9845 0 0 0-5.9845-5.9845z" fill="#fff" stroke-linecap="round" stroke-width="4.4796"/></svg>
