<svg xmlns="http://www.w3.org/2000/svg" xml:space="preserve" viewBox="0 0 48 48"><path fill="#fff" d="M7 5c-1.108 0-2 .892-2 2v34c0 1.11.892 2 2 2h34c1.11 0 2-.89 2-2V7c0-1.108-.89-2-2-2Zm18.113 5.175c.618-.203 1.103.062 1.342.244.096.073.233.213.319.299l6.102 6.093c.085.085.205.239.252.35.134.319.31.977-.16 1.585a2.05 2.05 0 0 1-.307.309c-.62.479-1.335.278-1.673.136a1.33 1.33 0 0 1-.35-.25l-3.43-3.447a.09.09 157.56 0 0-.155.064l.004 16.177c0 .12-.003.318-.035.434a1.496 1.496 0 0 1-.235.472c-.071.097-.21.236-.295.321l-4.536 4.5c-.086.085-.231.218-.338.273-.124.064-.31.133-.557.153-.12.01-.316.003-.435-.018a1.342 1.342 0 0 1-.56-.235c-.097-.07-.23-.215-.316-.3l-4.392-4.364c-.086-.085-.226-.223-.3-.317-.132-.167-.311-.447-.347-.771-.013-.12.009-.316.04-.433a2.15 2.15 0 0 1 .372-.736c.073-.096.21-.236.296-.321l4.42-4.403a1.57 1.57 0 0 1 .346-.263c.314-.152.975-.356 1.647.145.096.072.24.205.317.298.547.662.236 1.418.043 1.76-.06.104-.187.252-.273.337l-3.315 3.3a.218.218 90.086 0 0 0 .309l2.151 2.155a.219.219.027 0 0 .31 0l2.777-2.776a.528.528 112.503 0 0 .155-.374l-.003-18.959c0-.12-.006-.317.009-.437a1.52 1.52 0 0 1 .716-1.123c.102-.064.191-.105.191-.105z" style="opacity:1"/></svg>