<?xml version="1.0" encoding="UTF-8"?>
<svg viewBox="0 0 48 48" xmlns="http://www.w3.org/2000/svg">
  <path fill="#fff" d="M38.903 4.147a1.48 1.48 0 0 0-.564.123c-10.03 4.4-16.66 8.877-20.85 13.2h-4.821a1.48 1.48 0 0 0-1.48 1.48 1.48 1.48 0 0 0 1.48 1.478h2.306a22.588 22.588 0 0 0-1.02 1.505H9.37a1.48 1.48 0 0 0-1.48 1.48 1.48 1.48 0 0 0 1.48 1.479h3.071a16.713 16.713 0 0 0-.544 1.563H6.979A1.48 1.48 0 0 0 5.5 27.934a1.48 1.48 0 0 0 1.48 1.48h4.357c-.302 3.5.72 6.552 2.13 8.874 1.473 2.427 3.285 4.078 4.823 4.882a1.48 1.48 0 0 0 1.948-.541l14.84-24.339a1.48 1.48 0 0 0-.494-2.032 1.48 1.48 0 0 0-2.032.493L18.563 39.694a11.579 11.579 0 0 1-2.565-2.941c-1.182-1.948-2.004-4.44-1.689-7.339h5.102a1.48 1.48 0 0 0 1.479-1.48 1.48 1.48 0 0 0-1.479-1.479h-4.398c.186-.51.413-1.03.678-1.563h6.112a1.48 1.48 0 0 0 1.48-1.479 1.48 1.48 0 0 0-1.48-1.48h-4.26c.373-.495.78-.997 1.232-1.505H25.1a1.48 1.48 0 0 0 1.479-1.479 1.48 1.48 0 0 0-1.48-1.479h-3.303c3.88-3.354 9.561-6.907 17.731-10.491a1.48 1.48 0 0 0 .762-1.95 1.48 1.48 0 0 0-.818-.782 1.48 1.48 0 0 0-.568-.1Zm-1.308 15.662a1.48 1.48 0 0 0-1.079.344 1.48 1.48 0 0 0-.176 2.085l2.704 3.2-1.833 1.969a1.48 1.48 0 0 0 .074 2.092 1.48 1.48 0 0 0 2.09-.076l2.728-2.927a1.48 1.48 0 0 0 .047-1.964l-3.548-4.203a1.48 1.48 0 0 0-1.007-.52zm-2.598 4.235a1.388 1.382 0 0 0-1.388 1.382 1.388 1.382 0 0 0 1.388 1.382 1.388 1.382 0 0 0 1.387-1.382 1.388 1.382 0 0 0-1.387-1.382zm-4.413 9.933a1.48 1.48 0 0 0-1.479 1.479 1.48 1.48 0 0 0 1.48 1.478h6.582a1.48 1.48 0 0 0 1.479-1.478 1.48 1.48 0 0 0-1.48-1.479zm-4.053 6.92a1.48 1.48 0 0 0-1.479 1.478 1.48 1.48 0 0 0 1.48 1.479h12.736a1.48 1.48 0 0 0 1.48-1.479 1.48 1.48 0 0 0-1.48-1.479z"/>
</svg>
