<?xml version="1.0" encoding="UTF-8" standalone="no"?>
<!-- Created with Inkscape (http://www.inkscape.org/) -->

<svg
   width="48"
   height="48"
   viewBox="0 0 48 48"
   version="1.1"
   id="svg1"
   xml:space="preserve"
   xmlns="http://www.w3.org/2000/svg"
   xmlns:svg="http://www.w3.org/2000/svg"><defs
     id="defs1" /><path
     id="path5"
     style="fill:#ffffff;fill-opacity:1;stroke:none;stroke-width:1;stroke-linecap:round;stroke-linejoin:round;stroke-miterlimit:0;stroke-dasharray:none;paint-order:stroke fill markers"
     d="M 28.664639,21.349371 18.016403,31.997607 V 44 H 39.312875 V 31.997607 Z m 0,3.061367 7.986177,7.986178 v 8.541716 H 20.678462 v -8.541716 z" /><path
     id="path14"
     style="fill:#ffffff;fill-opacity:1;stroke:none;stroke-width:1;stroke-linecap:round;stroke-linejoin:round;stroke-miterlimit:0;stroke-dasharray:none;paint-order:stroke fill markers"
     d="M 17.060547 11.269531 L 8.6875 19.642578 L 8.6875 29.080078 L 19.933594 29.080078 L 22.339844 26.673828 L 10.78125 26.673828 L 10.78125 19.957031 L 17.060547 13.675781 L 23.339844 19.957031 L 23.339844 25.673828 L 25.433594 23.580078 L 25.433594 19.642578 L 17.060547 11.269531 z " /><path
     id="path15"
     style="fill:#ffffff;fill-opacity:1;stroke:none;stroke-width:1;stroke-linecap:round;stroke-linejoin:round;stroke-miterlimit:0;stroke-dasharray:none;paint-order:stroke fill markers"
     d="M 28.574219 4 L 21.248047 11.326172 L 21.248047 14.648438 L 23.078125 16.478516 L 23.078125 11.601562 L 28.574219 6.1054688 L 34.068359 11.601562 L 34.068359 17.478516 L 24.078125 17.478516 L 26.1875 19.585938 L 35.900391 19.585938 L 35.900391 11.326172 L 28.574219 4 z " /></svg>
