<?xml version="1.0" encoding="UTF-8" standalone="no"?>
<svg
   viewBox="0 0 48 48"
   version="1.1"
   id="svg6"
   xmlns="http://www.w3.org/2000/svg"
   xmlns:svg="http://www.w3.org/2000/svg">
  <defs
     id="defs1">
    <style
       id="style1">.a{fill:none;stroke:#fff;stroke-linecap:round;stroke-linejoin:round;}</style>
  </defs>
  <path
     id="path1"
     style="color:#000000;fill:#ffffff;stroke:none;stroke-linecap:round;stroke-linejoin:round;-inkscape-stroke:none"
     d="M 22.822205,4.352552 C 19.300582,4.4039909 14.839147,5.238764 11.076111,8.3701301 7.3405375,11.478644 4.6348299,15.917739 4.0956419,20.633802 3.5662767,25.263955 5.1819345,30.151886 9.8944701,34.131849 l -0.6035156,1.958984 c 0,0 -0.2713653,0.700836 0.017578,1.503907 0.2889436,0.803064 1.1325725,1.657533 2.9589845,2.109375 l 6.867188,1.841796 h 0.002 l 6.867187,1.839844 c 0.0016,4.5e-4 0.0023,-4.49e-4 0.0039,0 l 0.0059,0.002 c 1.801076,0.517148 2.958935,0.200122 3.609375,-0.349609 0.651873,-0.550943 0.767578,-1.292969 0.767578,-1.292969 l 0.457031,-2 c 6.07047,-1.090539 9.912939,-4.514775 11.769532,-8.789062 1.891078,-4.353934 1.768668,-9.551533 0.08781,-14.111375 C 39.318407,7.6579067 28.914002,5.0302864 28.914002,5.0302864 28.896743,5.0254073 26.331995,4.3012865 22.822205,4.352552 Z m -2.490235,13.263674 2.320313,4.019531 c 0.13837,0.239428 0.05611,0.545707 -0.183594,0.683594 -0.238992,0.137041 -0.543808,0.05494 -0.681641,-0.183594 l -2.322265,-4.019531 c -0.137041,-0.238992 -0.05494,-0.543808 0.183594,-0.681641 0.236448,-0.138229 0.544157,-0.05861 0.683593,0.181641 z m -5.882812,1.351561 c 3.093595,0 5.611328,2.517733 5.611328,5.611328 0,3.093595 -2.517733,5.613281 -5.611328,5.613281 -3.093595,0 -5.6132817,-2.519686 -5.6132817,-5.613281 0,-3.093595 2.5196867,-5.611328 5.6132817,-5.611328 z m 16.287109,1.435546 c 0.13837,0.239428 0.05611,0.545706 -0.183593,0.683594 l -4.019532,2.320313 c -0.239428,0.13837 -0.545707,0.05611 -0.683594,-0.183594 -0.137041,-0.238992 -0.05494,-0.543808 0.183594,-0.681641 l 4.019532,-2.320312 c 0.248932,-0.145548 0.55148,-0.04599 0.683593,0.18164 z m 0.929688,3.177735 c 3.093601,0 5.613281,2.517727 5.613281,5.611328 0,3.093601 -2.51968,5.613281 -5.613281,5.613281 -3.093601,0 -5.611328,-2.51968 -5.611328,-5.613281 0,-3.093601 2.517727,-5.611328 5.611328,-5.611328 z m -8.769531,5.820312 1.18164,4.410157 c 0.09812,0.370788 -0.240535,0.709448 -0.611328,0.611328 L 19.05658,33.241224 c -0.370586,-0.100706 -0.494049,-0.564241 -0.222656,-0.835937 l 3.226562,-3.226563 c 0.261749,-0.263237 0.733604,-0.159084 0.835938,0.222656 z" />
</svg>
