<svg xmlns="http://www.w3.org/2000/svg" xml:space="preserve" viewBox="0 0 48 48"><path d="M29.289 26.719v-7.81M18.674 26.719v-7.81M14.068 26.719h19.927M9.572 18.909H38.24" style="fill:#fff;fill-opacity:1;stroke:#fff;stroke-opacity:1"/><path d="M38.105 15.863c0 7.807-6.328 14.135-14.134 14.135-7.807 0-14.135-6.328-14.135-14.135H7.388A2.388 2.388 135 0 0 5 18.252v13.567a2.388 2.388 45 0 0 2.388 2.388h33.224A2.388 2.388 135 0 0 43 31.819V18.252a2.388 2.388 45 0 0-2.388-2.389z" style="fill:#fff;fill-opacity:1;stroke:none"/><path d="M28.21 18.908h-8.46c.452 1.753 2.206 2.997 4.23 3.002 2.025-.005 3.778-1.249 4.23-3.002z" style="fill:#fff;fill-opacity:1;stroke:#fff;stroke-width:.922077;stroke-opacity:1"/></svg>