<?xml version="1.0" encoding="UTF-8" standalone="no"?>
<!-- Created with Inkscape (http://www.inkscape.org/) -->

<svg
   width="48"
   height="48"
   viewBox="0 0 48 48"
   version="1.1"
   id="svg1"
   xml:space="preserve"
   xmlns="http://www.w3.org/2000/svg"
   xmlns:svg="http://www.w3.org/2000/svg"><defs
     id="defs1" /><path
     id="path1"
     style="fill:#ffffff;fill-opacity:1;stroke-width:1;stroke-linecap:round;stroke-linejoin:round;stroke-miterlimit:0;paint-order:stroke fill markers;stroke:none;stroke-dasharray:none"
     d="M 30.420534,4.2655959 C 27.705577,4.1634889 24.534203,4.7228109 20.863542,6.1520549 12.59859,9.3701749 3.1215109,15.145656 4.0652199,25.64247 5.1933109,38.190145 14.818869,41.342477 20.483201,42.967329 33.398224,46.672092 41.117878,36.524155 43.496363,25.950105 45.380028,17.575877 42.185345,4.7080569 30.420534,4.2655959 Z M 22.585825,10.00667 c 0.737312,0.01823 1.508157,0.07575 2.313708,0.175121 11.974076,1.477083 18.47208,6.014804 15.518532,17.874456 -1.628448,6.538849 -12.073493,12.111492 -19.212881,12.111492 -7.139388,0 -13.1962251,-8.888236 -13.1962241,-15.626811 0,-6.317413 3.5171911,-14.8077301 14.5768651,-14.534258 z" /><path
     id="path3"
     style="fill:#ffffff;fill-opacity:1;stroke:none;stroke-width:1;stroke-linecap:round;stroke-linejoin:round;stroke-miterlimit:0;stroke-dasharray:none;stroke-opacity:1;paint-order:stroke fill markers"
     d="M 23.475419,15.158346 A 10.006912,10.006912 0 0 0 13.468507,25.165258 10.006912,10.006912 0 0 0 23.475419,35.17217 10.006912,10.006912 0 0 0 33.482331,25.165258 10.006912,10.006912 0 0 0 23.475419,15.158346 Z m 0.788826,5.870461 c 1.496845,0.0113 2.941258,0.723439 3.853834,1.979492 a 0.80055296,0.80055296 0 0 1 -0.177075,1.118351 0.80055296,0.80055296 0 0 1 -1.118351,-0.177467 c -0.814224,-1.120683 -2.247619,-1.589522 -3.566917,-1.167212 -1.319297,0.422311 -2.213668,1.63643 -2.225756,3.021618 -0.01209,1.385188 0.860868,2.615046 2.172595,3.060317 1.311726,0.445271 2.753193,0.0012 3.586852,-1.10506 a 0.80055296,0.80055296 0 0 1 1.121087,-0.157531 0.80055296,0.80055296 0 0 1 0.157531,1.121087 c -1.245812,1.653247 -3.419658,2.322804 -5.379888,1.657395 -1.96023,-0.665409 -3.277348,-2.520269 -3.259283,-4.59028 0.01807,-2.070011 1.36709,-3.901331 3.338634,-4.532427 0.492886,-0.157775 0.997789,-0.232049 1.496737,-0.228283 z" /></svg>
