<?xml version="1.0" encoding="UTF-8" standalone="no"?>
<svg
   viewBox="0 0 48 48"
   version="1.1"
   id="svg1"
   xml:space="preserve"
   xmlns="http://www.w3.org/2000/svg"
   xmlns:svg="http://www.w3.org/2000/svg"><defs
     id="defs1" /><path
     id="path1"
     style="fill:#ffffff"
     d="M 7 5 C 5.8920044 5 5 5.8920044 5 7 L 5 11 L 6.5 11 C 6.7769991 11 7 11.223 7 11.5 L 7 36.5 C 7 36.777 6.7769991 37 6.5 37 L 5 37 L 5 41 C 5 42.107996 5.8920044 43 7 43 L 11 43 L 11 41.5 C 11 41.223 11.223 41 11.5 41 L 36.5 41 C 36.777 41 37 41.223 37 41.5 L 37 43 L 41 43 C 42.107996 43 43 42.107996 43 41 L 43 37 L 41.5 37 C 41.223 37 41 36.777 41 36.5 L 41 11.5 C 41 11.223 41.223 11 41.5 11 L 43 11 L 43 7 C 43 5.8920044 42.107996 5 41 5 L 37 5 L 37 6.5 C 37 6.7769994 36.777 7 36.5 7 L 11.5 7 C 11.223 7 11 6.7769994 11 6.5 L 11 5 L 7 5 z M 18 16 L 30 16 C 31.107996 16 32 16.892004 32 18 L 32 30 C 32 31.107996 31.107996 32 30 32 L 18 32 C 16.892004 32 16 31.107996 16 30 L 16 18 C 16 16.892004 16.892004 16 18 16 z " /><rect
     style="fill:#ffffff;stroke-linecap:round;stroke-linejoin:round;stroke-miterlimit:0;paint-order:stroke fill markers"
     id="rect1"
     width="4"
     height="24"
     x="42"
     y="12"
     rx="0.5"
     ry="0.5" /><rect
     style="fill:#ffffff;stroke-linecap:round;stroke-linejoin:round;stroke-miterlimit:0;paint-order:stroke fill markers"
     id="rect2"
     width="4"
     height="24"
     x="2"
     y="12"
     rx="0.5"
     ry="0.5" /><rect
     style="fill:#ffffff;stroke-linecap:round;stroke-linejoin:round;stroke-miterlimit:0;paint-order:stroke fill markers"
     id="rect3"
     width="4"
     height="24"
     x="2"
     y="-36"
     rx="0.5"
     ry="0.5"
     transform="rotate(90)" /><rect
     style="fill:#ffffff;stroke-linecap:round;stroke-linejoin:round;stroke-miterlimit:0;paint-order:stroke fill markers"
     id="rect4"
     width="4"
     height="24"
     x="42"
     y="-36"
     rx="0.5"
     ry="0.5"
     transform="rotate(90)" /></svg>
