<?xml version="1.0" encoding="UTF-8"?>
<svg viewBox="0 0 48 48" xmlns="http://www.w3.org/2000/svg">
  <path fill="#fff" d="M18.325 7.767a.537.537 0 0 0-.164.002 33.826 33.826 0 0 0-8.6 2.646.529.529 0 0 0-.215.185c-5.425 8-6.905 15.871-6.17 23.586a.52.52 0 0 0 .211.375c3.588 2.607 7.069 4.594 10.526 5.654a.526.526 0 0 0 .578-.19 25.764 25.764 0 0 0 2.261-3.656.527.527 0 0 0-.286-.733c-.945-.353-2.302-1.237-3.404-1.911.125-.068.279-.236.375-.367a.924.924 0 0 0 .188-.366c3.338 1.456 6.86 2.223 10.375 2.259 3.514-.036 7.037-.803 10.375-2.26a.924.924 0 0 0 .188.367c.096.13.25.299.374.367-1.101.674-2.458 1.558-3.403 1.91a.527.527 0 0 0-.286.734 25.764 25.764 0 0 0 2.26 3.656c.133.18.365.256.579.19 3.457-1.06 6.938-3.047 10.526-5.654a.523.523 0 0 0 .212-.375c.733-7.715-.747-15.585-6.171-23.586a.529.529 0 0 0-.214-.185 33.827 33.827 0 0 0-8.6-2.646.529.529 0 0 0-.552.266c-.305.556-.641 1.26-.927 1.896a32.656 32.656 0 0 0-8.722 0 28.628 28.628 0 0 0-.927-1.896.528.528 0 0 0-.387-.268Zm-1.111 13.476c2.048 0 3.724 1.842 3.683 4.098 0 2.255-1.635 4.097-3.683 4.097-2.029 0-3.684-1.842-3.684-4.097 0-2.256 1.614-4.098 3.684-4.098Zm13.572 0c2.07 0 3.684 1.842 3.684 4.098 0 2.255-1.655 4.097-3.684 4.097-2.048 0-3.683-1.842-3.683-4.097-.042-2.256 1.635-4.098 3.683-4.098Z"/>
</svg>
