<?xml version="1.0" encoding="UTF-8"?>
<svg viewBox="0 0 48 48" xmlns="http://www.w3.org/2000/svg">
  <path fill="#fff" d="M23.997 14.948 11.955 29.48l12.042 14.532L36.039 29.48Zm0 4 8.727 10.532-8.727 10.532L15.27 29.48Z"/>
  <path fill="#fff" d="M23.996 4.027 11.956 18.56l12.04 14.533 10.885-13.135-1.317-1.396c-1.098-1.167-2.451-2.625-2.916-3.262-.724-.994.173-1.576.291-1.914.111-.32-.002-.78-.002-.78l-4.54 5.31.154 1.07s.01-.21.85-1.145c.84-.936 1.896-.356 1.896-.356l2.244 2.502-7.545 9.106-8.727-10.531 8.522-10.288 2.932 3.48.691-.667c-1.675-1.481-2.685-3.498-1.602-4.875Z"/>
</svg>
