<?xml version="1.0" encoding="UTF-8"?>
<svg version="1.1" viewBox="0 0 48 48" xml:space="preserve" xmlns="http://www.w3.org/2000/svg"><path transform="matrix(.63806 .76998 -.63806 .76998 0 0)" d="m28.5-9.1133v18.879h18.879v-18.879zm2.5957 2.5957h13.686v13.686h-13.686z" color="#000000" fill="#fff" stroke-width="1"/><path d="m26.401 17.894 4.5415-5.3128s0.1145 0.46157 0.0033 0.78027c-0.11827 0.3394-1.0162 0.91985-0.29182 1.9146s4.2448 4.6724 4.2448 4.6724l-1.6466 1.9194-3.9498-4.4051s-1.0574-0.5809-1.8976 0.35587c-0.8402 0.93678-0.85014 1.1447-0.85014 1.1447z" fill="#fff"/><path d="m25.795 6.1951-2.073 1.9695 3.0001 3.5861 0.69485-0.6907c-3.2945-2.9689-1.6219-4.8649-1.6219-4.8649z" fill="#fff"/><path d="m32.752 18.538-8.7513 10.561-8.7513-10.561 10.545-12.342-1.7944-2.1947-12.029 14.537 12.03 14.515 10.898-13.104" color="#000000" fill="#fff"/></svg>
