<?xml version="1.0" encoding="UTF-8"?>
<svg viewBox="0 0 48 48" xmlns="http://www.w3.org/2000/svg">
  <path fill="#fff" d="M15.616 3.572a2.321 2.321 0 1 0-.221 4.638 2.321 2.321 0 0 0 .22-4.638Zm-4.06 3.522a1.11 1.11 0 1 0 .503 2.07 1.11 1.11 0 0 0-.504-2.07Zm8.013 0a1.11 1.11 0 1 0 .105 2.218 1.11 1.11 0 0 0-.105-2.218ZM7.444 8.29a2.321 2.321 0 1 0-.002 4.643 2.321 2.321 0 0 0 .002-4.643Zm16.238 0a2.321 2.321 0 1 0 .002 4.643 2.321 2.321 0 0 0-.002-4.643Zm-8.09 3.355a3.588 3.588 0 1 0 0 7.177 3.588 3.588 0 0 0 0-7.177Zm-8.148 2.477a1.11 1.11 0 1 0-.002 2.22 1.11 1.11 0 0 0 .002-2.22Zm16.238 0a1.11 1.11 0 1 0 .002 2.22 1.11 1.11 0 0 0-.002-2.22Zm0 3.41a2.321 2.321 0 1 0 .002 4.643 2.321 2.321 0 0 0-.002-4.643Zm-16.29.104a2.321 2.321 0 1 0 .219 4.637 2.321 2.321 0 0 0-.22-4.637Zm4.058 3.52a1.11 1.11 0 1 0 .107 2.217 1.11 1.11 0 0 0-.107-2.218Zm8.226 0a1.11 1.11 0 1 0-.105 2.219 1.11 1.11 0 0 0 .105-2.22Zm-3.945 1.099a2.322 2.322 0 1 0-.22 4.638 2.322 2.322 0 0 0 .22-4.638Zm16.25-.921a10.5 10.5 0 1 0 0 21c5.8 0 10.5-4.702 10.5-10.5a10.5 10.5 0 0 0-10.5-10.5Zm-2.18 2 1.217 1.317-.74 1.392-2.429 1.422-.948 3.14 4.206 1.333-4.502 6.826a8.783 8.783 0 0 1-1.344-1.29l-.67-5.655 2.31-1.214-3.287-1.429a8.782 8.782 0 0 1 6.186-5.842Zm6.085.646a8.783 8.783 0 0 1 2.807 2.204l-4.268.155Zm3.302 2.854a8.783 8.783 0 0 1 1.575 5 8.782 8.782 0 0 1-3.041 6.631l-.454-4.987-2.932-.83-.681-3.318Z"/>
</svg>
