<?xml version="1.0" encoding="UTF-8"?>
<svg viewBox="0 0 48 48" xmlns="http://www.w3.org/2000/svg">
  <g fill="#fff">
    <path d="M15.616 3.572a2.322 2.322 0 1 0-.221 4.638 2.322 2.322 0 0 0 .22-4.638Zm-4.061 3.522a1.11 1.11 0 1 0 .504 2.07 1.11 1.11 0 0 0-.504-2.07Zm8.016 0a1.11 1.11 0 1 0 .1 2.218 1.11 1.11 0 0 0-.1-2.218ZM7.444 8.29a2.321 2.321 0 1 0-.002 4.643 2.321 2.321 0 0 0 .002-4.643Zm16.238 0a2.322 2.322 0 1 0 .002 4.643 2.322 2.322 0 0 0-.002-4.643Zm-8.09 3.355a3.588 3.588 0 1 0 0 7.177 3.588 3.588 0 0 0 0-7.177Zm-8.148 2.477a1.11 1.11 0 1 0-.003 2.22 1.11 1.11 0 0 0 .003-2.22Zm16.238 0a1.11 1.11 0 1 0 .001 2.22 1.11 1.11 0 0 0-.001-2.22Zm0 3.41a2.322 2.322 0 1 0 .002 4.643 2.322 2.322 0 0 0-.002-4.643Zm-16.291.104a2.321 2.321 0 1 0 .22 4.637 2.321 2.321 0 0 0-.22-4.637Zm4.059 3.52a1.11 1.11 0 1 0 .107 2.217 1.11 1.11 0 0 0-.107-2.218Zm8.226 0a1.11 1.11 0 1 0-.105 2.218 1.11 1.11 0 0 0 .105-2.219Zm-3.945 1.099a2.321 2.321 0 1 0-.218 4.638 2.321 2.321 0 0 0 .218-4.638Z"/>
    <path d="M22.702 17.537a1.31 1.31 0 0 0-1.312 1.313v23.625a1.31 1.31 0 0 0 1.312 1.312h18.375a1.31 1.31 0 0 0 1.313-1.312V18.85a1.31 1.31 0 0 0-1.313-1.313h-1.326v5.265l-2.616-2.632-2.615 2.631v-5.264H22.702Zm3.93 12.44h10.514v2.016H26.632Zm0 3.937h7.232v2.016h-7.232Zm0 3.938h8.54v2.016h-8.54Z"/>
  </g>
</svg>
