<?xml version="1.0" encoding="UTF-8"?>
<svg viewBox="0 0 48 48" xmlns="http://www.w3.org/2000/svg">
  <path fill="#fff" d="M15.615 3.572a2.322 2.322 0 1 0-.22 4.638 2.322 2.322 0 0 0 .22-4.638Zm-4.06 3.522a1.11 1.11 0 1 0 .503 2.07 1.11 1.11 0 0 0-.504-2.07Zm8.013 0a1.11 1.11 0 1 0 .105 2.218 1.11 1.11 0 0 0-.105-2.218ZM7.443 8.29a2.321 2.321 0 1 0-.002 4.643 2.321 2.321 0 0 0 .002-4.643Zm16.238 0a2.322 2.322 0 1 0-.001 4.643 2.322 2.322 0 0 0 .001-4.643Zm-8.09 3.355a3.588 3.588 0 1 0 0 7.177 3.588 3.588 0 0 0 0-7.177Zm-8.148 2.477a1.11 1.11 0 1 0-.002 2.22 1.11 1.11 0 0 0 .002-2.22Zm16.238 0a1.11 1.11 0 1 0 .002 2.22 1.11 1.11 0 0 0-.002-2.22Zm0 3.41a2.321 2.321 0 1 0-.001 4.643 2.321 2.321 0 0 0 .001-4.643Zm-16.29.104a2.321 2.321 0 1 0 .219 4.637 2.321 2.321 0 0 0-.22-4.637Zm4.058 3.52a1.11 1.11 0 1 0 .107 2.217 1.11 1.11 0 0 0-.107-2.218Zm8.226 0a1.11 1.11 0 1 0-.105 2.218 1.11 1.11 0 0 0 .105-2.219Zm-3.945 1.099a2.321 2.321 0 1 0-.22 4.637 2.321 2.321 0 0 0 .22-4.637Zm12.417 1.726a.589.589 0 0 0-.589.59v1.836h-3.99a.993.993 0 0 0-.996.994v7.204c.132.041.279.083.447.126 1.438.362 4.243.748 9.507.748 5.264 0 8.071-.386 9.509-.748.168-.043.314-.084.446-.125v-7.205a.992.992 0 0 0-.995-.994h-3.991V24.57a.589.589 0 0 0-.59-.589Zm.589 1.178h7.58v1.248h-7.58Zm-6.164 10.79v5.39c0 .551.444.995.995.995h17.92a.992.992 0 0 0 .994-.995V35.95l-.129.035c-1.61.407-4.5.79-9.826.79-5.326 0-8.214-.383-9.824-.79-.048-.012-.085-.024-.13-.036Z"/>
</svg>
