<?xml version="1.0" encoding="UTF-8"?>
<svg viewBox="0 0 48 48" xmlns="http://www.w3.org/2000/svg">
  <path fill="#fff" d="M15.615 3.572a2.321 2.321 0 0 0-1.271.309 2.321 2.321 0 0 0-.85 3.172 2.321 2.321 0 0 0 3.172.85 2.321 2.321 0 0 0 .85-3.173 2.321 2.321 0 0 0-1.9-1.158zm-4.058 3.522a1.11 1.11 0 0 0-.61.146 1.11 1.11 0 0 0-.406 1.518 1.11 1.11 0 0 0 1.518.406 1.11 1.11 0 0 0 .406-1.518 1.11 1.11 0 0 0-.908-.552zm8.013 0a1.11 1.11 0 0 0-.91.552 1.11 1.11 0 0 0 .406 1.518 1.11 1.11 0 0 0 1.518-.406 1.11 1.11 0 0 0-.406-1.518 1.11 1.11 0 0 0-.608-.146zM7.443 8.29a2.321 2.321 0 0 0-2.322 2.322 2.321 2.321 0 0 0 2.322 2.323 2.321 2.321 0 0 0 2.323-2.323A2.321 2.321 0 0 0 7.443 8.29zm16.239 0a2.321 2.321 0 0 0-2.32 2.322 2.321 2.321 0 0 0 2.32 2.323 2.321 2.321 0 0 0 2.322-2.323 2.321 2.321 0 0 0-2.322-2.322zm-8.09 3.355a3.588 3.588 0 0 0-3.588 3.588 3.588 3.588 0 0 0 3.588 3.588 3.588 3.588 0 0 0 3.588-3.588 3.588 3.588 0 0 0-3.588-3.588zm-8.149 2.477a1.11 1.11 0 0 0-1.109 1.111 1.11 1.11 0 0 0 1.11 1.11 1.11 1.11 0 0 0 1.109-1.11 1.11 1.11 0 0 0-1.11-1.111zm16.239 0a1.11 1.11 0 0 0-1.11 1.111 1.11 1.11 0 0 0 1.11 1.11 1.11 1.11 0 0 0 1.111-1.11 1.11 1.11 0 0 0-1.111-1.111zm0 3.41a2.321 2.321 0 0 0-2.32 2.32 2.321 2.321 0 0 0 2.32 2.323 2.321 2.321 0 0 0 2.322-2.322 2.321 2.321 0 0 0-2.322-2.32zm-16.291.104a2.321 2.321 0 0 0-1.9 1.158 2.321 2.321 0 0 0 .849 3.17 2.321 2.321 0 0 0 3.172-.85 2.321 2.321 0 0 0-.85-3.17 2.321 2.321 0 0 0-1.271-.308zm4.058 3.52a1.11 1.11 0 0 0-.908.554 1.11 1.11 0 0 0 .406 1.516 1.11 1.11 0 0 0 1.518-.407 1.11 1.11 0 0 0-.406-1.515 1.11 1.11 0 0 0-.61-.149zm8.227 0a1.11 1.11 0 0 0-.61.148 1.11 1.11 0 0 0-.406 1.515 1.11 1.11 0 0 0 1.518.407 1.11 1.11 0 0 0 .406-1.516 1.11 1.11 0 0 0-.908-.555zm-3.946 1.099a2.321 2.321 0 0 0-1.27.308 2.321 2.321 0 0 0-.849 3.172 2.321 2.321 0 0 0 3.17.85 2.321 2.321 0 0 0 .85-3.172 2.321 2.321 0 0 0-1.9-1.158zm26.751 7.018a8.117 8.117 0 0 0-13.857-5.74 8.117 8.117 0 0 0-.861 10.406L21.703 40c-.22.22-.346.496-.386.78a1.36 1.36 0 0 0 1.541 1.541c.285-.04.56-.165.78-.385l6.039-6.04a8.117 8.117 0 0 0 10.427-.882 8.117 8.117 0 0 0 2.377-5.74zm-2.543 0a5.574 5.574 0 0 1-9.515 3.942 5.574 5.574 0 1 1 9.515-3.942z"/>
</svg>
