<?xml version="1.0" encoding="UTF-8"?>
<svg viewBox="0 0 48 48" xmlns="http://www.w3.org/2000/svg">
  <path fill="#fff" d="M13.494 33.718a1.822 1.822 0 0 0-1.827 1.826v.592c0 1.013.814 1.827 1.827 1.827h21.012a1.822 1.822 0 0 0 1.827-1.827v-.592a1.822 1.822 0 0 0-1.827-1.826zm22.078-11.566v7.77h4.26c1.885 0 2.008-1.667 2.008-2.117 0-.501-.228-1.142-.926-1.768.698-.626.926-1.267.926-1.767 0-.45-.123-2.118-2.008-2.118zm2.133 1.729h1.469c.354 0 .64.285.64.635 0 .35-.286.634-.64.634h-1.469zm0 3.045h1.469c.354 0 .64.284.64.635 0 .35-.286.632-.64.632h-1.469zm-8.801-5.184a4.294 4.294 0 1 0-.002 8.588 4.294 4.294 0 0 0 .002-8.588zm-.502 1.444h1c.24 0 .436.193.436.433v1.483h1.482c.24 0 .434.195.434.435v1c0 .24-.193.434-.434.434h-1.482v1.482c0 .24-.195.434-.436.434h-1a.43.43 0 0 1-.431-.434v-1.482h-1.485a.432.432 0 0 1-.433-.434v-1c0-.24.193-.435.433-.435h1.485v-1.483a.43.43 0 0 1 .431-.433zM19.1 21.742a4.294 4.294 0 1 0-.002 8.589 4.294 4.294 0 0 0 .002-8.589zm-9.805 0a4.294 4.294 0 1 0-.002 8.588 4.294 4.294 0 0 0 .002-8.588zm-2.416 3.36h4.832c.24 0 .435.195.435.435v1c0 .24-.195.434-.435.434H6.879a.434.434 0 0 1-.436-.434v-1c0-.24.195-.435.436-.435zM5.968 10.56v7.543h1.94v-2.887h2.773v2.887h1.94v-7.544H10.68v2.68H7.908v-2.68Zm32.739-.523a4.294 4.294 0 1 0-.002 8.588 4.294 4.294 0 0 0 .002-8.588zm-2.418 3.36h4.834c.24 0 .436.193.436.433v1c0 .24-.195.434-.436.434h-4.834a.432.432 0 0 1-.434-.434v-1c0-.24.194-.434.434-.434zm-7.387-3.36a4.294 4.294 0 1 0 .002 8.588 4.294 4.294 0 0 0-.002-8.588zm-9.802 0a4.294 4.294 0 1 0-.002 8.588 4.294 4.294 0 0 0 .002-8.588zm-.502 1.443h1c.24 0 .435.194.435.434v1.482h1.483c.24 0 .433.194.433.434v1c0 .24-.193.434-.433.434h-1.483v1.482c0 .24-.195.436-.435.436h-1a.432.432 0 0 1-.432-.436v-1.482h-1.484a.432.432 0 0 1-.434-.434v-1c0-.24.193-.434.434-.434h1.484v-1.482a.43.43 0 0 1 .432-.434z"/>
</svg>
