<?xml version="1.0" encoding="UTF-8"?>
<svg viewBox="0 0 48 48" xmlns="http://www.w3.org/2000/svg">
  <path fill="#fff" d="M23.731 5.002a2.609 2.609 0 0 0-.391.012c-.752.09-1.457.4-2.076.82-1.283.87-2.162 2.253-2.564 3.725-.223.818-.185 1.683-.064 2.499.233 1.562 1.574 2.968 3.205 3.068.1.006.202.01.301.007 1.493-.028 2.844-.94 3.742-2.073a6.346 6.346 0 0 0 1.33-3.12c.145-1.162.01-2.449-.716-3.444a3.54 3.54 0 0 0-2.767-1.494zm12.859 9.183a.592.592 0 0 0-.112.001c-.307.03-.72.23-.976.357-2.638 1.313-5.405 2.418-8.325 2.841-4.223.597-8.664.87-12.534 2.934-2.307 1.193-4.288 2.942-5.928 4.932-.306.283-.388.618-.238.835a.41.41 0 0 0 .361.164c.147-.006.309-.072.482-.2 2.5-1.152 5.006-2.374 7.725-2.82a.112.112 0 0 1 .001 0c4.245-.74 8.723-.838 12.725-2.729 2.658-1.25 5.001-3.162 6.81-5.466a.112.112 0 0 0 .005-.005c.189-.283.276-.462.253-.627a.254.254 0 0 0-.141-.19.34.34 0 0 0-.108-.027zM24.16 25.448a4.386 4.386 0 0 0-.502.044c-1.582.241-3.352 1.25-4.934 2.796-.998.976-1.366 1.402-2.571 3.037-.545.731-1.041 1.399-1.119 1.507-.427.569-2.083 2.843-3.645 5a866.339 866.339 0 0 0-2.107 2.915c-.284.394-.519.723-.687.958-.084.118-.152.212-.199.28-.024.033-.041.06-.055.081-.014.02-.02.025-.03.047a.112.112 0 0 0-.002.002.835.835 0 0 0-.089.459c.012.09.034.18.11.237.077.057.162.063.284.074.21.018.453-.065.73-.21.278-.144.589-.353.911-.61a11.201 11.201 0 0 0 1.899-1.969c.244-.33.768-1.04 1.162-1.578l1.225-1.669a.112.112 0 0 1 0-.001c.853-1.175 2.767-3.798 3.455-4.752.563-.78 1.047-1.307 1.52-1.64a2.484 2.484 0 0 1 1.473-.478.112.112 0 0 1 .001 0c.81-.014 1.265.124 1.934.582.595.413 1.013.9 2.43 2.869.768 1.068 2.323 3.226 3.456 4.802 1.218 1.695 1.813 2.526 2.175 2.983.36.456.503.546.763.721C32.853 42.68 34.46 43 36.913 43c.83 0 1.46-.02 1.909-.06.223-.02.401-.044.538-.075.137-.032.233-.062.305-.134a.374.374 0 0 0 .11-.167.351.351 0 0 0-.028-.233c-.07-.16-.224-.37-.515-.757a23.611 23.611 0 0 1-.505-.69 30.398 30.398 0 0 0-.374-.522c-.202-.28-.468-.642-.748-1.022-.551-.76-1.267-1.74-1.582-2.17l-.002-.002c-.311-.442-1.469-2.029-2.565-3.547-3.727-5.146-4.013-5.535-4.562-6.091a35.64 35.64 0 0 0-.435-.428 4.428 4.428 0 0 0-.287-.263c-.761-.602-1.556-1.02-2.396-1.246-.405-.114-1.065-.164-1.616-.145z"/>
</svg>
