<?xml version="1.0" encoding="UTF-8" standalone="no"?>
<!-- Created with Inkscape (http://www.inkscape.org/) -->

<svg
   width="48"
   height="48"
   viewBox="0 0 48 48"
   version="1.1"
   id="svg1"
   xml:space="preserve"
   xmlns="http://www.w3.org/2000/svg"
   xmlns:svg="http://www.w3.org/2000/svg"><defs
     id="defs1" /><g
     id="layer1"><path
       style="font-size:83.9665px;font-family:'Nimbus Sans';-inkscape-font-specification:'Nimbus Sans';fill:#ffffff;fill-opacity:1;stroke:none;stroke-width:1;stroke-linecap:round;stroke-linejoin:round;stroke-miterlimit:0;stroke-dasharray:none;paint-order:stroke fill markers"
       d="M 9.8647308,17.980183 V 35.387761 C 9.4373089,40.77603 5.5892483,38.6626 4.3891808,38.135732 L 4,39.356093 c 3.1954037,2.067402 7.821254,1.044459 7.821254,-3.325102 V 17.980183 Z"
       id="text1" /><path
       id="text2"
       style="font-size:85.9553px;font-family:'Nimbus Sans';-inkscape-font-specification:'Nimbus Sans';fill:#ffffff;fill-opacity:1;stroke:none;stroke-width:1;stroke-linecap:round;stroke-linejoin:round;stroke-miterlimit:0;stroke-dasharray:none;paint-order:stroke fill markers"
       d="m 17.945937,14.330205 v 12.941716 3.184644 c 0,4.369557 4.625704,5.39223 7.821105,3.32483 L 25.37829,32.561274 c -1.200066,0.526868 -5.475616,2.657321 -5.475616,-2.747868 v -3.59676 -6.678213 h 5.051819 v -1.55825 h -5.051819 v -3.649978 z" /><path
       style="fill:#ffffff;fill-opacity:1;stroke:none;stroke-width:1;stroke-linecap:round;stroke-linejoin:round;stroke-miterlimit:0;stroke-dasharray:none;paint-order:stroke fill markers"
       d="m 36.68966,29.120876 2.492161,2.84457 2.49281,2.843918 H 44 l -3.65517,-4.153602 -2.442189,-2.775125 z"
       id="path14" /><path
       style="fill:#ffffff;fill-opacity:1;stroke:none;stroke-width:1;stroke-linecap:round;stroke-linejoin:round;stroke-miterlimit:0;stroke-dasharray:none;paint-order:stroke fill markers"
       d="m 33.151122,27.880637 -2.442189,2.775125 -3.65517,4.153602 h 2.326017 l 2.492161,-2.843918 2.492162,-2.84457 z"
       id="path13" /><path
       style="fill:#ffffff;fill-opacity:1;stroke:none;stroke-width:1;stroke-linecap:round;stroke-linejoin:round;stroke-miterlimit:0;stroke-dasharray:none;paint-order:stroke fill markers"
       d="M 36.68966,23.884093 37.902641,25.123684 40.34483,22.348558 44,18.194956 h -2.325369 l -2.49281,2.844568 z"
       id="path12" /><path
       style="fill:#ffffff;fill-opacity:1;stroke:none;stroke-width:1;stroke-linecap:round;stroke-linejoin:round;stroke-miterlimit:0;stroke-dasharray:none;paint-order:stroke fill markers"
       d="m 27.053763,18.194956 3.65517,4.153602 2.442189,2.775774 1.212981,-1.240239 -2.492162,-2.844569 -2.492161,-2.844568 z"
       id="rect4" /><path
       id="path15"
       style="fill:#ffffff;fill-opacity:1;stroke:none;stroke-width:1;stroke-linecap:round;stroke-linejoin:round;stroke-miterlimit:0;stroke-dasharray:none;stroke-opacity:1;paint-order:stroke fill markers"
       d="M 12.368624,7.6160043 A 3.9874582,3.9874582 0 0 0 8.3811666,11.603462 3.9874582,3.9874582 0 0 0 12.368624,15.59092 3.9874582,3.9874582 0 0 0 16.356083,11.603462 3.9874582,3.9874582 0 0 0 12.368624,7.6160043 Z m -1.390158,4.3989237 a 1.2256531,1.2256531 0 0 1 1.225961,1.225313 1.2256531,1.2256531 0 0 1 -1.225961,1.225962 1.2256531,1.2256531 0 0 1 -1.2253128,-1.225962 1.2256531,1.2256531 0 0 1 1.2253128,-1.225313 z" /></g></svg>
