<?xml version="1.0" encoding="UTF-8"?>
<svg viewBox="0 0 48 48" xmlns="http://www.w3.org/2000/svg">
  <path fill="#fff" d="M24 3a2.043 2.043 0 0 0-2.043 2.042v6.56l-5.078-4.62a2.043 2.043 0 0 0-1.471-.529 2.043 2.043 0 0 0-1.415.665 2.043 2.043 0 0 0 .136 2.886l7.828 7.12v4.833h-4.831l-7.122-7.828a2.043 2.043 0 0 0-1.415-.665 2.043 2.043 0 0 0-1.47.529 2.043 2.043 0 0 0-.137 2.886l4.62 5.078h-6.56A2.043 2.043 0 0 0 3 24a2.043 2.043 0 0 0 2.042 2.042h6.562l-4.622 5.08a2.043 2.043 0 0 0 .136 2.885 2.043 2.043 0 0 0 2.886-.137l7.122-7.828h4.831v4.832l-7.828 7.122a2.043 2.043 0 0 0-.136 2.886 2.043 2.043 0 0 0 2.886.136l5.078-4.62v6.56A2.043 2.043 0 0 0 24 45a2.043 2.043 0 0 0 2.043-2.042v-6.56l5.078 4.62a2.043 2.043 0 0 0 2.886-.136 2.043 2.043 0 0 0-.136-2.886l-7.828-7.122v-4.832h4.83l7.123 7.828a2.043 2.043 0 0 0 2.886.137 2.043 2.043 0 0 0 .136-2.886l-4.622-5.079h6.562A2.043 2.043 0 0 0 45 24a2.043 2.043 0 0 0-2.042-2.043h-6.56l4.62-5.078a2.043 2.043 0 0 0-.136-2.886 2.043 2.043 0 0 0-1.471-.53 2.043 2.043 0 0 0-1.415.666l-7.122 7.828h-4.831v-4.832l7.828-7.12a2.043 2.043 0 0 0 .136-2.887 2.043 2.043 0 0 0-2.886-.136l-5.078 4.62v-6.56A2.043 2.043 0 0 0 24 3Z"/>
</svg>
