<?xml version="1.0" encoding="UTF-8"?>
<svg viewBox="0 0 48 48" xmlns="http://www.w3.org/2000/svg">
  <path fill="#fff" d="M17.281 10.639v7.869h1.385v-2.453l1.977 2.453h1.859l-2.65-3.164 2.294-2.729h-1.859l-1.621 2.018v-3.994h-1.385zm11.153.474v1.463h-.713v1.383h.713v2.57c0 1.305.988 2.098 1.976 2.098.356 0 .87-.12 1.305-.357l-.87-1.186c-.118.08-.277.158-.435.158-.237 0-.633-.16-.633-.713V14h1.149v-1.385h-1.149v-1.502h-1.343zm-22.463.04v7.355h1.424v-2.295h.988l1.701 2.295h1.74l-2.056-2.77c.632-.474 1.068-1.224 1.068-2.054a2.55 2.55 0 0 0-2.531-2.532H5.97zm28 1.304c-1.543 0-2.65 1.344-2.65 3.084 0 1.82 1.384 3.086 2.808 3.086.712 0 1.62-.239 2.371-1.307l-1.186-.672c-.91 1.345-2.45.673-2.609-.671h3.875c.277-2.136-1.107-3.52-2.61-3.52zm5.574 0c-.672 0-1.147.356-1.147.356v-.198h-1.343v5.893h1.343v-3.48c0-.633.436-1.186 1.108-1.186.633 0 1.107.553 1.107 1.185v3.48h1.346v-3.48c0-1.423-.99-2.57-2.414-2.57zm-25.625.04c-1.542 0-2.69 1.383-2.69 3.083 0 1.7 1.148 3.086 2.69 3.086.514 0 .87-.16 1.266-.396v.238h1.343v-5.893h-1.343v.278a2.013 2.013 0 0 0-1.266-.397zm-6.525.038h.91a1.147 1.147 0 0 1 0 2.295h-.91v-2.295zm14.949.08v3.48c0 1.424.988 2.571 2.412 2.571.672 0 1.146-.355 1.146-.355v.197h1.346v-5.893h-1.346v3.48c0 .633-.435 1.186-1.107 1.186-.633 0-1.107-.553-1.107-1.185v-3.48h-1.344zm11.582 1.108c.539-.01 1.073.336 1.191 1.068h-2.412c.138-.692.682-1.058 1.22-1.068zm-20.006.158c.751 0 1.266.75 1.266 1.66 0 .95-.515 1.662-1.266 1.662s-1.305-.752-1.305-1.662c0-.95.554-1.66 1.305-1.66zm-.752 5.734 1.74 1.7 20.012-1.7H13.168zm-7.172 3.506v14.074H8.25v-4.918h.068l3.416 4.918H14.4l-3.894-5.533 3.621-4.168h-2.734l-3.143 3.69V23.12H5.996zm17.969 0v9.975c0 2.87 1.503 4.304 4.031 4.304 3.143 0 4.1-2.321 4.1-5.054 0-3.075-1.025-5.057-3.348-5.057-1.435 0-2.186.889-2.527 1.367v-5.535h-2.256zM18.5 27.29c-2.801 0-4.305 1.914-4.305 5.057 0 3.143 1.504 5.054 4.305 5.054 2.733 0 4.234-1.911 4.234-5.054 0-3.143-1.433-5.057-4.234-5.057zm19.063 0c-2.802 0-4.305 1.914-4.305 5.057 0 3.143 1.503 5.054 4.305 5.054 2.8 0 4.304-1.911 4.304-5.054 0-3.143-1.503-5.057-4.304-5.057zm-9.499 1.436c1.504 0 1.71 1.844 1.71 3.62 0 1.572-.275 3.485-1.71 3.485-1.434 0-1.843-1.093-1.775-3.484 0-1.64.409-3.621 1.775-3.621zm-9.564.136c1.571 0 1.844 1.708 1.844 3.485 0 1.844-.204 3.484-1.844 3.484-1.64 0-1.914-1.708-1.846-3.484 0-1.845.206-3.485 1.846-3.485zm19.063 0c1.571 0 1.843 1.708 1.843 3.485 0 1.844-.204 3.484-1.843 3.484-1.64 0-1.915-1.708-1.846-3.484 0-1.845.206-3.485 1.846-3.485z"/>
</svg>
