<?xml version="1.0" encoding="UTF-8"?>
<svg viewBox="0 0 48 48" xmlns="http://www.w3.org/2000/svg">
  <path fill="#fff" d="M23.663 3.405c-.223.035-.44.104-.642.206L7.203 11.56a2.182 2.182 0 0 0 1.96 3.9L24 8.004l14.837 7.455a2.182 2.182 0 0 0 1.96-3.9L24.98 3.61a2.183 2.183 0 0 0-1.317-.206ZM13.612 17.044a4.08 4.08 0 0 0-4.09 4.09v2.855a4.08 4.08 0 0 0 4.09 4.09h20.776a4.08 4.08 0 0 0 4.09-4.09v-2.856a4.08 4.08 0 0 0-4.09-4.09zm2.05 2.691h1.595c1.185 0 2.153.968 2.153 2.153v1.596a2.158 2.158 0 0 1-2.153 2.154H15.66a2.158 2.158 0 0 1-2.153-2.154v-1.596c0-1.185.968-2.153 2.153-2.153zm7.54 0h1.596c1.185 0 2.153.968 2.153 2.153v1.596a2.158 2.158 0 0 1-2.153 2.154h-1.596a2.158 2.158 0 0 1-2.153-2.154v-1.596c0-1.185.968-2.153 2.153-2.153zm7.541 0h1.597c1.185 0 2.152.968 2.152 2.153v1.596a2.158 2.158 0 0 1-2.152 2.154h-1.597a2.158 2.158 0 0 1-2.153-2.154v-1.596c0-1.185.968-2.153 2.153-2.153zM13.612 30.75a4.08 4.08 0 0 0-4.09 4.09v5.692a4.08 4.08 0 0 0 4.09 4.09h20.776a4.08 4.08 0 0 0 4.09-4.09v-5.693a4.08 4.08 0 0 0-4.09-4.09z"/>
</svg>
