<?xml version="1.0" encoding="UTF-8"?>
<svg viewBox="0 0 48 48" xmlns="http://www.w3.org/2000/svg">
  <path fill="#fff" d="M24 5C13.512 5 5 13.512 5 24.002v.002c.019 5.844 2.756 11.318 7.355 14.9l-1.944 3.449a.428.428 0 0 0 .373.637c4.486.022 13.42 0 13.42 0h.004c10.4-.114 18.784-8.585 18.792-18.988C43 13.512 34.488 5 24 5Zm-9.08 8.914a2.174 2.174 0 1 1 0 4.347 2.174 2.174 0 0 1 0-4.347zm17.983 0a2.172 2.172 0 1 1 0 4.344 2.172 2.172 0 0 1 0-4.344zM14.92 19.208a2.174 2.174 0 1 1 .001 4.347 2.174 2.174 0 0 1-.001-4.347zm8.992 0a2.174 2.174 0 1 1-.003 4.347 2.174 2.174 0 0 1 .003-4.347zm8.99 0a2.174 2.174 0 0 1 0 4.347 2.174 2.174 0 0 1 0-4.347zm-17.981 5.296a2.174 2.174 0 1 1 .001 4.347 2.174 2.174 0 0 1-.001-4.347zm8.992 0a2.174 2.174 0 1 1-.003 4.347 2.174 2.174 0 0 1 .003-4.347zm8.99 0a2.174 2.174 0 0 1 0 4.347 2.174 2.174 0 0 1 0-4.347zM14.921 29.8a2.174 2.174 0 1 1 .001 4.347 2.174 2.174 0 0 1-.002-4.347zm8.992 0a2.174 2.174 0 1 1-.003 4.347 2.174 2.174 0 0 1 .003-4.347zm8.99 0a2.174 2.174 0 0 1 0 4.347 2.174 2.174 0 0 1 0-4.347z"/>
</svg>
