<?xml version="1.0" encoding="UTF-8" standalone="no"?>
<!-- Created with Inkscape (http://www.inkscape.org/) -->

<svg
   width="48"
   height="48"
   viewBox="0 0 48 48"
   version="1.1"
   id="svg1"
   xml:space="preserve"
   xmlns="http://www.w3.org/2000/svg"
   xmlns:svg="http://www.w3.org/2000/svg"><defs
     id="defs1"><style
       id="style1">.a{fill:none;stroke:#fff;stroke-linecap:round;stroke-linejoin:round;}</style></defs><g
     id="layer1"><path
       id="polygon14"
       style="color:#000000;fill:#ffffff;stroke:none;stroke-width:1;stroke-linecap:round;stroke-linejoin:round;stroke-dasharray:none"
       d="M 26.378993,4.0017198 A 0.47584633,0.47584633 0 0 0 26.141094,4.0649118 0.47584633,0.47584633 0 0 0 25.903195,4.47566 v 39.048952 a 0.47584633,0.47584633 0 0 0 0.713698,0.410749 l 15.719944,-9.075489 a 0.47584633,0.47584633 0 0 0 0.2379,-0.410749 V 13.551149 a 0.47584633,0.47584633 0 0 0 -0.2379,-0.410747 L 26.616893,4.0649118 a 0.47584633,0.47584633 0 0 0 -0.2379,-0.063192 z m 5.202191,6.7615472 c 0.999901,0 1.819558,0.821517 1.819558,1.821416 0,0.999902 -0.819657,1.819559 -1.819558,1.819559 -0.207688,0 -0.408217,-0.03537 -0.594749,-0.100364 -0.706815,0.6089 -1.511794,1.089924 -2.378993,1.42368 0.646156,0.426693 1.022318,0.961286 1.499881,1.786103 0.188478,-0.06662 0.391788,-0.104081 0.602182,-0.104081 0.999902,0 1.821418,0.819657 1.821418,1.819559 0,0.999901 -0.821516,1.821417 -1.821418,1.821417 -0.999901,0 -1.819558,-0.821516 -1.819558,-1.821417 0,-0.446801 0.162778,-0.856856 0.433051,-1.174629 -0.598717,-1.057177 -0.918689,-1.517895 -2.189417,-1.992407 -0.245597,-0.09213 -0.370304,-0.365649 -0.278789,-0.611476 0.07116,-0.190494 0.250461,-0.307497 0.442345,-0.308526 0.02004,-0.0078 0.0417,-0.01534 0.06319,-0.02044 1.032229,-0.246386 1.992059,-0.71925 2.815762,-1.380931 -0.260629,-0.314911 -0.416324,-0.718585 -0.416324,-1.156043 0,-0.999899 0.821516,-1.821416 1.821418,-1.821416 z m 0,0.951597 c -0.485623,0 -0.86982,0.384199 -0.86982,0.869819 0,0.305976 0.152275,0.572537 0.386586,0.726709 0.02811,0.01279 0.05471,0.02839 0.07992,0.04646 0.119834,0.06134 0.257561,0.09479 0.403314,0.09479 0.48562,0 0.86796,-0.382339 0.86796,-0.867962 0,-0.48562 -0.38234,-0.869819 -0.86796,-0.869819 z m 5.694716,3.00348 c 0.999902,0 1.821417,0.821517 1.821417,1.821416 0,0.999902 -0.821515,1.821418 -1.821417,1.821418 -0.05674,0 -0.113668,-0.0023 -0.169131,-0.0074 -0.150774,1.071063 -0.136487,2.15746 0.03903,3.224652 0.09364,-0.01504 0.190434,-0.02416 0.288081,-0.02416 0.999903,1e-6 1.819559,0.819656 1.819559,1.819558 0,0.999901 -0.819656,1.821417 -1.819559,1.821417 -0.826414,0 -1.531181,-0.560348 -1.75079,-1.319598 -0.71281,0.09789 -1.596515,0.466447 -2.319519,0.860527 -0.283318,0.154424 -0.538455,0.309321 -0.758305,0.44792 0.345517,0.163552 0.678546,0.356563 0.992487,0.581738 0.0069,0.0048 0.01378,0.0097 0.02044,0.01487 0.220143,0.176114 0.480293,0.461638 0.821496,0.841941 0.341206,0.380302 0.735607,0.836382 1.111437,1.278709 0.526503,0.619661 0.921331,1.09949 1.167193,1.397659 0.219703,-0.09455 0.462612,-0.148687 0.715557,-0.148687 0.999903,0 1.819559,0.819656 1.819559,1.819558 0,0.999901 -0.819656,1.821416 -1.819559,1.821416 -0.999901,0 -1.821417,-0.821515 -1.821417,-1.821416 0,-0.40473 0.134028,-0.778436 0.360566,-1.081699 -0.249592,-0.301994 -0.636346,-0.769069 -1.146749,-1.36978 -0.372612,-0.43854 -0.763336,-0.890777 -1.094709,-1.260124 -0.327105,-0.364585 -0.617658,-0.658284 -0.698829,-0.724849 -0.477086,-0.340518 -1.003046,-0.600169 -1.555639,-0.771314 a 0.47579875,0.47579875 0 0 1 -0.06319,-0.01859 c -0.529864,-0.157101 -1.083019,-0.233652 -1.642993,-0.22303 -0.0012,4e-6 -0.0025,4e-6 -0.0037,0 -2.031493,0.02634 -2.056001,-0.188166 -2.83063,-0.793617 -0.206594,-0.161804 -0.24318,-0.460325 -0.08178,-0.667234 0.07728,-0.09957 0.190918,-0.16441 0.31596,-0.180283 0.125529,-0.01514 0.251922,0.0203 0.351274,0.09851 0.783099,0.631378 0.491366,0.612898 2.230306,0.59103 h 0.0019 c 0.590654,-0.01103 1.175484,0.06013 1.739639,0.208162 0.266109,-0.185957 0.781502,-0.530436 1.414386,-0.875394 0.806899,-0.439808 1.792983,-0.895346 2.763722,-0.986912 0.09584,-0.362696 0.302138,-0.682054 0.579879,-0.920001 -0.247536,-1.317088 -0.265582,-2.667191 -0.0539,-3.99039 -0.449037,-0.332867 -0.741576,-0.86698 -0.741576,-1.464569 0,-0.999899 0.819657,-1.821416 1.819558,-1.821416 z m 0,0.951597 c -0.485623,0 -0.867961,0.384199 -0.867961,0.869819 0,0.344878 0.191944,0.637462 0.477658,0.77875 a 0.47579875,0.47579875 0 0 1 0.06319,0.02974 c 0.100238,0.03983 0.211359,0.06133 0.327112,0.06133 0.48562,0 0.869819,-0.384197 0.869819,-0.86982 0,-0.48562 -0.384199,-0.869819 -0.869819,-0.869819 z m -6.566395,2.691237 c -0.177184,0 -0.341525,0.05115 -0.477657,0.139394 -0.0013,0.0011 -0.0024,0.0026 -0.0037,0.0037 -0.0023,0.0015 -0.0051,0.0022 -0.0074,0.0037 -0.01602,0.01316 -0.03213,0.02596 -0.05018,0.03717 -0.201782,0.157782 -0.32897,0.403111 -0.32897,0.683961 0,0.485623 0.38234,0.86982 0.86796,0.86982 0.485623,0 0.86982,-0.384197 0.86982,-0.86982 0,-0.485621 -0.384197,-0.867961 -0.86982,-0.867961 z m 6.724375,4.144653 c -0.146644,0 -0.284812,0.03646 -0.405173,0.0985 a 0.47579875,0.47579875 0 0 1 -0.03531,0.01859 c -0.258559,0.149046 -0.429335,0.426496 -0.429335,0.75087 a 0.47579875,0.47579875 0 0 0 0,0.0019 0.47579875,0.47579875 0 0 0 0,0.0019 0.47579875,0.47579875 0 0 0 0,0.0019 0.47579875,0.47579875 0 0 0 0,0.0019 0.47579875,0.47579875 0 0 0 0,0.0019 0.47579875,0.47579875 0 0 0 0,0.0019 0.47579875,0.47579875 0 0 0 0,0.0019 c 0.0068,0.479478 0.388527,0.85681 0.86982,0.85681 0.485622,0 0.867961,-0.384198 0.867961,-0.86982 0,-0.485621 -0.382339,-0.867961 -0.867961,-0.867961 z m -7.672254,5.187322 c 0.999902,0 1.819558,0.821515 1.819558,1.821416 0,0.999902 -0.819656,1.819559 -1.819558,1.819559 -0.03442,0 -0.07012,5.8e-5 -0.104081,-0.0019 -0.153223,0.357141 -0.416178,0.938519 -0.758305,1.579801 -0.398309,0.746588 -0.415124,1.401686 -0.732284,1.96267 0.279346,0.269038 0.310849,0.705144 0.643072,0.877254 0.265778,0.137688 0.489786,0.21355 0.843799,0.185859 0.295194,-0.02309 0.693745,-0.135333 1.239679,-0.410749 -0.02177,-0.11178 -0.03346,-0.227863 -0.03346,-0.345697 0,-0.999902 0.821516,-1.821417 1.821417,-1.821417 0.999902,0 1.821417,0.821515 1.821417,1.821417 0,0.999901 -0.821515,1.819559 -1.821417,1.819559 -0.541469,0 -1.031345,-0.239726 -1.366063,-0.618911 -0.620541,0.313604 -1.13089,0.469836 -1.587235,0.505537 -0.548831,0.04293 -1.001069,-0.10849 -1.354911,-0.291799 -0.707681,-0.366617 -0.07219,-1.084798 -0.994345,-0.985052 -0.182539,0.01971 -0.352693,-0.06712 -0.44792,-0.21002 -0.154844,-0.212907 -0.107367,-0.511086 0.10594,-0.665376 0.678851,-0.49198 0.492034,-1.27741 1.022224,-2.271195 0.307003,-0.575444 0.543219,-1.096653 0.691395,-1.438547 -0.487868,-0.327535 -0.810345,-0.883734 -0.810345,-1.511034 0,-0.999901 0.821516,-1.821416 1.821418,-1.821416 z m 0,0.951597 c -0.485622,0 -0.86982,0.384198 -0.86982,0.869819 0,0.37343 0.226214,0.685951 0.552,0.810346 0.03118,0.0054 0.06419,0.014 0.09479,0.02602 0.0059,0.0023 0.01096,0.0049 0.01673,0.0074 0.06567,0.01542 0.135432,0.02416 0.206304,0.02416 0.485621,0 0.86796,-0.382338 0.86796,-0.867961 0,-0.485621 -0.382339,-0.869819 -0.86796,-0.869819 z m 7.672254,1.457134 c -0.182108,0 -0.350138,0.05401 -0.488809,0.146828 -0.01074,0.01073 -0.01964,0.02174 -0.03159,0.0316 -0.01668,0.0137 -0.03604,0.02425 -0.0539,0.03531 -0.181666,0.158119 -0.295516,0.390216 -0.295516,0.654224 0,0.48562 0.384198,0.869819 0.86982,0.869819 0.485622,0 0.867961,-0.384199 0.867961,-0.869819 0,-0.485623 -0.382339,-0.867961 -0.867961,-0.867961 z m -4.752412,4.209704 c -0.485623,10e-7 -0.86982,0.384199 -0.86982,0.869819 0,0.112192 0.02009,0.220093 0.05762,0.317819 0.0053,0.0081 0.01191,0.01569 0.01673,0.02416 0.01726,0.03037 0.0309,0.06275 0.04089,0.09479 0.14931,0.259142 0.429363,0.431192 0.754587,0.431192 0.485621,0 0.86982,-0.382339 0.86982,-0.867961 0,-0.48562 -0.384199,-0.869819 -0.86982,-0.869819 z" /><path
       id="polygon15"
       style="color:#000000;fill:#ffffff;stroke:none;stroke-width:1;stroke-linecap:round;stroke-linejoin:round;stroke-dasharray:none"
       d="m 21.570824,4.0017198 a 0.47584633,0.47584633 0 0 0 -0.187717,0.061333 L 5.6631622,13.140402 a 0.47584633,0.47584633 0 0 0 -0.2378994,0.410747 v 20.897974 a 0.47584633,0.47584633 0 0 0 0.2378994,0.410749 l 15.7199448,9.077347 a 0.47584633,0.47584633 0 0 0 0.713698,-0.412607 V 4.47566 A 0.47584633,0.47584633 0 0 0 21.570824,4.0017198 Z m -0.81592,5.0962507 c 0.03102,9.56e-4 0.06225,0.0059 0.09293,0.01301 0.123358,0.02827 0.230372,0.104515 0.297374,0.211879 0.139031,0.223695 0.06988,0.517779 -0.154262,0.656082 l -5.964212,3.7004505 v 4.962433 L 20.489126,15.2499 c 0.106981,-0.06652 0.23598,-0.08792 0.358708,-0.05947 0.123672,0.02872 0.230734,0.10567 0.297374,0.213737 0.137762,0.223306 0.06875,0.515986 -0.154262,0.654223 l -5.964212,3.704168 v 3.772935 l 5.462392,-3.388207 c 0.106981,-0.06652 0.23598,-0.08792 0.358708,-0.05948 0.123358,0.02827 0.230372,0.104515 0.297374,0.211879 0.139031,0.223696 0.06988,0.51778 -0.154262,0.656081 l -5.964212,3.700451 v 6.69092 c 0.02945,0.492757 -0.127388,0.996883 -0.407031,1.438548 -0.400598,0.632701 -1.052882,1.175552 -1.869741,1.529619 C 11.933104,34.66937 11.091717,34.773331 10.3561,34.633122 9.6204832,34.492915 8.9627187,34.084667 8.6703591,33.410172 8.3779995,32.735677 8.5299626,31.97798 8.9305615,31.345279 9.3311602,30.712578 9.9834432,30.16787 10.800301,29.813802 c 0.816859,-0.354066 1.658248,-0.456169 2.393863,-0.31596 0.31586,0.0602 0.616832,0.168294 0.880972,0.327112 v -5.404777 c -9.2e-4,-0.01534 -5.63e-4,-0.02932 0,-0.04461 v -4.895523 -6.064575 c -3.06e-4,-0.164901 0.08479,-0.318206 0.224889,-0.405173 l 6.1891,-3.8398445 c 0.08024,-0.0499 0.172707,-0.07535 0.265779,-0.07249 z M 12.603133,30.389965 c -0.435408,-0.0085 -0.933263,0.084 -1.425537,0.297374 -0.656368,0.284502 -1.162082,0.722817 -1.4422659,1.165335 -0.280183,0.442519 -0.333461,0.852538 -0.191434,1.180205 0.142027,0.327666 0.4761289,0.56731 0.9906279,0.665374 0.514498,0.09806 1.181778,0.02987 1.838144,-0.254627 0.656367,-0.284502 1.162082,-0.724675 1.442265,-1.167193 0.202106,-0.319205 0.284597,-0.620425 0.262061,-0.886547 -1.27e-4,-0.0045 -0.0019,-0.0085 -0.0019,-0.01301 v -0.01859 c -0.01072,-0.09125 -0.03326,-0.178286 -0.06877,-0.260202 -0.142027,-0.327667 -0.47613,-0.569171 -0.990629,-0.667234 -0.128624,-0.02452 -0.26747,-0.03804 -0.412606,-0.04089 z" /><g
       id="g1"
       transform="translate(1.7179149,3.2663758)" /></g></svg>
