<?xml version="1.0" encoding="UTF-8"?>
<svg viewBox="0 0 48 48" xmlns="http://www.w3.org/2000/svg">
  <path fill="#fff" d="M27.297 1.994a19.25 19.25 0 0 0-1.156.02c-5.085.241-9.411 2.482-12.614 5.263-.74.644-1.405 1.32-2.027 2.002-.384-.39-.85-.701-1.443-.838-.68-.155-1.31.107-1.842.457-.532.351-1.008.82-1.426 1.293-.038.044-.068.086-.105.13a3.289 3.289 0 0 0-.116-.522c-.143-.454-.42-.885-.851-1.154a1.218 1.218 0 0 0-.746-.178 1.907 1.907 0 0 0-.68.19c-.394.188-.736.464-1.047.745-.621.563-1.103 1.178-1.103 1.178a.657.657 0 0 0 1.03.813s.438-.553.954-1.02c.258-.234.538-.439.734-.533.133-.064.177-.067.18-.07.116.078.205.196.277.425.077.242.114.593.096 1.008-.036.83-.284 1.906-.607 2.943a33.763 33.763 0 0 1-1.573 4.008.656.656 0 0 0 1.184.569s1.111-2.788 1.615-4.2c.42-1.172.84-2.365 1.742-3.462.372-.421.79-.82 1.165-1.067.374-.247.663-.31.824-.273.392.09.675.28.904.537-1.116 1.367-2.015 2.746-2.615 4.012-.523 1.104-.845 2.118-.926 3.003-.081.886.08 1.735.734 2.233.459.348 1.082.31 1.541.098.46-.212.862-.564 1.243-1.002.76-.877 1.424-2.117 1.734-3.43.312-1.323.426-2.758.137-4.016a4.53 4.53 0 0 0-.256-.744 22.679 22.679 0 0 1 2.13-2.142c4.846-4.209 12.183-7.103 21.1-3.022a.657.657 0 0 0 .547-1.193c-3.079-1.41-6.01-2.026-8.738-2.06zM39.31 5.717a1.165 1.165 0 1 0-.002 2.33 1.165 1.165 0 0 0 .002-2.33zm-5.088.79c-.11-.002-.222.01-.33.036-1.31.315-2.222 1.388-2.82 2.666-.6 1.278-.92 2.811-1.024 4.305-.008.109.007.21.002.318a13.89 13.89 0 0 1-1.463.387c.133-.66.172-1.296.115-1.881-.104-1.07-.557-2.053-1.484-2.447-.927-.395-1.949-.04-2.791.627-.843.666-1.591 1.68-2.12 2.921-.514 1.21-.73 2.422-.644 3.473a.658.658 0 0 0-.197.164s-.363.469-.807.863c-.222.198-.465.369-.637.446-.171.077-.2.05-.189.056-.08-.042-.171-.146-.215-.535-.044-.389.003-.982.14-1.681.276-1.4.889-3.227 1.567-5.051a.656.656 0 0 0-1.228-.457l-.118.316c-.243-.508-.616-.92-1.14-1.142-.927-.395-1.948-.04-2.791.627-.843.666-1.59 1.68-2.117 2.921-.528 1.241-.743 2.486-.639 3.555.104 1.07.555 2.05 1.482 2.445.927.395 1.949.04 2.791-.627a5.8 5.8 0 0 0 .754-.716c.076.603.334 1.203.895 1.504.463.248.969.15 1.344-.018.375-.167.692-.413.972-.662.201-.179.382-.362.533-.525.244.463.6.836 1.09 1.044.927.395 1.949.042 2.791-.625.843-.666 1.591-1.685 2.12-2.925.038-.09.072-.178.107-.268.685-.116 1.29-.289 1.885-.465.038.883.132 1.725.347 2.428.173.565.401 1.059.748 1.445.347.387.88.659 1.438.602 1.312-.134 2.325-1.199 3.23-2.59-.052.696-.051 1.306.145 1.82.114.3.338.626.719.758.38.133.767.024 1.078-.152.7-.398 1.276-.957 1.771-1.635.174.723.553 1.339 1.22 1.623.88.374 1.83-.01 2.604-.662.775-.653 1.467-1.63 1.971-2.813.504-1.183.727-2.36.66-3.37-.067-1.012-.446-1.962-1.326-2.337-.72-.306-1.488-.102-2.168.34.296-.954.601-1.936.942-2.955a.657.657 0 1 0-1.244-.416c-.808 2.42-1.434 4.661-2.106 6.506l-.004.008a9.36 9.36 0 0 0-.26.685c-.737 1.86-1.558 3.174-2.635 3.827-.06-.228-.113-.727-.044-1.428.15-1.526.696-3.738 1.41-5.678 0-.002 0-.004.002-.006.289-.818-.93-1.26-1.233-.447l-.002.006-.002.002c-.75 2.098-1.572 4.022-2.431 5.404-.86 1.383-1.738 2.133-2.43 2.203-.119.012-.176-.002-.328-.172-.152-.17-.333-.502-.47-.95-.2-.65-.28-1.553-.294-2.505 2.276-.984 3.633-2.46 4.186-3.927.402-1.067.435-2.089.19-2.895-.124-.403-.317-.762-.63-1.03-.234-.2-.558-.33-.888-.337zm.002 1.302c.002.001.006.01.033.033.054.046.157.187.226.416.14.457.148 1.228-.162 2.049-.381 1.011-1.308 2.094-2.908 2.925.121-1.242.392-2.494.848-3.466.502-1.072 1.162-1.76 1.94-1.948.019-.004.02-.01.023-.01zM18.047 11.04a.765.765 0 0 1 .28.059c.328.14.614.573.69 1.363.077.79-.086 1.851-.538 2.914-.453 1.063-1.102 1.914-1.725 2.406-.623.493-1.135.59-1.463.45-.328-.14-.617-.576-.693-1.366-.077-.79.088-1.85.54-2.912.453-1.063 1.103-1.916 1.725-2.408.467-.37.872-.515 1.184-.506zm8.379 0a.765.765 0 0 1 .28.059c.328.14.614.575.69 1.365.054.55-.012 1.23-.209 1.951-.562.017-.94-.104-1.216-.275-.332-.206-.548-.509-.698-.862-.298-.706-.257-1.52-.257-1.52a.73.73 0 0 0 0-.019c.075-.07.15-.134.224-.193.467-.37.874-.515 1.186-.506zm17.508.402c.083 0 .156.014.214.04.235.1.483.47.532 1.212.049.743-.125 1.754-.559 2.772-.433 1.018-1.038 1.843-1.607 2.322-.57.48-1.012.557-1.246.457-.235-.1-.483-.472-.532-1.215-.04-.6.068-1.372.338-2.183l.004-.008c.072-.184.143-.374.213-.565l.004-.011c.433-1.019 1.04-1.845 1.61-2.325.426-.36.78-.493 1.029-.496zm-32.688.166c.183.943.117 2.14-.146 3.26-.253 1.073-.85 2.18-1.45 2.871-.3.345-.603.582-.798.672-.196.09-.177.065-.198.049-.137-.104-.282-.415-.222-1.068.06-.653.327-1.554.804-2.561.474-.999 1.154-2.106 2.01-3.223zm12.629 1.616c.05.184.109.375.19.566.224.532.602 1.086 1.212 1.465.393.243.871.401 1.426.453-.44.907-1.014 1.634-1.57 2.074-.623.493-1.137.59-1.465.45-.329-.14-.615-.576-.691-1.366-.077-.79.088-1.851.54-2.914.11-.256.23-.499.358-.728zm-3.35 10.138a.415.415 0 0 0-.416.416v.74a.415.415 0 0 0 .416.417.415.415 0 0 0 .416-.416h1.229l1.014 1.714a9.393 9.393 0 0 0-.403.026c-1.12.096-2.22.432-3.197 1.25-2.354 1.97-2.146 5.935.209 8.025 1.39 1.234 3.13 1.527 4.531 1.498a9.319 9.319 0 0 0 1.807-.215c.24-.053.446-.11.611-.164.166-.053.265-.079.42-.174a.623.623 0 0 0 .207-.857.623.623 0 0 0-.855-.207c.065-.04-.036.013-.157.053-.12.039-.29.087-.496.133a8.12 8.12 0 0 1-1.562.187c-1.207.025-2.604-.233-3.68-1.187-1.78-1.58-1.9-4.743-.236-6.135.762-.638 1.552-.885 2.504-.967.952-.082 2.053.027 3.295.113.793.056 1.325.393 1.707.836.381.443.584 1.012.617 1.4l.91 10.83c.012.138-.128.522-.47.833-.343.31-.832.539-1.34.539l-7.637-.004c-.45 0-.771-.185-1.016-.475a1.62 1.62 0 0 1-.371-1.029c.049-1.907.143-4.16.143-4.16a.623.623 0 0 0-.598-.65.623.623 0 0 0-.647.597s-.095 2.26-.144 4.182a2.792 2.792 0 0 0 .666 1.863 2.572 2.572 0 0 0 1.967.918h.826l-.965 2.244a.761.761 0 0 0 .399 1 .761.761 0 0 0 1-.398l.365-.852h4.812l.367.852a.761.761 0 0 0 1 .398.761.761 0 0 0 .399-1l-.965-2.24h.397c.866 0 1.63-.366 2.18-.863.548-.498.935-1.136.874-1.86l-.91-10.828c-.057-.68-.347-1.45-.914-2.11a3.684 3.684 0 0 0-2.564-1.267c-.49-.034-.966-.07-1.436-.1l1.033-1.75h1.194a.415.415 0 0 0 .416.417.415.415 0 0 0 .414-.416v-.74a.415.415 0 0 0-.414-.417h-6.952zm2.61 1.157h1.767l-.884 1.494-.883-1.494zm-1.84 13.246a1.188 1.188 0 0 0-1.188 1.187 1.188 1.188 0 0 0 1.188 1.19 1.188 1.188 0 0 0 1.19-1.19 1.188 1.188 0 0 0-1.19-1.187zm5.41 0a1.188 1.188 0 0 0-1.19 1.187 1.188 1.188 0 0 0 1.19 1.19 1.188 1.188 0 0 0 1.188-1.19 1.188 1.188 0 0 0-1.188-1.187zm-4.26 5.529h3.116a.761.761 0 0 0 .023.084l.465 1.078H21.95l.465-1.078a.761.761 0 0 0 .03-.084z"/>
</svg>
