<?xml version="1.0" encoding="UTF-8"?>
<svg viewBox="0 0 48 48" xmlns="http://www.w3.org/2000/svg">
  <path fill="#fff" d="M25.93 5c-.559 0-1.01.45-1.01 1.008v22.188c-1.738-.945-3.921-1.313-6.176-1.04C13.363 27.82 9 31.883 9 36.233s4.363 7.338 9.744 6.675c1.906-.235 9.744-1.7 9.744-10.085V15.1s5.15 2.22 5.78 5.532c.375 1.976-.664 3.985-1.5 5.22-.29.437-.666.8-.841 1.297a1.01 1.01 0 0 0 .389 1.016l1.896 1.403c.246.182.545.233.82.173 1.012-.435 4.118-4.601 3.962-8.307-.276-6.577-6.974-9.785-9.667-13.09-.747-.916-.84-2.285-.84-2.336 0-.558-.45-1.008-1.009-1.008Z"/>
</svg>
