<?xml version="1.0" encoding="UTF-8"?>
<svg viewBox="0 0 48 48" xmlns="http://www.w3.org/2000/svg">
  <path fill="#fff" d="M31.049 4.195a19.67 19.67 0 0 0-1.694.09L7.39 5.902c-1.328.114-2.007.798-2.264 1.713A3.651 3.651 0 0 0 5 8.598v24.027c0 .54.095 1.041.307 1.56.016.04.04.081.058.122.212.482.516.982.944 1.55l5.166 6.704c.317.403.622.69.966.884h.004c.115.065.235.12.36.166.25.091.527.145.84.172a7.95 7.95 0 0 0 1.068.008h.002l25.51-1.539c.807-.057 1.401-.237 1.826-.523a1.97 1.97 0 0 0 .517-.514 2.418 2.418 0 0 0 .3-.672c.039-.137.062-.286.083-.438.005-.034.014-.066.018-.101.02-.19.031-.39.031-.602v-27.03c0-.344-.056-.589-.182-.808l-.033-.048a1.438 1.438 0 0 0-.113-.16c-.02-.024-.044-.047-.067-.07a2.456 2.456 0 0 0-.138-.138l-.06-.054a5.295 5.295 0 0 0-.198-.162 19.65 19.65 0 0 0-.58-.436l-.172-.127-7.014-4.928a12.16 12.16 0 0 0-1.03-.673c-.052-.029-.103-.058-.153-.084a4.097 4.097 0 0 0-.926-.352c-.054-.013-.11-.022-.166-.033a4.557 4.557 0 0 0-.406-.063c-.031-.003-.06-.01-.092-.013a7.077 7.077 0 0 0-.621-.028zm-.143 2.223c1.374.022 2.161.553 2.768 1.023l3.62 2.62c.154.076.541.539.079.539l-21.812 1.31-.27.016c-2.083.14-2.555.174-3.738-.787L8.545 8.752c-.307-.308-.153-.694.617-.77l21.12-1.54c.22-.02.428-.027.624-.024zm-23.6 5.266c.03 0 .06.01.092.033l2.465 1.988c.25.202.402 1.203.41 2.193l.16 20.526c.008.99-.21 1.635-.41 1.379l-2.58-3.696c-.198-.256-.41-1.203-.412-2.193l-.043-18.816c-.002-.867.114-1.415.319-1.414zm32.133 1.533c.643.065.94.588.94 1.463v22.795c0 1.003-.155 1.85-1.543 1.927l-23.969 1.389c-1.39.077-2.006-.386-2.006-1.621V16.22c0-1 .308-1.462 1.233-1.54l25.049-1.461a1.47 1.47 0 0 1 .296-.002zm-2.916 4.234-5.318.309c-.77.075-1.385.692-1.23 1.54l2.002.231v10.63l-7.864-12.015-5.703.385c-1.08.077-1.464 1.076-1.31 1.77l1.925.156v15.174l-1.384.383c-.54.153-.696.924-.541 1.232l5.318-.307c1.93 0 1.928-1.386 1.928-1.386l-2.39-.54V23.54l7.552 11.86c.925 1.155 1.235 1.537 2.469 1.537.77 0 1.696-.308 2.699-.848v-16.94l1.152-.23c.696-.078.849-.772.695-1.467z"/>
</svg>
