<?xml version="1.0" encoding="UTF-8"?>
<svg version="1.1" viewBox="0 0 48 48" xmlns="http://www.w3.org/2000/svg">
    <path d="m6.737 5.2716a2.817 2.817 0 0 0 0 5.6318h34.526a2.817 2.817 0 0 0 0-5.6318zm17.139 10.658a2.7686 2.7686 0 0 0-2.7686 2.7686h-0.04055a2.7686 2.7686 0 0 0 2.8091 2.8524h16.984a2.8105 2.8105 0 0 0 0-5.6209zm0 10.563a2.8101 2.8101 0 1 0 0 5.6182h16.984a2.8101 2.8101 0 1 0 0-5.6182zm-17.139 10.604a2.817 2.817 0 0 0 0 5.6318h34.526a2.817 2.817 0 0 0 0-5.6318z" fill="#fff" stroke-width="1.3843"/>
</svg>
