<svg xmlns="http://www.w3.org/2000/svg" xml:space="preserve" viewBox="0 0 48 48"><g style="display:inline"><path d="M7 5c-1.108 0-2 .892-2 2v34c0 1.11.892 2 2 2l12.023-.002 1.272-6.063-1.572-1.333.886-2.499-6.783 6.604a1 1 .55 0 1-1.408-.014L9.94 38.197a.984.984 90.534 0 1 .013-1.397l7.798-7.599a.725.725 0 0 0-.059-.123l-2.166.985-3.34-4.067-.05-1.117 1.533-1.414-1.287-1.613 3.275-3.415-1.084-4.873-2.888-.95L14.107 5Zm8.152 0c-.727 2.327-1.475 4.65-2.214 6.973l2.488.82 1.322 5.951-3.039 3.168 1.32 1.658-1.875 1.729.016.318 2.64 3.217 2.245-1.02.443.67 3.84-3.738a9.996 9.996 0 0 1-1.725-5.615c0-5.653 4.707-10.233 10.489-10.233 5.561 0 10.128 4.24 10.466 9.594L43 18.215V7c0-1.108-.89-2-2-2ZM43 19.234l-1.42.276c-.205 5.482-4.828 9.975-10.478 9.853l-.274-.006c-.093.192-.224.369-.33.553l1.334.725.043 3.13-3.709.598-3.932-2.275-1.216.787-1.692 4.02L20.055 43H41c1.11 0 2-.89 2-2zM31.102 9.797c-5.308 0-9.59 4.18-9.59 9.334s4.282 9.334 9.59 9.334c5.307 0 9.59-4.18 9.59-9.334s-4.283-9.334-9.59-9.334zm2.54 2.357a.818.818 0 0 1 .399.09l.002.004a.842.842 0 0 1 .36 1.135l-.471.906a5.156 5.156 0 0 1 1.861 2.553l1.764 5.418a.543.543 0 0 1-.348.685L28.436 25.8a.54.54 0 0 1-.684-.348l-1.764-5.418a5.156 5.156 0 0 1 .004-3.162l-.912-.457a.84.84 0 0 1-.377-1.127l-.002-.004c.209-.41.707-.57 1.14-.36l.91.462a5.156 5.156 0 0 1 2.544-1.85 5.156 5.156 0 0 1 3.148-.002l.465-.908a.867.867 0 0 1 .735-.47zm-.646 4.791a.95.95 0 1 0 .004 1.9.95.95 0 0 0-.004-1.9ZM28.87 18.29a.95.95 0 1 0 .001 1.895.95.95 0 0 0 0-1.895zm-3.623 9.328-4.379 4.494-.97 3.176.751.639 1.567-3.725 1.99-1.285 4.152 2.402 2.506-.404-.023-1.68-1.74-.945.617-1.02a10.594 10.594 0 0 1-4.47-1.652Z" style="opacity:1;fill:#fff;fill-opacity:1"/></g></svg>