<?xml version="1.0" encoding="UTF-8"?>
<svg version="1.1" viewBox="0 0 48 48" xmlns="http://www.w3.org/2000/svg">
  <path fill="#fff" d="M24 3C13.507 3 5 11.507 5 22v21c0 1.108.892 2 2 2h34c1.108 0 2-.892 2-2V22c0-10.493-8.507-19-19-19zm-8 9.65a3.5 3.5 0 1 1 0 7 3.5 3.5 0 0 1 0-7zm16 0a3.5 3.5 0 1 1 0 7 3.5 3.5 0 0 1 0-7zm-9.834 9.84h3.662c.342 0 .623.251.684.57v.006l.328 2.323c.485.214.937.482 1.355.79l2.176-.88a.685.685 0 0 1 .842.295l1.832 3.174a.69.69 0 0 1-.168.878l-1.84 1.442c.03.257.055.517.055.787s-.026.53-.055.787l1.838 1.442.002.001c.258.21.333.583.162.877l-1.83 3.174h-.002a.687.687 0 0 1-.836.295l-.002-.002-2.181-.879c-.42.313-.873.576-1.352.787l-.328 2.323v.004a.692.692 0 0 1-.68.574h-3.662a.69.69 0 0 1-.678-.574v-.004l-.328-2.32a7.164 7.164 0 0 1-1.353-.79l-2.178.88a.685.685 0 0 1-.842-.294v-.002l-1.832-3.172v-.002a.687.687 0 0 1 .168-.876l1.836-1.442a6.867 6.867 0 0 1-.057-.787v-.002c.003-.262.027-.525.057-.785l-1.838-1.443h-.002a.691.691 0 0 1-.162-.88h-.002l1.832-3.171a.69.69 0 0 1 .838-.295h.002l2.18.88c.42-.313.873-.579 1.353-.79l.328-2.32v-.003a.692.692 0 0 1 .678-.576zm1.832 6.408a2.971 2.971 0 0 0-2.977 2.977 2.97 2.97 0 0 0 2.977 2.975 2.968 2.968 0 0 0 2.975-2.975 2.97 2.97 0 0 0-2.975-2.977z"/>
  <path fill="#fff" d="M5.9 3.89c1.2-1.2 3.13-1.19 4.41.04l4.8 4.78-4.337 4.337-4.83-4.76c-1.22-1.22-1.24-3.18-.036-4.38Zm36.2 0c-1.2-1.2-3.13-1.19-4.4.04l-4.8 4.78 4.337 4.337 4.83-4.76c1.22-1.22 1.24-3.18.037-4.38z"/>
</svg>
