<?xml version="1.0" encoding="UTF-8"?>
<svg version="1.1" viewBox="0 0 48 48" xmlns="http://www.w3.org/2000/svg">
  <path fill="#fff" d="M10 4c-1.108 0-2 .892-2 2v36c0 1.108.892 2 2 2h28c1.108 0 2-.892 2-2V6a1.99 1.99 0 0 0-1.895-1.99v1.74a.7.7 0 0 1-.699.7.7.7 0 0 1-.699-.7V4h-1.926v1.75a.7.7 0 0 1-.699.7.7.7 0 0 1-.7-.7V4h-1.925v1.75a.7.7 0 0 1-.7.7.7.7 0 0 1-.698-.7V4h-1.926v1.75a.7.7 0 0 1-.7.7.7.7 0 0 1-.699-.7V4H24.81v1.75a.7.7 0 0 1-.7.7.7.7 0 0 1-.699-.7V4h-1.926v1.75a.7.7 0 0 1-.699.7.7.7 0 0 1-.7-.7V4H18.16v1.75a.7.7 0 0 1-.7.7.7.7 0 0 1-.698-.7V4h-1.926v1.75a.7.7 0 0 1-.7.7.7.7 0 0 1-.698-.7V4h-1.926v1.75a.7.7 0 0 1-.7.7.7.7 0 0 1-.699-.7V4H10zm3.758 16.89a1.5 1.5 0 0 1 1.5 1.5 1.5 1.5 0 0 1-1.5 1.5 1.5 1.5 0 0 1-1.5-1.5 1.5 1.5 0 0 1 1.5-1.5zm6.617.217h15.688a1.257 1.257 0 0 1 1.255 1.258 1.257 1.257 0 0 1-1.255 1.256H20.374a1.257 1.257 0 0 1-1.256-1.256 1.257 1.257 0 0 1 1.256-1.258zm-6.617 5.905a1.5 1.5 0 0 1 1.5 1.5 1.5 1.5 0 0 1-1.5 1.5 1.5 1.5 0 0 1-1.5-1.5 1.5 1.5 0 0 1 1.5-1.5zm6.617.244h15.688a1.257 1.257 0 0 1 1.255 1.256 1.257 1.257 0 0 1-1.255 1.258H20.374a1.257 1.257 0 0 1-1.256-1.258 1.257 1.257 0 0 1 1.256-1.256zm-6.617 5.855a1.5 1.5 0 0 1 1.5 1.5 1.5 1.5 0 0 1-1.5 1.5 1.5 1.5 0 0 1-1.5-1.5 1.5 1.5 0 0 1 1.5-1.5zm6.617.243h15.688a1.257 1.257 0 0 1 1.255 1.257 1.257 1.257 0 0 1-1.255 1.256H20.374a1.257 1.257 0 0 1-1.256-1.256 1.257 1.257 0 0 1 1.256-1.257z"/>
</svg>
