<?xml version="1.0" encoding="UTF-8"?>
<svg viewBox="0 0 48 48" xmlns="http://www.w3.org/2000/svg">
  <path fill="#fff" d="M13.645 1.54a9.172 9.172 0 0 0-8.9 7.832 9.174 9.174 0 0 0 4.92 9.509.607.607 0 0 0 .815-.266.607.607 0 0 0-.265-.816 7.95 7.95 0 0 1-4.27-8.25 7.952 7.952 0 0 1 6.463-6.674 7.953 7.953 0 0 1 8.383 4.006.607.607 0 0 0 .824.24.607.607 0 0 0 .24-.824 9.175 9.175 0 0 0-8.21-4.758zm.183 2.388a6.78 6.78 0 0 0-4.264 12.059.626.626 0 0 0 .881-.096.626.626 0 0 0-.095-.881 5.523 5.523 0 0 1-1.948-5.412A5.524 5.524 0 0 1 17.86 6.94a.626.626 0 0 0 .885.029.626.626 0 0 0 .03-.885 6.78 6.78 0 0 0-4.946-2.156zm2.512 5.746a3.176 3.176 0 0 0-3.184 3.181v30.5a3.176 3.176 0 0 0 3.184 3.182h15.322a3.175 3.175 0 0 0 3.182-3.182v-30.5a3.175 3.175 0 0 0-3.182-3.181H16.34zm3.752 1.496a.882.882 0 0 1 .883.883.882.882 0 0 1-.883.883.882.882 0 0 1-.883-.883.882.882 0 0 1 .883-.883zm2.55 0h5.266a.88.88 0 0 1 .883.883.881.881 0 0 1-.883.883h-5.265a.88.88 0 0 1-.881-.883.88.88 0 0 1 .88-.883zm6.456 4.814a1.067 1.067 0 0 1 .619.227 1.067 1.067 0 0 1 .181 1.498l-6.486 8.258a1.067 1.067 0 0 1-1.578.11l-3.63-3.491a1.067 1.067 0 0 1-.032-1.51 1.067 1.067 0 0 1 1.51-.03l2.78 2.673 5.757-7.328a1.067 1.067 0 0 1 .879-.407zm-7.785 13.088c.348 0 .73.018 1.187.057v1.808c-.145-.019-.29-.019-.418-.019-1.007 0-1.207.35-1.207 1.355v.985H22.5v1.52h-1.625v7.658h-2.541v-7.659h-1.299v-1.52h1.299v-1.532c0-2.03.457-2.65 2.979-2.65v-.003zm2.412.256h2.54v4.733c.531-.677 1.209-.987 2.067-.987 2.012 0 2.633 1.518 2.633 4.662 0 1.717-.054 2.961-.549 3.823-.402.713-1.187 1.132-2.139 1.132-.932 0-1.664-.403-2.029-1.097l-.072.877h-2.524c.055-.823.073-1.497.073-2.03V29.328zm3.603 5.393c-.732 0-1.08.693-1.08 2.101v1.973c0 1.609.182 2.361 1.115 2.361 1.023 0 1.041-.989 1.041-3.146v-.219c0-2.03-.108-3.07-1.076-3.07z"/>
</svg>
