<svg xmlns="http://www.w3.org/2000/svg" xml:space="preserve" viewBox="0 0 48 48"><path d="M23.926 4.982a1.772 1.772 0 0 0-.506.085c-2.62.939-14.2 5.947-14.2 5.947S6.29 12.196 6.24 14.53c-.432 19.63 14.203 28.548 17.876 28.491 3.674-.057 17.951-8.99 17.785-28.264-.022-2.57-2.439-3.43-2.439-3.43S27.258 5.904 24.434 5.034a1.62 1.62 0 0 0-.508-.052zm4.212 6.473 2.353 5.285c.097.22-.017.374-.256.357-1.383-.092-5.548-.08-4.573 3.568.062.231.254.563.407.747.835 1.006 3.31 4.081 4.27 6.28.095.22.23.586.29.818.87 3.371-1.41 9.585-9.99 11.233-.236.046-.616.006-.773-.167-.815-.902-2.552-4.054-3.08-5.56a.381.381 0 0 1 .3-.504c1.128-.193 4.198-.756 5.292-2.538.125-.205.275-.567.329-.8.559-2.434-2.642-4.772-3.75-6.447a6.195 6.195 0 0 1-.397-.77c-3.994-9.07 6.67-11.434 8.973-11.833.236-.04.507.111.605.33z" style="color:#000;font-style:normal;font-variant:normal;font-weight:400;font-stretch:normal;font-size:medium;line-height:normal;font-family:sans-serif;font-variant-ligatures:normal;font-variant-position:normal;font-variant-caps:normal;font-variant-numeric:normal;font-variant-alternates:normal;font-variant-east-asian:normal;font-feature-settings:normal;font-variation-settings:normal;text-indent:0;text-align:start;text-decoration-line:none;text-decoration-style:solid;text-decoration-color:#000;letter-spacing:normal;word-spacing:normal;text-transform:none;writing-mode:lr-tb;direction:ltr;text-orientation:mixed;dominant-baseline:auto;baseline-shift:baseline;text-anchor:start;white-space:normal;shape-padding:0;shape-margin:0;inline-size:0;clip-rule:nonzero;display:inline;overflow:visible;visibility:visible;isolation:auto;mix-blend-mode:normal;color-interpolation:sRGB;color-interpolation-filters:linearRGB;solid-color:#000;solid-opacity:1;vector-effect:none;fill:#fff;fill-opacity:1;fill-rule:nonzero;stroke:none;stroke-miterlimit:4;stroke-dasharray:none;stroke-dashoffset:0;stroke-opacity:1;-inkscape-stroke:none;color-rendering:auto;image-rendering:auto;shape-rendering:auto;text-rendering:auto;enable-background:accumulate;stop-color:#000;stop-opacity:1"/></svg>
