<?xml version="1.0" encoding="UTF-8"?>
<svg viewBox="0 0 48 48" xmlns="http://www.w3.org/2000/svg">
  <path fill="#fff" d="M24.131 4c-2.346.006-4.649.284-6.658.8h-.002c-2.044.516-3.379 1-4.463 1.818-1.081.816-1.562 1.658-1.57 2.416.01.656.443 1.391 1.29 2.127 1.247-.867 2.547-1.327 4.493-1.82 2.106-.54 4.484-.827 6.908-.833h.574v4.89c.736.014 1.47.035 2.192.1.075-.002.134.003.215.01.106.01.237.023.388.043.302.038.685.092 1.1.158.83.133 1.778.308 2.44.475 1.954.494 3.31 1.094 4.56 1.965.838-.734 1.266-1.468 1.273-2.122V9.174c0-.76-.478-1.608-1.562-2.43-1.084-.82-2.47-1.446-4.52-1.964-2.014-.51-4.314-.78-6.656-.78h-.002zm-12.995 7.856v2.976l-.002 1.104c0 .156.002.215 0 .283.009.73.458 1.555 1.52 2.373v.004h.002c1.098.851 2.77 1.603 4.814 2.121 1.25.317 2.617.544 4.042.67h.002c.672.063 1.358.085 2.044.102v-5.395a31.105 31.105 0 0 1-2.14-.103 26.776 26.776 0 0 1-4.198-.7c-1.963-.497-3.626-1.513-4.876-2.39l-.008.006-.322-.248a6.7 6.7 0 0 1-.37-.309c-.032-.028-.066-.057-.097-.086-.035-.032-.066-.065-.1-.098-.046-.044-.092-.087-.137-.132-.059-.06-.118-.117-.174-.178zm25.989 5.908a6.695 6.695 0 0 1-.858.787l-.322.25-.012-.01c-1.154.807-2.683 1.744-4.447 2.233v4.615l-.447.113c-2.107.538-4.483.823-6.906.828h-.004c-2.424-.005-4.802-.288-6.909-.828-2.14-.543-3.926-1.322-5.206-2.314h-.002v-.002a6.74 6.74 0 0 1-.878-.809v4.371c0 .76.489 1.31 1.573 2.13 1.084.818 2.72 1.555 4.763 2.072h.002c2.01.515 4.314.79 6.66.796 2.347-.005 4.646-.281 6.655-.796h.002c2.044-.517 3.68-1.254 4.764-2.073 1.084-.818 1.566-1.664 1.572-2.424v-8.939zm-17.58 18.31c-.827 0-1.262.556-1.262 1.046 0 .171.041.777 1.137.777.91 0 1.262-.584 1.262-1.02 0-.293-.24-.803-1.137-.803zm-8.207.26-1.664 7.457h2.05c.234-1.194.547-2.456.854-3.746l1.436 3.746h1.955l1.682-7.455h-2.01l-.854 3.793-1.408-3.795h-2.04zm10.258.002-1.657 7.455h1.989l.666-2.835.84 2.835h2.033l-.842-2.991 2.045-2.485h-2.279l-1.646 1.988.889-3.966h-2.038zm7.887 1.75c-3.083 0-3.532 2.404-3.621 2.842-.226 1.11.026 2.55 1.474 2.932.956.252 2.45.222 3.41-.563.878-.718 1.311-1.932 1.297-3.074-.015-1.098-.943-2.136-2.56-2.136zm7.394.088c-.684.046-1.38.42-1.773.963.05-.224.106-.486.167-.787h-2.033l-1.187 5.442h2.021l.676-3.086c.124-.569.578-.812.983-.707.174.047.415.18.336.654l-.686 3.138h1.998l.916-4.191c.194-.924-.565-1.302-.75-1.357a1.896 1.896 0 0 0-.668-.069zm-18.695.143-1.22 5.474h2.001l1.22-5.474h-2.001zm11.02 1.318c.441-.004.561.26.523.506a15.303 15.303 0 0 1-.43 1.83c0 .004 0 .007-.002.01-.096.302-.381.478-.717.478-.34 0-.545-.214-.515-.486.05-.46.34-1.62.424-1.848.144-.399.538-.488.716-.49z"/>
</svg>
