<?xml version="1.0" encoding="UTF-8"?>
<svg viewBox="0 0 48 48" xmlns="http://www.w3.org/2000/svg">
  <path fill="#fff" d="M23.803 3.83a1.86 1.86 0 0 0-.29.01c-.553.067-1.072.294-1.529.603-.945.642-1.592 1.66-1.888 2.745-.165.603-.139 1.24-.05 1.841.172 1.151 1.162 2.188 2.364 2.262.074.005.148.005.22.004 1.1-.02 2.097-.693 2.759-1.527a4.677 4.677 0 0 0 .978-2.3c.107-.855.007-1.803-.527-2.536a2.606 2.606 0 0 0-2.037-1.102zm9.474 6.766a.447.447 0 0 0-.084.002c-.226.021-.529.17-.718.263-1.944.968-3.982 1.78-6.133 2.092-3.112.44-6.385.64-9.237 2.162-1.7.88-3.16 2.169-4.369 3.635-.225.209-.284.455-.174.615.056.08.156.126.266.121a.666.666 0 0 0 .356-.148c1.842-.849 3.687-1.748 5.691-2.076a.082.082 0 0 1 .002 0c3.127-.546 6.426-.619 9.375-2.012 1.958-.92 3.685-2.33 5.018-4.027a.082.082 0 0 0 .003-.004c.14-.209.205-.342.188-.463a.188.188 0 0 0-.106-.139.245.245 0 0 0-.078-.021zm-8.843 8.299a5.212 5.212 0 0 0-.317.001 3.224 3.224 0 0 0-.369.032c-1.166.178-2.47.921-3.637 2.06-.735.72-1.005 1.034-1.892 2.239a464.572 464.572 0 0 0-3.512 4.793c-.576.794-1.135 1.567-1.553 2.148-.209.29-.382.534-.506.707l-.146.205c-.017.025-.03.046-.041.06l-.022.036a.082.082 0 0 0-.002.002.616.616 0 0 0-.064.338c.009.066.024.132.08.173.057.042.12.047.21.055.154.013.334-.048.538-.154a4.24 4.24 0 0 0 .672-.451c.476-.38.987-.9 1.398-1.45.18-.243.565-.767.856-1.164l.902-1.228a.082.082 0 0 1 0-.002c.629-.866 2.04-2.797 2.547-3.5.415-.575.773-.965 1.121-1.21a1.827 1.827 0 0 1 1.084-.35.082.082 0 0 1 .002 0c.597-.011.931.09 1.424.427.439.305.746.664 1.791 2.115.565.787 1.713 2.376 2.547 3.537.898 1.25 1.335 1.861 1.601 2.198.267.336.371.404.563.533.814.548 1.999.783 3.807.783.61 0 1.076-.013 1.406-.043.165-.015.295-.033.396-.056.101-.024.172-.045.225-.098a.276.276 0 0 0 .082-.123.26.26 0 0 0-.021-.172c-.052-.118-.167-.273-.381-.559a16.948 16.948 0 0 1-.371-.507 130.232 130.232 0 0 0-.826-1.139c-.407-.56-.934-1.28-1.167-1.598l-.002-.002c-.229-.325-1.08-1.494-1.888-2.613-2.746-3.792-2.959-4.078-3.364-4.488a25.977 25.977 0 0 0-.32-.315c-.095-.091-.167-.161-.21-.195-.562-.444-1.148-.751-1.766-.918a3.907 3.907 0 0 0-.875-.107zM11.65 35.658v1.297h3.108v8.012h1.48v-8.012h3.094v-1.297H11.65zm10.75 0-3.697 9.309h1.56l.971-2.531h3.592l.983 2.53h1.546l-3.67-9.308H22.4zm6.11 0v9.309h3.304c.691 0 1.316-.11 1.875-.328a4.155 4.155 0 0 0 1.428-.944 4.2 4.2 0 0 0 .906-1.468c.219-.577.327-1.22.327-1.928a5.48 5.48 0 0 0-.288-1.795 4.12 4.12 0 0 0-.865-1.483 3.985 3.985 0 0 0-1.416-.996c-.56-.244-1.215-.367-1.967-.367H28.51zm1.469 1.297h1.835c.481 0 .91.084 1.286.25a2.8 2.8 0 0 1 1.547 1.744c.14.411.208.86.208 1.35 0 .48-.066.927-.197 1.338-.13.41-.327.768-.59 1.074a2.713 2.713 0 0 1-.957.709c-.376.166-.807.248-1.297.248H29.98v-6.713zm-6.936.395 1.494 3.998h-3.04l1.546-3.998z"/>
</svg>
