<?xml version="1.0" encoding="UTF-8"?>
<svg viewBox="0 0 48 48" xmlns="http://www.w3.org/2000/svg">
  <path fill="#fff" d="M6.9 12.773a2.778 2.778 0 0 0-2.779 2.78 2.778 2.778 0 0 0 2.78 2.777 2.778 2.778 0 0 0 2.779-2.777 2.778 2.778 0 0 0-2.78-2.78zm34.2 0a2.778 2.778 0 0 0-2.78 2.78 2.778 2.778 0 0 0 2.78 2.777 2.778 2.778 0 0 0 2.777-2.777 2.778 2.778 0 0 0-2.777-2.78zm-9.614 1.737a1.25 1.25 0 0 0-1.03 1.95c.387.571.299.414.679 1.63.379 1.217.777 3.147.777 5.91 0 2.762-.398 4.693-.777 5.91-.38 1.217-.678 1.63-.678 1.63a1.25 1.25 0 0 0 2.072 1.4c.186-.276.537-.825.992-2.286.456-1.46.893-3.65.893-6.654s-.437-5.194-.893-6.654c-.455-1.46-.992-2.285-.992-2.285a1.249 1.249 0 0 0-1.043-.551zm-4.242 1.945a1.25 1.25 0 0 0-.916 2.213c.533.438-.067-.075.008.03.076.104.21.319.36.698.298.76.648 2.178.648 4.604 0 2.424-.35 3.842-.649 4.602-.09.247-.211.483-.36.7-.036.053-.038.059-.03.053a1.248 1.248 0 0 0 1.61 1.91c.533-.437.252-.226.454-.507.2-.28.433-.684.652-1.242.44-1.118.825-2.85.825-5.516 0-2.667-.386-4.399-.825-5.516a5.716 5.716 0 0 0-.652-1.242c-.202-.281-.455-.508-.455-.508v-.002a1.25 1.25 0 0 0-.67-.277zm-5.012 2.266a1.247 1.247 0 0 0-1.298.916c-.088.32-.046.663.119.95.59 1.036 1.217 3.248.697 5.413-2.406-1.798-4.768-3.522-7.19-5.697a1.25 1.25 0 0 0-2.03.562c-.43 1.403-.546 2.505-.444 3.522.101 1.016.373 1.874.635 3.037a1.25 1.25 0 1 0 2.44-.551c-.282-1.245-.518-2.046-.587-2.736-.018-.189.003-.394.006-.588 2.4 1.998 4.736 3.728 7.035 5.478a1.252 1.252 0 0 0 1.858-.398c1.949-3.59.847-7.361-.248-9.281a1.25 1.25 0 0 0-.993-.627zm-17.955 2.5A2.778 2.778 0 0 0 1.5 24a2.778 2.778 0 0 0 2.777 2.777A2.778 2.778 0 0 0 7.057 24a2.778 2.778 0 0 0-2.78-2.78zm39.444 0A2.778 2.778 0 0 0 40.943 24a2.778 2.778 0 0 0 2.778 2.777A2.778 2.778 0 0 0 46.5 24a2.778 2.778 0 0 0-2.78-2.78zM6.9 29.668a2.778 2.778 0 0 0-2.78 2.78 2.778 2.778 0 0 0 2.78 2.777 2.778 2.778 0 0 0 2.779-2.778 2.778 2.778 0 0 0-2.78-2.779zm34.199 0a2.778 2.778 0 0 0-2.78 2.78 2.778 2.778 0 0 0 2.78 2.777 2.778 2.778 0 0 0 2.777-2.778 2.778 2.778 0 0 0-2.777-2.779z"/>
</svg>
