<?xml version="1.0" encoding="UTF-8"?>
<svg viewBox="0 0 48 48" xmlns="http://www.w3.org/2000/svg">
  <path fill="#fff" d="M38.882 16.041c-4.608-.039-8.639 4.53-7.293 9.779 1.142 4.458 4.62 6.343 7.953 6.122 3.328-.222 6.54-2.519 7.208-6.296 1.026-3.545-1.236-7.304-4.374-8.874-.236-.117-.47.162-.312.374 1.358 1.843 1.986 4.335 1.762 6.644-.224 2.31-1.234 4.522-3.29 5.577-2.497 1.282-4.988.092-5.695-2.477-1.16-4.218 1.812-8.91 6.026-10.057.245-.064.25-.409.008-.481a6.96 6.96 0 0 0-1.993-.31zm-35.952.002a.25.25 0 0 0-.235.161l-1.678 4.413a.25.25 0 0 0 .21.339l.84.08a.25.25 0 0 0 .265-.184s.227-.831.767-1.66c.54-.83 1.358-1.62 2.565-1.62 1.448 0 2.094.53 2.426 1.048.332.517.329 1.027.329 1.027 0 .012 0 .025.002.037 0 0 .237 1.747.308 3.81.071 2.063-.05 4.453-.662 5.624-.22.422-.79.69-1.333.827a5.228 5.228 0 0 1-1.023.149.25.25 0 0 0-.243.25v.84a.25.25 0 0 0 .25.25h5.874a.25.25 0 0 0 .251-.25V19.65c0-.416.104-.672.263-.886.16-.214.387-.383.64-.564.888-.635 2.283-.744 3.314-.628a.25.25 0 0 0 .277-.243l.027-1.03a.25.25 0 0 0-.25-.255zm15.513 0a.25.25 0 0 0-.252.255l.029 1.085a.25.25 0 0 0 .094.187c.099.08.141.064.184.068.042.004.083.005.128.004.091-.002.202-.013.333-.022.263-.02.606-.047.98-.052.748-.008 1.609.09 2.136.46.631.442 1.181 1.481 1.54 2.411.277.72.355 1.088.418 1.344-2.283-.932-4.842-1.018-6.752-.053-2.04 1.03-3.276 3.216-2.465 6.375.391 1.524 1.374 2.498 2.569 3.038 1.195.541 2.6.67 3.908.576 1.308-.094 2.518-.413 3.34-.804.412-.196.73-.403.924-.656a.718.718 0 0 0 .165-.439.632.632 0 0 0-.204-.443.25.25 0 0 0-.28-.043c-1.854.888-3.542.948-4.76.386-1.218-.562-2.002-1.736-2.058-3.473-.03-.921.434-2.155 1.421-2.845.974-.68 2.483-.864 4.66.26.842 2.284 1.393 4.186 1.92 5.521.268.68.53 1.223.849 1.615.318.392.722.635 1.19.635h4.103a.25.25 0 0 0 .249-.249v-.868a.25.25 0 0 0-.25-.249h-.961c-.2 0-.437-.148-.703-.498-.265-.35-.538-.877-.81-1.52-.545-1.283-1.088-3.022-1.68-4.77-.593-1.747-1.235-3.504-1.996-4.855-.38-.675-.791-1.25-1.254-1.67-.462-.421-.984-.69-1.562-.71h-.01z"/>
</svg>
