<svg xmlns="http://www.w3.org/2000/svg" xml:space="preserve" viewBox="0 0 48 48">
  <path fill="#fff" d="M36.367 15.182c-1.498.028-2.926.91-4.324 2.113-1.4 1.203-2.77 2.79-3.967 4.473-.05.071-.087.133-.125.193-.6-.173-1.226-.193-1.777-.016-.852.274-1.575.81-2.197 1.375-.443.403-.81.817-1.131 1.2-.023-.034-.044-.067-.069-.1a3.96 3.96 0 0 0-.47-.502c.746-.696 1.464-1.902 1.464-3.594 0-2.531-1.642-4.522-3.648-4.543H2.437c-1.211.04-1.211 1.837 0 1.877h4.354v13.487c.04 1.212 1.84 1.212 1.879 0V17.658h6.266v13.487a.94.94 0 0 0 .937.937h4.219c2.019 0 3.68-2 3.68-4.545a5.579 5.579 0 0 0-.104-1.031c.075-.107.155-.224.277-.381.322-.414.785-.952 1.293-1.414.508-.461 1.075-.84 1.51-.98.04-.013.072-.01.107-.016-.645 1.059-1.25 2.12-1.666 3.115-.666 1.6-1.086 3.021-.658 4.28.201.589.618 1.096 1.184 1.31.559.212 1.133.126 1.623-.068.975-.387 1.826-1.213 2.5-2.26.675-1.049 1.157-2.35 1.121-3.735-.03-1.158-.518-2.34-1.455-3.345.034-.055.07-.113.101-.158 1.127-1.584 2.422-3.073 3.66-4.137 1.223-1.05 2.409-1.623 3.106-1.649.001.074-.002.17-.025.307-.115.666-.583 1.843-1.108 3.055-.524 1.212-1.1 2.486-1.422 3.63-.16.571-.27 1.117-.224 1.674.046.572.337 1.223.931 1.55.574.314 1.266.241 1.77-.014.49-.249.878-.622 1.254-1.047.754-.853 1.47-1.983 2.187-3.073.718-1.089 1.446-2.138 2.043-2.724.298-.292.573-.46.692-.5.08-.027.108-.03.107-.03a.4.4 0 0 0 .086.05c.054.035.065.046.078.072a.65.65 0 0 1 .043.199c.024.21-.016.611-.148 1.092-.266.963-.867 2.262-1.487 3.58-.62 1.317-1.258 2.657-1.6 3.882-.17.612-.275 1.208-.21 1.807.066.609.37 1.246.937 1.629.827.558 1.742.71 2.532.557.783-.153 1.426-.556 1.94-.985a7.87 7.87 0 0 0 1.626-1.918.94.94 0 0 0-.338-1.283.941.941 0 0 0-1.283.34c0 .001-.498.826-1.209 1.42-.355.296-.75.515-1.096.582-.357.07-.659.045-1.123-.268-.052-.035-.062-.047-.076-.074a.657.657 0 0 1-.043-.203c-.023-.214.018-.617.152-1.1.27-.967.871-2.27 1.49-3.587.62-1.318 1.258-2.657 1.596-3.881.169-.612.274-1.206.205-1.805-.07-.609-.38-1.246-.953-1.623a2.136 2.136 0 0 0-1.816-.234c-.556.184-1.002.533-1.416.939-.83.813-1.57 1.93-2.297 3.033-.727 1.103-1.437 2.198-2.025 2.863-.285.322-.547.528-.676.598-.013-.17.03-.555.158-1.01.258-.918.807-2.166 1.338-3.392.53-1.225 1.05-2.417 1.234-3.483.092-.529.131-1.093-.172-1.648-.315-.577-1.009-.876-1.656-.863zm-19.554 2.476h3.279c.475 0 .92.288 1.254.774.334.485.549 1.16.549 1.892s-.215 1.411-.55 1.897c-.334.485-.778.773-1.253.773-1.091.003-2.186 0-3.28 0v-5.336zm11.634 7.051c.38.545.62 1.101.635 1.7.024.9-.314 1.878-.822 2.667-.507.787-1.22 1.376-1.614 1.531-.2.08-.301.045-.265.059-.037-.014.006.011 0 .004l-.002-.004a.653.653 0 0 1-.072-.162c-.044-.128-.053-.531.04-1.055.095-.524.28-1.184.577-1.896.364-.874.924-1.857 1.523-2.844zm-11.634.16h3.279c.475 0 .92.288 1.254.774.334.485.549 1.162.549 1.894s-.215 1.41-.55 1.895c-.334.485-.778.773-1.253.773h-3.28V24.87Z"/>
</svg>
