<?xml version="1.0" encoding="UTF-8"?>
<svg version="1.1" viewBox="0 0 48 48" xmlns="http://www.w3.org/2000/svg">
  <g fill="#fff">
    <path d="M9.857 15.172a1.847 1.847 0 0 1 3.692 0v5.475h2.135v-5.475a3.986 3.986 0 0 0-3.985-3.98 3.988 3.988 0 0 0-3.985 3.98v5.475h2.14zm-4.71-3.552a19.355 19.355 0 0 0-.531 4.414l.004 2.978a1.777 1.777 0 0 1 1.097-.375c.393 0 .756.13 1.053.344v-7.36zm.569 7.833a1.193 1.193 0 1 0-.002 2.382 1.193 1.193 0 0 0 .002-2.382m32.427-2.361a1.847 1.847 0 0 1-3.692 0V11.62h-2.138v5.476a3.985 3.985 0 0 0 3.98 3.98 3.988 3.988 0 0 0 3.985-3.98V11.62h-2.139zm4.141-4.282a1.194 1.194 0 1 0 0-2.388 1.194 1.194 0 0 0 0 2.389m.57 7.836c.34-1.416.519-2.896.527-4.414l-.004-2.977a1.773 1.773 0 0 1-1.093.375 1.79 1.79 0 0 1-1.054-.344v7.36zM24 23.5c4.063 0 7.364-3.306 7.364-7.364 0-4.063-3.305-7.364-7.364-7.364-4.063 0-7.364 3.305-7.364 7.364 0 4.058 3.301 7.364 7.364 7.364m0-12.309a4.95 4.95 0 0 1 4.945 4.945A4.948 4.948 0 0 1 24 21.076a4.947 4.947 0 0 1-4.94-4.94A4.945 4.945 0 0 1 24 11.19"/>
    <path d="M6.486 9.969h.453V6.575h1.266v-.393h-2.98v.393h1.261zm3.968.05c.524 0 .998-.154 1.38-.454V7.961h-1.528v.393h1.075v1.058a1.895 1.895 0 0 1-.862.208c-.911 0-1.5-.628-1.5-1.6 0-.943.54-1.49 1.462-1.49.344 0 .742.077 1.075.203l.131-.35a2.617 2.617 0 0 0-1.146-.25c-1.195 0-1.986.78-1.986 1.97 0 1.157.753 1.915 1.899 1.915zm3.132-.05h.442l1.38-3.787h-.458l-1.124 3.23-1.102-3.23h-.519z"/>
    <path d="M10.572 41.366h1.825v-3.154h1.23c2.432 0 4.045-1.372 4.045-3.465 0-1.965-1.443-3.196-3.734-3.196h-3.366Zm3.196-8.217c1.203 0 2.023.736 2.023 1.825 0 1.06-.679 1.654-1.839 1.654h-1.555V33.15zm5.403 8.217h1.824v-3.663h1.655l2.093 3.663h2.192l-2.461-4.045c1.145-.537 1.838-1.598 1.838-2.913 0-1.81-1.315-2.857-3.479-2.857h-3.662zm3.422-8.23c1.145 0 1.824.579 1.824 1.555 0 .919-.565 1.47-1.584 1.47h-1.838v-3.026zm9.913 8.357c2.956 0 4.922-2.05 4.922-5.12 0-2.97-1.91-4.963-4.766-4.963-2.927 0-4.865 2.05-4.865 5.12 0 2.983 1.881 4.963 4.71 4.963zm.156-1.598c-1.782 0-2.956-1.4-2.956-3.521 0-2.023 1.118-3.352 2.8-3.352 1.825 0 3.013 1.386 3.013 3.507 0 2.023-1.132 3.366-2.857 3.366zM2.312 27.06a.395.395 0 0 0-.395.395.395.395 0 0 0 .395.395h43.376a.395.395 0 0 0 .395-.395.395.395 0 0 0-.395-.395z"/>
  </g>
</svg>
