<svg xmlns="http://www.w3.org/2000/svg" xml:space="preserve" viewBox="0 0 48 48"><path d="M32.928 5.396c-1.864.02-3.912.317-6.1 1.038-5.855 1.93-6.229 5.807-6.574 5.937-1.51.568-4.092 2.507-3.18 6.254 7.433-5.077 17.88-.531 17.309 7.012-.372 3.02-1.956 5.06-5.053 6.705-1.999 1.061-4.54 1.225-5.851 1.238-.481.005-.68.334-.39.717 1.521 1.998 4.164 3.261 6.882 3.355-3.313.488-8.27-.69-10.969-2.662-8.934-6.524-4.645-14.37-3.658-14.865.226-6.763-2.752-10.001-4.496-10.53-.182-.054-.379.079-.414.264-.136.704-.307 2.072-.762 3.409-.587 1.724-2.162 3.289-2.98 4.953-.883 1.792-.904 3.339-.973 4.105-.044.478-.963-2.492-1.423-3.661-.104-.265-.409-.28-.554-.025-.494.864-.981 2.628-.97 5.342C2.771 42.38 18.704 46 24 46c11.632-.101 21.054-9.468 21.227-21.098.07-6.962-3.729-12.113-3.729-12.113 1.659-.118 3.025.278 2.924.174-1.484-1.516-3.067-2.59-5.104-3.313 0 0 2.645-.975 4.358-.906.198.008-4.093-3.42-10.748-3.348zm-6.48 5.336s.114 1.153-1.21 1.52c-.97.27-1.685-.68-1.685-.68s.028-.661 1.074-1.093c1.097-.454 1.712.15 1.82.253z" style="display:inline;fill:#fff"/><path d="m14.157 20.794 8.674 7.803a1.554 1.554 0 0 0 2.095-.015l8.623-7.981" style="display:inline;fill:none;fill-opacity:1;stroke:#fff;stroke-width:1;stroke-dasharray:none;stroke-opacity:1"/></svg>