<?xml version="1.0" encoding="UTF-8"?>
<svg viewBox="0 0 48 48" xmlns="http://www.w3.org/2000/svg">
  <path fill="#fff" d="M33.462 10.803a5.63 5.63 0 0 0 2.621 1.275 6.709 6.709 0 0 0 1.33.13h1.014V9.105l-1.006.003c-.742 0-1.377-.208-1.842-.615-.528-.46-.831-1.156-.89-2.008h-3.176a6.75 6.75 0 0 0 .32 1.82 5.62 5.62 0 0 0 1.629 2.499zM21.93 21.591h3.416c-.131-1.426-.228-2.597-.238-3.74 0-3.265.882-5.162 4.279-5.026l.696.026V9.813a8.928 8.928 0 0 0-.646-.037c-3.852 0-8.769.828-7.507 11.815zM18.203 9.813a103.904 103.904 0 0 1-1.688 5.384 178.475 178.475 0 0 1-1.353 3.713h-.154a90.423 90.423 0 0 1-1.352-3.713c-.607-1.767-1.24-3.673-1.714-5.384H8.278a112.625 112.625 0 0 0 2.12 5.927c.775 1.998 1.526 3.947 2.419 5.851h4.42c.884-1.904 1.631-3.853 2.412-5.851a110.12 110.12 0 0 0 2.126-5.927zm20.224 8.328c-.62.303-1.387.514-1.917.514-.996 0-1.555-.347-1.756-1.523-.15-.875-.206-2.664-.035-4.281h-3.263c-.16 1.925-.17 3.111.086 4.794.404 2.654 2.04 4.111 4.79 4.093.999-.007 1.86-.203 3.073-.824zM8.188 25.705c-1.76 0-3.187 1.395-3.187 3.114v9.584c0 1.72 1.428 3.114 3.187 3.114h31.625c1.76 0 3.187-1.395 3.187-3.114V28.82c0-1.72-1.427-3.114-3.187-3.114zm5.176 3.853c.797 0 1.44.207 1.895.598a2.092 2.092 0 0 1 .455.557c.06.107.112.221.156.342.32-.709 1.143-1.323 2.199-1.465a3.478 3.478 0 0 1 .465-.032c1.739 0 2.856 1.232 2.856 2.9v5.082h-1.947v-4.506c0-.415-.082-.777-.236-1.068a1.565 1.565 0 0 0-.176-.266 1.382 1.382 0 0 0-.22-.215 1.334 1.334 0 0 0-.263-.158 1.419 1.419 0 0 0-.3-.098 1.642 1.642 0 0 0-.337-.034 2.07 2.07 0 0 0-.376.034 1.706 1.706 0 0 0-.335.098 1.527 1.527 0 0 0-.292.158 1.476 1.476 0 0 0-.245.215c-.074.08-.14.17-.196.266a1.76 1.76 0 0 0-.144.314 2.084 2.084 0 0 0-.089.358c-.02.126-.03.258-.03.396v4.504h-1.946v-4.504c0-.415-.083-.777-.236-1.068a1.565 1.565 0 0 0-.177-.266 1.385 1.385 0 0 0-.22-.215 1.335 1.335 0 0 0-.263-.158 1.414 1.414 0 0 0-.3-.098 1.642 1.642 0 0 0-.336-.034c-.13 0-.254.012-.371.034a1.675 1.675 0 0 0-.331.098 1.512 1.512 0 0 0-.29.158 1.476 1.476 0 0 0-.243.215 1.57 1.57 0 0 0-.195.266 1.77 1.77 0 0 0-.143.314 2.088 2.088 0 0 0-.089.358c-.02.126-.03.258-.03.396v4.504H9.071v-7.855h1.963v1.232c.399-.796 1.196-1.357 2.33-1.357zm12.982.001c1.005 0 1.881.406 2.345 1.013v-.888h1.964v7.857h-.001v.001-.001h-1.962v-.002h-.003v-.914c-.384.621-1.307 1.041-2.31 1.041a4.277 4.277 0 0 1-1.621-.296h-.001c-.08-.033-.154-.071-.23-.108-.036-.018-.075-.034-.111-.053l-.003-.001c-1.202-.65-1.866-1.946-1.866-3.595 0-1.05.27-1.957.772-2.645.018-.025.039-.046.057-.07.057-.073.113-.145.174-.213.08-.088.166-.173.256-.252l.002-.001a3.323 3.323 0 0 1 .934-.576 4.19 4.19 0 0 1 1.605-.297zm5.508.124h2.138l1.211 1.699c.194.27.606.271.798-.001l1.198-1.698h2.154l-1.845 2.577c-.925 1.293-2.885 1.293-3.81 0zM26.65 31.21c-1.293 0-2.155.951-2.155 2.4s.862 2.4 2.155 2.4c1.292 0 2.186-.95 2.186-2.4s-.862-2.4-2.186-2.4zm8.885 2.566c.773 0 1.545.35 2.038 1.045l1.92 2.717h-.002l.001.002h-2.075l-1.484-2.067a.494.494 0 0 0-.713-.087.482.482 0 0 0-.08.086l-.002.002-1.484 2.064-.001.002h-2.09l.001-.002.147-.206 1.784-2.514c.062-.087.128-.168.198-.243l.002-.002a2.69 2.69 0 0 1 .218-.21l.002-.002a2.438 2.438 0 0 1 .495-.324 2.536 2.536 0 0 1 1.126-.26z"/>
</svg>
