<?xml version="1.0" encoding="UTF-8"?>
<svg version="1.1" viewBox="0 0 48 48" xmlns="http://www.w3.org/2000/svg">
    <path d="m12.034 6.9002c-0.68686 0.19193-1.0333 1.9916-1.0333 1.9916s-2.8834-2.4559-2.7055-0.91403c0.22186 1.923 1.1534 1.1785 0.57151 4.5528l-2.3091 4.295-2.4227 0.76394-0.1347 1.0045 3.5272 0.63501 1.6818 2.7825 0.5234 2.9576 2.8845 2.8999 3.5792 1.6568 1.7184 0.49454-0.76586 0.23669-0.49839 0.4118c-1.8182-0.8735-3.1312-1.4525-3.4117-1.4759-0.64298-0.05374-1.3066 3.8755-1.3066 3.8755 4.3489 2.1183 8.9716 4.6247 12.639 7.93 0 0 9.5466 0.55194 9.0268-0.81782-0.28896-0.76146-6.1876-4.0416-11.571-6.8216l2.8576-3.4387 0.75432-0.1424 2.7325-2.4169 2.415-2.796 5.5997 0.68889 0.14624-0.93905-2.4361-1.8415 9.8908-1.474 0.01347-1.7626-5.2668 0.01539-7.5663 0.8082-14.6-5.5419s-0.56201-1.8718-1.0737-2.034c-0.28491-0.09029-0.76849 0.40879-1.1546 0.87747 0.4591-0.65184 0.9821-1.5469 0.63501-1.8454-0.27817-0.2392-0.68564 0.03934-1.0295 0.38486 0.59289-0.76706 1.3432-1.8726 1.093-2.2822-0.39839-0.65223-1.9185 0.2059-1.9185 0.2059s-0.39844-3.1168-1.0853-2.9249zm-1.7299 8.742a1.3021 1.1251 0 0 1 1.3027 1.1238 1.3021 1.1251 0 0 1-1.3027 1.1257 1.3021 1.1251 0 0 1-1.3008-1.1257 1.3021 1.1251 0 0 1 1.3008-1.1238zm6.202 0.15009 0.93328 0.31366-0.82744 2.4554-2.1764 2.2533-0.0038 0.0058c-1.1683 1.146-2.4101 1.9818-3.7427 2.4169l-0.30596-0.9352c1.1493-0.37526 2.2676-1.1166 3.3579-2.186l2.007-2.0801zm6.5637 2.4419 7.776 2.7094 7.395-0.40025-6.7273 1.8338 2.4053 1.4432-9.6907-0.44643-4.88 0.4118-3.7466-3.1443zm-0.11161 12.052-1.5818 2.7382c-1.3947-0.71535-2.7225-1.3791-3.9024-1.9551l0.12893-0.31366 1.5567-0.45798 3.558 0.03464z" fill="#fff"/>
</svg>
