<?xml version="1.0" encoding="UTF-8"?>
<svg viewBox="0 0 48 48" xmlns="http://www.w3.org/2000/svg">
  <path fill="#fff" d="M4.02 36.05c-.462-.115-.8-.306-1.19-.675-1.206-1.142-1.095-2.877.314-4.865.51-.721 1.608-1.778 2.366-2.28 1.263-.833 3.035-1.662 4.159-1.943a4.67 4.67 0 0 0 .646-.202c.09-.045.335-.414.551-.828.364-.695.382-.756.268-.87-.115-.116-.14-.114-.365.02-1.243.746-2.182 1.086-3.159 1.144-.829.05-1.544-.064-2.163-.345-.611-.277-.966-.602-1.219-1.117-.184-.376-.208-.507-.207-1.136.003-.767.152-1.382.566-2.332.12-.274.218-.579.218-.677 0-.4-.394-.469-.987-.17-.204.102-.417.186-.473.186-.326 0-.118-.82.301-1.188.343-.3 1.082-.64 1.736-.796.687-.165 1.681-.13 1.985.07.452.297.447 1.055-.017 2.438-.381 1.137-.413 1.335-.271 1.675.166.398.638.597 1.309.552 1.326-.09 2.459-.995 3.675-2.938.283-.452.668-.996.856-1.209.35-.396.98-.773 1.293-.773.306 0 .686.207.838.458.409.671.253 1.755-.632 4.386-.349 1.04-.634 1.94-.634 2.002 0 .238 1.116.034 1.374-.251.08-.09.168-.425.24-.918.235-1.598.866-2.948 1.89-4.041 1.269-1.355 2.77-2.239 4.374-2.576 1.14-.24 1.925-.1 2.633.472.607.488.936 1.11.935 1.765-.003 1.454-1.029 3.091-2.607 4.158-.261.177-.918.574-1.459.881-.54.308-1.065.64-1.166.738-.181.176-.181.178-.037.34.08.09.33.251.556.358.384.18.486.194 1.497.194 1.202 0 1.788-.128 2.629-.573.765-.404.807-.482 1.004-1.841.38-2.62 1.016-4.358 2.296-6.263.645-.961 1.19-1.603 2.166-2.555.882-.86 1.394-1.237 2.103-1.55.838-.371 1.238-.454 2.185-.454 1.082.001 1.606.166 2.106.662.738.733.708 2.152-.085 4.005-.938 2.192-3.525 5.156-6.384 7.314-.986.745-1.026.85-.43 1.132.429.203 1.309.387 1.85.387.858 0 2.366-.426 3.06-.864.398-.251.493-.434.546-1.046.08-.934.673-2.402 1.36-3.372.986-1.388 2.96-2.688 4.488-2.954.625-.11 2.215-.048 2.778.107 1.358.373 2.075 1.122 2.278 2.38.17 1.06-.285 3.071-.962 4.246-.763 1.324-2.03 2.437-3.62 3.178-2.438 1.138-4.456 1.126-5.612-.034l-.43-.431-.883.443c-1.02.512-1.72.708-2.935.824-1.926.183-3.02-.071-4.301-1-.64-.462-1.114-.68-1.337-.613-.092.028-.621.253-1.177.5-1.703.76-2.477.976-3.93 1.1-2.002.17-3.626-.313-4.721-1.406-.354-.353-.431-.397-.645-.367-.394.055-3.004.878-3.096.977-.047.05-.195.427-.329.838a14.659 14.659 0 0 1-2.166 4.209c-1.173 1.57-2.924 2.954-4.155 3.284-.398.106-1.275.123-1.646.03zm2.617-3.677c.52-.26 1.188-.906 1.57-1.519.415-.665.89-1.738.834-1.884-.08-.21-.526-.113-1.282.276-1.7.877-2.732 1.827-2.728 2.514a.78.78 0 0 0 .448.718c.32.165.683.133 1.158-.105zm34.081-7.404c1.57-.436 2.657-1.582 2.75-2.901.049-.67-.095-.989-.57-1.269-.316-.185-.412-.202-1.094-.2-1.59.007-3.036.757-3.652 1.894-.231.425-.379 1.194-.31 1.61.099.594.353.892.877 1.027.366.094 1.37.013 2-.161zM18.88 23.187c1.276-.439 2.753-1.509 3.148-2.282.587-1.146-.55-2.01-1.946-1.48-.708.269-1.332.93-1.848 1.955-.808 1.609-.586 2.231.646 1.807zm10.268-.46c.846-.398 2.288-1.94 3.359-3.59 1.477-2.277 1.461-3.74-.041-3.74-.813 0-1.928.944-2.963 2.51-1.304 1.97-1.8 3.675-1.356 4.653.13.288.17.318.41.318.147 0 .413-.068.59-.152zm-6.461-7.017c-.857-.224-1.16-.572-.946-1.086.126-.3.405-.446 1.33-.693.824-.22 1.113-.365 2.01-1.004.391-.278.88-.59 1.085-.693 1.076-.536 2.234-.436 2.546.22.359.757-.322 1.826-1.573 2.469-1.629.837-3.198 1.114-4.452.787z"/>
</svg>
