<svg version="1.1" viewBox="0 0 48 48" xmlns="http://www.w3.org/2000/svg">
    <path
        d="m7 5c-1.108 0-2 0.892-2 2v34c0 1.11 0.892 2 2 2h34c1.11 0 2-0.89 2-2v-34c0-1.108-0.89-2-2-2h-34zm8.5 3a0.5 0.5 0 0 1 0.5 0.5v6.5h7.5v-6.5a0.5 0.5 0 0 1 0.5-0.5 0.5 0.5 0 0 1 0.5 0.5v6.5h7.5v-6.5a0.5 0.5 0 0 1 0.5-0.5 0.5 0.5 0 0 1 0.5 0.5v6.5h6.5a0.5 0.5 0 0 1 0.5 0.5 0.5 0.5 0 0 1-0.5 0.5h-6.5v7.5h6.5a0.5 0.5 0 0 1 0.5 0.5 0.5 0.5 0 0 1-0.5 0.5h-6.5v7.5h6.5a0.5 0.5 0 0 1 0.5 0.5 0.5 0.5 0 0 1-0.5 0.5h-6.5v6.5a0.5 0.5 0 0 1-0.5 0.5 0.5 0.5 0 0 1-0.5-0.5v-6.5h-7.5v6.5a0.5 0.5 0 0 1-0.5 0.5 0.5 0.5 0 0 1-0.5-0.5v-6.5h-7.5v6.5a0.5 0.5 0 0 1-0.5 0.5 0.5 0.5 0 0 1-0.5-0.5v-6.5h-6.5a0.5 0.5 0 0 1-0.5-0.5 0.5 0.5 0 0 1 0.5-0.5h6.5v-7.5h-6.5a0.5 0.5 0 0 1-0.5-0.5 0.5 0.5 0 0 1 0.5-0.5h6.5v-7.5h-6.5a0.5 0.5 0 0 1-0.5-0.5 0.5 0.5 0 0 1 0.5-0.5h6.5v-6.5a0.5 0.5 0 0 1 0.5-0.5zm0.5 8v7.5h7.5v-7.5h-7.5zm8.5 0v7.5h7.5v-7.5h-7.5zm-4.7539 0.82812c0.61979 0 1.0937 0.20443 1.4219 0.61328 0.32812 0.40625 0.49609 0.99089 0.50391 1.7539v1.0469c0 0.78646-0.16276 1.388-0.48828 1.8047-0.32552 0.41667-0.80208 0.625-1.4297 0.625-0.61979 0-1.0937-0.20443-1.4219-0.61328-0.32812-0.40886-0.49609-0.99479-0.50391-1.7578v-1.0469c0-0.79427 0.16406-1.3971 0.49219-1.8086 0.33073-0.41146 0.80599-0.61719 1.4258-0.61719zm-8.3555 0.039063c0.58594 0 1.0404 0.14062 1.3633 0.42187 0.32552 0.28125 0.48828 0.67838 0.48828 1.1914 0 0.28125-0.072918 0.56771-0.21875 0.85938-0.14584 0.29167-0.39584 0.63151-0.75 1.0195l-1.293 1.3633h2.4453v0.91016h-3.8984v-0.77344l1.8398-1.9609c0.2526-0.27604 0.4388-0.51693 0.55859-0.72266 0.1224-0.20573 0.18359-0.40104 0.18359-0.58594 0-0.2526-0.063802-0.45052-0.19141-0.59375-0.1276-0.14583-0.3099-0.21875-0.54688-0.21875-0.25521 0-0.45703 0.088541-0.60547 0.26562-0.14583 0.17448-0.21875 0.40495-0.21875 0.69141h-1.1328c0-0.34635 0.082031-0.66276 0.24609-0.94922 0.16667-0.28646 0.40104-0.51042 0.70312-0.67188 0.30208-0.16406 0.64453-0.24609 1.0273-0.24609zm8.3555 0.875c-0.26563 0-0.46224 0.10286-0.58984 0.30859-0.125 0.20313-0.19141 0.52214-0.19922 0.95703v1.3828c0 0.46354 0.0625 0.80859 0.1875 1.0352 0.1276 0.22396 0.33073 0.33594 0.60938 0.33594 0.27604 0 0.47526-0.10807 0.59766-0.32422 0.1224-0.21615 0.1862-0.54688 0.19141-0.99219v-1.3516c0-0.47135-0.065104-0.8138-0.19531-1.0273-0.1276-0.21615-0.32812-0.32422-0.60156-0.32422zm-3.7461 6.7578v7.5h7.5v-7.5h-7.5zm8.5 0v7.5h7.5v-7.5h-7.5zm3.75 0.82812c0.55208 0 0.98958 0.14323 1.3125 0.42969 0.32552 0.28386 0.48828 0.67057 0.48828 1.1602 0 0.27604-0.06901 0.52083-0.20703 0.73438-0.13802 0.21354-0.32812 0.38411-0.57031 0.51172 0.27604 0.13281 0.49479 0.31641 0.65625 0.55078 0.16146 0.23177 0.24219 0.50521 0.24219 0.82031 0 0.50521-0.17188 0.90495-0.51562 1.1992-0.34375 0.29167-0.8112 0.4375-1.4023 0.4375s-1.0599-0.14714-1.4062-0.44141c-0.34635-0.29427-0.51953-0.69271-0.51953-1.1953 0-0.3151 0.08073-0.58984 0.24219-0.82422 0.16146-0.23438 0.37891-0.41667 0.65234-0.54688-0.24219-0.1276-0.43229-0.29818-0.57031-0.51172-0.13542-0.21354-0.20312-0.45833-0.20312-0.73438 0-0.48438 0.16146-0.86979 0.48438-1.1562 0.32292-0.28906 0.76172-0.43359 1.3164-0.43359zm-8.207 0.078125h1.1406v3.5469h0.64453v0.91016h-0.64453v1.2305h-1.1289v-1.2305h-2.332l-0.050781-0.71094 2.3711-3.7461zm8.207 0.83203c-0.21094 0-0.375 0.065104-0.49219 0.19531-0.11719 0.13021-0.17578 0.3099-0.17578 0.53906 0 0.22656 0.058594 0.40886 0.17578 0.54688 0.11719 0.13802 0.28255 0.20703 0.49609 0.20703 0.21354 1e-6 0.3776-0.06901 0.49219-0.20703 0.11719-0.13802 0.17578-0.32031 0.17578-0.54688 0-0.22135-0.058594-0.39844-0.17578-0.53125-0.11719-0.13542-0.28255-0.20312-0.49609-0.20312zm-8.1953 0.70703-0.074219 0.12891-1.1836 1.8789h1.2578v-2.0078zm8.1914 1.6914c-0.23958 0-0.43099 0.074219-0.57422 0.22266-0.14323 0.14583-0.21484 0.34375-0.21484 0.59375 0 0.24219 0.070312 0.4375 0.21094 0.58594 0.14062 0.14844 0.33594 0.22266 0.58594 0.22266 0.24479 0 0.4362-0.071615 0.57422-0.21484 0.14062-0.14323 0.21094-0.34115 0.21094-0.59375 0-0.2474-0.071615-0.44531-0.21484-0.59375-0.14323-0.14844-0.33594-0.22266-0.57812-0.22266z"
        fill="#fff" />
</svg>