<?xml version="1.0" encoding="UTF-8" standalone="no"?>
<!-- Created with Inkscape (http://www.inkscape.org/) -->

<svg
   width="48"
   height="48"
   viewBox="0 0 48 48"
   version="1.1"
   id="svg1"
   xml:space="preserve"
   xmlns="http://www.w3.org/2000/svg"
   xmlns:svg="http://www.w3.org/2000/svg"><defs
     id="defs1"><style
       id="style1">.cls-1{fill:#fff;}</style><style
       id="style1-1">.i,.j{fill:none;stroke:#fff;stroke-linejoin:round;}.j{stroke-width:1px;}</style><style
       id="style1-0">.i,.j{fill:none;stroke:#fff;stroke-linejoin:round;}.j{stroke-width:1px;}</style><style
       id="style1-6">.i,.j{fill:none;stroke:#fff;stroke-linejoin:round;}.j{stroke-width:1px;}</style><style
       id="style1-62">.d{fill:#fff;}.e{fill:none;stroke:#fff;stroke-linecap:round;stroke-linejoin:round;}</style><style
       id="style1-2">.b{fill:none;stroke:#fff;stroke-linecap:round;stroke-linejoin:round;}</style></defs><path
     style="baseline-shift:baseline;display:inline;overflow:visible;opacity:1;vector-effect:none;fill:#fff;stroke:none;stroke-linecap:round;stroke-linejoin:round;enable-background:accumulate;stop-color:#000000;stop-opacity:1"
     d="m 22.375883,2.0015115 0.07227,0.070312 c -0.27547,-0.039312 -0.530044,0.153813 -0.566407,0.4296875 0.01297,0.1699546 0.111609,0.3215995 0.261719,0.4023438 l -0.0332,0.017578 c 3.777004,2.4220621 6.515551,6.1663321 7.677734,10.4999992 2.576962,9.617386 -3.122851,19.489445 -12.740234,22.066406 C 12.701012,36.634686 8.0819397,36.116589 4.098546,34.03276 3.6593579,33.80504 3.1915249,34.28518 3.4305703,34.718308 8.3379712,43.509503 18.593764,47.851047 28.321195,45.253464 40.053913,42.109726 47.02363,30.035009 43.879789,18.302292 41.276372,8.5970425 32.423633,1.88622 22.375883,2.0015115 Z"
     id="path1" /></svg>
