<?xml version="1.0" encoding="UTF-8" standalone="no"?>
<!-- Created with Inkscape (http://www.inkscape.org/) -->

<svg
   width="48"
   height="48"
   viewBox="0 0 48 48"
   version="1.1"
   id="svg1"
   xml:space="preserve"
   xmlns="http://www.w3.org/2000/svg"
   xmlns:svg="http://www.w3.org/2000/svg"><defs
     id="defs1" /><g
     id="layer1"><path
       id="path1"
       style="fill:#fff;fill-opacity:1;stroke:none;stroke-width:1;stroke-linecap:round;stroke-linejoin:round;stroke-dasharray:none;stroke-opacity:1"
       d="M 24,2 19.445312,6.998698 13,4.9481337 11.555772,11.555772 4.9481337,13 6.998698,19.445312 2,24 6.998698,28.554688 4.9481337,35 11.555772,36.444228 13,43.051866 19.445312,41.001302 24,46 28.554688,41.001302 35,43.051866 36.444228,36.444228 43.051866,35 41.001302,28.554688 46,24 41.001302,19.445312 43.051866,13 36.444228,11.555772 35,4.9481337 28.554688,6.998698 Z m 0,7.333333 A 14.666667,14.666667 0 0 1 38.666667,24 14.666667,14.666667 0 0 1 24,38.666667 14.666667,14.666667 0 0 1 9.333333,24 14.666667,14.666667 0 0 1 24,9.333333 Z" /><circle
       style="fill:#fff;fill-opacity:1;stroke:none;stroke-width:1;stroke-linecap:round;stroke-linejoin:round;stroke-dasharray:none;stroke-opacity:1"
       id="path2"
       cx="24"
       cy="24"
       r="11" /></g></svg>
