<?xml version="1.0" encoding="UTF-8" standalone="no"?>
<!-- Created with Inkscape (http://www.inkscape.org/) -->

<svg
   width="48"
   height="48"
   viewBox="0 0 48 48"
   version="1.1"
   id="svg1"
   xml:space="preserve"
   xmlns="http://www.w3.org/2000/svg"
   xmlns:svg="http://www.w3.org/2000/svg"><defs
     id="defs1" /><g
     id="layer1"
     style="fill:#fff;fill-opacity:1;stroke:none"><path
       id="rect2"
       style="fill:#fff;fill-opacity:1;stroke:none;stroke-width:1;stroke-linecap:round;stroke-linejoin:round"
       d="m 12.272719,15.046634 c -0.620021,0 -1.610001,0.499151 -2.218669,1.119171 L 3.4614355,22.88083 c -0.613634,0.62508 -0.6168582,1.524729 -7e-7,2.153092 l 6.5926152,6.715025 c 0.608669,0.620021 1.598647,1.11917 2.218668,1.11917 h 4.992551 c 0.620021,0 0.628342,-0.499149 0.01967,-1.11917 L 10.69454,25.033922 c -1.1650445,-1.11917 -1.1887155,-1.11917 10e-7,-2.153092 l 6.590428,-6.715025 c 0.608669,-0.62002 0.600348,-1.119171 -0.01967,-1.119171 z" /><path
       id="path3"
       style="fill:#fff;fill-opacity:1;stroke:none;stroke-width:1;stroke-linecap:round;stroke-linejoin:round"
       d="m 35.727281,15.046634 c 0.62002,0 1.61,0.499149 2.218668,1.119171 l 6.592616,6.715025 c 0.613633,0.62508 0.616857,1.524729 0,2.153092 l -6.592617,6.715024 c -0.608667,0.62002 -1.598647,1.119171 -2.218667,1.119171 H 30.73473 c -0.620021,0 -0.628341,-0.499151 -0.01968,-1.119171 l 6.590397,-6.715024 c 1.165046,-1.119171 1.188716,-1.119171 0,-2.153092 l -6.590428,-6.715025 c -0.608669,-0.620022 -0.600349,-1.119171 0.01968,-1.119171 z" /><path
       id="rect10"
       style="fill:#fff;fill-opacity:1;stroke:none;stroke-width:1;stroke-linecap:round;stroke-linejoin:round"
       d="m 21.191143,8.3316093 c -0.533877,0 -1.084936,0.6518143 -1.237209,1.4623543 L 14.616015,38.206036 c -0.152273,0.81054 0.154675,1.462355 0.688552,1.462355 h 3.855892 c 0.533877,0 1.084936,-0.651815 1.237209,-1.462355 l 3.602331,-19.174541 3.60233,19.174541 c 0.152273,0.81054 0.703332,1.462355 1.237209,1.462355 h 3.855892 c 0.533877,0 0.840826,-0.651815 0.688553,-1.462355 L 28.046064,9.7939636 C 27.893791,8.9834236 27.342732,8.3316093 26.808855,8.3316093 Z" /></g></svg>
