<?xml version="1.0" encoding="UTF-8" standalone="no"?>
<!-- Created with Inkscape (http://www.inkscape.org/) -->

<svg
   width="48"
   height="48"
   viewBox="0 0 48 48"
   version="1.1"
   id="svg1"
   xml:space="preserve"
   xmlns="http://www.w3.org/2000/svg"
   xmlns:svg="http://www.w3.org/2000/svg"><defs
     id="defs1" /><path
     d="m 28.474695,8.8912436 c -0.89406,-1.8241 -2.5307,-2.9237 -4.3788,-2.941 -1.8901,0.00903 -3.5755,1.0771 -4.5273,2.9282 L 8.0724855,32.594744 c -0.85656,1.8121 -0.88806,3.7195 -0.092256,5.5166 0.75755,1.7094 2.1098995,2.9852 3.8072995,3.5935 1.617052,0.578266 3.49167,0.512012 5.2669,-0.38028 1.795088,-0.932643 3.279102,-2.327715 4.8678,-3.559 1.2533,-0.93906 0.56254,-2.0124 0.29327,-2.4302 -1.2391,-1.9224 -2.5209,-3.9108 -3.5177,-5.9704 -0.96382,-1.9906 -1.1671,-3.9948 -0.60379,-5.9562 0.89481,-3.1135 4.231,-4.8948 7.592,-4.0563 3.1547,0.7868 5.0719,3.9348 4.4591,7.3228 -0.713707,3.949577 -3.348898,7.416148 -3.67528,7.83359 -0.51904,0.66605 -1.1078,1.4213 -0.97807,2.2344 v 0.0015 c 0.13876,0.85956 0.92256,1.4799 1.6149,2.0259 1.960525,1.765862 5.261255,3.983027 8.73588,3.00926 1.8961,-0.53029 3.4382,-1.8256 4.2318,-3.5537 0.8003,-1.7446 0.77105,-3.7083 -0.08101,-5.5309 C 36.268418,24.705423 28.474695,8.8912436 28.474695,8.8912436 Z m 10.2374,28.7064004 c -0.60904,1.3276 -1.8016,2.3244 -3.2725,2.7354 -2.886204,0.707845 -5.266998,-0.995429 -7.40231,-2.74141 -0.40353,-0.31877 -1.0111,-0.79881 -1.0628,-1.0831 -0.0015,-0.20476 0.44028,-0.77255 0.6788,-1.0786 0.518858,-0.663403 3.205067,-4.257481 3.96853,-8.48909 0.75455,-4.1755 -1.6404,-8.0646 -5.5721,-9.0449 -4.15,-1.0351 -8.2783,1.2031 -9.3967,5.0974 -0.65854,2.2944 -0.41853,4.7231 0.6953,7.0235 1.511514,3.122473 3.60704,6.008113 3.78621,6.45272 -1.549807,1.224555 -3.021276,2.548054 -4.75386,3.51321 -1.3268,0.66755 -2.7774,0.7763 -4.0863,0.30827 -1.3073,-0.46804 -2.3521995,-1.4581 -2.9409995,-2.7895 -0.62329,-1.4063 -0.59704,-2.8419 0.076505,-4.2678 L 20.90338,9.5621436 c 0.6818,-1.3261 1.8571,-2.1144 3.1487,-2.1144 h 0.03075 c 1.2683,0.012 2.4069,0.79731 3.046,2.1016 0,0 7.759494,15.8098474 11.5076,23.7782004 0.6608,1.4176 0.68855,2.9335 0.075,4.27 z"
     id="path2"
     style="fill:#fff;fill-opacity:1;stroke:none;stroke-width:1;stroke-linecap:round;stroke-linejoin:round;stroke-dasharray:none;stroke-opacity:1" /><path
     d="m 27.155495,21.594644 c -1.6351,-1.2721 -3.514,-1.4529 -5.4326,-0.52129 -1.2023,0.58354 -2.6012,1.8504 -2.4384,4.5776 0.20401,3.4465 2.0461,6.0192 3.9963,8.7449 l 0.7283,1.0171 0.61504,-0.81231 c 1.6914,-2.2344 3.3947,-4.6638 4.0128,-7.6355 0.32402,-1.5594 0.52279,-3.8125 -1.4814,-5.3704 z m 0.012,5.0659 c -0.48303,2.3229 -1.7581,4.3458 -3.1285,6.2157 -1.6411,-2.3109 -3.094,-4.5573 -3.2582,-7.3153 -0.20662,-3.482393 2.998894,-3.56798 3.3145,-3.56798 0.149704,0 4.033594,0.04444 3.07216,4.6676 z"
     fill="#fff"
     id="path1"
     style="fill:#fff;fill-opacity:1;stroke:none;stroke-width:1;stroke-linecap:round;stroke-linejoin:round;stroke-dasharray:none;stroke-opacity:1" /><path
     d="m 42.413595,30.886144 c -0.715589,-1.562012 -8.239451,-17.963343 -11.7586,-23.9786004 -1.1108,-1.8991 -2.8404,-3.214 -4.8701,-3.7023 -1.9936,-0.47928 -4.0735,-0.11401 -5.8572,1.0268 -1.7326,1.1093 -2.7189,2.7737 -3.4555,4.255 -2.559648,5.1172704 -5.111591,10.2383944 -7.6093525,15.3862104 -1.3463,2.7932 -2.7384,5.6809 -3.808,8.6518 -1.6329,4.5378 0.51079,9.5024 4.9855995,11.549 3.4232,1.5661 6.9627,1.1183 10.522,-1.3336 1.261266,-0.878722 2.394153,-1.921829 3.55075,-2.9305 0.47737,0.45752 0.87877,0.83311 1.2856,1.1828 0.95107,0.82356 1.9351,1.6749 3.0452,2.3342 1.8774,1.1153 3.7593,1.6734 5.5954,1.6734 1.8189,0 3.592,-0.54754 5.2691,-1.6434 4.0608,-2.6514 5.3081,-7.6633 3.1052,-12.47 z m -3.925,11.216 c -2.8982,1.8931 -6.0199,1.8721 -9.2781,-0.06376 -0.99607,-0.59179 -1.8864,-1.3628 -2.8299,-2.1789 0,0 -0.570151,-0.545484 -2.26747,-2.03006 -2.875819,2.532153 -3.863964,3.305108 -4.40198,3.67556 -3.1375,2.1602 -6.0964,2.5539 -9.0464,1.2046 -3.7599995,-1.7199 -5.5645995,-5.8797 -4.1979995,-9.6764 1.0433,-2.8975 2.4182,-5.7506 3.7479995,-8.5093 2.485222,-5.14681 5.049202,-10.255003 7.60105,-15.3689504 0.64504,-1.2983 1.4971,-2.7482 2.9215,-3.6595 1.4363,-0.91956 3.1052,-1.2151 4.6976,-0.83181 1.6284,0.39153 3.0227,1.4574 3.9258,3.001 4.286974,7.7447104 7.993942,15.8056054 11.6903,23.8458004 1.9096,4.1703 0.90381,8.3271 -2.5622,10.591 z"
     id="path5"
     style="fill:#fff;fill-opacity:1;stroke:none;stroke-width:1;stroke-linecap:round;stroke-linejoin:round;stroke-dasharray:none;stroke-opacity:1" /></svg>
