<?xml version="1.0" encoding="UTF-8" standalone="no"?>
<!-- Created with Inkscape (http://www.inkscape.org/) -->

<svg
   width="48"
   height="48"
   viewBox="0 0 48 48"
   version="1.1"
   id="svg1"
   xml:space="preserve"
   xmlns="http://www.w3.org/2000/svg"
   xmlns:svg="http://www.w3.org/2000/svg"><defs
     id="defs1" /><g
     id="layer1"><path
       id="path1"
       style="fill:#fff;fill-opacity:1;stroke:none;stroke-width:1;stroke-linecap:round;stroke-linejoin:round;stroke-dasharray:none"
       d="M 35.433766,44.172438 C 25.203602,44.227775 23.448038,25.216041 26.228972,25.216041 H 45.17648 c 1.607163,0 1.98859,18.892944 -9.742714,18.956397 z" /><path
       id="path2"
       style="fill:#fff;fill-opacity:1;stroke:none;stroke-width:1;stroke-linecap:round;stroke-linejoin:round;stroke-dasharray:none"
       d="m 10.091372,13.406958 v 5.162786 C 10.090633,31.628005 2,29.430934 2,38.508412 c 0,5.663736 6.473706,5.664253 10.430443,5.664254 3.956738,0 10.43338,-5.18e-4 10.43338,-5.664254 0,-9.077478 -8.091372,-6.880408 -8.091372,-19.938668 v -5.162789 c 0,-0.737539 0,-0.737539 -0.585134,-0.737541 l -3.510811,2e-6 c -0.585134,0 -0.585134,0 -0.585134,0.737542 z" /><path
       id="rect16"
       style="fill:#fff;fill-opacity:1;stroke:none;stroke-width:1;stroke-linecap:round;stroke-linejoin:round;stroke-dasharray:none"
       d="M 12.986328,3.9570312 C 8.1249152,4.1057275 5.0246863,7.0950676 5.0253906,11.103516 c 6.068e-4,2.579316 1.6270173,4.843902 3.7070313,6.134765 v -1.52539 C 8.5771436,15.591536 8.4263755,15.46274 8.28125,15.328125 7.0718429,14.206305 6.2757669,12.702835 6.2753906,11.103516 6.2750754,9.3095903 6.9779515,7.8553098 8.2617188,6.8007812 9.3850149,5.8780689 10.990889,5.2663984 13.025391,5.2050781 c 0.290643,-0.00876 0.590477,-0.0066 0.898437,0.00781 2.956537,0.1383985 6.684801,1.3967646 10.808594,4.3457032 4.590421,3.2826247 7.716195,7.6737777 10.753906,13.2890617 H 35 c 0.02379,0 0.03766,-7.51e-4 0.04492,-0.002 h 0.002 0.002 0.002 v -0.002 -0.002 h -0.002 c -0.02843,-0.01394 -0.178582,-0.0527 -0.326172,-0.144531 -0.209594,-0.130413 -0.445527,-0.33814 -0.597656,-0.525391 -0.115034,-0.189812 -3.305379,-5.451864 -5.978516,-8.125 C 25.11932,11.019476 23.62795,9.6161045 21.968842,9.2068877 21.139288,9.0022794 20.076454,9.4119992 19.628998,10.019388 c -0.447455,0.607389 -0.582419,1.205401 -0.748047,1.820313 -0.331255,1.229822 -0.647301,2.542882 -1.455078,3.513672 -0.327472,0.393557 -0.734039,0.759054 -1.294922,1.054687 v 1.355469 c 6.856145,-2.744397 0.622839,-13.3400539 11.13086,-2.832031 2.466726,2.466726 5.871093,8.003906 5.871093,8.003906 0.511246,0.643788 1.344773,1.162109 1.867188,1.162109 h 1.992188 c 0.522415,0 0.405801,-0.435378 0.02148,-1.162109 C 33.80729,16.872316 30.463948,12.120081 25.458984,8.5410156 21.182717,5.4830427 17.240136,4.1173406 13.982422,3.9648438 c -0.339345,-0.015885 -0.672,-0.017726 -0.996094,-0.00781 z" /></g></svg>
