<?xml version="1.0" encoding="UTF-8" standalone="no"?>
<svg
   width="48"
   height="48"
   viewBox="0 0 48 48"
   version="1.1"
   id="svg1"
   xml:space="preserve"
   xmlns="http://www.w3.org/2000/svg"
   xmlns:svg="http://www.w3.org/2000/svg"><defs
   id="defs1" />
    <path
   style="fill:#fff;stroke:none;stroke-width:1;stroke-linecap:round;stroke-linejoin:round;stroke-opacity:1"
   d="M 21.15776,3.0930111 C 19.248068,3.3590169 23.345113,5.7282007 24.37305,6.8222296 17.394655,8.0560718 9.760449,13.629582 6.9772283,21.467023 6.5777774,22.598156 6.2928922,23.046574 5.383619,23.98268 c -0.6086291,0.62654 -1.3972206,1.677283 -1.7512427,2.334271 -1.1673961,2.166465 -0.6796047,3.070751 1.1423026,2.120493 0.4759579,-0.248249 0.8967525,-0.451307 0.9350038,-0.451307 0.1975696,2.780236 0.6355228,5.29997 2.2975613,7.965888 1.157998,1.574918 3.165787,3.219621 4.960055,4.063919 0.855395,0.402458 0.970562,0.525466 1.08184,1.140143 0.840804,4.071016 2.582767,5.213416 5.901537,1.202764 0.07651,-0.21414 8.767923,-0.197155 8.846907,0.01728 0.872755,1.178008 1.557111,2.474127 3.105163,2.53509 1.257281,-0.01349 2.314958,-2.163463 2.798533,-3.78968 0.111488,-0.57356 0.248718,-0.715706 1.073203,-1.105594 4.151614,-1.963202 6.238619,-5.059527 6.743687,-9.604842 0.272054,-3.852651 0.02794,-4.159749 1.008422,-3.584542 1.729139,1.014382 1.983646,-1.083799 0.511769,-2.686246 -0.43693,-0.475625 -1.667121,-1.33232 -2.029799,-2.012525 C 39.84602,17.298339 37.958374,9.5161984 25.48728,6.8006403 v -0.00216 c 0.01574,-0.096406 0.524589,-0.534227 1.144462,-0.9803505 1.993496,-1.434688 1.960684,-1.4008265 1.645435,-1.5979316 C 26.820226,4.0661891 25.338952,5.2675966 24.746619,5.9498473 24.144402,4.0980668 23.275745,3.0120187 21.15776,3.0930111 Z m 3.122437,5.396246 C 35.12839,8.6329843 42.829031,20.075893 40.736696,32.581259 c -0.783424,2.124951 -2.405685,4.177582 -4.195641,5.312032 -1.717539,1.088457 -4.524731,2.060955 -7.173401,2.485426 -2.065027,0.330937 -5.959842,0.46495 -7.931337,0.27208 C 16.232179,40.141671 12.24809,38.520822 9.983061,35.990893 9.157735,35.069049 8.1029387,33.077927 7.7481206,31.773659 5.6972448,23.193148 13.567881,9.1441884 24.280197,8.4892571 Z"
   id="path6" /><path
   style="fill:#fff;stroke:none;stroke-width:1;stroke-linecap:round;stroke-linejoin:round;stroke-opacity:1"
   d="m 24.187344,20.685334 c -2.89862,0.02322 -5.734015,0.144851 -6.132588,0.293673 -2.440785,0.91123 -1.885992,3.85231 0.01296,4.560573 0.625765,0.233712 11.900466,0.241464 12.55669,0.0086 2.230977,-0.791494 2.275643,-3.745311 0.0691,-4.56921 -0.647417,-0.241715 -3.607538,-0.316896 -6.506158,-0.293673 z m 0.185706,0.706112 c 1.430395,0 1.485641,0.01599 1.485641,0.401641 -0.353016,0.726927 -0.535748,1.107404 -1.485641,1.159577 -0.83532,0 -1.4878,-0.507841 -1.4878,-1.159577 0,-0.385653 0.05749,-0.401641 1.4878,-0.401641 z m -2.671131,0.0043 c 0.549855,0.01332 0.624055,0.08617 0.624055,0.310948 -0.363552,0.745103 -0.513474,1.15616 -1.453251,1.241633 -0.860638,-0.0066 -1.236807,-0.21002 -1.582811,-0.857267 -0.334996,-0.62665 -0.263084,-0.657555 1.68862,-0.693155 0.303508,-0.0056 0.540101,-0.0066 0.723387,-0.0022 z m 5.41784,0.01511 c 0.209522,-5.2e-4 0.480466,0.0057 0.831354,0.01728 1.504624,0.04943 1.533289,0.05864 1.483482,0.47506 -0.342734,0.71355 -0.523333,1.025403 -1.451092,1.04945 -0.628552,-0.153523 -1.33145,-0.296012 -1.565538,-1.243793 0,-0.226908 0.07322,-0.296433 0.701794,-0.297991 z"
   id="path5" /><path
   style="fill:#fff;stroke:none;stroke-width:1;stroke-linecap:round;stroke-linejoin:round;stroke-opacity:1"
   d="m 17.290342,12.907312 c -2.017376,0.05528 -3.876784,1.537963 -3.882533,3.714103 -0.0049,1.860161 1.311279,3.393434 3.172103,3.698987 4.096555,0.672754 6.575707,-4.092586 3.400996,-6.53639 -0.822562,-0.633184 -1.773565,-0.901797 -2.690566,-0.8767 z m 0.153315,0.220254 c 0.144499,-0.0052 0.289875,-0.0011 0.434032,0.01296 0.69188,0.06729 1.369528,0.357701 1.932629,0.883179 1.501606,1.401339 1.212932,3.558881 -0.630534,4.718206 -0.6146,0.386449 -2.069921,0.526927 -2.802852,0.26992 -1.775639,-0.62267 -2.645085,-2.98363 -1.621681,-4.40078 0.679401,-0.940829 1.676913,-1.446776 2.688406,-1.483482 z"
   id="path4" /><path
   style="fill:#fff;stroke:none;stroke-width:1;stroke-linecap:round;stroke-linejoin:round;stroke-opacity:1"
   d="m 17.571059,14.971662 c -0.708431,0 -0.779809,0.130222 -0.263442,0.74282 l 0.37141,0.440511 -0.742821,0.118764 c -0.837973,0.132118 -0.909848,0.279072 -0.373569,0.77953 0.553681,0.516655 1.549091,0.462735 2.031959,-0.110128 0.211943,-0.251445 0.357893,-0.612172 0.263442,-0.915569 -0.164844,-0.529535 -0.578537,-1.055928 -1.286979,-1.055928 z"
   id="path3" /><path
   style="fill:#fff;stroke:none;stroke-width:1;stroke-linecap:round;stroke-linejoin:round;stroke-opacity:1"
   d="m 31.464395,12.892196 c -0.917311,-0.02155 -1.868449,0.25233 -2.699203,0.891816 -5.273238,4.288929 4.588831,9.541611 6.570939,2.837403 -0.0057,-2.197809 -1.853586,-3.6818 -3.871736,-3.729219 z m -0.293674,0.254805 c 0.05507,-0.0011 0.109764,8.53e-4 0.164112,0.0043 1.008473,0.0643 1.879557,0.384517 2.656015,1.459728 0.842718,1.167065 0.390417,3.160846 -0.913409,4.027211 -0.910014,0.604682 -2.634527,0.663513 -3.493849,0.118765 -1.863688,-1.181327 -1.90672,-3.672757 -0.682358,-4.649107 0.548977,-0.437773 1.443483,-0.944886 2.269489,-0.960915 z"
   id="path2" /><path
   style="fill:#fff;stroke:none;stroke-width:1;stroke-linecap:round;stroke-linejoin:round;stroke-opacity:1"
   d="m 31.358586,14.971662 c -0.681831,0 -1.407904,0.627523 -1.407904,1.215721 0,0.747496 1.425033,1.790982 2.416326,0.865904 0.53628,-0.500458 0.466563,-0.647412 -0.37141,-0.77953 l -0.74498,-0.118764 0.37357,-0.440511 c 0.516366,-0.612609 0.469408,-0.74282 -0.265602,-0.74282 z"
   id="rect2" /></svg>
