<?xml version="1.0" encoding="UTF-8" standalone="no"?>
<!-- Created with Inkscape (http://www.inkscape.org/) -->

<svg
   width="48"
   height="48"
   viewBox="0 0 48 48"
   version="1.1"
   id="svg1"
   xml:space="preserve"
   xmlns="http://www.w3.org/2000/svg"
   xmlns:svg="http://www.w3.org/2000/svg"><defs
     id="defs1" /><path
     id="path19"
     style="baseline-shift:baseline;display:inline;overflow:visible;opacity:1;fill:#fff;fill-opacity:1;stroke:none;stroke-width:1;stroke-linecap:round;stroke-linejoin:round;stroke-dasharray:none;enable-background:accumulate;stop-color:#000000;stop-opacity:1"
     d="M 22.941392,5.2083957 8.2601778,13.683076 C 7.6656067,14.027874 7.231206,14.688161 7.1996159,15.543457 v 16.927798 c 3.218e-4,0.757185 0.4046164,1.456667 1.0605604,1.834908 l 14.6753327,8.470761 0.0059,0.0039 c 0.50727,0.292873 1.609036,0.292873 2.123082,-0.0039 l 14.675333,-8.470767 c 0.655944,-0.378241 1.060239,-1.077723 1.06056,-1.834908 V 15.517984 c 4e-5,-1.222593 4e-5,-1.222593 -1.06056,-1.834908 L 25.058593,5.2083957 c -0.47858,-0.277853 -1.635945,-0.277853 -2.117201,0 z m 1.0586,4.281449 10.440934,6.0281393 -10.440934,6.030099 -10.440933,-6.030099 z m -12.562053,9.6999133 10.442893,6.028138 v 12.058239 l -10.442893,-6.02814 z m 25.124107,0 v 12.058237 l -10.442893,6.02814 V 25.217896 Z" /></svg>
