<?xml version="1.0" encoding="UTF-8" standalone="no"?>
<svg
   width="48"
   height="48"
   viewBox="0 0 48 48"
   version="1.1"
   id="svg1"
   xml:space="preserve"
   xmlns="http://www.w3.org/2000/svg"
   xmlns:svg="http://www.w3.org/2000/svg"><defs
   id="defs1" />
    <path
   d="m 17.837209,34.07934 c -0.34229,-0.18504 -0.60361,-0.56668 -0.64112,-0.93633 0.45384,-1.8668 1.2521,-2.8934 2.1403,-5.0345 -0.02044,-0.0533 -0.88945,-1.1448 -1.7948,-2.2544 l -0.47347,-0.58028 c -0.08837,0.99972 -0.09905,1.9156 -0.15585,2.9271 -0.03861,0.33727 -1.0766,4.4639 -1.251,4.9738 -0.27657,0.80831 -1.0635,1.1546 -1.7027,0.74928 -0.33231,-0.21074 -0.45892,-0.41456 -0.47907,-0.77118 0.26105,-1.9716 0.50467,-2.6364 1.0223,-4.728 0.01789,-1.728 0.21828,-3.4966 0.29789,-5.2195 l 0.42148,-1.1395 c -0.08854,-0.10344 -0.20094,-0.27309 -0.24979,-0.37699 -0.0554,-0.11787 -0.26779,-0.35467 -0.56476,-0.62966 -0.5169,-0.47866 -0.58544,-0.60206 -0.46441,-0.83611 0.13661,-0.26417 0.32557,-0.25399 0.74286,0.04 0.17934,0.12635 0.68078,0.6197 0.70922,0.61022 0.02844,-0.0095 -0.15195,-0.96961 0.0042,-1.6475 0.39474,-1.7134 0.51032,-2.0445 0.80347,-2.3019 0.15314,-0.13446 0.17208,-0.13868 0.76038,-0.1693 0.33184,-0.01728 1.499,-0.02455 2.5938,-0.01616 1.7771,0.01361 2.0056,0.02358 2.1322,0.09287 0.34612,0.18948 2.2698,2.8908 2.5033,3.5154 0.20059,0.53636 0.12372,0.7359 -1.2297,3.1926 -1.0902,1.9789 -1.2401,2.2756 -1.188,2.3522 0.02426,0.03561 1.2223,1.013 2.6623,2.1721 l 2.6183,2.1073 0.3518,-0.34236 c 0.6894,-0.67088 1.5179,-0.85494 2.2793,-0.50635 0.28686,0.13133 0.80414,0.60767 1.0509,0.96774 l 0.17896,0.26112 0.38207,0.003 c 0.2943,0.0026 0.42364,0.02487 0.56302,0.09735 0.38948,0.20257 0.66884,0.60595 0.79189,1.1434 0.08119,0.35466 0.12007,0.41223 0.4832,0.71566 0.33553,0.28035 0.36561,0.29595 0.6701,0.34757 0.27378,0.04641 0.64746,0.24017 0.84591,0.43862 0.25987,0.25987 0.54712,0.71956 0.48713,0.77956 -0.11245,0.11247 -13.018,0.06789 -13.315,-0.046 -0.11147,-0.04278 -0.09513,-0.07905 0.16328,-0.36238 0.42294,-0.46372 0.89411,-0.69819 1.5407,-0.76668 0.2302,-0.02439 0.26878,-0.04278 0.31175,-0.14865 0.18459,-0.45485 0.28416,-0.61074 0.48212,-0.75482 0.11552,-0.08409 0.26094,-0.1657 0.32314,-0.18137 0.24651,-0.06209 0.41029,-0.1758 0.5833,-0.40494 0.25147,-0.33307 0.48382,-0.54893 0.76594,-0.71158 0.19539,-0.11264 0.22959,-0.14936 0.18095,-0.19422 -0.033,-0.03043 -0.9455,-0.76487 -2.0278,-1.6321 -1.0823,-0.86723 -2.1501,-1.725 -2.3729,-1.9062 -0.56655,-0.46073 -0.60151,-0.44578 -0.18158,0.07768 0.40992,0.51096 0.47723,0.72896 0.365,1.182 -0.14263,0.57577 -2.425,4.9827 -2.8436,5.4905 -0.26947,0.32692 -0.9732,0.52615 -1.2775,0.36167 z m 3.0844,-11.332 c -0.09508,0 -1.976,0.81478 -1.976,0.85597 0.27637,0.34682 0.70627,0.61508 1.0673,0.89428 0.33997,-0.57668 0.64402,-1.1874 0.90875,-1.7503 z m -2.1806,-3.7547 h -1.3157 c -0.13462,0.52469 -0.23444,1.1344 -0.32273,1.6285 0.58422,-0.56708 1.0196,-1.009 1.6384,-1.6285 z"
   id="path22"
   style="fill:#fff;fill-opacity:1;stroke:none;stroke-width:1;stroke-linecap:round;stroke-linejoin:round;stroke-dasharray:none;stroke-opacity:1" /><path
   d="m 24.724009,19.5792 c -0.2873,-0.07247 -0.53926,-0.22564 -0.78471,-0.47705 -0.69936,-0.71633 -0.70611,-1.8146 -0.01539,-2.5053 0.86791,-0.86791 2.3351,-0.6222 2.8773,0.48185 0.11896,0.24227 0.12885,0.30233 0.12885,0.78264 0.052,0.79648 -0.43456,1.1306 -0.97503,1.6074 -0.20429,0.10371 -0.31592,0.12749 -0.65351,0.13926 -0.22392,0.0078 -0.48378,-0.0051 -0.57748,-0.02878 z"
   id="path37"
   style="fill:#fff;fill-opacity:1;stroke:none;stroke-width:1;stroke-linecap:round;stroke-linejoin:round;stroke-dasharray:none;stroke-opacity:1" /><rect
   style="fill:#fff;fill-opacity:1;stroke:none;stroke-width:1;stroke-linecap:round;stroke-linejoin:round;stroke-dasharray:none;stroke-opacity:1"
   id="rect70"
   width="1.6738"
   height="8"
   x="23.105009"
   y="2.9330711"
   rx="1"
   ry="1" /><rect
   style="fill:#fff;fill-opacity:1;stroke:none;stroke-width:1;stroke-linecap:round;stroke-linejoin:round;stroke-dasharray:none;stroke-opacity:1"
   id="rect71"
   width="1.6738"
   height="8"
   x="23.108006"
   y="37.066929"
   rx="1"
   ry="1" /><rect
   style="fill:#fff;fill-opacity:1;stroke:none;stroke-width:1;stroke-linecap:round;stroke-linejoin:round;stroke-dasharray:none;stroke-opacity:1"
   id="rect72"
   width="1.6738"
   height="8"
   x="23.169474"
   y="-45.001209"
   rx="1"
   ry="1"
   transform="rotate(90)" /><rect
   style="fill:#fff;fill-opacity:1;stroke:none;stroke-width:1;stroke-linecap:round;stroke-linejoin:round;stroke-dasharray:none;stroke-opacity:1"
   id="rect73"
   width="1.6738"
   height="8"
   x="23.150227"
   y="-10.998791"
   rx="1"
   ry="1.1959704"
   transform="rotate(90)" /><rect
   style="fill:#fff;fill-opacity:1;stroke:none;stroke-width:1;stroke-linecap:round;stroke-linejoin:round;stroke-dasharray:none;stroke-opacity:1"
   id="rect74"
   width="1.6738"
   height="6.3332"
   x="-9.6402826"
   y="11.026819"
   rx="1"
   ry="1"
   transform="rotate(-60)" /><rect
   style="fill:#fff;fill-opacity:1;stroke:none;stroke-width:1;stroke-linecap:round;stroke-linejoin:round;stroke-dasharray:none;stroke-opacity:1"
   id="rect75"
   width="1.6738"
   height="6.3332"
   x="7.9031658"
   y="11.058813"
   rx="1"
   ry="1"
   transform="rotate(-30)" /><rect
   style="fill:#fff;fill-opacity:1;stroke:none;stroke-width:1;stroke-linecap:round;stroke-linejoin:round;stroke-dasharray:none;stroke-opacity:1"
   id="rect76"
   width="1.6738"
   height="6.3332"
   x="31.889349"
   y="-12.889668"
   rx="1"
   ry="1"
   transform="rotate(30)" /><rect
   style="fill:#fff;fill-opacity:1;stroke:none;stroke-width:1;stroke-linecap:round;stroke-linejoin:round;stroke-dasharray:none;stroke-opacity:1"
   id="rect77"
   width="1.6738"
   height="6.3332"
   x="-33.606773"
   y="24.10187"
   rx="1"
   ry="1"
   transform="rotate(-120)" /><rect
   style="fill:#fff;fill-opacity:1;stroke:none;stroke-width:1;stroke-linecap:round;stroke-linejoin:round;stroke-dasharray:none;stroke-opacity:1"
   id="rect78"
   width="1.6738"
   height="6.3332"
   x="-9.6351624"
   y="48.099144"
   rx="1"
   ry="1"
   transform="rotate(-60)" /><rect
   style="fill:#fff;fill-opacity:1;stroke:none;stroke-width:1;stroke-linecap:round;stroke-linejoin:round;stroke-dasharray:none;stroke-opacity:1"
   id="rect79"
   width="1.6738"
   height="6.3332"
   x="7.8973188"
   y="48.127911"
   rx="1"
   ry="1"
   transform="rotate(-30)" /><rect
   style="fill:#fff;fill-opacity:1;stroke:none;stroke-width:1;stroke-linecap:round;stroke-linejoin:round;stroke-dasharray:none;stroke-opacity:1"
   id="rect80"
   width="1.6738"
   height="6.3332"
   x="31.902452"
   y="24.171976"
   rx="1"
   ry="1"
   transform="rotate(30)" /><rect
   style="fill:#fff;fill-opacity:1;stroke:none;stroke-width:1;stroke-linecap:round;stroke-linejoin:round;stroke-dasharray:none;stroke-opacity:1"
   id="rect81"
   width="1.6738"
   height="6.3332"
   x="31.907969"
   y="6.6270924"
   rx="1"
   ry="1"
   transform="rotate(60)" /></svg>
