<?xml version="1.0" encoding="UTF-8"?>
<svg version="1.1" viewBox="0 0 48 48" xml:space="preserve" xmlns="http://www.w3.org/2000/svg"><path d="m30.893 12.007v17.188l-11.437 4.2049v-12.248l-6.5628 2.417v-4.9369z" fill="#fff" stroke-width=".8571"/><path d="m24.004 4.1214c-11.042 0-20.341 8.8726-19.995 19.805 0.13177 4.1653 1.8473 8.1161 2.8555 11.319l2.4165 7.6744c0.22808 0.72434 0.99724 1.1234 1.7215 0.89536l5.9115-1.8633c0.72434-0.2281 1.1234-0.99378 0.89536-1.7181l-2.4165-7.6744c-0.2281-0.72434-0.99378-1.1234-1.7181-0.89536l-4.0516 1.2722c-1.722-2.6953-2.6366-5.8192-2.6377-9.0089 8.708e-4 -9.3095 7.6201-16.856 17.019-16.856s17.018 7.5467 17.019 16.856c-6.52e-4 3.1575-0.89661 6.2516-2.5858 8.9294l-4.0723-1.2825c-0.72434-0.22809-1.4935 0.17102-1.7215 0.89536l-2.4165 7.6744c-0.2281 0.72434 0.17102 1.49 0.89536 1.7181l5.9148 1.8633c0.72434 0.2281 1.49-0.17102 1.7181-0.89536l2.4165-7.6744c1.1704-3.7172 2.8188-7.6827 2.8278-11.228 0.027786-10.938-8.9526-19.805-19.995-19.805z" fill="#fff" stroke-width="1.0513"/></svg>
