<?xml version="1.0" encoding="UTF-8" standalone="no"?>
<!-- Created with Inkscape (http://www.inkscape.org/) -->

<svg
   width="48"
   height="48"
   viewBox="0 0 48 48"
   version="1.1"
   id="svg1"
   xml:space="preserve"
   xmlns="http://www.w3.org/2000/svg"
   xmlns:svg="http://www.w3.org/2000/svg"><defs
     id="defs1" /><path
     id="path13"
     style="baseline-shift:baseline;display:inline;overflow:visible;opacity:1;fill:#fff;fill-opacity:1;stroke:none;stroke-width:1;stroke-linecap:round;stroke-linejoin:round;stroke-dasharray:none;stroke-opacity:1;enable-background:accumulate;stop-color:#000000;stop-opacity:1"
     d="m 24,5.0000002 c 0.217936,-1.427e-4 0.433475,0.045453 0.632684,0.1338371 l 13.704918,6.1029707 c 0.562447,0.250102 0.924839,0.807992 0.924693,1.423541 V 24 c 0,6.098206 -2.537629,10.870803 -5.662526,14.062627 C 30.474872,41.254452 26.906209,43 24,43 21.093791,43 17.525128,41.254452 14.400231,38.062627 11.275334,34.870803 8.737705,30.098206 8.737705,24 V 12.660349 C 8.737559,12.0448 9.099951,11.48691 9.662398,11.236808 L 23.367316,5.1338373 C 23.566525,5.0454525 23.782064,4.9998575 24,5.0000002 Z m 0,3.2631919 V 24 H 11.852459 c 0,5.242594 2.136542,9.190447 4.774334,11.884733 2.637793,2.694288 5.920339,4.000513 7.373207,4.000513 V 24 H 36.147541 V 13.67021 Z" /></svg>
