<?xml version="1.0" encoding="UTF-8" standalone="no"?>
<!-- Created with Inkscape (http://www.inkscape.org/) -->

<svg
   width="48"
   height="48"
   viewBox="0 0 48 48"
   version="1.1"
   id="svg1"
   xmlns="http://www.w3.org/2000/svg"
   xmlns:svg="http://www.w3.org/2000/svg">
  <defs
     id="defs1" />
  <path
     d="m 9.8743113,10.552769 h 8.8102177 l 3.51632,7.327107 c 1.639512,3.279023 3.775192,3.397672 6.007947,3.397672 h 13.569116 c 0.674836,-0.0018 1.222683,0.545088 1.222083,1.219926 v 2.977008 c 0.0018,0.67568 -0.546403,1.223879 -1.222083,1.222083 h -1.716094 v 5.229179 h -2.634005 v -2.51967 h -2.593017 v 5.380186 h -2.788248 v -8.089695 h -3.775191 c -2.267272,0 -4.415895,0.111098 -6.071586,3.423559 L 18.68345,37.447231 H 9.8732323 c -1.4507517,0 -1.9695708,-0.906046 -2.2899227,-2.289923 L 5.7820041,27.390121 v -0.0022 L 5.0000002,24 5.7830827,20.613114 7.5843882,12.842692 c 0.3203519,-1.383877 0.839171,-2.289923 2.2899231,-2.289923 z"
     fill="#fff"
     id="path1"
     style="fill:#fff;fill-opacity:1;stroke:none;stroke-width:1;stroke-dasharray:none" />
</svg>
