<?xml version="1.0" encoding="UTF-8"?>
<svg width="48" height="48" version="1.1" viewBox="0 0 12.7 12.7" xml:space="preserve" xmlns="http://www.w3.org/2000/svg"><path d="m2.4159 2.605c-0.40404 0-0.54847 0.25227-0.63769 0.63769l-0.50126 2.1642-0.21859 0.94309 0.21807 0.94309v0.0015503l0.50178 2.1627c0.089219 0.38541 0.23365 0.63769 0.63769 0.63769h2.4536l0.97927-2.0407c0.46111-0.92253 1.0594-0.95343 1.6909-0.95343h1.0516v2.2531h0.7767v-1.4986h0.7214v0.70177h0.7338v-1.4562h0.47801c0.18804 5.496e-4 0.3408-0.15199 0.34055-0.34003v-0.82941c2.53e-4 -0.18804-0.15251-0.34006-0.34055-0.33951h-3.7791c-0.62183 0-1.2167-0.032981-1.6733-0.9462l-0.97927-2.0407h-2.4536zm0.16485 0.84439h0.73587c0.33158 0 0.59841 1.1419 0.59841 2.5601v0.6811c0 1.4181-0.26683 2.5601-0.59841 2.5601h-0.73587c-0.33158 0-0.59841-1.1419-0.59841-2.5601v-0.6811c0-1.4181 0.26683-2.5601 0.59841-2.5601z" fill="#fff" stroke-width=".27537"/></svg>
