<?xml version="1.0" encoding="UTF-8" standalone="no"?>
<!-- Created with Inkscape (http://www.inkscape.org/) -->

<svg
   width="48"
   height="48"
   viewBox="0 0 48 48"
   version="1.1"
   id="svg1"
   xml:space="preserve"
   xmlns="http://www.w3.org/2000/svg"
   xmlns:svg="http://www.w3.org/2000/svg"><defs
     id="defs1" /><g
     id="layer1"><path
       style="baseline-shift:baseline;display:inline;overflow:visible;opacity:1;vector-effect:none;fill:#fff;fill-opacity:1;stroke:none;stroke-linecap:round;stroke-linejoin:round;enable-background:accumulate;stop-color:#000000;stop-opacity:1"
       d="M 24.7895,5.154238 A 2.0181769,2.0181769 0 0 0 23.543406,7.0175193 V 34.152285 l -4.455078,4.457031 -3.253906,-3.253906 4.251953,-4.251954 a 2.0179751,2.0179751 0 0 0 0,-2.855468 2.0179751,2.0179751 0 0 0 -2.853516,0 l -4.884766,4.886718 c -1.20568,1.205681 -1.20568,3.235726 0,4.441407 l 4.519532,4.519531 c 1.205681,1.205681 3.235724,1.205681 4.441406,0 l 5.679687,-5.679688 a 2.0181769,2.0181769 0 0 0 0.589844,-1.427734 V 11.888613 l 5.533203,5.533203 a 2.0179751,2.0179751 0 0 0 2.853516,0 2.0179751,2.0179751 0 0 0 0,-2.853516 L 26.988718,5.5897849 A 2.0181769,2.0181769 0 0 0 24.7895,5.154238 Z"
       id="rect5" /></g></svg>
