<?xml version="1.0" encoding="UTF-8" standalone="no"?>
<!-- Created with Inkscape (http://www.inkscape.org/) -->

<svg
   width="48"
   height="48"
   viewBox="0 0 48 48"
   version="1.1"
   id="svg1"
   xml:space="preserve"
   xmlns="http://www.w3.org/2000/svg"
   xmlns:svg="http://www.w3.org/2000/svg"><defs
     id="defs1" /><path
     style="fill:#fff;stroke:none;stroke-width:1;stroke-linecap:round;stroke-linejoin:round;stroke-dasharray:none;stroke-opacity:1"
     d="m 37.492188,34.456541 v 5.263671 h 3.732421 v -0.77539 h -2.888671 v -1.509766 h 2.236328 v -0.769531 h -2.236328 v -1.441406 h 2.855468 v -0.767578 z"
     id="path17" /><path
     style="fill:#fff;stroke:none;stroke-width:1;stroke-linecap:round;stroke-linejoin:round;stroke-dasharray:none;stroke-opacity:1"
     d="m 33.326172,34.456541 v 5.263671 h 3.246094 v -0.77539 H 34.15625 v -4.488281 z"
     id="path16" /><path
     style="fill:#fff;stroke:none;stroke-width:1;stroke-linecap:round;stroke-linejoin:round;stroke-dasharray:none;stroke-opacity:1"
     d="m 29.146484,34.456541 -2.236328,5.263671 h 0.931641 l 0.447265,-1.083984 h 2.634766 l 0.445313,1.083984 h 0.933593 l -2.236328,-5.24414 h -0.919922 z m 0.458985,0.917968 1.023437,2.492188 h -2.044922 z"
     id="path15" /><path
     style="fill:#fff;stroke:none;stroke-width:1;stroke-linecap:round;stroke-linejoin:round;stroke-dasharray:none;stroke-opacity:1"
     d="m 23.085938,34.456541 v 0.767578 h 1.61914 v 4.496093 h 0.824219 v -4.496093 h 1.619141 v -0.767578 z"
     id="path14" /><path
     style="fill:#fff;stroke:none;stroke-width:1;stroke-linecap:round;stroke-linejoin:round;stroke-dasharray:none;stroke-opacity:1"
     d="m 6.7734375,34.456541 v 5.263671 h 0.84375 v -1.929687 h 1.3183594 c 0.041181,0 0.24007,4.8e-5 0.28125,-0.01367 0.9333331,-0.06176 1.5722651,-0.768037 1.5722651,-1.660156 0,-0.919609 -0.680545,-1.660156 -1.7167964,-1.660156 z M 7.625,35.231931 h 1.3789062 c 0.535297,0 0.9472657,0.36901 0.9472657,0.904297 -0.0068,0.514707 -0.4178277,0.886719 -0.953125,0.886719 H 7.625 Z"
     id="path13" /><path
     style="fill:#fff;stroke:none;stroke-width:1;stroke-linecap:round;stroke-linejoin:round;stroke-dasharray:none;stroke-opacity:1"
     d="m 20.169922,34.366697 c -1.228471,0 -2.05851,0.666372 -2.072266,1.585937 -0.02745,1.084307 0.961241,1.304117 1.88086,1.46875 1.036271,0.192155 1.509739,0.294102 1.496093,0.753907 -0.01372,0.432346 -0.385715,0.782031 -1.140625,0.830078 h -0.294922 c -0.679407,-0.04118 -1.213451,-0.268146 -1.583984,-0.625 -0.02745,-0.02745 -0.06238,-0.03991 -0.08984,-0.07422 l -0.474609,0.679688 c 0.549021,0.521563 1.30496,0.802734 2.238281,0.802734 1.345122,0 2.162051,-0.667026 2.189453,-1.648438 0.04118,-1.166624 -1.00981,-1.345048 -1.998047,-1.523437 -0.919609,-0.164709 -1.37899,-0.294215 -1.365234,-0.726563 0.01372,-0.398034 0.343444,-0.69409 0.919922,-0.755859 0.130396,-0.01372 0.268001,-0.01372 0.412109,0 0.473528,0.02745 0.959716,0.20696 1.275391,0.474609 0.02745,0.01372 0.07612,0.04186 0.08984,0.07617 l 0.458984,-0.666015 c -0.432346,-0.38431 -1.186473,-0.652344 -1.941406,-0.652344 z"
     id="path12" /><path
     style="fill:#fff;stroke:none;stroke-width:1;stroke-linecap:round;stroke-linejoin:round;stroke-dasharray:none;stroke-opacity:1"
     d="m 14.404297,34.353025 c -1.599004,0 -2.724609,1.173671 -2.724609,2.710937 0,1.523511 1.125605,2.710938 2.724609,2.710938 1.599005,0 2.724609,-1.173671 2.724609,-2.710938 0.02059,-1.537266 -1.125604,-2.710937 -2.724609,-2.710937 z m 0,0.753906 c 1.139223,0 1.880859,0.84534 1.880859,1.94336 0,1.09803 -0.721047,1.941406 -1.880859,1.941406 -1.139221,0 -1.878906,-0.843386 -1.878906,-1.941406 0,-1.098042 0.725962,-1.94336 1.878906,-1.94336 z"
     id="path11" /><path
     style="fill:#fff;stroke:none;stroke-width:1;stroke-linecap:round;stroke-linejoin:round;stroke-dasharray:none;stroke-opacity:1"
     d="m 37.353516,26.8999 v 5.25 h 3.865234 v -0.767578 h -3.019531 v -1.511719 h 2.367187 v -0.767578 h -2.367187 v -1.435547 h 2.992187 V 26.8999 Z"
     id="path10" /><path
     style="fill:#fff;stroke:none;stroke-width:1;stroke-linecap:round;stroke-linejoin:round;stroke-dasharray:none;stroke-opacity:1"
     d="m 31.220703,26.8999 v 3.15625 c 0,1.420615 0.931185,2.177734 2.296875,2.177734 1.379458,0 2.300781,-0.743439 2.300781,-2.177734 V 26.8999 h -0.845703 v 3.142578 c 0,0.933332 -0.549159,1.421875 -1.455078,1.421875 -0.892151,0 -1.455078,-0.488565 -1.455078,-1.421875 V 26.8999 Z"
     id="path9" /><path
     style="fill:#fff;stroke:none;stroke-width:1;stroke-linecap:round;stroke-linejoin:round;stroke-dasharray:none;stroke-opacity:1"
     d="m 18.439453,26.8999 v 5.242188 h 0.845703 v -3.896485 l 3.00586,3.896485 h 0.789062 V 26.8999 h -0.84375 v 3.837891 L 19.257812,26.8999 Z"
     id="path8" /><path
     style="fill:#fff;stroke:none;stroke-width:1;stroke-linecap:round;stroke-linejoin:round;stroke-dasharray:none;stroke-opacity:1"
     d="m 14.226562,26.8999 -2.236328,5.242188 h 0.931641 l 0.447266,-1.082032 h 2.636718 l 0.44336,1.082032 h 0.935547 L 15.146484,26.8999 Z m 0.460938,0.90625 1.035156,2.490234 h -2.058594 z"
     id="path7" /><path
     style="fill:#fff;stroke:none;stroke-width:1;stroke-linecap:round;stroke-linejoin:round;stroke-dasharray:none;stroke-opacity:1"
     d="m 6.7734375,26.8999 v 5.242188 h 2.9101563 c 0.9196102,0 1.5117192,-0.575828 1.5117182,-1.419922 0,-0.665683 -0.448975,-1.172413 -1.011718,-1.289063 0.42549,-0.14412 0.769531,-0.562121 0.769531,-1.152344 0,-0.768622 -0.562741,-1.380859 -1.4960938,-1.380859 z M 7.625,27.667478 h 1.7167969 c 0.473528,0 0.7539061,0.296168 0.7539061,0.728516 0,0.432347 -0.2814369,0.726562 -0.7343749,0.726562 H 7.625 Z m 0,2.208984 h 1.9296875 c 0.4872495,-1e-6 0.7832035,0.325465 0.7832035,0.757813 0,0.459804 -0.30286,0.753906 -0.7695316,0.753906 H 7.625 Z"
     id="path6" /><path
     style="fill:#fff;stroke:none;stroke-width:1;stroke-linecap:round;stroke-linejoin:round;stroke-dasharray:none;stroke-opacity:1"
     d="m 27.191406,26.810056 c -1.599004,0 -2.724609,1.173671 -2.724609,2.710938 0,1.54409 1.125605,2.710937 2.724609,2.710937 0.240192,0 0.460137,-0.02618 0.666016,-0.07422 l 0.382812,0.931641 h 0.933594 L 28.625,31.860838 c 0.802935,-0.473529 1.291016,-1.331029 1.291016,-2.339844 0,-1.523511 -1.125606,-2.710938 -2.72461,-2.710938 z m 0,0.769532 c 1.139222,0 1.88086,0.843386 1.88086,1.941406 0,0.665683 -0.282334,1.242721 -0.75586,1.599609 L 28.111328,30.632322 H 27.21875 l 0.34375,0.804687 c -0.130396,0.01372 -0.254432,0.02734 -0.371094,0.02734 -1.139221,0 -1.880859,-0.845339 -1.880859,-1.943359 0,-1.098031 0.727914,-1.941407 1.880859,-1.941406 z"
     id="path5" /><path
     style="fill:#fff;stroke:none;stroke-width:1;stroke-linecap:round;stroke-linejoin:round;stroke-dasharray:none;stroke-opacity:1"
     d="M 38.048828,19.871579 35.8125,25.11572 h 0.925781 l 0.445313,-1.083984 h 2.65625 l 0.447265,1.083984 h 0.931641 l -2.25,-5.244141 z m 0.460937,0.90625 1.035157,2.492188 h -2.058594 z"
     id="path4" /><path
     style="fill:#fff;stroke:none;stroke-width:1;stroke-linecap:round;stroke-linejoin:round;stroke-dasharray:none;stroke-opacity:1"
     d="m 31.212891,19.871579 v 5.257813 h 3.603515 v -0.767578 h -2.759765 v -4.490235 z"
     id="path3" /><path
     style="fill:#fff;stroke:none;stroke-width:1;stroke-linecap:round;stroke-linejoin:round;stroke-dasharray:none;stroke-opacity:1"
     d="m 29.501871,17.417389 c -0.01015,0.0022 -0.02279,0.0079 -0.03628,0.01401 l -22.4323793,5.66739 c -0.014719,0.0073 -0.034216,0.02413 -0.041863,0.03907 -5.136e-4,0.0012 3.788e-4,0.0071 0,0.0084 v 0.0029 c -7.72e-5,0.0012 -9.21e-5,0.0071 0,0.0084 v 0.0029 0.0029 h 0.00288 l 0.00288,0.0029 0.00288,0.0029 0.00288,0.0029 0.00288,0.0029 c 0.012714,0.0066 0.035103,0.01117 0.066957,0.01117 L 24.44601,22.639063 c 1.058924,-0.03921 1.824743,-0.893666 2.226775,-1.423127 l 2.8323,-3.686178 c 0.03003,-0.02575 0.04698,-0.06068 0.04744,-0.0837 -2.71e-4,-0.0031 -0.0019,-0.01128 -0.0029,-0.01401 l -0.0029,-0.0029 -0.0029,-0.0029 -0.0029,-0.0029 c -0.0011,-8.01e-4 -0.007,-0.005 -0.0084,-0.0055 -0.0079,-0.0023 -0.01795,-0.0028 -0.0307,0 z"
     id="path2" /><path
     style="fill:#fff;stroke:none;stroke-width:1;stroke-linecap:round;stroke-linejoin:round;stroke-dasharray:none;stroke-opacity:1"
     d="m 44.553528,12.980581 -25.021914,0.460424 c 0.107865,1.019694 -0.988706,2.500423 -3.253659,3.892669 -1.166782,0.715761 -3.814114,2.136148 -13.2071733,5.695298 -0.1274692,0.03924 -0.058903,0.187048 0.019534,0.167427 C 19.327157,19.078306 30.101216,16.009135 44.553529,13.254044 44.792976,13.212404 44.98328,13.133689 45,13.072666 v -0.0029 -0.0029 -0.0029 -0.0029 -0.0029 l -0.0029,-0.0029 v -0.0029 l -0.0029,-0.0029 c -0.02708,-0.04114 -0.155389,-0.06967 -0.438101,-0.06977 z"
     id="path1" /><path
     style="fill:#fff;stroke:none;stroke-width:1;stroke-linecap:round;stroke-linejoin:round;stroke-dasharray:none;stroke-opacity:1"
     d="m 33.405702,8.2145025 c -1.186389,-0.01961 -19.910501,0.05988 -22.09753,0.0893 -0.177102,-0.01048 -0.336351,-0.01433 -0.379499,0.0084 l -0.0029,0.0029 h -0.0029 v 0.0028 l -0.0029,0.0029 v 0.0028 0.0029 0.0028 0.0029 l 0.0029,0.0028 0.0029,0.0029 0.0029,0.0029 c 0.02156,0.02394 0.0869,0.05935 0.212074,0.10882 2.284509,0.8039978 6.029519,2.2657845 8.000204,4.0405635 l 14.393112,-0.147849 c 0.401999,-0.509857 0.549399,-0.716284 0.990607,-1.294768 1.03932,-1.3922757 1.096911,-2.8128035 -1.118968,-2.8322995 z"
     id="rect1" /></svg>
