<?xml version="1.0" encoding="UTF-8" standalone="no"?>
<!-- Created with Inkscape (http://www.inkscape.org/) -->

<svg
   width="48"
   height="48"
   viewBox="0 0 48 48"
   version="1.1"
   id="svg1"
   xmlns="http://www.w3.org/2000/svg"
   xmlns:svg="http://www.w3.org/2000/svg">
  <defs
     id="defs1" />
  <path
     id="rect1"
     style="fill:#fff;fill-opacity:1;stroke:none;stroke-width:1;stroke-linecap:round;stroke-linejoin:round;stroke-dasharray:none;stroke-opacity:1"
     d="m 21.126953,5 c -0.837776,0 -1.513672,0.6739421 -1.513672,1.5117188 v 2.3886718 h -4.630859 c -0.837777,0 -1.511719,0.6758949 -1.511719,1.5136714 V 41.488281 C 13.470703,42.326058 14.144645,43 14.982422,43 h 18.035156 c 0.837775,0 1.511719,-0.673943 1.511719,-1.511719 V 10.414062 c 0,-0.8377765 -0.673944,-1.5136714 -1.511719,-1.5136714 H 28.060547 V 6.5117188 C 28.060547,5.673942 27.386605,5 26.548828,5 Z m -4.552734,5.800781 h 14.851562 c 0.685616,0 1.236328,0.55071 1.236328,1.236328 v 5.925782 c -3.712714,0 -13.085782,-0.06445 -17.324218,-0.06445 v -5.861329 c 0,-0.685617 0.550713,-1.236328 1.236328,-1.236328 z m 7.423828,16.242188 c 0.955542,0.554757 2.039625,0.849459 3.144531,0.851562 0.530645,-0.0028 1.061134,-0.07171 1.574219,-0.207031 v 7.583984 c 0,1.650377 -1.887333,2.831361 -4.716797,4.246094 -2.829216,-1.182058 -4.716797,-2.592376 -4.716797,-4.246094 v -7.580078 c 0.513443,0.134193 1.04355,0.201639 1.574219,0.203125 1.103468,-0.0028 2.186279,-0.293545 3.140625,-0.847656 z m 0.002,1.287109 v 4.951172 h 3.726562 l 0.01758,-4.441406 c -0.407327,0.107453 -0.824819,0.161957 -1.246094,0.164062 -0.877231,-0.0018 -1.740113,-0.233344 -2.498048,-0.673828 z m 0,4.951172 h -3.726562 l -0.01758,1.580078 c 0,1.312999 1.497848,2.43066 3.744141,3.369141 z" />
</svg>
