<?xml version="1.0" encoding="UTF-8"?>
<svg version="1.1" viewBox="0 0 48 48" xmlns="http://www.w3.org/2000/svg">
    <path d="m17.737 4c-1.3013 0-2.3495 1.0453-2.3495 2.3467v1.5h-1.5785c-1.7351 0-3.1317 1.3966-3.1317 3.1317v29.887c0 1.7351 1.3966 3.1345 3.1317 3.1345h20.383c1.7351 0 3.1317-1.3994 3.1317-3.1345v-29.887c0-1.7351-1.3966-3.1317-3.1317-3.1317h-1.5785v-1.5c0-1.3013-1.0482-2.3467-2.3495-2.3467zm-3.1317 6.2634h18.79c0.86755 0 1.5673 0.6969 1.5673 1.5644v7.4998c-4.6979 0-16.562-0.08131-21.925-0.08131v-7.4185c0-0.86755 0.6997-1.5644 1.5673-1.5644zm9.3923 14.032c1.2091 0.702 2.5803 1.0739 3.9784 1.0766 0.67143-0.0034 1.3414-0.09231 1.9906-0.26355v9.597c0 2.0882-2.3861 3.5818-5.9662 5.3718-3.5798-1.4957-5.9662-3.2794-5.9662-5.3718v-9.5914c0.64966 0.1698 1.3191 0.25607 1.9906 0.25794 1.3962-0.0035 2.7653-0.37269 3.9728-1.0738zm0.0028 1.6261v6.2634h4.7158l0.02243-5.6186c-0.51539 0.13596-1.0454 0.20755-1.5785 0.21028-1.11-0.0021-2.2007-0.29777-3.1597-0.85512zm0 6.2634h-4.7157l-0.02243 2.0018c0 1.6613 1.896 3.0769 4.7382 4.2644z" fill="#fff" stroke-width=".96759"/>
</svg>
