<?xml version="1.0" encoding="UTF-8" standalone="no"?>
<!-- Created with Inkscape (http://www.inkscape.org/) -->

<svg
   width="48"
   height="48"
   viewBox="0 0 48 48"
   version="1.1"
   id="svg1"
   xml:space="preserve"
   xmlns="http://www.w3.org/2000/svg"
   xmlns:svg="http://www.w3.org/2000/svg"><defs
     id="defs1" /><path
     id="rect1"
     style="fill:#fff;fill-opacity:1;stroke:none;stroke-linecap:round;stroke-linejoin:round;stroke-opacity:1"
     d="m 13,4 c -1.108,0 -2,0.892 -2,2 v 36 c 0,1.108 0.892,2 2,2 h 22 c 1.108,0 2,-0.892 2,-2 V 23.556641 l -5.064453,5.064453 c -0.357015,0.357014 -0.587357,0.357421 -0.851563,0.357422 h -3.039062 v 0.794922 c 0,0.553999 -0.35989,0.999999 -0.804688,1 H 16.957031 c -0.444798,0 -0.802734,-0.446001 -0.802734,-1 v -1 c 0,-0.554 0.357936,-1 0.802734,-1 h 10.283203 c 0.444798,0 0.804688,0.446 0.804688,1 v -2.976563 c 0,-0.0088 -4e-6,-0.01701 0,-0.02539 H 17.134766 c -0.543346,0 -0.980469,-0.446 -0.980469,-1 v -1 c 0,-0.554 0.437123,-1 0.980469,-1 H 30.714844 L 37,16.486328 V 6 C 37,4.892 36.108,4 35,4 Z m 4.154297,3.765625 h 14 c 0.554,0 1,0.446 1,1 v 1 c 0,0.554 -0.446,1 -1,1 h -14 c -0.554,0 -1,-0.446 -1,-1 v -1 c 0,-0.554 0.446,-1 1,-1 z m 0,5.001953 h 14 c 0.554,0 1,0.446 1,1 v 1 c 0,0.554 -0.446,1 -1,1 h -14 c -0.554,0 -1,-0.446 -1,-1 v -1 c 0,-0.554 0.446,-1 1,-1 z m 0,5.001953 h 14 c 0.554,0 1,0.446 1,1 v 1 c 0,0.554 -0.446,1 -1,1 h -14 c -0.554,0 -1,-0.446 -1,-1 v -1 c 0,-0.554 0.446,-1 1,-1 z" /><path
     id="rect7"
     style="fill:#fff;fill-opacity:1;stroke:none;stroke-linecap:round;stroke-linejoin:round;stroke-opacity:1"
     d="m 39.357667,15.825993 1.838477,1.838478 c 0.07835,0.07835 0.07835,0.204495 0,0.282842 l -10.11619,10.116191 c -0.290271,0.207568 -0.290271,0.207568 -0.493276,0.207568 H 28.95407 c -0.120973,1e-6 -0.203005,-0.08846 -0.203005,-0.203005 v -1.564762 c 0,-0.353553 0,-0.353553 0.353553,-0.707106 l 9.970206,-9.970206 c 0.07835,-0.07835 0.204495,-0.07835 0.282843,0 z" /></svg>
