<?xml version="1.0" encoding="UTF-8"?>
<svg version="1.1" viewBox="0 0 48 48" xml:space="preserve" xmlns="http://www.w3.org/2000/svg"><g transform="matrix(1.3201 0 0 1.3201 -7.9582 -8.1762)" fill="#fff" stroke="#fff"><path transform="matrix(.92072 0 0 1 57.12 32.668)" d="m-30.794 3.5634-5.9698-11.625 2.9051 12.741-3.0143-12.716-0.2285 13.066 0.11636-13.068-3.3488 12.632 3.2403-12.66-6.2745 11.463 6.1759-11.517-8.8355 9.6287 8.7526-9.7042-10.883 7.2344 10.821-7.3275-12.298 4.4197 12.26-4.5251-12.998 1.3481 12.986-1.4596-12.943-1.8018 12.958 1.6906-12.136-4.847 12.177 4.7427-10.623-7.6105 10.688 7.5191-8.4935-9.9317 8.5784 9.8585-5.8698-11.676 5.9698 11.625-2.9051-12.741 3.0143 12.716 0.2285-13.066-0.11636 13.068 3.3488-12.632-3.2403 12.66 6.2745-11.463-6.1759 11.517 8.8355-9.6287-8.7526 9.7042 10.883-7.2344-10.821 7.3275 12.298-4.4197-12.26 4.5251 12.998-1.3481-12.986 1.4596 12.943 1.8018-12.958-1.6906 12.136 4.847-12.177-4.7427 10.623 7.6105-10.688-7.5191 8.4935 9.9317-8.5784-9.8585z" stroke-miterlimit="0" stroke-width=".6"/><path d="m23.867 9.6863c-0.25867-0.00447-0.51758-0.00201-0.77649 0.00938-2.4856 0.10947-4.9662 0.95553-7.1475 2.583a1.1953 1.2928 0 0 0-0.47731 0.77247c2.7122-1.7991 5.8572-2.4114 8.8389-1.9246 3.0353 0.49556 5.9003 2.1264 7.9586 4.7939 4.1167 5.3349 3.5918 13.123-1.1881 17.816-4.6659 4.5804-11.848 4.8239-16.789 0.64716a1.1953 1.2928 0 0 0 0.38565 1.0231c5.3008 5.0544 13.329 4.8615 18.418-0.44141 5.0891-5.3029 5.5657-13.973 1.093-19.89-2.6208-3.4672-6.4357-5.3207-10.316-5.3887z" color="#000000" stroke-linecap="round" stroke-width=".92084" style="-inkscape-stroke:none"/></g></svg>
