<?xml version="1.0" encoding="UTF-8"?>
<svg data-name="Layer 1" version="1.1" viewBox="0 0 48 48" xmlns="http://www.w3.org/2000/svg">
    <path d="m24 4a17.95 17.95 0 0 0-10.004 32.854v7.1458h4.201v-6.3894h3.7153v6.3894h4.1759v-6.3894h3.7153v6.3894h4.201v-7.1458a17.95 17.95 0 0 0-10.004-32.854zm-7.8883 18.278a4.016 4.016 0 0 1 4.014 4.014 4.016 4.016 0 1 1-4.014-4.014zm15.777 0a4.016 4.016 0 0 1 4.0167 4.014 4.016 4.016 0 1 1-4.0167-4.014zm-7.8883 5.6441 2.9142 5.887h-5.8283z" fill="#fff" stroke-width="1.4292"/>
</svg>
