<?xml version="1.0" encoding="UTF-8"?>
<svg version="1.1" viewBox="0 0 48 48" xmlns="http://www.w3.org/2000/svg">
    <path d="m23.944 4v0.018057c-0.78761 1.7913-2.385 4.0397-2.3356 5.3514 0.01402 1.7957 1.481 2.3641 2.3356 2.3476h9e-3c0.85458 0.01649 2.3216-0.5519 2.3356-2.3476 0.04947-1.3117-1.5479-3.5601-2.3356-5.3514v-0.018057c-0.0013 0.00305-0.0047 0.0059-6e-3 0.00905-0.0011-0.00257-0.0018-0.00629-3e-3 -0.00905zm-10.778 1.4989v0.018057c-0.78761 1.7913-2.385 4.0397-2.3356 5.3514 0.01387 1.7957 1.481 2.3641 2.3356 2.3476h9e-3c0.85458 0.01649 2.3216-0.55189 2.3356-2.3476 0.04947-1.3117-1.5479-3.5601-2.3356-5.3514v-0.018057c-0.0013 0.00305-0.0047 6e-3 -6e-3 0.00905-0.0011-0.00267-0.0018-0.00638-3e-3 -0.00905zm21.574 0v0.018057c-0.78761 1.7913-2.385 4.0397-2.3356 5.3514 0.01402 1.7957 1.481 2.3641 2.3356 2.3476h9e-3c0.85458 0.01649 2.3216-0.55189 2.3356-2.3476 0.04947-1.3117-1.5479-3.5601-2.3356-5.3514v-0.018057c-0.0013 0.00305-0.0047 0.0059-6e-3 0.00905-0.0011-0.00267-0.0018-0.00629-3e-3 -0.00905zm-12.283 7.6689v6.2242a18.458 5.9828 0 0 0-7.678 0.78555v-5.4778h-3.1332v6.2182a18.458 5.9828 0 0 0-6.0948 4.3702h-6e-3v0.04514a18.458 5.9828 0 0 0-0.00305 0.01806 18.458 5.9828 0 0 0 0.00305 0.02708v12.623a18.458 5.9828 0 0 0-0.00305 0.01806 18.458 5.9828 0 0 0 0.00305 0.02709v0.03009h0.00305a18.458 5.9828 0 0 0 18.453 5.9233 18.458 5.9828 0 0 0 18.447-5.9233h9e-3v-12.789h-6e-3a18.458 5.9828 0 0 0-6.0978-4.3732v-6.2152h-3.1333v5.4778a18.458 5.9828 0 0 0-7.6298-0.77953v-6.2303z" fill="#fff" stroke-width="1.541"/>
</svg>
