<?xml version="1.0" encoding="UTF-8"?>
<svg version="1.1" viewBox="0 0 48 48" xmlns="http://www.w3.org/2000/svg">
    <path d="m23.807 4-1.4199 5.6911c-0.75416-0.17176-1.4952-0.34003-2.2138-0.51869l0.0029-0.017391-4.7783-1.1939-0.92147 3.7004s2.5695 0.58938 2.5152 0.62591c1.4036 0.35043 1.6594 1.2804 1.6169 2.0168l-1.6169 6.4851c0.09673 0.02469 0.22112 0.06063 0.35932 0.11591-0.11549-0.02864-0.23778-0.05922-0.36511-0.08983l-2.2689 9.0872c-0.17174 0.42644-0.60676 1.0658-1.5879 0.82295 0.03457 0.05034-2.5181-0.6288-2.5181-0.6288l-1.7212 3.967 4.5117 1.1243c0.83914 0.21026 1.6594 0.4302 2.4688 0.6375l-1.4344 5.7578 3.4628 0.86352 1.4199-5.6969c0.94566 0.25664 1.8633 0.49266 2.7615 0.71573l-1.4141 5.6708 3.4657 0.86352 1.4344-5.7462c5.9099 1.1184 10.352 0.66541 12.223-4.6798 1.5074-4.3039-0.07231-6.7846-3.1817-8.4034 2.2643-0.52224 3.9697-2.0116 4.4248-5.0884 0.62876-4.203-2.5729-6.4642-6.9487-7.9716l1.4198-5.694-3.4657-0.86352-1.3822 5.5433c-0.91106-0.22702-1.8461-0.43975-2.776-0.65198l1.3909-5.581zm1.1388 10.539c1.9565 0.48767 8.2562 1.3959 7.2385 5.4796-0.97726 3.9148-7.0091 1.9278-8.9655 1.4402zm-2.5963 10.411c2.3492 0.58633 9.882 1.7475 8.7627 6.2359-1.071 4.3038-8.3172 1.9772-10.666 1.3938z" fill="#fff" stroke-width="1.4836"/>
</svg>
