<?xml version="1.0" encoding="UTF-8"?>
<svg version="1.1" viewBox="0 0 48 48" xmlns="http://www.w3.org/2000/svg">
    <path d="m8.8642 7.0767c-1.295e-4 1.629e-4 -0.92975 2.1662-1.36 3.2856-1.0721 2.7895-2.2534 6.7809-2.7168 9.1895-0.26842 1.154-0.44416 2.2206-0.58467 3.4-0.35364 3.068-0.2666 6.6854 0.43533 9.2563 0.68656 2.1472 1.5632 3.8656 3.0155 5.3256 1.8799 1.8771 4.295 3.0453 6.8445 3.311 0.75429 0.07868 1.2703 0.07885 2.0686 0.0031 3.0729-0.29138 5.781-1.7864 7.6452-4.0514-1.0584-1.2916-1.7637-2.781-2.3355-4.5693-0.70195-2.5709-0.78899-6.1882-0.43533-9.2563 0.11019-0.9249 0.24413-1.7804 0.42579-2.6628-0.84095-0.57344-1.7662-1.0376-2.7581-1.3695-1.4611-0.48892-3.0339-0.68739-4.4391-0.56243-0.45679 0.04062-1.0359 0.11122-1.0359 0.11122 0.10023-0.53625 0.23127-1.2884 0.31776-1.7826 0.14629-0.83672 0.39538-2.2494 0.5529-3.1394 0.79587-4.4973 0.90243-5.3256 0.90243-5.3256zm13.003 13.231c2.5682 1.7512 4.3469 4.5246 4.8045 7.6865 0.15061 1.0406 0.10232 2.9506-0.0985 3.8893-0.39778 1.8589-1.2226 3.5296-2.3609 4.9125 0.21248 0.25925 0.4404 0.51219 0.68318 0.75626 1.8799 1.8771 4.295 3.0453 6.8445 3.311 0.7542 0.07868 1.2672 0.07888 2.0654 0.0031 4.9492-0.46936 8.9571-4.0602 10.006-8.9639 0.20082-0.93873 0.25228-2.8487 0.10168-3.8893-0.60733-4.1973-3.5412-7.7105-7.5626-9.0561-1.4611-0.48895-3.0339-0.69057-4.4391-0.56561-0.45679 0.04063-1.0359 0.11122-1.0359 0.11122 0.10024-0.53633 0.22809-1.2852 0.31458-1.7794 0.14629-0.83672 0.39538-2.2494 0.5529-3.1394 0.79585-4.4973 0.90561-5.3256 0.90561-5.3256l-6.5458-1.1661s-0.92971 2.1661-1.36 3.2856c-1.0721 2.7895-2.2503 6.7841-2.7136 9.1927-0.05791 0.249-0.11208 0.49443-0.16206 0.7372z" fill="#fff" stroke-width="1.6269"/>
</svg>
