<?xml version="1.0" encoding="UTF-8"?>
<svg data-name="Layer 1" version="1.1" viewBox="0 0 48 48" xmlns="http://www.w3.org/2000/svg">
    <path d="m43.278 4.1732a0.70422 0.70422 0 0 0-0.49635 0.20332l-3.2622 3.2622a8.0067 8.0067 0 0 0-10.791 0.44253l-13.886 13.901a2.6791 2.6791 0 0 0-3.597 0.01495l-0.0927 0.0927a2.6944 2.6944 0 0 0 0 3.7974l4.3475 4.3326-6.1236 6.1236-2.0362-2.0362a2.0055 2.0055 0 0 0-2.8316 2.8316l6.1236 6.1236a1.9972 1.9972 0 0 0 2.8316-2.8166l-2.0362-2.0362 6.1236-6.1236 5.3432 5.3432a2.6791 2.6791 0 0 0 3.7824 0l0.0897-0.0927a2.6791 2.6791 0 0 0 0-3.7794l-0.53521-0.53821 13.871-13.868a8.022 8.022 0 0 0 0.46047-10.716l3.2442-3.2472a0.71953 0.71953 0 0 0-0.0299-1.0106 0.70422 0.70422 0 0 0-0.49934-0.20332zm-8.7967 2.9661a6.5982 6.5982 0 0 1 4.6884 11.216l-13.778 13.778-9.3409-9.3379 1.9316-1.9286 4.5 4.5a0.70422 0.70422 0 0 0 0.99569 0 0.68891 0.68891 0 0 0 0-1.0106l-4.4851-4.4851 2.4489-2.3741 2.4937 2.4967a0.70422 0.70422 0 1 0 0.99569-0.99569l-2.4937-2.5116 2.3711-2.3562 4.4851 4.4851a0.71953 0.71953 0 0 0 1.0106 0 0.70422 0.70422 0 0 0 0-0.99569l-4.5-4.5 2.3741-2.3741 2.4937 2.5116a0.71953 0.71953 0 0 0 1.0106-1.0106l-2.5714-2.4967 0.71761-0.71761a6.5982 6.5982 0 0 1 4.6525-1.8927z" fill="#fff" stroke-width="1.5309"/>
</svg>
