<?xml version="1.0" encoding="UTF-8" standalone="no"?>
<!-- Created with Inkscape (http://www.inkscape.org/) -->

<svg
   width="48"
   height="48"
   viewBox="0 0 48 48"
   version="1.1"
   id="svg1"
   xml:space="preserve"
   xmlns="http://www.w3.org/2000/svg"
   xmlns:svg="http://www.w3.org/2000/svg"><defs
     id="defs1" /><path
     d="m 16.011648,24.956973 c 0,-2.58892 -1.935858,-3.545188 -3.661805,-3.825071 1.586005,-0.396501 2.962097,-1.539357 2.962097,-3.475216 0,-3.148686 -2.868802,-4.128278 -6.1807537,-4.128278 H 3.9999941 v 16.163256 h 5.3644282 c 3.4985397,0 6.6472257,-1.002915 6.6472257,-4.734691 z m -4.548102,-6.903786 c 0,1.352769 -0.699708,1.935859 -2.3323597,1.935859 H 7.8250646 v -3.7551 h 1.1661801 c 1.7026233,0 2.4723013,0.536443 2.4723013,1.819241 z m 0.606414,6.740521 c 0,1.772593 -1.329445,2.099124 -2.8454793,2.099124 H 7.8250646 v -4.33819 h 1.5626813 c 1.6326521,0 2.6822141,0.559766 2.6822141,2.239066 z m 18.075799,-3.195334 c 0,-5.24781 -2.215742,-8.48979 -6.460637,-8.48979 -4.244895,0 -6.460637,3.358598 -6.460637,8.48979 0,5.24781 2.215742,8.489791 6.460637,8.489791 4.244895,0 6.460637,-3.358599 6.460637,-8.489791 z m -3.918365,0 c 0,3.918365 -0.676384,5.690959 -2.542272,5.690959 -1.795917,0 -2.542273,-1.725947 -2.542273,-5.690959 0,-3.965012 0.723032,-5.690958 2.542273,-5.690958 1.819241,0 2.542272,1.725946 2.542272,5.690958 z m 17.772593,3.358599 c 0,-2.58892 -1.935859,-3.545188 -3.661805,-3.825071 1.586004,-0.396501 2.962097,-1.539357 2.962097,-3.475216 0,-3.148686 -2.868803,-4.128278 -6.180754,-4.128278 h -5.131192 v 16.163256 h 5.364428 c 3.49854,0 6.647226,-1.002915 6.647226,-4.734691 z m -4.548102,-6.903786 c 0,1.352769 -0.699708,1.935859 -2.33236,1.935859 h -1.306122 v -3.7551 h 1.16618 c 1.702623,0 2.472302,0.536443 2.472302,1.819241 z m 0.606413,6.740521 c 0,1.772593 -1.329445,2.099124 -2.845479,2.099124 h -1.399416 v -4.33819 h 1.562681 c 1.632652,0 2.682214,0.559766 2.682214,2.239066 z"
     id="text1"
     style="font-weight:bold;font-size:23.3236px;font-family:'Fira Mono';-inkscape-font-specification:'Fira Mono, Bold';fill:#fff;stroke:none;stroke-linecap:round;stroke-linejoin:round;stroke-opacity:1"
     aria-label="BOB" /><path
     d="m 6.1907443,33.351151 c 0,-1.200293 -0.7092642,-1.439512 -1.4562999,-1.439512 H 3.9999992 v 2.908403 h 0.7848072 c 0.7218547,0 1.4059379,-0.285385 1.4059379,-1.468891 z m -0.7092642,0 c 0,0.763823 -0.2644003,0.969468 -0.6463118,0.969468 h -0.146889 v -1.909558 h 0.146889 c 0.3651242,0 0.6463118,0.15948 0.6463118,0.94009 z m 2.4971154,0.839366 0.1510859,0.629525 h 0.738642 L 7.9785955,31.911639 H 7.1434264 l -0.889728,2.908403 H 6.9755532 L 7.126639,34.190517 Z m -0.7428389,-0.495226 0.3147623,-1.288426 0.3147622,1.288426 z m 3.9660054,0.272794 c 0,-0.532997 -0.323155,-0.76802 -0.877137,-0.935893 C 9.8629737,32.8895 9.732872,32.813957 9.732872,32.629297 c 0,-0.188858 0.17207,-0.285385 0.432273,-0.285385 0.235023,0 0.470045,0.07974 0.667296,0.243416 l 0.323156,-0.373518 c -0.251809,-0.239219 -0.59595,-0.377714 -1.040813,-0.377714 -0.604344,0 -1.095373,0.310565 -1.095373,0.847759 0,0.440667 0.2560066,0.696674 0.9400898,0.906516 0.4028952,0.121708 0.5246042,0.222432 0.5246042,0.432273 0,0.226629 -0.193055,0.356731 -0.482636,0.356731 -0.3105653,0 -0.5707687,-0.104921 -0.784807,-0.293779 l -0.3483369,0.386109 c 0.2434161,0.239219 0.6001466,0.419683 1.1499309,0.419683 0.742839,0 1.183506,-0.377715 1.183506,-0.923303 z m 3.588293,0.851957 v -2.908403 h -0.68828 v 2.908403 z m 0.02098,-1.552827 0.801595,1.552827 h 0.793201 l -0.902319,-1.603189 0.822579,-1.305214 H 15.60424 Z m 3.982794,0.09653 c 0,-0.944287 -0.398699,-1.527646 -1.162522,-1.527646 -0.763823,0 -1.162522,0.604343 -1.162522,1.527646 0,0.944286 0.398699,1.527646 1.162522,1.527646 0.763823,0 1.162522,-0.604344 1.162522,-1.527646 z m -0.705068,0 c 0,0.705067 -0.121708,1.024026 -0.457454,1.024026 -0.323156,0 -0.457455,-0.310565 -0.457455,-1.024026 0,-0.713461 0.130102,-1.024027 0.457455,-1.024027 0.327353,0 0.457454,0.310566 0.457454,1.024027 z m 2.266289,1.4563 h 0.83517 v -2.908403 h -0.58336 v 1.11216 c 0,0.524603 0.05876,0.948483 0.100724,1.21708 l -0.738642,-2.32924 h -0.86035 v 2.908403 h 0.583359 v -1.095373 c 0,-0.512013 -0.06715,-0.994649 -0.100724,-1.242262 z m 2.6524,-2.379603 h 0.78061 l 0.06715,-0.5288 h -2.354421 v 0.5288 h 0.818382 v 2.379603 h 0.68828 z m 3.340677,0.923303 c 0,-0.944287 -0.398699,-1.527646 -1.162522,-1.527646 -0.763823,0 -1.162522,0.604343 -1.162522,1.527646 0,0.944286 0.398699,1.527646 1.162522,1.527646 0.763823,0 1.162522,-0.604344 1.162522,-1.527646 z m -0.705067,0 c 0,0.705067 -0.121708,1.024026 -0.457455,1.024026 -0.323156,0 -0.457454,-0.310565 -0.457454,-1.024026 0,-0.713461 0.130102,-1.024027 0.457454,-1.024027 0.327353,0 0.457455,0.310566 0.457455,1.024027 z m 4.918688,-0.923303 h 0.78061 l 0.06715,-0.5288 H 29.05509 v 0.5288 h 0.818382 v 2.379603 h 0.68828 z m 3.122442,-0.5288 h -1.888573 v 0.503619 h 0.600147 v 1.896967 h -0.600147 v 0.507817 h 1.888573 v -0.507817 h -0.600146 v -1.896967 h 0.600146 z m 1.817229,-0.07554 c -0.76802,0 -1.359773,0.549784 -1.359773,1.523449 0,0.998845 0.562375,1.531843 1.351379,1.531843 0.449061,0 0.763823,-0.176267 0.977861,-0.394502 l -0.310565,-0.398699 c -0.163676,0.130102 -0.339943,0.260203 -0.629524,0.260203 -0.398699,0 -0.67569,-0.297975 -0.67569,-0.998845 0,-0.713461 0.293778,-1.011436 0.663099,-1.011436 0.226629,0 0.419683,0.08394 0.579163,0.214038 l 0.335746,-0.407092 c -0.243416,-0.201448 -0.512013,-0.318959 -0.931696,-0.318959 z m 1.951528,2.983946 v -2.908403 h -0.68828 v 2.908403 z m 0.02099,-1.552827 0.801594,1.552827 h 0.793201 l -0.902319,-1.603189 0.822579,-1.305214 h -0.721855 z m 2.639808,-0.864547 h 1.141538 l 0.07135,-0.491029 h -1.901164 v 2.908403 h 1.901164 v -0.495226 h -1.212884 v -0.742839 h 1.00724 v -0.478439 h -1.00724 z m 3.038504,0.03777 h 0.780611 l 0.06715,-0.5288 h -2.354422 v 0.5288 h 0.818382 v 2.379603 h 0.68828 z"
     id="text2"
     style="font-weight:bold;font-size:4.19683px;font-family:'Fira Mono';-inkscape-font-specification:'Fira Mono, Bold';fill:#fff;stroke:none;stroke-linecap:round;stroke-linejoin:round;stroke-opacity:1"
     aria-label="DAS KONTO TICKET" /></svg>
