<?xml version="1.0" encoding="UTF-8"?>
<svg viewBox="0 0 48 48" xmlns="http://www.w3.org/2000/svg">
  <path fill="#fff" d="M37.977 4.672a.382.382 0 0 0-.136.052l-15.364 9.783a.382.382 0 0 0-.16.438l2.956 9.436a.382.382 0 0 0 .388.268l9.058-.554a.382.382 0 0 0 .35-.313l3.353-18.666a.382.382 0 0 0-.3-.443.382.382 0 0 0-.145-.001zM20.734 15.666a.382.382 0 0 0-.164.057L5.767 25.152a.382.382 0 0 0 .228.704l17.422-1.07a.382.382 0 0 0 .341-.497L21.14 15.93a.382.382 0 0 0-.233-.243.382.382 0 0 0-.172-.02zm13.539 9.878-7.986.49a.382.382 0 0 0-.341.495l5.018 16.026a.382.382 0 0 0 .74-.047l2.968-16.514a.382.382 0 0 0-.4-.45z"/>
</svg>
