<?xml version="1.0" encoding="UTF-8"?>
<svg version="1.1" viewBox="0 0 48 48" xmlns="http://www.w3.org/2000/svg">
    <path d="m19.497 4c-2.4876 1e-7 -4.5031 2.0156-4.5031 4.5031v2.2515h-2.6276c-0.9209 0-1.663 0.74213-1.663 1.663v29.919c0 0.9209 0.74213 1.663 1.663 1.663h23.267c0.9209 0 1.663-0.74213 1.663-1.663v-29.919c0-0.9209-0.74213-1.663-1.663-1.663h-2.6252v-2.2515c0-2.4876-2.018-4.5031-4.5055-4.5031zm0 3.0037h9.0061c0.83172 0 1.5018 0.66771 1.5018 1.4994v2.2515h-12.01v-2.2515c0-0.83165 0.67015-1.4994 1.5018-1.4994zm10.393 10.723 3.453 1.9902-8.0049 13.863-1.9927 3.4506-3.4481-1.9927-5.2357-3.0232 1.9902-3.4481 5.2357 3.0232z" fill="#fff" stroke-width="1.2503"/>
</svg>
