<?xml version="1.0" encoding="UTF-8"?>
<svg data-name="Layer 1" version="1.1" viewBox="0 0 48 48" xmlns="http://www.w3.org/2000/svg">
    <path d="m18.743 4.1891a5.0441 5.0441 0 0 0-4.5581 5.0657 4.989 4.989 0 0 0 1.0239 3.0179 0.47357 0.47357 0 0 0 0.48399 0.15488 26.432 26.432 0 0 1 6.1692-0.72705h1.3982a0.47357 0.47357 0 0 0 0.45172-0.24307 4.945 4.945 0 0 0 0.29684-3.8095 5.0661 5.0661 0 0 0-3.7772-3.3814 5.0441 5.0441 0 0 0-1.4885-0.077438zm16.471 4.0698c-0.2749-0.00438-0.57261 0.13939-0.84106 0.2151a8.3591 8.3591 0 0 0-5.1324 4.2505c-0.28635 0.50661-0.49578 1.0026-1.2777 0.90344a35.628 35.628 0 0 0-7.9632-0.15488 14.317 14.317 0 0 0-5.7046 1.5638 13.833 13.833 0 0 0-6.0789 6.8403c-0.077093-0.2423-0.13336-0.34185-0.13336-0.44096-0.29736-1.3877-1.1105-2.0918-2.278-1.9596a2.0485 2.0485 0 0 0-1.7854 2.3124 7.3789 7.3789 0 0 0 2.8759 6.266 1.7181 1.7181 0 0 1 0.69264 0.99163 12.897 12.897 0 0 0 4.1515 6.8059 2.9406 2.9406 0 0 1 1.0476 2.5554c-0.29736 2.9185 0.86998 4.3953 4.0418 4.8248 0.25331 0.03304 0.49552 0.13122 0.73781 0.13122 2.1806 0.44053 1.9051 0.43072 2.3016-1.5186 0.27533-1.3106 0.79288-1.6978 2.1145-1.4885a20.055 20.055 0 0 0 3.304 0.15488c2.6432 0 2.6548 4e-6 3.3707 2.478 0.13216 0.45155 0.23051 0.94715 0.85827 0.826a16.3 16.3 0 0 0 4.2397-1.0024 2.7203 2.7203 0 0 0 1.8499-2.4672c-0.22027-2.2908 0.5184-3.2035 1.8951-4.9216 0.18723-0.23128 0.59472-0.62922 0.826-0.94861a4.6807 4.6807 0 0 1 3.7665-2.2027c1.2996-0.06608 1.8843-0.46179 1.8843-1.9596v-4.4053a1.7732 1.7732 0 0 0-1.5531-2.0478 4.5045 4.5045 0 0 1-3.304-2.7211 11.09 11.09 0 0 0-2.435-3.4374c-0.91411-0.87005-1.2992-0.74856-1.8499 0.35277-0.20925 0.44053-0.22018 1.0023-0.73781 1.4649a18.844 18.844 0 0 1 1.3874-9.7894c0.18723-0.38547 0.55058-0.8377 0.18714-1.2562-0.13629-0.15694-0.29323-0.21246-0.45817-0.2151zm0.8217 15.337a1.9163 1.9163 0 1 1-1.9833 1.8047 1.8833 1.8833 0 0 1 1.9833-1.8047z" fill="#fff" stroke-width="1.1013"/>
</svg>
