<?xml version="1.0" encoding="UTF-8" standalone="no"?>
<!-- Created with Inkscape (http://www.inkscape.org/) -->

<svg
   version="1.1"
   id="svg1"
   width="48"
   height="48"
   viewBox="0 0 48 48"
   xmlns="http://www.w3.org/2000/svg"
   xmlns:svg="http://www.w3.org/2000/svg">
  <defs
     id="defs1" />
  <path
     style="fill:#fff;stroke:#fff;stroke-width:1;stroke-linecap:round;stroke-linejoin:round;stroke-dasharray:none;stroke-opacity:1"
     d="m 31.071687,21.100122 c -0.06846,-2.01e-4 -0.139151,0.0109 -0.210396,0.02902 -0.371607,0.09864 -1.207494,0.648026 -1.513886,1.117276 -0.10901,0.180417 -0.160385,0.395774 -0.20314,0.602168 -0.05372,0.331588 -0.112663,0.694971 -0.01214,1.027797 l -8.602054,4.236941 -0.440139,-1.146295 1.139041,-0.24909 0.989103,-0.20314 c 0,0 0.108379,-0.348425 0.01452,-0.563475 -0.09387,-0.215049 -0.238849,-0.445809 -0.636025,-0.563474 -0.397212,-0.117666 -1.920779,-0.327669 -2.90685,-0.227325 -0.448314,0.05707 -1.076919,0.152742 -1.400224,0.39419 -0.323304,0.241436 -0.538548,0.514334 -0.539291,0.798053 -7.31e-4,0.28372 0.263952,0.491911 0.483669,0.650536 0.384793,0.277727 1.305908,0.273273 1.305908,0.273273 l 0.544127,1.557415 -1.98788,2.183765 -0.476413,0.500597 c -0.07219,-0.05545 -0.142779,-0.111288 -0.217652,-0.164446 -3.172746,-2.251902 -7.546503,-1.545392 -9.767698,1.584016 -2.221194,3.129409 -1.446047,7.494031 1.726699,9.745933 1.18978,0.84441 2.547876,1.27391 3.898372,1.313161 2.250787,0.06538 4.481064,-0.946165 5.869326,-2.902015 0.639155,-0.900538 1.02728,-1.903875 1.184989,-2.928616 l 3.968505,0.137846 c 0,0 0.408116,-0.03393 0.585239,-0.130592 0.177347,-0.0968 0.432885,-0.425629 0.432885,-0.425629 l 6.73751,-9.620177 1.151132,2.580373 0.01693,0.03869 c -0.89967,0.485745 -1.701391,1.180211 -2.331284,2.067686 -2.221194,3.129408 -1.450884,7.496449 1.721862,9.74835 3.172746,2.251902 7.546504,1.53572 9.767698,-1.593689 2.221193,-3.129408 1.450883,-7.489195 -1.721862,-9.741096 -1.772845,-1.258277 -3.919586,-1.586854 -5.857234,-1.090673 l -2.897182,-6.795551 c 0,0 -0.09582,-0.459628 -0.0097,-0.679556 0.0861,-0.219928 0.403108,-0.375731 0.512688,-0.534454 0.10958,-0.158725 0.172023,-0.216521 0.178957,-0.377261 0.04514,-0.423649 -0.163721,-0.616726 -0.430465,-0.6457 -0.02223,-0.0025 -0.0449,-0.0048 -0.06772,-0.0048 z m -1.371202,4.041056 0.473995,1.068908 -6.348157,9.15102 -0.15961,0.09431 -2.454621,-5.862065 c 2.782343,-1.548732 5.656398,-2.981076 8.488393,-4.452173 z m -9.857177,5.359053 2.415927,5.777427 -2.909269,0.05562 C 19.206831,35.055583 18.710161,33.818777 17.891703,32.77347 Z m 15.74343,1.397804 c 1.017918,-0.0054 2.049192,0.299716 2.945544,0.935899 2.257387,1.602222 2.797221,4.709122 1.211592,6.943069 -0.99105,1.396212 -2.578603,2.12139 -4.181319,2.077361 -0.961581,-0.02642 -1.929746,-0.330244 -2.776261,-0.931065 -2.257375,-1.60222 -2.802058,-4.713959 -1.216429,-6.947906 0.396445,-0.55845 0.890859,-1.007452 1.441335,-1.3446 l 1.738791,4.053147 c 0,0 0.532474,1.038715 1.247865,0.708576 0.715391,-0.33014 0.353078,-1.201918 0.353078,-1.201918 l -1.772646,-4.183737 c 0.33056,-0.0697 0.669147,-0.106968 1.00845,-0.108826 z m -23.087944,0.123336 c 0.958238,0.02279 1.923282,0.321648 2.769005,0.914136 l -3.163196,3.325225 c 0,0 -0.598366,0.592702 -0.415955,1.064071 0.263871,0.681872 1.093091,0.616678 1.093091,0.616678 l 4.522307,0.157192 c -0.136932,0.630688 -0.401647,1.24317 -0.798054,1.801668 -0.99105,1.396224 -2.581021,2.121389 -4.183738,2.077359 C 11.360673,41.95128 10.397345,41.647458 9.55083,41.046637 7.293456,39.444415 6.748772,36.332678 8.334402,34.098731 c 0.987211,-1.390875 2.567247,-2.11536 4.164392,-2.07736 z m 4.038636,2.205531 c 0.443199,0.648689 0.727419,1.384414 0.83191,2.145073 l -2.872994,0.05079 z"
     id="path3" />
  <path
     style="fill:#fff;stroke:#fff;stroke-width:1;stroke-linecap:round;stroke-linejoin:round;stroke-dasharray:none;stroke-opacity:1"
     d="M 25.10321,4.0000013 V 18.123139 h 5.43644 c 1.689886,0 2.949051,-0.335249 3.775038,-1.003614 0.832375,-0.668376 1.250284,-1.682684 1.250284,-3.044696 1.3e-5,-0.889023 -0.193278,-1.642356 -0.577984,-2.253899 -0.384706,-0.611543 -0.93103,-1.030542 -1.637221,-1.25754 0.554785,-0.2333 0.973796,-0.5872837 1.25754,-1.0664897 0.290059,-0.485619 0.437721,-1.073272 0.437721,-1.760556 0,-1.305055 -0.397771,-2.2536813 -1.192245,-2.8463918 C 33.06455,4.2972419 31.78754,4.0000013 30.022124,4.0000013 Z m 3.286531,2.476385 h 1.806504 c 0.517033,0 0.910492,0.130845 1.175316,0.389354 0.271127,0.252208 0.403864,0.622094 0.403864,1.107602 0,0.49181 -0.132737,0.862638 -0.403864,1.114858 -0.264824,0.25222 -0.658283,0.379681 -1.175316,0.379681 h -1.806504 z m 0,5.4702987 h 1.920166 c 0.662025,0 1.156991,0.152925 1.484865,0.461903 0.334163,0.302715 0.503015,0.762016 0.503015,1.373621 0,0.624198 -0.168827,1.088837 -0.503015,1.397803 -0.327824,0.308967 -0.822815,0.464322 -1.484865,0.464322 h -1.920166 z"
     id="rect2" />
  <path
     style="fill:#fff;stroke:#fff;stroke-width:1;stroke-linecap:round;stroke-linejoin:round;stroke-dasharray:none;stroke-opacity:1"
     d="M 12.431079,4.0024196 V 18.123139 h 3.460653 c 1.904217,0 3.330781,-0.154416 4.28289,-0.457068 0.95217,-0.309053 1.768815,-0.828419 2.449783,-1.559832 0.598939,-0.636803 1.04488,-1.370813 1.334928,-2.203113 0.290058,-0.838504 0.43772,-1.790466 0.43772,-2.856066 0,-1.0530827 -0.147674,-1.9947447 -0.43772,-2.8270457 C 23.669348,7.3877013 23.223406,6.6513233 22.624405,6.0144833 21.949838,5.2829464 21.139761,4.7669875 20.193968,4.4643237 19.254427,4.1553698 17.821208,4.0024196 15.891732,4.0024196 Z m 3.286532,2.7520767 h 1.172898 c 1.343068,0 2.364155,0.364098 3.064043,1.095511 0.706179,0.731401 1.061654,1.797276 1.061654,3.1970527 0,1.406091 -0.355463,2.476253 -1.061654,3.21398 -0.706141,0.737716 -1.72729,1.110022 -3.064043,1.110022 h -1.172898 z"
     id="path2" />
</svg>
