<?xml version="1.0" encoding="UTF-8"?>
<svg version="1.1" viewBox="0 0 48 48" xmlns="http://www.w3.org/2000/svg">
    <path d="m21.95 4-1.503 1.2316 1.8474 0.2004 0.65546-0.21501zm7.5858 0.18161-4.6717 1.5259 5.3585 0.57614zm-14.593 1.528-3.5863 33.331 22.075 2.3755 3.5884-33.331zm-1.4675 3.7178-5.0454 1.6491 3.6614 11.21zm-4.893 5.5422-3.7971 3.1166 6.8594 8.3582 0.17117-1.5802zm28.022 6.8907-0.04384 0.40706 3.3796 10.339 3.2752-2.6907zm-0.31938 2.9788-0.27763 2.5738v0.0021l-0.98111 9.1222-0.12525 1.1606 5.0454-1.6491zm-18.132 16.003 0.68886 2.1021 4.6717-1.5259zm7.9303 0.85377-1.5176 0.49473 1.4863 1.8098 2.4862-2.0415z" fill="#fff" stroke-width="1.0688"/>
</svg>
