<?xml version="1.0" encoding="UTF-8"?>
<svg version="1.1" viewBox="0 0 48 48" xmlns="http://www.w3.org/2000/svg">
    <path d="m17.326 11.656a1.7831 1.7831 0 0 0 0 3.5661h4.5041v0.85438h-6.1455a1.1887 1.1887 0 0 0-0.77313 0.28557l-2.793 2.3774h-1.4743a1.9019 1.9019 0 0 0-1.8899 1.8899v3.1505h-1.1887v-3.5661a1.7831 1.7831 0 0 0-3.5661 0v10.698a1.7831 1.7831 0 0 0 3.5661 0v-3.5661h1.1887v3.1738a1.89 1.89 0 0 0 1.8899 1.8899h4.4228l5.254 3.7217a1.1887 1.1887 0 0 0 0.68954 0.2136h14.265a1.6642 1.6642 0 0 0 1.6647-1.6647v-2.9486h0.92636v2.1035a1.1887 1.1887 0 0 0 1.1887 1.1887h1.9131a1.1887 1.1887 0 0 0 0.9519-0.48524l1.8411-2.4865a1.1887 1.1887 0 0 0 0.23914-0.71276v-7.6314a1.1887 1.1887 0 0 0-0.22521-0.68954l-1.855-2.6026a1.1887 1.1887 0 0 0-0.97511-0.49917h-1.8899a1.1887 1.1887 0 0 0-1.1887 1.1887v2.2358h-0.92636v-1.6647a1.6642 1.6642 0 0 0-1.6647-1.6647h-1.8783v-2.2706a1.6642 1.6642 0 0 0-1.6647-1.6647h-6.2872v-0.85438h4.5041a1.7831 1.7831 0 0 0 0-3.5661z" fill="#fff" stroke-width="1.1887"/>
</svg>
