<?xml version="1.0" encoding="UTF-8"?>
<svg version="1.1" viewBox="0 0 48 48" xmlns="http://www.w3.org/2000/svg">
    <path d="m22.508 4a9.5313 9.5313 0 0 0-9.528 9.5307 9.5313 9.5313 0 0 0 0.21038 1.9571l0.47059 4.3709h-4.7142c-1.3958 0-2.519 1.126-2.519 2.5218v1.3647c0 1.3958 1.1232 2.519 2.519 2.519h5.4062c4.8273 18.017 27.219 17.736 27.219 17.736s-10.904-7.5003-10.904-17.736h5.4062c1.3958 0 2.519-1.1232 2.519-2.519v-1.3647c0-1.3958-1.1232-2.5218-2.519-2.5218h-4.7142l0.47612-4.4263a9.5313 9.5313 0 0 0 0.20484-1.9017 9.5313 9.5313 0 0 0-9.5335-9.5307z" fill="#fff" stroke-width="1.4173"/>
</svg>
