<?xml version="1.0" encoding="UTF-8"?>
<svg version="1.1" viewBox="0 0 48 48" xmlns="http://www.w3.org/2000/svg">
    <path d="m16.262 5.7793c-3.9166-2e-6 -7.1328 3.1845-7.1328 7.0879-9e-7 3.9032 3.2162 7.0859 7.1328 7.0859 3.9166 2e-6 7.1348-3.1827 7.1348-7.0859 2e-6 -3.9032-3.2181-7.0879-7.1348-7.0879zm15.162 0c-3.9166-2e-6 -7.1348 3.1847-7.1348 7.0879 2e-6 3.9032 3.2181 7.0859 7.1348 7.0859 3.9166 2e-6 7.1348-3.1827 7.1348-7.0859s-3.2181-7.0879-7.1348-7.0879zm-15.162 2.8438c2.3928 0 4.291 1.89 4.291 4.2441-1e-6 2.3541-1.8982 4.2422-4.291 4.2422-2.3928-1e-6 -4.2891-1.8881-4.2891-4.2422 1e-6 -2.3541 1.8963-4.2441 4.2891-4.2441zm15.162 0c2.3928 0 4.291 1.89 4.291 4.2441 2e-6 2.3541-1.8982 4.2422-4.291 4.2422-2.3928-1e-6 -4.2891-1.8881-4.2891-4.2422s1.8963-4.2441 4.2891-4.2441zm-17.643 12.688 3.3262 7.9785 9.1602 0.44922-6.3672 5.9004h13.83v-5.8965l4.125 2.2891 6.1445 3.4082-0.11133-6.9375-0.11523-7.0703-5.9121 3.5938-4.1309 2.5098v-6.2246h-19.949zm-0.30469 2.8164-2.6211 6.3613-6.8555 0.57227 5.2383 4.4609-1.5703 6.6992 5.8574-3.6074 5.8867 3.5664-1.6191-6.6875 5.209-4.4961-6.8613-0.52539-2.6641-6.3438z" fill="#fff" stroke-width="1.5044"/>
</svg>
