<?xml version="1.0" encoding="UTF-8" standalone="no"?>
<!-- Created with Inkscape (http://www.inkscape.org/) -->

<svg
   width="48"
   height="48"
   viewBox="0 0 48 48"
   version="1.1"
   id="svg1"
   xml:space="preserve"
   xmlns="http://www.w3.org/2000/svg"
   xmlns:svg="http://www.w3.org/2000/svg"><defs
     id="defs1" /><g
     id="layer1"><g
       id="g17"
       style="display:inline;fill:#fff;stroke:none;stroke-width:3.0498;stroke-dasharray:none"
       transform="matrix(0.3278906,0,0,0.3278906,15.983265,15.412679)"><path
         id="path9"
         style="display:inline;fill:#fff;fill-opacity:1;stroke:none;stroke-width:3.0498;stroke-miterlimit:0;stroke-dasharray:none"
         d="M 6.3447178,24.172484 A 26,26 0 0 0 -15.559303,2.1712533 a 16.26463,16.26463 45 0 1 0.344896,1.1670365 16.26463,16.26463 45 0 1 -12.752874,18.7490572 14.248194,14.248194 0 0 1 5.716016,9.056861 14.248194,14.248194 0 0 1 -4.237724,12.807987 15.034547,15.034547 0 0 1 0.08588,0.281235 15.034547,15.034547 0 0 1 -0.996306,8.310945 26,26 0 0 0 8.006556,1.32821 A 26,26 0 0 0 6.6105874,27.875691 26,26 0 0 0 6.3447178,24.172484 Z"
         transform="rotate(-80)" /><path
         id="path1"
         style="display:inline;stroke:none;stroke-width:2.46374;stroke-miterlimit:0;stroke-dasharray:none"
         transform="matrix(0.94877167,0.16729404,-0.27619264,1.5663663,65.978639,-11.383892)"
         d="m -36.483768,3.3115183 -8.303854,-0.077891 4.219383,-7.1524038 4.219383,-7.1524035 4.084472,7.2302949 4.084471,7.2302943 z" /><path
         id="path10"
         style="display:inline;stroke:none;stroke-width:2.46374;stroke-miterlimit:0;stroke-dasharray:none"
         transform="matrix(0.61926675,0.73801334,-1.2184167,1.022373,79.957895,24.449684)"
         d="m -36.483768,3.3115183 -8.303854,-0.077891 4.219383,-7.1524038 4.219383,-7.1524035 4.084472,7.2302949 4.084471,7.2302943 z" /><path
         id="path11"
         style="display:inline;stroke:none;stroke-width:2.46374;stroke-miterlimit:0;stroke-dasharray:none"
         transform="matrix(-7.0266856e-8,0.963408,-1.59053,-1.2712517e-7,67.633243,60.885503)"
         d="m -36.483768,3.3115183 -8.303854,-0.077891 4.219383,-7.1524038 4.219383,-7.1524035 4.084472,7.2302949 4.084471,7.2302943 z" /><path
         id="path13"
         style="display:inline;fill:#fff;fill-opacity:1;stroke:none;stroke-width:2.46374;stroke-miterlimit:0;stroke-dasharray:none"
         d="m -40.294464,-4.3792633 c 2.098297,-0.3532958 4.354645,-0.4437855 6.649997,-0.1986331 l 1.022943,0.1092542 -3.727865,-6.6043808 z"
         transform="matrix(-0.9487717,0.16729389,-0.27619238,-1.5663663,-3.2508991,75.064412)" /><path
         id="path16"
         style="display:inline;stroke:none;stroke-width:2.46374;stroke-miterlimit:0;stroke-dasharray:none"
         transform="matrix(0.3295053,-0.90530726,1.4946091,0.5439939,-5.4801157,-22.303884)"
         d="m -36.483768,3.3115183 -8.303854,-0.077891 4.219383,-7.1524038 4.219383,-7.1524035 4.084472,7.2302949 4.084471,7.2302943 z" /><path
         id="path17"
         style="display:inline;stroke:none;stroke-width:2.46374;stroke-miterlimit:0;stroke-dasharray:none"
         transform="matrix(0.83433593,-0.48170378,0.79526468,1.3774396,32.236541,-29.848312)"
         d="m -36.483768,3.3115183 -8.303854,-0.077891 4.219383,-7.1524038 4.219383,-7.1524035 4.084472,7.2302949 4.084471,7.2302943 z" /></g><g
       id="g22"
       transform="matrix(0.3278906,0,0,0.3278906,15.983265,15.412679)"
       style="display:inline;fill:#fff;stroke:none;stroke-width:3.0498;stroke-dasharray:none"><path
         id="rect17"
         style="fill:#fff;fill-opacity:1;stroke:none;stroke-width:3.0498;stroke-miterlimit:0;stroke-dasharray:none"
         d="m 39.125,36.613281 a 13.474348,13.474348 0 0 0 -13.474609,13.47461 13.474348,13.474348 0 0 0 0.427734,3.251953 10,10 0 0 0 -4.464844,-1.060547 10,10 0 0 0 -10,10 10,10 0 0 0 0.279297,2.238281 c -3.8656624,1.988396 -6.501953,6.005604 -6.501953,10.667969 0,6.647972 5.352028,12 12,12 h 46 c 6.647972,0 12,-5.352028 12,-12 0,-4.126824 -2.064226,-7.750424 -5.21875,-9.908203 A 11.803842,11.803842 0 0 0 72.599609,58.15625 11.803842,11.803842 0 0 0 60.796875,46.351562 11.803842,11.803842 0 0 0 52.585938,49.714844 13.474348,13.474348 0 0 0 39.125,36.613281 Z" /><path
         id="path19"
         style="display:inline;fill:#fff;fill-opacity:1;stroke:none;stroke-width:3.0498;stroke-miterlimit:0;stroke-dasharray:none"
         d="M 0.42686839,21.14685 A 14.688123,14.688123 0 0 0 -14.25624,35.835915 a 14.688123,14.688123 0 0 0 0.464617,3.544198 10.900804,10.900804 0 0 0 -4.866571,-1.155587 10.900804,10.900804 0 0 0 -10.900644,10.900644 10.900804,10.900804 0 0 0 0.303788,2.436264 c -4.213879,2.16751 -7.088397,6.545006 -7.088397,11.627354 0,7.246817 5.833956,13.080773 13.080773,13.080773 H 1.3144072 C 1.1218385,75.362582 1.0165754,74.424053 1.0165754,73.458029 c 0,-5.202217 2.9419184,-9.682729 7.2551828,-11.901359 A 11.157903,11.157903 0 0 1 7.9560565,59.060839 11.157903,11.157903 0 0 1 19.118792,47.898103 11.157903,11.157903 0 0 1 24.09854,49.083473 15.034547,15.034547 0 0 1 23.622009,45.455882 15.034547,15.034547 0 0 1 30.025393,33.232865 12.867137,12.867137 0 0 0 24.050887,31.761576 12.867137,12.867137 0 0 0 15.104019,35.424907 14.688123,14.688123 0 0 0 0.42686839,21.14685 Z" /><path
         id="path22"
         style="display:none;fill:#fff;fill-opacity:1;stroke:none;stroke-width:3.0498;stroke-miterlimit:0;stroke-dasharray:none"
         d="m 0.6456602,15.564567 a 16.26463,16.26463 0 0 0 -16.2649452,16.264947 16.26463,16.26463 0 0 0 0.51631,3.925371 12.07081,12.07081 0 0 0 -5.389429,-1.280166 12.07081,12.07081 0 0 0 -12.070811,12.070811 12.07081,12.07081 0 0 0 0.337135,2.701786 c -4.666168,2.400156 -7.848385,7.24925 -7.848385,12.877103 0,8.024641 6.460332,14.484973 14.484973,14.484973 h 55.525729 c 8.024641,0 14.484972,-6.460332 14.484972,-14.484973 0,-4.981411 -2.491687,-9.355389 -6.299454,-11.960004 A 14.248194,14.248194 0 0 0 41.052227,41.568677 14.248194,14.248194 0 0 0 26.80537,27.319462 14.248194,14.248194 0 0 0 16.894103,31.379217 16.26463,16.26463 0 0 0 0.6456602,15.564567 Z" /></g></g></svg>
