<?xml version="1.0" encoding="UTF-8"?>
<svg version="1.1" viewBox="0 0 48 48" xmlns="http://www.w3.org/2000/svg">
    <path d="m30.099 4.0026c-1.0275 0.049568-2.134 0.64206-3.2419 1.9389-2.6365 3.0946-1.9355 13.555 0.65675 16.866 0 0 12.055-1.5724 13.462-8.0537 0.77701-3.585-1.0728-5.9082-1.0728-5.9082s-2.1165-3.0568-4.3042-2.0252c-2.1863 1.0315-0.49782 1.8109-2.088-0.65675-0.83997-1.3022-1.9429-2.1171-3.166-2.1613a2.8937 2.8937 0 0 0-0.24596 0zm-17.222 2.8337c-2.4985 0.04019-4.0321 1.2638-4.0321 1.2638s-3.0568 2.1113-2.0252 4.299c1.0289 2.1863 1.8109 0.49909-0.65675 2.0906-2.4663 1.5929-3.1858 4.1219-0.21979 6.6539 3.092 2.6351 13.555 1.9342 16.864-0.65676 0 0-1.5724-12.055-8.0537-13.462a8.1814 8.1814 0 0 0-1.8761-0.18578zm7.6089 18.355c-0.01477 0.0019-12.054 1.579-13.46 8.0564-0.77701 3.5836 1.0701 5.9082 1.0728 5.9082 0 0 2.1139 3.0568 4.3016 2.0252 2.1863-1.0289 0.49782-1.8109 2.088 0.65675 1.5929 2.469 4.1219 3.1845 6.6539 0.21717 2.6365-3.092 1.9368-13.555-0.65676-16.864zm14.496 0c-3.802 4e-3 -7.9264 0.86332-9.7885 2.3209 0 0 1.5724 12.055 8.0537 13.462 3.585 0.77701 5.9082-1.0728 5.9082-1.0728s3.0568-2.1139 2.0252-4.3016c-1.0289-2.1863-1.8109-0.50043 0.65675-2.0906 2.4677-1.5929 3.1859-4.1193 0.21717-6.6513-1.3531-1.1521-4.1119-1.6694-7.0725-1.6667z" fill="#fefefe"/>
</svg>
