<?xml version="1.0" encoding="UTF-8" standalone="no"?>
<svg
   width="48"
   height="48"
   viewBox="0 0 48 48"
   version="1.1"
   id="svg1"
   xml:space="preserve"
   xmlns="http://www.w3.org/2000/svg"
   xmlns:svg="http://www.w3.org/2000/svg"><defs
   id="defs1" />
    <path
   style="fill:#fff;stroke:none;stroke-width:1;stroke-linecap:round;stroke-linejoin:round;stroke-dasharray:none;stroke-opacity:1"
   d="m 7.192803,34.287403 c -0.771999,0 -1.397936,0.625937 -1.397936,1.397937 0,0.771998 0.625883,1.397936 1.397936,1.397936 0.329046,-1.42e-4 0.647485,-0.116353 0.899282,-0.328175 l 2.431473,1.48957 c -0.02402,0.103411 -0.03618,0.209227 -0.03622,0.315388 0,0.771999 0.625937,1.397937 1.397937,1.397937 0.771998,0 1.397935,-0.625872 1.397935,-1.397937 -4.81e-4,-0.276259 -0.08277,-0.546177 -0.23654,-0.775684 l 1.732502,-2.184275 -0.681919,-0.543406 -1.741028,2.19067 c -0.151583,-0.05552 -0.311647,-0.08434 -0.473082,-0.08524 -0.333049,5.02e-4 -0.654973,0.119911 -0.907807,0.336697 L 8.548126,36.01352 c 0.02643,-0.107405 0.04002,-0.21756 0.04049,-0.328174 0,-0.771999 -0.623751,-1.397936 -1.395804,-1.397936 z"
   id="path13" /><path
   style="fill:#fff;stroke:none;stroke-width:1;stroke-linecap:round;stroke-linejoin:round;stroke-dasharray:none;stroke-opacity:1"
   d="m 30.424968,28.542227 -0.630776,0.779946 9.629991,1.562023 c 0.104088,0.681506 0.689363,1.18544 1.378757,1.186967 0.771999,0 1.397936,-0.625937 1.397936,-1.397936 0,-0.771999 -0.625871,-1.397936 -1.397936,-1.397936 -0.519688,-1.64e-4 -0.996505,0.28792 -1.238112,0.747981 z"
   id="path12" /><path
   style="fill:#fff;stroke:none;stroke-width:1;stroke-linecap:round;stroke-linejoin:round;stroke-dasharray:none;stroke-opacity:1"
   d="m 20.993162,26.03617 c -0.771999,0 -1.397936,0.625872 -1.397936,1.397936 1.73e-4,0.267488 0.0771,0.529352 0.221623,0.754374 v 0.0022 l -3.667451,4.530507 0.677659,0.549797 3.669581,-4.532637 c 0.158446,0.06115 0.326698,0.09293 0.496524,0.09376 0.498129,-4.04e-4 0.958443,-0.265864 1.208277,-0.696837 l 4.078734,0.615858 0.641432,-0.786339 -4.541163,-0.686182 c -0.0791,-0.706839 -0.676175,-1.241434 -1.38728,-1.242437 z"
   id="path11" /><path
   style="fill:#fff;stroke:none;stroke-width:1;stroke-linecap:round;stroke-linejoin:round;stroke-dasharray:none;stroke-opacity:1"
   d="m 40.847691,18.25802 c -1.188854,-2.19e-4 -2.152607,0.963477 -2.15231,2.152309 3.05e-4,0.08191 0.0052,0.163726 0.01491,0.245065 l -4.978017,1.93495 c -0.403697,-0.560943 -1.052094,-0.89393 -1.743158,-0.895021 -1.188853,-2.19e-4 -2.152607,0.963479 -2.152309,2.152311 8.61e-4,0.471539 0.15659,0.929759 0.443247,1.304172 l -8.602848,10.970389 c -0.269615,-0.117432 -0.560444,-0.178358 -0.854531,-0.179005 -0.507533,-5.23e-4 -0.998881,0.178359 -1.387281,0.505048 L 9.166103,29.215622 c 0.09072,-0.240461 0.137637,-0.495229 0.138515,-0.752242 2.18e-4,-1.188855 -0.963478,-2.152606 -2.15231,-2.15231 -1.188854,-2.19e-4 -2.152606,0.963477 -2.15231,2.15231 -2.18e-4,1.188853 0.963478,2.152607 2.15231,2.15231 0.507283,-0.0011 0.997907,-0.181562 1.385151,-0.509309 l 10.271422,7.234746 c -0.09097,0.241137 -0.137894,0.496651 -0.138516,0.754373 -2.17e-4,1.188854 0.963479,2.152607 2.152311,2.152312 1.188854,2.18e-4 2.152606,-0.963479 2.152309,-2.152312 -5.56e-4,-0.469586 -0.154728,-0.926119 -0.438985,-1.29991 l 8.602848,-10.974651 c 0.268305,0.116865 0.557621,0.177804 0.850269,0.179005 1.188853,2.18e-4 2.152606,-0.963479 2.15231,-2.15231 -0.0011,-0.08052 -0.0068,-0.160915 -0.01705,-0.240804 l 4.982286,-1.934948 c 0.404134,0.558727 1.051481,0.889949 1.741028,0.890758 1.188854,2.18e-4 2.152606,-0.963478 2.152311,-2.152311 2.17e-4,-1.188853 -0.963479,-2.152605 -2.152311,-2.152309 z m 0.0022,1.284993 c 0.479002,0 0.867317,0.388315 0.867317,0.867316 0,0.479004 -0.388315,0.867318 -0.867317,0.867318 -0.479002,0 -0.867317,-0.388314 -0.867317,-0.867318 0,-0.479001 0.388315,-0.867316 0.867317,-0.867316 z m -8.858569,3.437304 c 0.479004,0 0.867318,0.388314 0.867318,0.867317 0,0.479003 -0.388314,0.867318 -0.867318,0.867315 -0.479002,2e-6 -0.867317,-0.388312 -0.867317,-0.867315 0,-0.479003 0.388315,-0.867317 0.867317,-0.867317 z M 7.154445,27.596063 c 0.479003,0 0.867317,0.388314 0.867317,0.867317 0,0.479001 -0.388314,0.867316 -0.867317,0.867316 -0.479002,0 -0.867317,-0.388315 -0.867317,-0.867316 0,-0.479003 0.388315,-0.867319 0.867317,-0.867317 z m 13.668237,9.63212 c 0.479002,10e-7 0.867316,0.388315 0.867316,0.867317 0,0.479002 -0.388314,0.867317 -0.867316,0.867317 -0.479003,0 -0.867317,-0.388315 -0.867317,-0.867317 0,-0.479002 0.388314,-0.867317 0.867317,-0.867317 z"
   id="path10" /><path
   style="fill:#fff;stroke:none;stroke-width:1;stroke-linecap:round;stroke-linejoin:round;stroke-dasharray:none;stroke-opacity:1"
   d="M 26.105431,9.5528833 V 13.130833 H 26.91308 V 9.5528833 Z"
   id="path9" /><path
   style="fill:#fff;stroke:none;stroke-width:1;stroke-linecap:round;stroke-linejoin:round;stroke-dasharray:none;stroke-opacity:1"
   d="m 16.850497,9.4676433 c -0.34205,0 -0.657306,0.1823325 -0.811912,0.3430909 V 9.5486213 h -0.818303 v 3.5843427 h 0.818303 v -2.580641 c 0.143662,-0.166236 0.364068,-0.321781 0.701099,-0.321781 0.486171,0 0.707494,0.40619 0.707494,0.958949 v 1.943473 h 0.816172 v -2.580641 c 0.154605,-0.166236 0.331993,-0.321781 0.641432,-0.321781 0.557766,0 0.767159,0.408322 0.767159,0.96108 v 1.941342 h 0.818304 v -1.830529 c 2.19e-4,-1.08973 -0.458714,-1.8347917 -1.585463,-1.8347917 -0.480696,0 -0.817341,0.1716979 -1.082549,0.413414 -0.220964,-0.2360207 -0.496519,-0.413414 -0.971736,-0.413414 z"
   id="path8" /><path
   style="fill:#fff;stroke:none;stroke-width:1;stroke-linecap:round;stroke-linejoin:round;stroke-dasharray:none;stroke-opacity:1"
   d="m 36.843542,9.4591192 c -1.173416,0 -1.939211,0.8120438 -1.939211,1.8838048 0,1.071978 0.765763,1.881673 1.939211,1.881673 0.54977,1e-6 1.042102,-0.193717 1.376625,-0.571107 l -0.496523,-0.537012 c -0.234417,0.213217 -0.549633,0.372924 -0.903544,0.372924 -0.619107,0 -1.086809,-0.470362 -1.086809,-1.146478 0,-0.676138 0.467702,-1.146479 1.086809,-1.146479 0.353911,0 0.627145,0.133559 0.884365,0.368664 l 0.515702,-0.532751 C 37.893184,9.6549675 37.393562,9.4591192 36.843542,9.4591192 Z"
   id="path7" /><path
   style="fill:#fff;stroke:none;stroke-width:1;stroke-linecap:round;stroke-linejoin:round;stroke-dasharray:none;stroke-opacity:1"
   d="m 32.585803,9.4591192 c -1.084482,0 -1.834792,0.7632738 -1.834792,1.8838048 0,1.135599 0.782207,1.881673 1.885935,1.881673 0.557342,-1.1e-5 1.065228,-0.129169 1.515142,-0.502916 L 33.75146,12.163359 c -0.303733,0.235562 -0.696084,0.379318 -1.0655,0.379318 -0.522874,0 -0.987253,-0.26947 -1.095334,-0.912068 h 2.723418 c 0.0073,-0.08984 0.01492,-0.190925 0.01492,-0.291947 -0.0037,-1.117182 -0.712442,-1.8795428 -1.743156,-1.8795428 z m -0.01491,0.6947068 c 0.511472,0 0.847263,0.325831 0.93551,0.882234 h -1.911509 c 0.08483,-0.522646 0.403176,-0.882234 0.975999,-0.882234 z"
   id="path6" /><path
   style="fill:#fff;stroke:none;stroke-width:1;stroke-linecap:round;stroke-linejoin:round;stroke-dasharray:none;stroke-opacity:1"
   d="m 29.885826,9.4591192 c -0.450144,0 -0.825687,0.1586652 -1.067632,0.4986541 v -0.40489 H 28.0212 v 3.5779497 h 0.803387 V 11.16392 c 0,-0.608851 0.366489,-0.961081 0.877973,-0.961081 0.196567,0 0.442623,0.04401 0.611597,0.129991 L 30.505946,9.5614073 C 30.32101,9.4904873 30.131873,9.4591192 29.885826,9.4591192 Z"
   id="path5" /><path
   style="fill:#fff;stroke:none;stroke-width:1;stroke-linecap:round;stroke-linejoin:round;stroke-dasharray:none;stroke-opacity:1"
   d="m 12.394576,9.4591192 c -1.138621,0 -1.979699,0.8120438 -1.979699,1.8838048 0,1.071978 0.841165,1.881673 1.979699,1.881673 1.138326,0 1.986092,-0.809913 1.986092,-1.881673 -2.18e-4,-1.072481 -0.847776,-1.8838044 -1.986092,-1.8838048 z m 0,0.7373258 c 0.657643,0 1.159264,0.470592 1.159264,1.146479 0,0.676366 -0.501621,1.146478 -1.159264,1.146478 -0.65784,0 -1.152872,-0.470133 -1.152872,-1.146478 -2.18e-4,-0.675679 0.494988,-1.146479 1.152872,-1.146479 z"
   id="path4" /><path
   style="fill:#fff;stroke:none;stroke-width:1;stroke-linecap:round;stroke-linejoin:round;stroke-dasharray:none;stroke-opacity:1"
   d="m 8.633359,9.4591192 c -1.173011,0 -1.937078,0.8120438 -1.937079,1.8838048 0,1.071978 0.764068,1.881673 1.937079,1.881673 0.550043,1e-6 1.044006,-0.193717 1.378759,-0.571107 L 9.515593,12.116478 c -0.234645,0.213217 -0.549862,0.372924 -0.903544,0.372924 -0.619118,0 -1.088941,-0.470362 -1.088941,-1.146478 0,-0.676138 0.470064,-1.146479 1.088941,-1.146479 0.353682,0 0.627146,0.133559 0.884366,0.368664 l 0.515703,-0.532751 C 9.68509,9.6549784 9.18338,9.4591192 8.633359,9.4591192 Z"
   id="path3" /><path
   style="fill:#fff;stroke:none;stroke-width:1;stroke-linecap:round;stroke-linejoin:round;stroke-dasharray:none;stroke-opacity:1"
   d="m 38.974542,8.4703351 -0.0022,3.3648499 c 0,0.952451 0.488976,1.389412 1.32335,1.389412 0.461349,0 0.835118,-0.159229 1.131562,-0.353746 l -0.317468,-0.624383 c -0.21937,0.13454 -0.494016,0.242934 -0.74372,0.242934 -0.32312,0 -0.583893,-0.187077 -0.583893,-0.669134 v -1.557761 h 1.410723 V 9.5528833 H 39.782202 V 8.4703351 Z"
   id="path2" /><path
   style="fill:#fff;stroke:none;stroke-width:1;stroke-linecap:round;stroke-linejoin:round;stroke-dasharray:none;stroke-opacity:1"
   d="m 24.193924,7.7521881 v 2.2354192 c -0.25375,-0.3176547 -0.634248,-0.5284881 -1.157133,-0.5284881 -1.030714,0 -1.841184,0.7894588 -1.841184,1.8838048 0,1.094782 0.810699,1.881666 1.841184,1.881673 0.522831,-10e-6 0.903327,-0.204898 1.157133,-0.522095 v 0.430462 h 0.805518 V 7.7521881 Z m -1.061237,2.4442569 c 0.665596,0 1.112381,0.492708 1.112381,1.146479 0,0.653793 -0.446981,1.146478 -1.112381,1.146478 -0.69233,0 -1.110253,-0.519155 -1.110253,-1.146478 -2.18e-4,-0.627345 0.417715,-1.146479 1.110253,-1.146479 z"
   id="rect2" /></svg>
