<?xml version="1.0" encoding="UTF-8" standalone="no"?>
<svg
   width="48"
   height="48"
   viewBox="0 0 48 48"
   version="1.1"
   id="svg1"
   xml:space="preserve"
   xmlns="http://www.w3.org/2000/svg"
   xmlns:svg="http://www.w3.org/2000/svg"><defs
   id="defs1" />
    <path
   style="display:inline;fill:#fff;fill-opacity:1;stroke:none;stroke-width:1;stroke-linecap:round;stroke-linejoin:round;stroke-dasharray:none;stroke-opacity:1"
   d="m 13.058595,12.449197 c -0.586726,0 -1.05859,0.49233 -1.05859,1.104807 V 42.892993 C 12.000005,43.50547 12.471869,44 13.058595,44 h 29.433624 c 0.586726,0 1.058589,-0.49453 1.058589,-1.107007 V 13.554004 c 0,-0.612477 -0.471863,-1.104807 -1.058589,-1.104807 z m 3.974661,0.600821 c 0.669283,-0.005 1.440354,0 2.326256,0 h 16.825187 c 7.15347,0 6.763088,-0.32408 6.763088,6.763087 v 16.825188 c 0,7.019716 0.457866,6.760887 -6.763088,6.760887 H 19.359512 c -7.018814,0 -6.760886,0.258886 -6.760886,-6.760887 V 19.813105 c 0,-6.201198 -0.250371,-6.728269 4.43463,-6.763087 z"
   id="path54" /><path
   style="display:inline;fill:#fff;fill-opacity:1;stroke:none;stroke-width:1;stroke-linecap:round;stroke-linejoin:round;stroke-dasharray:none;stroke-opacity:1"
   d="m 21.769399,36.251128 c -0.480666,0 -0.873721,0.392921 -0.873721,0.873722 v 2.172196 c 0,0.480789 0.393033,0.875922 0.873721,0.875922 H 23.946 c 0.480676,0 0.87152,-0.395122 0.87152,-0.875922 v -2.172199 c 0,-0.480789 -0.390855,-0.873722 -0.87152,-0.873722 z"
   id="path53" /><path
   style="display:inline;fill:#fff;fill-opacity:1;stroke:none;stroke-width:1;stroke-linecap:round;stroke-linejoin:round;stroke-dasharray:none;stroke-opacity:1"
   d="m 36.437793,36.200508 c -0.480676,0 -0.875921,0.395122 -0.875921,0.875922 v 2.174399 c 0,0.48079 0.395234,0.873723 0.875921,0.873723 h 2.1722 c 0.480676,0 0.873721,-0.392922 0.873721,-0.873723 V 37.07643 c 0,-0.480789 -0.393022,-0.875922 -0.873721,-0.875922 z"
   id="path52" /><path
   style="display:inline;fill:#fff;fill-opacity:1;stroke:none;stroke-width:1;stroke-linecap:round;stroke-linejoin:round;stroke-dasharray:none;stroke-opacity:1"
   d="m 31.578406,36.200508 c -0.480676,0 -0.87372,0.395122 -0.87372,0.875922 v 2.174399 c 0,0.48079 0.393021,0.873723 0.87372,0.873723 h 2.176604 c 0.480676,0 0.873721,-0.392922 0.873721,-0.873723 V 37.07643 c 0,-0.480789 -0.393034,-0.875922 -0.873721,-0.875922 z"
   id="path51" /><path
   style="display:inline;fill:#fff;fill-opacity:1;stroke:none;stroke-width:1;stroke-linecap:round;stroke-linejoin:round;stroke-dasharray:none;stroke-opacity:1"
   d="m 21.769399,31.358749 c -0.480677,0 -0.873721,0.395111 -0.873721,0.875924 v 2.172198 c 0,0.480788 0.393022,0.873721 0.873721,0.873721 H 23.946 c 0.480676,0 0.87152,-0.39291 0.87152,-0.873721 v -2.172198 c 0,-0.48079 -0.390855,-0.875924 -0.87152,-0.875924 z"
   id="path50" /><path
   style="display:inline;fill:#fff;fill-opacity:1;stroke:none;stroke-width:1;stroke-linecap:round;stroke-linejoin:round;stroke-dasharray:none;stroke-opacity:1"
   d="m 36.448797,31.281719 c -0.480676,0 -0.873721,0.39292 -0.873721,0.873721 v 2.174399 c 0,0.48079 0.393034,0.873721 0.873721,0.873721 h 2.176602 c 0.480676,2e-6 0.87372,-0.39292 0.87372,-0.873721 V 32.15544 c 0,-0.48079 -0.393033,-0.873721 -0.87372,-0.873721 z"
   id="path49" /><path
   style="display:inline;fill:#fff;fill-opacity:1;stroke:none;stroke-width:1;stroke-linecap:round;stroke-linejoin:round;stroke-dasharray:none;stroke-opacity:1"
   d="m 17.055266,31.250909 c -0.480666,0 -0.871521,0.392921 -0.871521,0.873721 v 2.176601 c 0,0.480789 0.390855,0.871521 0.871521,0.871521 h 2.174398 c 0.480677,0 0.873723,-0.390732 0.873723,-0.871521 V 32.12463 c 0,-0.480788 -0.393034,-0.873721 -0.873723,-0.873721 z"
   id="path48" /><path
   style="display:inline;fill:#fff;fill-opacity:1;stroke:none;stroke-width:1;stroke-linecap:round;stroke-linejoin:round;stroke-dasharray:none;stroke-opacity:1"
   d="m 31.501378,31.248609 c -0.480676,-7e-6 -0.873722,0.392921 -0.873722,0.873722 v 2.172199 c 0,0.480788 0.393035,0.875922 0.873722,0.875922 h 2.172199 c 0.480676,0 0.873722,-0.395122 0.873722,-0.875922 v -2.172199 c 0,-0.480791 -0.393024,-0.87371 -0.873722,-0.873722 z"
   id="path47" /><path
   style="display:inline;fill:#fff;fill-opacity:1;stroke:none;stroke-width:1;stroke-linecap:round;stroke-linejoin:round;stroke-dasharray:none;stroke-opacity:1"
   d="m 26.769638,31.248609 c -0.480676,-7e-6 -0.873721,0.392921 -0.873721,0.873722 v 2.172199 c 0,0.480788 0.393022,0.875922 0.873721,0.875922 h 2.1766 c 0.480666,0 0.87152,-0.395122 0.87152,-0.875922 v -2.172199 c 0,-0.480791 -0.390854,-0.87371 -0.87152,-0.873722 z"
   id="path46" /><path
   style="display:inline;fill:#fff;fill-opacity:1;stroke:none;stroke-width:1;stroke-linecap:round;stroke-linejoin:round;stroke-dasharray:none;stroke-opacity:1"
   d="m 24.05604,26.464049 -2.174399,0.0023 c -0.480675,-1.77e-4 -0.87372,0.392831 -0.87372,0.873632 v 2.174398 c 0,0.48079 0.393022,0.875886 0.873722,0.875923 h 2.174399 c 0.480665,0 0.875922,-0.395122 0.875922,-0.875923 v -2.174398 c 0,-0.480789 -0.395245,-0.875923 -0.875922,-0.875923 z"
   id="path45" /><path
   style="display:inline;fill:#fff;fill-opacity:1;stroke:none;stroke-width:1;stroke-linecap:round;stroke-linejoin:round;stroke-dasharray:none;stroke-opacity:1"
   d="m 17.055266,26.442039 c -0.480677,0 -0.871521,0.392921 -0.871521,0.873721 v 2.1722 c 0,0.480789 0.390855,0.875922 0.871521,0.875922 h 2.174398 c 0.480677,0 0.873723,-0.395121 0.873723,-0.875922 v -2.1722 c 0,-0.480789 -0.393023,-0.873721 -0.873723,-0.873721 z"
   id="path44" /><path
   style="display:inline;fill:#fff;fill-opacity:1;stroke:none;stroke-width:1;stroke-linecap:round;stroke-linejoin:round;stroke-dasharray:none;stroke-opacity:1"
   d="m 26.708015,26.439739 c -0.480676,0 -0.873721,0.39292 -0.873721,0.87372 v 2.172199 c 0,0.48079 0.393034,0.875923 0.873721,0.875923 h 2.1744 c 0.480676,0 0.875922,-0.395122 0.875922,-0.875923 v -2.172199 c 0,-0.48079 -0.395235,-0.87372 -0.875922,-0.87372 z"
   id="path43" /><path
   style="display:inline;fill:#fff;fill-opacity:1;stroke:none;stroke-width:1;stroke-linecap:round;stroke-linejoin:round;stroke-dasharray:none;stroke-opacity:1"
   d="m 31.53439,26.430939 c -0.480676,0 -0.873722,0.392921 -0.873722,0.873722 v 2.1766 c 0,0.48079 0.393035,0.873721 0.873722,0.873721 h 2.176601 c 0.480666,0 0.87152,-0.39292 0.87152,-0.873721 v -2.1766 c 0,-0.48079 -0.390854,-0.873722 -0.87152,-0.873722 z"
   id="path42" /><path
   style="display:inline;fill:#fff;fill-opacity:1;stroke:none;stroke-width:1;stroke-linecap:round;stroke-linejoin:round;stroke-dasharray:none;stroke-opacity:1"
   d="m 26.769638,21.630975 c -0.480676,0 -0.873721,0.39292 -0.873721,0.873721 v 2.1766 c 0,0.48079 0.393033,0.87152 0.873721,0.87152 h 2.1766 c 0.480666,0 0.87152,-0.39073 0.87152,-0.87152 v -2.1766 c 0,-0.48079 -0.390854,-0.873721 -0.87152,-0.873721 z"
   id="path41" /><path
   style="display:inline;fill:#fff;fill-opacity:1;stroke:none;stroke-width:1;stroke-linecap:round;stroke-linejoin:round;stroke-dasharray:none;stroke-opacity:1"
   d="m 17.055266,21.630975 c -0.480677,0 -0.871521,0.39292 -0.871521,0.873721 v 2.1766 c 0,0.48079 0.390854,0.873723 0.871521,0.87372 h 2.174398 c 0.480677,0 0.873723,-0.39292 0.873723,-0.87372 v -2.1766 c 0,-0.48079 -0.393034,-0.873721 -0.873723,-0.873721 z"
   id="path40" /><path
   style="display:inline;fill:#fff;fill-opacity:1;stroke:none;stroke-width:1;stroke-linecap:round;stroke-linejoin:round;stroke-dasharray:none;stroke-opacity:1"
   d="m 36.48401,21.516532 c -0.480676,0 -0.875922,0.392921 -0.875922,0.873722 v 2.174398 c 0,0.48079 0.395235,0.873722 0.875922,0.873722 h 2.1744 c 0.480678,0 0.873721,-0.392921 0.873721,-0.873722 v -2.174398 c 0,-0.48079 -0.393021,-0.873722 -0.873721,-0.873722 z"
   id="path39" /><path
   style="display:inline;fill:#fff;fill-opacity:1;stroke:none;stroke-width:1;stroke-linecap:round;stroke-linejoin:round;stroke-dasharray:none;stroke-opacity:1"
   d="m 36.48401,16.822205 c -0.480676,0 -0.875922,0.392921 -0.875922,0.873722 v 2.1766 c 0,0.48079 0.395235,0.873721 0.875922,0.873721 h 2.1744 c 0.480678,0 0.873721,-0.39292 0.873721,-0.873721 v -2.1766 c 0,-0.48079 -0.393021,-0.873722 -0.873721,-0.873722 z"
   id="path38" /><path
   style="display:inline;fill:#fff;fill-opacity:1;stroke:none;stroke-width:1;stroke-linecap:round;stroke-linejoin:round;stroke-dasharray:none;stroke-opacity:1"
   d="m 31.624623,16.822205 c -0.480676,0 -0.871522,0.392921 -0.87152,0.873722 v 2.1766 c -1e-6,0.48079 0.390855,0.873721 0.87152,0.873721 h 2.176602 c 0.480676,0 0.87372,-0.392909 0.87372,-0.873721 v -2.1766 c 0,-0.48079 -0.393021,-0.873722 -0.87372,-0.873722 z"
   id="path37" /><path
   style="display:inline;fill:#fff;fill-opacity:1;stroke:none;stroke-width:1;stroke-linecap:round;stroke-linejoin:round;stroke-dasharray:none;stroke-opacity:1"
   d="m 26.769638,16.822205 c -0.480676,0 -0.873721,0.392921 -0.873721,0.873722 v 2.1766 c 0,0.48079 0.393033,0.873721 0.873721,0.873721 h 2.1766 c 0.480677,0 0.87152,-0.392909 0.87152,-0.873721 v -2.1766 c 0,-0.48079 -0.390854,-0.873722 -0.87152,-0.873722 z"
   id="path36" /><path
   style="display:inline;fill:#fff;fill-opacity:1;stroke:none;stroke-width:1;stroke-linecap:round;stroke-linejoin:round;stroke-dasharray:none;stroke-opacity:1"
   d="m 21.912451,16.822205 c -0.136862,3e-6 -0.262916,0.03794 -0.378539,0.09463 -0.364478,0.105233 -0.638234,0.427977 -0.638234,0.825303 v 2.1766 c 0,0.480789 0.393033,0.873722 0.873721,0.873722 H 23.946 c 0.136186,0 0.258942,-0.03844 0.374137,-0.09463 0.365651,-0.104501 0.642637,-0.427155 0.642637,-0.825304 v -2.176601 c 0,-0.480789 -0.393023,-0.873721 -0.873722,-0.873721 z"
   id="path35" /><path
   style="display:inline;fill:#fff;fill-opacity:1;stroke:none;stroke-width:1;stroke-linecap:round;stroke-linejoin:round;stroke-dasharray:none;stroke-opacity:1"
   d="m 17.055266,16.822205 c -0.480677,0 -0.871521,0.392921 -0.871521,0.873722 v 2.1766 c 0,0.48079 0.390854,0.873721 0.871521,0.873721 h 2.174398 c 0.480677,0 0.875924,-0.39292 0.875924,-0.873721 v -2.1766 c 0,-0.48079 -0.395235,-0.873722 -0.875924,-0.873722 z"
   id="rect25" /><path
   style="fill:#fff;fill-opacity:1;stroke:none;stroke-width:1;stroke-linecap:round;stroke-linejoin:round;stroke-dasharray:none;stroke-opacity:1"
   d="m 29.631926,7.6358122 v 3.2503308 h 0.733695 V 7.6358122 Z"
   id="path32" /><path
   style="fill:#fff;fill-opacity:1;stroke:none;stroke-width:1;stroke-linecap:round;stroke-linejoin:round;stroke-dasharray:none;stroke-opacity:1"
   d="m 21.224431,7.5583773 c -0.31073,0 -0.597119,0.1656371 -0.737567,0.3116755 V 7.6319406 h -0.743375 v 3.2561374 h 0.743375 V 8.5437365 c 0.130507,-0.1510142 0.330731,-0.2923168 0.636902,-0.2923168 0.441654,0 0.64271,0.3690076 0.64271,0.8711418 v 1.7655165 h 0.741439 V 8.5437365 c 0.140449,-0.1510142 0.301593,-0.2923168 0.582698,-0.2923168 0.506693,0 0.696913,0.3709435 0.696913,0.8730788 v 1.7635795 h 0.743375 V 9.2251645 c 2e-4,-0.9899485 -0.416711,-1.6667872 -1.440288,-1.6667872 -0.436679,0 -0.742501,0.1559762 -0.983424,0.3755594 C 21.906458,7.7195275 21.656134,7.5583773 21.224431,7.5583773 Z"
   id="path31" /><path
   style="fill:#fff;fill-opacity:1;stroke:none;stroke-width:1;stroke-linecap:round;stroke-linejoin:round;stroke-dasharray:none;stroke-opacity:1"
   d="m 39.386787,7.5506338 c -1.065969,0 -1.761644,0.7376882 -1.761644,1.7113117 0,0.9738195 0.695644,1.7093745 1.761644,1.7093745 0.49943,0 0.946681,-0.175969 1.250574,-0.518813 L 40.186303,9.9646675 c -0.212953,0.1936925 -0.499306,0.3387765 -0.82081,0.3387765 -0.562418,0 -0.987294,-0.4272935 -0.987295,-1.0414985 0,-0.6142264 0.424877,-1.0414997 0.987295,-1.0414997 0.321504,0 0.569719,0.1213293 0.803387,0.3349058 L 40.637361,8.0713835 C 40.340319,7.7285391 39.886445,7.5506338 39.386787,7.5506338 Z"
   id="path30" /><path
   style="fill:#fff;fill-opacity:1;stroke:none;stroke-width:1;stroke-linecap:round;stroke-linejoin:round;stroke-dasharray:none;stroke-opacity:1"
   d="m 35.518914,7.5506338 c -0.98518,0 -1.666786,0.6933831 -1.666786,1.7113117 0,1.0316155 0.710583,1.7093745 1.713247,1.7093745 0.506307,0 0.967688,-0.117341 1.376406,-0.456864 l -0.363945,-0.507199 c -0.275921,0.213992 -0.632347,0.344585 -0.967936,0.344585 -0.474996,0 -0.896853,-0.244796 -0.995038,-0.8285544 h 2.474044 c 0.0066,-0.08161 0.01355,-0.173451 0.01355,-0.265214 -0.0034,-1.0148855 -0.647205,-1.7074398 -1.583542,-1.7074398 z m -0.01355,0.6310945 c 0.464639,0 0.769682,0.2959958 0.849848,0.8014509 h -1.736478 c 0.07706,-0.4747884 0.366257,-0.8014509 0.88663,-0.8014509 z"
   id="path29" /><path
   style="fill:#fff;fill-opacity:1;stroke:none;stroke-width:1;stroke-linecap:round;stroke-linejoin:round;stroke-dasharray:none;stroke-opacity:1"
   d="m 33.066164,7.5506338 c -0.408925,0 -0.750081,0.1441367 -0.969873,0.4529942 V 7.6358122 h -0.724016 v 3.2503308 h 0.729823 V 9.0993325 c 0,-0.5531014 0.332931,-0.8730792 0.797581,-0.8730792 0.178569,0 0.402093,0.039984 0.555595,0.1180883 L 33.629502,7.6435557 C 33.4615,7.5791298 33.289682,7.5506337 33.066164,7.5506338 Z"
   id="path28" /><path
   style="fill:#fff;fill-opacity:1;stroke:none;stroke-width:1;stroke-linecap:round;stroke-linejoin:round;stroke-dasharray:none;stroke-opacity:1"
   d="m 17.176523,7.5506338 c -1.034362,0 -1.798426,0.7376882 -1.798426,1.7113117 0,0.9738195 0.764143,1.7093745 1.798426,1.7093745 1.034094,0 1.804232,-0.735752 1.804232,-1.7093745 -1.98e-4,-0.9742776 -0.770148,-1.7113114 -1.804232,-1.7113117 z m 0,0.669812 c 0.597426,0 1.053114,0.4275012 1.053114,1.0414997 0,0.614434 -0.455688,1.0414985 -1.053114,1.0414985 -0.597594,0 -1.047308,-0.4270845 -1.047308,-1.0414985 -1.98e-4,-0.6138102 0.449664,-1.0414997 1.047308,-1.0414997 z"
   id="path27" /><path
   style="fill:#fff;fill-opacity:1;stroke:none;stroke-width:1;stroke-linecap:round;stroke-linejoin:round;stroke-dasharray:none;stroke-opacity:1"
   d="M 13.759708,7.5506338 C 12.694105,7.5506338 12,8.288322 12,9.2619455 c 0,0.9738195 0.694105,1.7093745 1.759708,1.7093745 0.499677,0 0.948409,-0.175969 1.252509,-0.518813 L 14.561159,9.9646675 c -0.21316,0.1936925 -0.499513,0.3387765 -0.82081,0.3387765 -0.562427,0 -0.989231,-0.4272935 -0.98923,-1.0414985 0,-0.6142264 0.427021,-1.0414997 0.98923,-1.0414997 0.321297,0 0.56972,0.1213293 0.803387,0.3349058 L 15.012217,8.0713835 C 14.715135,7.7285489 14.259365,7.5506338 13.759708,7.5506338 Z"
   id="path26" /><path
   style="fill:#fff;fill-opacity:1;stroke:none;stroke-width:1;stroke-linecap:round;stroke-linejoin:round;stroke-dasharray:none;stroke-opacity:1"
   d="m 41.32266,6.652389 -0.002,3.0567425 c 0,0.8652405 0.444202,1.2621885 1.202176,1.2621885 0.419105,0 0.758649,-0.144649 1.027949,-0.321354 l -0.288409,-0.56721 c -0.199284,0.12222 -0.448781,0.220689 -0.67562,0.220689 -0.293534,0 -0.530429,-0.169947 -0.530429,-0.6078644 V 8.2804579 h 1.281548 V 7.6358122 h -1.28152 V 6.652389 Z"
   id="path25" /><path
   style="fill:#fff;fill-opacity:1;stroke:none;stroke-width:1;stroke-linecap:round;stroke-linejoin:round;stroke-dasharray:none;stroke-opacity:1"
   d="M 27.895449,6 V 8.0307302 C 27.664932,7.742162 27.319277,7.5506338 26.844269,7.5506338 c -0.936335,0 -1.672593,0.7171711 -1.672593,1.7113117 0,0.9945365 0.736466,1.7093725 1.672593,1.7093745 0.474957,0 0.820614,-0.186136 1.05118,-0.474287 v 0.391045 h 0.731759 V 6 Z m -0.964065,2.2204458 c 0.604652,0 1.010525,0.4475923 1.010525,1.0414997 0,0.593926 -0.406052,1.0414985 -1.010525,1.0414985 -0.628935,0 -1.00859,-0.4716185 -1.00859,-1.0414985 -1.98e-4,-0.5699014 0.379466,-1.0414997 1.00859,-1.0414997 z"
   id="rect24" /></svg>
