<?xml version="1.0" encoding="UTF-8"?>
<svg enable-background="new 0 0 48 48" version="1.0" viewBox="0 0 48 48" xml:space="preserve" xmlns="http://www.w3.org/2000/svg">
<path d="m17.02 4c-0.84785 0-1.5304 0.68256-1.5304 1.5304v2.5945h9.4934v-2.5945c0-0.84785-0.68256-1.5304-1.5304-1.5304zm-11.015 3.4255c-0.95383 0-1.7217 0.76788-1.7217 1.7217v2.4032h8.4053v-2.4032c0-0.95383-0.76789-1.7217-1.7217-1.7217zm31.188 2.6184c-0.06023 0.0034-0.12142 0.01124-0.18234 0.02092l-7.395 1.1747c-0.97461 0.15488-1.6345 1.064-1.4796 2.0386l0.36766 2.3106 10.913-1.7337-0.36766-2.3106c-0.1452-0.9137-0.95274-1.5521-1.8562-1.5005zm-21.704 0.9595v25.993h9.4934v-25.993zm-11.206 3.4255v22.565h8.4053v-22.565zm35.585 2.2657-10.913 1.7367 3.007 18.909 10.913-1.7337-3.007-18.909zm3.4584 21.755-10.913 1.7337 0.36766 2.3136c0.15488 0.97461 1.064 1.6345 2.0386 1.4796l7.395-1.1747c0.97461-0.15488 1.6345-1.064 1.4796-2.0386zm-39.043 1.4258v2.4032c-2e-6 0.95383 0.76788 1.7217 1.7217 1.7217h4.9619c0.95383 0 1.7217-0.76788 1.7217-1.7217v-2.4032zm11.206 0v2.5945c0 0.84785 0.68257 1.5304 1.5304 1.5304h6.4325c0.84785 0 1.5304-0.68256 1.5304-1.5304v-2.5945z" fill="#fff" stroke-width="1.5304"/>






</svg>
