<?xml version="1.0" encoding="UTF-8"?>
<svg version="1.1" viewBox="0 0 48 48" xmlns="http://www.w3.org/2000/svg">
    <path d="m14.685 10.579a8.2842 8.2842 0 0 0-8.0736 6.5687 3.7368 3.7368 0 0 0-2.611 3.5465v5.991a4.3579 4.3579 0 0 0 3.6431 4.2948 11.789 11.789 0 0 0 10.526 6.4412h11.579a11.789 11.789 0 0 0 10.526-6.4412 4.3579 4.3579 0 0 0 3.7253-4.2948v-5.991a3.7474 3.7474 0 0 0-2.611-3.5465 8.2842 8.2842 0 0 0-8.0736-6.5687zm2.1464 3.1785h14.338a5.8842 5.8842 0 0 1 5.8738 5.8738v7.2636a6.7474 6.7474 0 0 1-6.727 6.727h-12.632a6.7474 6.7474 0 0 1-6.7373-6.727v-7.2636a5.8737 5.8737 0 0 1 5.884-5.8738zm1.8771 3.4519a2.8526 2.8526 0 0 0-2.9502 2.3581l-0.01028-0.01028a2.8645 2.8645 0 0 0 5.59 1.2541 2.8421 2.8421 0 0 0-0.06373-1.6859 0.084211 0.084211 0 0 0-0.1583 0 1.2316 1.2316 0 1 1-1.5995-1.6098 0.074013 0.074013 0 0 0 0-0.14803 2.8526 2.8526 0 0 0-0.80798-0.15831zm10.767 0.04318a2.8632 2.8632 0 1 0 0.4523 5.6949 2.9053 2.9053 0 0 0 2.2615-2.1053 2.8421 2.8421 0 0 0-0.11513-1.7167 0.084211 0.084211 0 0 0-0.15831 0 1.2211 1.2211 0 0 1-1.1369 0.75864 1.2316 1.2316 0 0 1-0.46258-2.3684 0.074013 0.074013 0 0 0 0-0.14803 2.8632 2.8632 0 0 0-0.84087-0.11513zm-10.37 8.8734a0.11579 0.11579 0 0 0-0.10485 0.14803 5.5474 5.5474 0 0 0 5 3.4745 5.5474 5.5474 0 0 0 5-3.4745 0.11579 0.11579 0 0 0-0.10485-0.14803z" fill="#fff" stroke-width="1.0526"/>
</svg>
