<?xml version="1.0" encoding="UTF-8" standalone="no"?>
<!-- Created with Inkscape (http://www.inkscape.org/) -->

<svg
   width="48"
   height="48"
   viewBox="0 0 48 48"
   version="1.1"
   id="svg1"
   xml:space="preserve"
   xmlns="http://www.w3.org/2000/svg"
   xmlns:svg="http://www.w3.org/2000/svg"><defs
     id="defs1" /><path
     id="path10"
     style="baseline-shift:baseline;display:inline;overflow:visible;opacity:1;fill:#fff;fill-opacity:1;stroke:none;stroke-width:1;stroke-linecap:round;stroke-linejoin:round;stroke-dasharray:none;stroke-opacity:1;enable-background:accumulate;stop-color:#000000;stop-opacity:1"
     d="m 25.077437,5.0000001 c -1.481402,3.928e-4 -2.958499,0.1735247 -4.399565,0.5168662 l -0.219151,0.051686 C 12.010384,7.6859223 6.0773137,15.290368 6.0774374,24 c 0,10.481956 8.5180446,19 18.9999996,19 6.983633,2.48e-4 13.408423,-3.833115 16.723722,-9.979652 0.304131,-0.562894 0.01228,-1.262934 -0.601633,-1.44309 l -7.922524,-2.319695 c -0.464001,-0.135748 -0.958937,0.07785 -1.178455,0.508596 l -4.473994,8.786725 -2.02198,-10.965833 c -0.06835,-0.373281 -0.340991,-0.676307 -0.705004,-0.783568 l -10.837651,-3.173559 9.326333,-3.500218 c 0.455229,-0.171465 0.722485,-0.644167 0.634712,-1.122633 l -1.780087,-9.6612621 7.420131,7.7757341 c 0.278572,0.291259 0.704118,0.388085 1.081284,0.246029 l 8.974864,-3.369968 c 0.6314,-0.237498 0.854564,-1.017015 0.444504,-1.552666 C 36.566482,7.7516576 30.989476,4.999787 25.077437,5.0000001 Z" /></svg>
