<?xml version="1.0" encoding="UTF-8"?>
<svg data-name="Layer 1" version="1.1" viewBox="0 0 48 48" xmlns="http://www.w3.org/2000/svg">
    <path d="m23.841 8.1212a15.589 15.589 0 0 0-9.9224 3.4948 1.4332 1.4332 0 0 0 0 2.1382 1.4002 1.4002 0 0 0 1.8734 0.09905 12.756 12.756 0 0 1 16.186 0 1.4222 1.4222 0 0 0 1.8841-0.09905 1.4332 1.4332 0 0 0-0.09905-2.1059 15.435 15.435 0 0 0-9.9224-3.5271zm-0.0065 5.6438a9.9224 9.9224 0 0 0-5.7256 1.8195 1.4332 1.4332 0 0 0-0.20026 2.205 1.4332 1.4332 0 0 0 1.8411 0.1335 7.0669 7.0669 0 0 1 8.1696 0 1.4553 1.4553 0 0 0 1.854-0.1335l0.01077-0.02153a1.4332 1.4332 0 0 0-0.22179-2.1834 9.9224 9.9224 0 0 0-5.7278-1.8195zm-10.842 8.105a8.9963 8.9963 0 1 0 5.9302 15.764h9.8126a8.9853 8.9853 0 0 0 5.9323 2.205l0.01077 0.03445a9.0073 9.0073 0 1 0 0-18.004zm21.852 3.5163a2.0065 2.0065 0 0 1 2.0069 2.0069 2.0065 2.0065 0 0 1-2.0069 2.0069 2.0065 2.0065 0 0 1-2.0069-2.0069 2.0065 2.0065 0 0 1 2.0069-2.0069zm-23.208 0.73858h2.3256a0.50714 0.50714 0 0 1 0.50818 0.50602v2.4375h2.4591a0.51817 0.51817 0 0 1 0.46296 0.51894v2.3363a0.50714 0.50714 0 0 1-0.50818 0.50818h-2.4569v2.4461a0.50714 0.50714 0 0 1-0.50818 0.50818h-2.2825a0.50714 0.50714 0 0 1-0.50602-0.50818v-2.4591h-2.4591a0.50714 0.50714 0 0 1-0.50818-0.50602v-2.3363a0.51817 0.51817 0 0 1 0.50818-0.50818h2.4591v-2.4375a0.50714 0.50714 0 0 1 0.50602-0.50602zm19.205 2.4138a2.0065 2.0065 0 0 1 2.0069 2.0069 2.0065 2.0065 0 0 1-2.0069 2.0069 2.0065 2.0065 0 0 1-2.0069-2.0069 2.0065 2.0065 0 0 1 2.0069-2.0069zm7.6851 0.43066a2.0065 2.0065 0 0 1 2.0069 2.0069 2.0065 2.0065 0 0 1-2.0069 2.0069 2.0065 2.0065 0 0 1-2.0069-2.0069 2.0065 2.0065 0 0 1 2.0069-2.0069zm-4.0137 3.1524a1.9955 1.9955 0 0 1 2.0069 2.0069 2.0065 2.0065 0 1 1-2.0069-2.0069z" fill="#fff" stroke-width="1.1025"/>
</svg>
