<?xml version="1.0" encoding="UTF-8"?>
<svg version="1.1" viewBox="0 0 48 48" xmlns="http://www.w3.org/2000/svg">
    <path d="m14.044 9.8581c-1.7313 2.9585-1.7209 6.594-0.29307 9.6733 1.7168 4.0526 5.1472 6.6875 8.3886 9.4374-0.66637 0.2196-1.3526 0.37663-2.0958 0.48293-1.5213 0.21688-9.7001 0.92787-16.044 0.45896l0.70964 1.9446c4.9494 0.23374 11.255-0.04883 13.977-0.45528 1.8039-0.26924 3.461-0.72155 4.8385-1.2405 0.50281 0.43051 0.99982 0.86769 1.4967 1.305-3.5373 2.329-5.5544 5.7047-3.4247 9.618 1.5571 2.3909 4.1046 2.6598 5.1684 2.6598 1.8465 0 4.4597-1.2763 5.1352-3.5261 0.52868-1.7652-0.71004-5.125-3.7842-8.2374 1.6626-0.67072 4.3336-0.8942 4.9675-0.94005 3.4634-0.07611 6.9322-0.2278 10.396-0.10138 0.19709-0.55456 0.37051-1.1173 0.51979-1.6866-3.0427-0.04318-7.1843-0.01774-8.418 0.01475-4.2459 0.11428-7.0298 0.77786-8.713 1.3732-0.42408-0.50393-0.92424-0.92391-1.4359-1.3327 5.6631-3.023 12.411-10.722 9.5461-17.396-4.4179-10.299-16.642-9.403-20.935-2.0515zm19.677 2.8644c2.0014 5.148-3.812 12.26-9.7452 15.452-4.8509-3.7527-12.408-11.029-8.5434-17.634 4.8068-7.6347 15.678-5.6054 18.289 2.1824zm-7.2587 20.06c1.9267 1.8622 4.4053 4.733 3.8026 6.9932-0.31134 1.1704-1.6059 1.9748-3.3657 2.1805-2.1751 0.24876-3.5787-0.22997-4.2966-1.4727-1.4459-2.5038 1.4604-6.4123 3.8597-7.701z" fill="#fff" stroke-width="1.0381"/>
</svg>
