<?xml version="1.0" encoding="UTF-8"?>
<svg version="1.1" viewBox="0 0 48 48" xmlns="http://www.w3.org/2000/svg">
    <path d="m44 10.148c-0.14024 0-2.3352 1.1889-4.5774 2.3666s-4.3045 2.1421-4.5827 2.1421c-0.67493 0-0.63758 0.31646 0.20338 1.6957 0.38894 0.6379 0.92146 1.1595 1.1833 1.1595 0.26195 0 0.48584 0.01854 4.0201-1.8938l3.7295-2.018zm-25.335 1.7036c-0.49239 0.0045-1.119 0.1024-1.9625 0.2747-3.1407 0.64156-6.4787 2.4072-8.9937 4.7596-2.7971 2.6163-3.8489 4.872-3.6371 7.7998 0.29387 4.0626 3.0552 6.8097 7.4881 7.4459 4.8222 0.69186 11.042-0.71859 17.549-3.9805 1.5415-0.77275 2.8357-1.3557 2.8764-1.2942 0.04065 0.06153 0.55602 1.2356 1.1463 2.6096l1.0724 2.4987 6.1595 0.20602-3.6609-7.7549 7.2689-4.1786v-4.5298l-4.4823 2.3693c-2.4638 1.3036-4.5959 2.3851-4.5959 2.3851s-1.0226-2.0814-2.1263-4.2895l-2.0074-4.0148h-5.6286l-3.8114 7.1685c-2.0965 3.9432-3.7544 7.2308-3.682 7.3032 0.23815 0.23828 4.005-0.77352 5.1928-1.3946 1.3572-0.70971 1.4145-0.79742 3.4548-5.1585 0.85525-1.828 1.6138-3.3677 1.6138-3.3677l2.496 6.2942s-4.6602 2.3198-7.0998 3.262c-8.2269 3.1774-15.98 3.0113-16.379-0.35129-0.18108-1.5286 0.57889-2.9105 2.6281-4.7834 3.1322-2.8627 9.0031-5.9907 11.918-5.1321 0 0-0.19376-1.9707-0.89276-3.0375-0.51633-0.78808-0.96453-1.1179-1.9044-1.1094zm-14.665 22.789v3.2118h37.472v-3.2118z" fill="#fff" stroke-width="1.3524"/>
</svg>
