<?xml version="1.0" encoding="UTF-8" standalone="no"?>
<svg
   width="48"
   height="48"
   viewBox="0 0 48 48"
   version="1.1"
   id="svg1"
   xml:space="preserve"
   xmlns="http://www.w3.org/2000/svg"
   xmlns:svg="http://www.w3.org/2000/svg"><defs
   id="defs1" />
    <polyline
   class="a"
   transform="matrix(0.87038,0,0,0.87038,3.2534045,3.1590842)"
   points="16.959 42.602 18.286 33.278 12.88 24 16.787 16.013 25.556 20.829 24 24 19.559 24.237"
   id="polyline1"
   style="fill:none;fill-opacity:1;stroke:#fff;stroke-width:1;stroke-linecap:round;stroke-linejoin:round;stroke-dasharray:none;stroke-opacity:1;paint-order:stroke fill markers" /><polyline
   class="a"
   transform="matrix(0.87038,0,0,0.87038,3.2534045,3.1590842)"
   points="25.494 14.398 22.33 12.469 18.3 16.844"
   id="polyline2"
   style="fill:none;fill-opacity:1;stroke:#fff;stroke-width:1;stroke-linecap:round;stroke-linejoin:round;stroke-dasharray:none;stroke-opacity:1;paint-order:stroke fill markers" /><polyline
   class="a"
   transform="matrix(0.87038,0,0,0.87038,3.2534045,3.1590842)"
   points="21.769 18.749 26.328 13.423 29.872 16.086 25.556 20.829"
   id="polyline3"
   style="fill:none;fill-opacity:1;stroke:#fff;stroke-width:1;stroke-linecap:round;stroke-linejoin:round;stroke-dasharray:none;stroke-opacity:1;paint-order:stroke fill markers" /><polyline
   class="a"
   transform="matrix(0.87038,0,0,0.87038,3.2534045,3.1590842)"
   points="28.802 17.262 31.78 19.739 26.579 25.981"
   id="polyline4"
   style="fill:none;fill-opacity:1;stroke:#fff;stroke-width:1;stroke-linecap:round;stroke-linejoin:round;stroke-dasharray:none;stroke-opacity:1;paint-order:stroke fill markers" /><polyline
   class="a"
   transform="matrix(0.87038,0,0,0.87038,3.2534045,3.1590842)"
   points="24 24 29.395 28.144 33.689 22.828 31.147 20.499"
   id="polyline5"
   style="fill:none;fill-opacity:1;stroke:#fff;stroke-width:1;stroke-linecap:round;stroke-linejoin:round;stroke-dasharray:none;stroke-opacity:1;paint-order:stroke fill markers" /><polyline
   class="a"
   transform="matrix(0.87038,0,0,0.87038,3.2534045,3.1590842)"
   points="31.372 25.981 32.507 31.006 28.844 34.141 31.04 42.602"
   id="polyline6"
   style="fill:none;fill-opacity:1;stroke:#fff;stroke-width:1;stroke-linecap:round;stroke-linejoin:round;stroke-dasharray:none;stroke-opacity:1;paint-order:stroke fill markers" /><path
   d="m 26.175155,40.888895 -0.336542,-3.410586 c -0.02644,-0.267412 -0.251475,-0.471121 -0.520192,-0.470892 h -3.223104 c -0.268717,-2.29e-4 -0.493753,0.20348 -0.520191,0.470892 l -0.335646,3.410586 m 2.503379,-2.818563 c 0.480698,0 0.87038,0.389683 0.87038,0.87038 0,0.480698 -0.389682,0.87038 -0.87038,0.87038 -0.480697,0 -0.87038,-0.389682 -0.87038,-0.87038 0,-0.480697 0.389683,-0.87038 0.87038,-0.87038 z M 40.734454,27.15026 37.386796,26.416402 c -0.262494,-0.05749 -0.525772,0.09358 -0.608593,0.349218 l -0.995994,3.065354 c -0.08326,0.255494 0.04094,0.532466 0.287097,0.640245 l 3.13994,1.373147 M 37.30222,28.592527 c 0.148544,-0.457171 0.639573,-0.707362 1.096743,-0.558818 0.457171,0.148544 0.707362,0.639572 0.558818,1.096743 -0.148543,0.45717 -0.639572,0.707362 -1.096743,0.558818 -0.45717,-0.148543 -0.707362,-0.639573 -0.558818,-1.096743 z M 32.167306,9.0580729 30.434882,12.015109 c -0.13579,0.231882 -0.07347,0.528959 0.144061,0.686721 l 2.607546,1.894493 c 0.217262,0.158133 0.519057,0.125602 0.697627,-0.0752 l 2.276235,-2.561934 m -3.681986,0.808816 c -0.388893,-0.282547 -0.475102,-0.826857 -0.192556,-1.215749 0.282548,-0.388893 0.826856,-0.475103 1.215749,-0.192555 0.388892,0.282546 0.475103,0.826855 0.192556,1.215748 -0.282547,0.388892 -0.826857,0.475103 -1.215749,0.192556 z m -20.165146,-1.152885 2.276961,2.561408 c 0.178571,0.200799 0.480365,0.233331 0.697627,0.0752 l 2.607546,-1.894493 c 0.217531,-0.157763 0.279852,-0.454839 0.14406,-0.68672 l -1.733149,-2.95651 m -0.368566,3.751715 c -0.388893,0.282547 -0.933202,0.196336 -1.215749,-0.192556 -0.282547,-0.388893 -0.196337,-0.933202 0.192556,-1.215749 0.388892,-0.282546 0.933201,-0.196337 1.215748,0.192556 0.282547,0.388892 0.196337,0.933202 -0.192555,1.215749 z m -7.3278318,18.821932 3.1396628,-1.374 c 0.246154,-0.10778 0.370353,-0.384751 0.287097,-0.640245 l -0.995994,-3.065354 c -0.08282,-0.255636 -0.346099,-0.406709 -0.608593,-0.349218 l -3.3473802,0.734711 m 3.4541992,1.509871 c 0.148544,0.457171 -0.101648,0.948199 -0.5588182,1.096743 -0.457171,0.148544 -0.948199,-0.101648 -1.0967428,-0.558818 -0.1485436,-0.457171 0.1016474,-0.948199 0.5588183,-1.096743 0.4571701,-0.148544 0.9481997,0.101648 1.0967427,0.558818 z"
   style="color:#000000;display:inline;fill:#fff;fill-opacity:1;stroke:none;stroke-width:1;stroke-linecap:round;stroke-linejoin:round;stroke-dasharray:none;stroke-opacity:1;paint-order:stroke fill markers"
   id="path10"
   transform="translate(1.68e-5,-1.655e-4)" /><path
   id="path6-9"
   style="display:inline;fill:#fff;fill-opacity:1;stroke:none;stroke-width:1;stroke-linecap:round;stroke-linejoin:round;stroke-dasharray:none;stroke-opacity:1;paint-order:stroke fill markers"
   d="m 23.732439,3.9998345 c -0.79885,0.00952 -1.596675,0.067035 -2.388672,0.171875 -0.313772,0.9553291 -0.387718,2.217628 -1.417969,2.4589843 -1.020434,0.2389716 -1.646488,-0.833884 -2.34375,-1.5507812 -0.761758,0.2518848 -1.508316,0.549215 -2.234375,0.890625 -0.0013,1.0038092 0.312741,2.2232809 -0.589842,2.7695309 -0.893881,0.54095 -1.819042,-0.28087 -2.701173,-0.7480465 -0.647281,0.4807655 -1.264978,0.9994285 -1.84961,1.5546875 0.312153,0.9493235 0.971334,2.0007485 0.28711,2.7929685 -0.6844405,0.792429 -1.8218055,0.293703 -2.8066405,0.123048 -0.46375,0.659495 -0.88667,1.346073 -1.267578,2.056639 0.590526,0.804667 1.537887,1.601639 1.132812,2.564454 -0.409583,0.973433 -1.664751,0.836349 -2.658203,0.984374 -0.23142,0.76791 -0.415029,1.549732 -0.552734,2.339844 0.81075,0.585897 1.965035,1.048946 1.876953,2.09375 -0.070442,0.835497 -0.859371,1.17142 -1.632813,1.498047 h 2.871094 c 0.0068,-4.470528 1.823026,-8.7481 5.0351565,-11.857422 l 3.964844,-2.8593745 c 2.332221,-1.195445 4.916356,-1.8191307 7.53711,-1.8203123 2.703362,-2.542e-4 5.365955,0.6624633 7.753906,1.9296873 l 3.923828,2.9082025 c 3.108039,3.100174 4.856824,7.309345 4.859374,11.699219 h 2.873047 c 0.205555,-0.0868 0.412638,-0.172705 0.601562,-0.267578 -0.01098,-0.796098 -0.07014,-1.589772 -0.175781,-2.378907 -0.956286,-0.31613 -2.224831,-0.388594 -2.466797,-1.421874 -0.241887,-1.032793 0.861576,-1.661695 1.578125,-2.36914 -0.254447,-0.753808 -0.552253,-1.492734 -0.894531,-2.210937 -1.0079,-0.006 -2.242889,0.321141 -2.792969,-0.587891 -0.54927,-0.907633 0.310657,-1.847785 0.773438,-2.742187 -0.47495,-0.63857 -0.987623,-1.246675 -1.535157,-1.824219 -0.960637,0.305624 -2.033485,0.997549 -2.83789,0.302733 C 34.85064,9.8056805 35.377879,8.6464135 35.541032,7.6521783 34.890585,7.1934646 34.214087,6.772445 33.513689,6.3943657 32.695636,6.9821769 31.89052,7.970118 30.912126,7.5584282 29.932253,7.146164 30.076737,5.877192 29.923845,4.8806939 29.163401,4.6466866 28.388362,4.4581585 27.605485,4.3162407 27.009493,5.1280528 26.549542,6.3135708 25.492204,6.2244439 24.438696,6.1356651 24.18112,4.8991111 23.732439,3.9998345 Z M 43.238298,24.076006 c -0.345871,0.148085 -0.686057,0.303521 -0.951172,0.513672 0.265217,-0.210267 0.605066,-0.365546 0.951172,-0.513672 z m -0.970703,0.527344 c -0.04231,0.03441 -0.083,0.07 -0.121094,0.107421 0.03804,-0.03736 0.07886,-0.07308 0.121094,-0.107421 z m -0.121094,0.107421 c -0.04166,0.04093 -0.08128,0.0839 -0.117187,0.128907 0.03588,-0.04495 0.07558,-0.08803 0.117187,-0.128907 z m -0.117187,0.128907 c -0.03367,0.0422 -0.06381,0.08661 -0.0918,0.132812 0.0281,-0.04643 0.05797,-0.09042 0.0918,-0.132812 z m -0.115235,0.177734 c -0.01478,0.02692 -0.03023,0.05368 -0.04297,0.08203 0.0127,-0.02826 0.02824,-0.05518 0.04297,-0.08203 z m -0.07227,0.15625 c -0.01053,0.02857 -0.02085,0.05787 -0.0293,0.08789 0.0084,-0.03007 0.01875,-0.05928 0.0293,-0.08789 z m -0.04688,0.158203 c -0.01162,0.05337 -0.0205,0.10799 -0.02539,0.166016 0.0049,-0.05792 0.01381,-0.112739 0.02539,-0.166016 z m -0.02539,0.166016 c -0.01101,0.130601 -0.0032,0.251421 0.02148,0.365234 -0.02472,-0.113797 -0.03249,-0.234633 -0.02148,-0.365234 z m 0.07031,0.53125 c 0.04025,0.10645 0.09543,0.205044 0.162109,0.298828 -0.06669,-0.09375 -0.121853,-0.192401 -0.162109,-0.298828 z m 0.162109,0.298828 c 0.0336,0.04725 0.07025,0.09215 0.109376,0.136719 -0.03879,-0.04422 -0.07603,-0.08984 -0.109376,-0.136719 z M 6.6250135,28.068193 c 0.02988,0.127555 0.03911,0.249095 0.03125,0.365235 0.0079,-0.116119 -0.0014,-0.237722 -0.03125,-0.365235 z m -0.109375,0.855469 c -0.07838,0.15364 -0.183656,0.298291 -0.306641,0.4375 0.123036,-0.139221 0.228209,-0.28386 0.306641,-0.4375 z m 31.2597655,4.208985 c -0.726217,1.096416 -1.575146,2.093159 -2.52539,2.976562 0.950327,-0.883436 1.799134,-1.880131 2.52539,-2.976562 z m -0.183594,2.423828 c -0.03401,0.03164 -0.06558,0.06638 -0.09766,0.103515 0.03199,-0.03703 0.06571,-0.07196 0.09961,-0.103515 -3.8e-4,3.51e-4 -0.0016,-3.53e-4 -0.0019,0 z m -0.294922,0.412109 c -0.09342,0.212243 -0.116813,0.438622 -0.0957,0.671875 -0.0214,-0.233953 0.002,-0.459031 0.0957,-0.671875 z m -19.449215,3.365235 c 1.225802,0.49003 2.518666,0.837349 3.855469,1.023437 -1.336803,-0.186087 -2.629653,-0.53346 -3.855469,-1.023437 z m 15.097656,0.160156 c -0.07779,0.08758 -0.138745,0.18371 -0.1875,0.287109 0.04875,-0.103413 0.109705,-0.199526 0.1875,-0.287109 z m -0.251953,0.447265 c -0.05471,0.165016 -0.08277,0.344293 -0.0957,0.531251 0.01293,-0.186985 0.04099,-0.366212 0.0957,-0.531251 z m -0.0957,0.531251 c -0.03448,0.498551 0.04362,1.054735 0.04297,1.556639 6.53e-4,-0.501904 -0.07745,-1.058014 -0.04297,-1.556639 z m -15.351563,0.05469 c 0.105038,0.06387 0.193701,0.140594 0.269533,0.226562 -0.07562,-0.08557 -0.164917,-0.162937 -0.269533,-0.226562 z m 0.269533,0.226562 c 0.03791,0.04299 0.07383,0.08707 0.105468,0.134766 -0.03187,-0.04809 -0.06721,-0.09147 -0.105468,-0.134766 z" /><path
   id="path5"
   d="m 4.5815045,23.999503 c -0.201478,0.08516 -0.401636,0.169741 -0.587381,0.262416 0.0095,0.79885 0.06686,1.596448 0.171697,2.388445 0.955329,0.313772 2.218487,0.387507 2.459843,1.417767 0.239015,1.020433 -0.835158,1.646985 -1.552064,2.344246 0.251884,0.761759 0.549369,1.50769 0.890779,2.233749 1.003897,0.0013 2.222986,-0.312697 2.769237,0.589886 0.540941,0.893881 -0.280807,1.819108 -0.747983,2.701238 0.480765,0.647281 1.000205,1.264925 1.555464,1.849558 0.9493225,-0.312153 2.0008155,-0.971517 2.7930355,-0.287293 0.792429,0.68445 0.293052,1.821801 0.122397,2.806635 0.659494,0.463749 1.346386,0.887263 2.056953,1.268172 0.804667,-0.590527 1.600727,-1.53895 2.563541,-1.133874 0.973433,0.409583 0.837952,1.665287 0.985977,2.658739 0.76791,0.23142 1.549034,0.41478 2.339146,0.552486 0.585905,-0.810749 1.049548,-1.964838 2.094352,-1.876756 1.053508,0.08882 1.310779,1.325972 1.759459,2.225249 0.798851,-0.0095 1.596449,-0.06686 2.388447,-0.171696 0.313772,-0.955329 0.387515,-2.218488 1.417766,-2.459844 1.020435,-0.239015 1.646986,0.833459 2.344248,1.550365 0.761758,-0.251884 1.507689,-0.54937 2.233748,-0.89078 0.0013,-1.003809 -0.312698,-2.222986 0.589886,-2.769236 0.893881,-0.54095 1.819108,0.280815 2.701239,0.747983 0.64728,-0.480765 1.264924,-0.998505 1.849556,-1.553764 -0.312153,-0.949324 -0.971516,-2.000816 -0.287292,-2.793036 0.684441,-0.792429 1.8218,-0.294752 2.806635,-0.124097 0.463749,-0.659495 0.887262,-1.344686 1.268171,-2.055254 -0.590536,-0.804656 -1.537249,-1.600726 -1.132174,-2.56354 0.409583,-0.973433 1.663588,-0.837952 2.657039,-0.985978 0.23142,-0.767909 0.414782,-1.549033 0.552487,-2.339146 -0.81075,-0.585897 -1.964839,-1.049548 -1.876757,-2.094352 0.07047,-0.835857 0.864244,-1.171298 1.638387,-1.498287 z m 35.9498805,0 c 0,2.07e-4 0,4.14e-4 0,6.21e-4 -4.54e-4,0.927463 -0.07893,1.853232 -0.234595,2.767537 l -1.526564,4.647694 c -2.390138,4.762884 -6.928832,8.082256 -12.192121,8.916294 l -4.875487,0.0255 C 16.355405,39.6128 11.71011,36.303751 9.2555035,31.495252 l -1.533365,-4.644293 c -0.171315,-0.941321 -0.258915,-1.894072 -0.265194,-2.850835 0,-2.07e-4 1e-6,-4.14e-4 1e-6,-6.21e-4 z"
   style="display:inline;fill:#fff;fill-opacity:1;stroke:none;stroke-width:1;stroke-linecap:round;stroke-linejoin:round;stroke-dasharray:none;stroke-opacity:1;paint-order:stroke fill markers" /></svg>
