<?xml version="1.0" encoding="UTF-8"?>
<svg version="1.1" viewBox="0 0 48 48" xml:space="preserve" xmlns="http://www.w3.org/2000/svg"><defs><style>.a{fill:none;stroke:#fff;stroke-linecap:round;stroke-linejoin:round;}</style></defs><g transform="matrix(.87038 0 0 .87038 3.105 3.1109)"><polyline class="a" transform="translate(.17036 .055352)" points="16.959 42.602 18.286 33.278 12.88 24 16.787 16.013 25.556 20.829 24 24 19.559 24.237"/><polyline class="a" transform="translate(.17036 .055352)" points="25.494 14.398 22.33 12.469 18.3 16.844"/><polyline class="a" transform="translate(.17036 .055352)" points="21.769 18.749 26.328 13.423 29.872 16.086 25.556 20.829"/><polyline class="a" transform="translate(.17036 .055352)" points="28.802 17.262 31.78 19.739 26.579 25.981"/><polyline class="a" transform="translate(.17036 .055352)" points="24 24 29.395 28.144 33.689 22.828 31.147 20.499"/><polyline class="a" transform="translate(.17036 .055352)" points="31.372 25.981 32.507 31.006 28.844 34.141 31.04 42.602"/><path transform="translate(.74596 -.083491)" d="m22.953 1.105a23 23 0 0 0-2.7441 0.19727c-0.3605 1.0976-0.44522 2.5489-1.6289 2.8262-1.1724 0.27456-1.8923-0.95954-2.6934-1.7832a23 23 0 0 0-2.5664 1.0234c-0.001484 1.1533 0.35927 2.554-0.67773 3.1816-1.027 0.62151-2.09-0.32263-3.1035-0.85938a23 23 0 0 0-2.125 1.7871c0.35864 1.0907 1.1162 2.2988 0.33008 3.209-0.78637 0.91044-2.0931 0.33669-3.2246 0.14062a23 23 0 0 0-1.457 2.3633c0.67847 0.9245 1.7662 1.8391 1.3008 2.9453-0.47058 1.1184-1.9113 0.96273-3.0527 1.1328a23 23 0 0 0-0.63672 2.6875c0.93149 0.67315 2.2594 1.2058 2.1582 2.4062-0.10205 1.2104-1.5234 1.506-2.5566 2.0215a23 23 0 0 0 0.19727 2.7441c1.0976 0.3605 2.5489 0.44521 2.8262 1.6289 0.27461 1.1724-0.95953 1.8923-1.7832 2.6934a23 23 0 0 0 1.0234 2.5664c1.1534 0.0015 2.554-0.35927 3.1816 0.67773 0.6215 1.027-0.32263 2.09-0.85938 3.1035a23 23 0 0 0 1.7871 2.125c1.0907-0.35864 2.2988-1.1162 3.209-0.33008 0.91044 0.78638 0.33669 2.0931 0.14062 3.2246a23 23 0 0 0 2.3633 1.457c0.9245-0.67847 1.8391-1.7662 2.9453-1.3008 1.1184 0.47058 0.96273 1.9113 1.1328 3.0527a23 23 0 0 0 2.6875 0.63672c0.67316-0.93149 1.2058-2.2594 2.4062-2.1582 1.2104 0.10205 1.506 1.5234 2.0215 2.5566a23 23 0 0 0 2.7441-0.19727c0.3605-1.0976 0.44522-2.5489 1.6289-2.8262 1.1724-0.27461 1.8923 0.95953 2.6934 1.7832a23 23 0 0 0 2.5664-1.0234c0.0015-1.1533-0.35927-2.554 0.67773-3.1816 1.027-0.62151 2.09 0.32264 3.1035 0.85938a23 23 0 0 0 2.125-1.7871c-0.35864-1.0907-1.1162-2.2988-0.33008-3.209 0.78637-0.91044 2.0931-0.33669 3.2246-0.14062a23 23 0 0 0 1.457-2.3633c-0.67848-0.92449-1.7662-1.8391-1.3008-2.9453 0.47058-1.1184 1.9113-0.96273 3.0527-1.1328a23 23 0 0 0 0.63672-2.6875c-0.93149-0.67315-2.2594-1.2058-2.1582-2.4062 0.10248-1.2154 1.536-1.5079 2.5703-2.0273a23 23 0 0 0-0.20117-2.7344c-1.0987-0.36321-2.5579-0.44564-2.8359-1.6328-0.27791-1.1866 0.99124-1.9099 1.8145-2.7227a23 23 0 0 0-1.0293-2.5391c-1.158-0.0069-2.575 0.36863-3.207-0.67578-0.63107-1.0428 0.35502-2.1228 0.88672-3.1504a23 23 0 0 0-1.7637-2.0977c-1.1037 0.35114-2.3356 1.1479-3.2598 0.34961-0.92336-0.79753-0.31636-2.1311-0.12891-3.2734a23 23 0 0 0-2.3301-1.4434c-0.93988 0.67535-1.8661 1.8089-2.9902 1.3359-1.1258-0.47366-0.95914-1.9313-1.1348-3.0762a23 23 0 0 0-2.6621-0.64844c-0.68475 0.93271-1.2149 2.2958-2.4297 2.1934-1.2104-0.102-1.506-1.5234-2.0215-2.5566zm0.30078 3.9785a19 19 0 0 1 8.9082 2.2168l-1.8594 3.1738a0.60006 0.60006 0 0 0 0.16406 0.78711l2.9961 2.1777a0.60006 0.60006 0 0 0 0.80078-0.08594l2.4082-2.7109a19 19 0 0 1 5.582 13.441 19 19 0 0 1-0.26953 3.1797l-3.6094-0.79101a0.60006 0.60006 0 0 0-0.17578-0.01367 0.60006 0.60006 0 0 0-0.52344 0.41406l-1.1445 3.5215a0.60006 0.60006 0 0 0 0.33008 0.73633l3.3691 1.4727a19 19 0 0 1-14.008 10.244l-0.34961-3.543a0.60006 0.60006 0 0 0-0.59766-0.54102h-3.7031a0.60006 0.60006 0 0 0-0.59766 0.54102l-0.35156 3.5723a19 19 0 0 1-14.303-10.18l3.3594-1.4688a0.60006 0.60006 0 0 0 0.33008-0.73633l-1.1445-3.5215a0.60006 0.60006 0 0 0-0.52344-0.41211 0.60006 0.60006 0 0 0-0.17578 0.011719l-3.6055 0.79102a19 19 0 0 1-0.30664-3.2773 19 19 0 0 1 5.7852-13.623l2.4453 2.752a0.60006 0.60006 0 0 0 0.80078 0.08594l2.9961-2.1777a0.60006 0.60006 0 0 0 0.16406-0.78711l-1.8496-3.1582a19 19 0 0 1 8.6582-2.0918zm10.215 4.1641a1 1 0 0 1 1 1 1 1 0 0 1-1 1 1 1 0 0 1-1-1 1 1 0 0 1 1-1zm-20.158 0.037109a1 1 0 0 1 1 1 1 1 0 0 1-1 1 1 1 0 0 1-1-1 1 1 0 0 1 1-1zm26.238 19.053a1 1 0 0 1 1 1 1 1 0 0 1-1 1 1 1 0 0 1-1-1 1 1 0 0 1 1-1zm-32.389 0.03516a1 1 0 0 1 1 1 1 1 0 0 1-1 1 1 1 0 0 1-1-1 1 1 0 0 1 1-1zm16.305 11.611a1 1 0 0 1 1 1 1 1 0 0 1-1 1 1 1 0 0 1-1-1 1 1 0 0 1 1-1z" color="#000000" fill="#fff" stroke-linecap="round" stroke-linejoin="round" style="-inkscape-stroke:none"/></g></svg>
