<?xml version="1.0" encoding="UTF-8" standalone="no"?>
<!-- Created with Inkscape (http://www.inkscape.org/) -->

<svg
   width="48"
   height="48"
   viewBox="0 0 48 48"
   version="1.1"
   id="svg1"
   xml:space="preserve"
   xmlns="http://www.w3.org/2000/svg"
   xmlns:svg="http://www.w3.org/2000/svg"><defs
     id="defs1"><style
       id="style1">.cls-1{fill:#fff;}</style><style
       id="style1-1">.i,.j{fill:none;stroke:#fff;stroke-linejoin:round;}.j{stroke-width:1px;}</style><style
       id="style1-0">.i,.j{fill:none;stroke:#fff;stroke-linejoin:round;}.j{stroke-width:1px;}</style><style
       id="style1-6">.i,.j{fill:none;stroke:#fff;stroke-linejoin:round;}.j{stroke-width:1px;}</style><style
       id="style1-62">.d{fill:#fff;}.e{fill:none;stroke:#fff;stroke-linecap:round;stroke-linejoin:round;}</style><style
       id="style1-2">.b{fill:none;stroke:#fff;stroke-linecap:round;stroke-linejoin:round;}</style><style
       id="style1-9">.c{fill:none;stroke:#fff;stroke-linecap:round;stroke-linejoin:round;stroke-width:1px;}</style></defs><g
     id="g39"
     style="fill:#fff;fill-opacity:1;stroke:none;stroke-width:1;stroke-dasharray:none;stroke-opacity:1"
     transform="matrix(1.0864198,0,0,1.0864198,-2.0740752,-2.0740752)"><path
       style="display:inline;fill:#fff;fill-opacity:1;stroke:none;stroke-width:1;stroke-linecap:round;stroke-linejoin:round;stroke-dasharray:none;stroke-opacity:1"
       d="m 23.999997,16.636364 c -4.080039,0 -7.363636,3.283597 -7.363636,7.363636 0,4.080039 3.283597,7.363636 7.363636,7.363636 1.999358,0 3.80805,-0.788436 5.132231,-2.072766 a 1.1157024,1.1157024 0 0 1 0.07496,-0.08368 1.1157024,1.1157024 0 0 1 0.08368,-0.07496 c 1.284334,-1.324185 2.07277,-3.132877 2.07277,-5.132235 0,-1.999357 -0.788436,-3.80805 -2.072766,-5.132231 a 1.1157024,1.1157024 0 0 1 -0.08368,-0.07496 1.1157024,1.1157024 0 0 1 -0.07496,-0.08368 c -1.324185,-1.284323 -3.132878,-2.07276 -5.132235,-2.07276 z"
       id="path42" /><path
       id="rect39"
       style="display:inline;fill:#fff;fill-opacity:1;stroke:none;stroke-width:1;stroke-linecap:round;stroke-linejoin:round;stroke-dasharray:none;stroke-opacity:1"
       d="M 24,3.7500009 C 12.801428,3.7500009 3.7500009,12.801428 3.7500009,24 c 0,11.198572 9.0514271,20.249999 20.2499991,20.249999 4.98041,0 9.536949,-1.789101 13.060746,-4.762273 L 30.284978,32.711958 C 28.515422,33.993172 26.34396,34.750621 24,34.750621 18.077745,34.750621 13.249379,29.922255 13.249379,24 c 0,-5.922255 4.828366,-10.750621 10.750621,-10.750621 2.415027,0 4.647187,0.804785 6.444979,2.157315 L 37.20996,8.6399154 C 33.665975,5.5902668 29.051376,3.7500009 24,3.7500009 Z m 15.360085,7.0400391 -6.766779,6.764981 c 1.352531,1.797792 2.157315,4.029952 2.157315,6.444979 0,2.485752 -0.85095,4.779141 -2.275968,6.603182 l 6.755993,6.755993 C 42.357184,33.796097 44.249999,29.122107 44.249999,24 c 0,-5.051376 -1.840266,-9.665975 -4.889914,-13.20996 z" /></g></svg>
