<?xml version="1.0" encoding="UTF-8"?>
<svg version="1.1" viewBox="0 0 48 48" xmlns="http://www.w3.org/2000/svg">
    <path d="m6.7157 7.5012c-1.5036 0-2.7129 1.1149-2.7129 2.4998 0 1.385 1.2091 2.4998 2.7129 2.4998h34.569c1.5036 0 2.7157-1.1149 2.7157-2.4998 0-1.385-1.212-2.4998-2.7157-2.4998zm-0.06249 8.9994c-1.4694 0-2.6504 1.1148-2.6504 2.4998s1.1811 2.4998 2.6504 2.4998h5.119c1.4694 0 2.6504-1.1149 2.6504-2.4998 2e-6 -1.385-1.1811-2.4998-2.6504-2.4998zm32.79 0c-1.4302 0-2.5822 1.1148-2.5822 2.4998s1.1519 2.4998 2.5822 2.4998h1.9714c1.4302 0 2.5822-1.1148 2.5822-2.4998s-1.1519-2.4998-2.5822-2.4998zm-7.6841 0.18749c-0.63922 3.06e-4 -1.2797 0.24566-1.7698 0.73574l-6.8546 6.8575-3.2015-3.2015c-0.98029-0.98019-2.5574-0.97928-3.5367 0-0.97927 0.97927-0.98019 2.5536 0 3.5338l4.9684 4.9684c0.24483 0.24482 0.52856 0.42876 0.82949 0.5511 0.30101 0.12261 0.62062 0.18166 0.94028 0.1818 0.31963-1.46e-4 0.6421-0.0592 0.94311-0.1818 0.3009-0.12233 0.58182-0.30627 0.82665-0.5511l8.6244-8.6244c0.98019-0.98029 0.97928-2.5546 0-3.5338-0.48971-0.48965-1.1305-0.73604-1.7698-0.73574zm-25.106 8.8119c-1.4694 0-2.6532 1.1149-2.6532 2.4998 0 1.385 1.1839 2.4998 2.6532 2.4998h5.1161c1.4694 0 2.6532-1.1149 2.6532-2.4998 0-1.385-1.1839-2.4998-2.6532-2.4998zm28.146 0c-1.2201 0-2.2044 0.98156-2.2044 2.2015v0.59371c0 1.2201 0.9844 2.2044 2.2044 2.2044h6.9938c1.2201 0 2.2044-0.9844 2.2044-2.2044v-0.59371c0-1.2201-0.9844-2.2015-2.2044-2.2015zm-28.146 9.9993c-1.4694 0-2.6532 1.1149-2.6532 2.4998 0 1.385 1.1839 2.4998 2.6532 2.4998h5.1161c1.4694 0 2.6532-1.1149 2.6532-2.4998 0-1.385-1.1839-2.4998-2.6532-2.4998zm13.834 0c-1.3863 0-2.5055 1.1149-2.5055 2.4998 0 1.385 1.1193 2.4998 2.5055 2.4998h7.0222c1.3863 0 2.5055-1.1149 2.5055-2.4998 0-1.385-1.1193-2.4998-2.5055-2.4998zm15.74 0c-1.4694 0-2.6504 1.1149-2.6504 2.4998 0 1.385 1.1811 2.4998 2.6504 2.4998h5.119c1.4694 0 2.6504-1.1149 2.6504-2.4998 0-1.385-1.1811-2.4998-2.6504-2.4998z" fill="#fff" stroke-width="1.4544"/>
</svg>
