<?xml version="1.0" encoding="UTF-8" standalone="no"?>
<!-- Created with Inkscape (http://www.inkscape.org/) -->

<svg
   width="48"
   height="48"
   viewBox="0 0 48 48"
   version="1.1"
   id="svg1"
   xmlns:xlink="http://www.w3.org/1999/xlink"
   xmlns="http://www.w3.org/2000/svg">
    <path
       style="fill:#fff;fill-opacity:1;stroke:none;stroke-width:1;stroke-linecap:round;stroke-linejoin:round;stroke-dasharray:none;stroke-opacity:1"
       d="M 6.6260652,5 C 5.7265708,5 5,5.7546821 5,6.6935364 V 41.306462 C 5,42.245317 5.7265708,43 6.6260652,43 H 41.377309 C 42.276803,43 43,42.245317 43,41.306462 V 6.6935364 C 43,5.7546821 42.276803,5 41.377309,5 Z m 5.1548288,1.7340202 c 0.761608,-0.00564 1.636878,0 2.644887,0 h 19.145063 c 8.140288,0 7.695137,-0.3729897 7.695137,7.6917608 v 19.148437 c 0,7.988095 0.52184,7.69176 -7.695137,7.69176 H 14.425781 c -7.987049,0 -7.6951348,0.296353 -7.6951348,-7.69176 V 14.425781 c 0,-7.0566383 -0.2810864,-7.6521891 5.0502478,-7.6917608 z"
       id="path22" />
    <path
       id="rect23"
       style="fill:#fff;fill-opacity:1;stroke:none;stroke-width:1;stroke-linecap:round;stroke-linejoin:round;stroke-dasharray:none;stroke-opacity:1"
       d="m 28.3403,27.299353 c -0.528248,0 -0.952961,0.443204 -0.952961,0.994567 v 8.118993 c 0,0.551363 0.424713,0.994567 0.952961,0.994567 h 8.083332 c 0.528248,0 0.952961,-0.443204 0.952961,-0.994567 V 28.29392 c 0,-0.551363 -0.424713,-0.994567 -0.952961,-0.994567 z m 3.128329,1.785069 h 1.935641 v 2.24669 h 2.244709 v 1.935642 H 33.40427 v 2.244709 h -1.935641 v -2.244709 h -2.246691 v -1.935642 h 2.246691 z" />
    <rect
       style="fill:#fff;fill-opacity:1;stroke:none;stroke-width:1;stroke-linecap:round;stroke-linejoin:round;stroke-dasharray:none;stroke-opacity:1"
       id="rect24"
       width="4.463244"
       height="4.4632463"
       x="10.809307"
       y="11.025175"
       rx="0.94"
       ry="0.98113203" />
    <rect
       style="fill:#fff;fill-opacity:1;stroke:none;stroke-width:1;stroke-linecap:round;stroke-linejoin:round;stroke-dasharray:none;stroke-opacity:1"
       id="rect25"
       width="4.463244"
       height="4.4632463"
       x="16.299809"
       y="11.025175"
       rx="0.94"
       ry="0.98113203" />
    <rect
       style="fill:#fff;fill-opacity:1;stroke:none;stroke-width:1;stroke-linecap:round;stroke-linejoin:round;stroke-dasharray:none;stroke-opacity:1"
       id="rect26"
       width="4.463244"
       height="4.4632463"
       x="21.768377"
       y="11.025175"
       rx="0.94"
       ry="0.98113203" />
    <rect
       style="fill:#fff;fill-opacity:1;stroke:none;stroke-width:1;stroke-linecap:round;stroke-linejoin:round;stroke-dasharray:none;stroke-opacity:1"
       id="rect27"
       width="4.463244"
       height="4.4632463"
       x="27.236946"
       y="11.025175"
       rx="0.94"
       ry="0.98113203" />
    <rect
       style="fill:#fff;fill-opacity:1;stroke:none;stroke-width:1;stroke-linecap:round;stroke-linejoin:round;stroke-dasharray:none;stroke-opacity:1"
       id="rect28"
       width="4.463244"
       height="4.4632463"
       x="32.916374"
       y="11.025175"
       rx="0.94"
       ry="0.98113203" />
    <rect
       style="fill:#fff;fill-opacity:1;stroke:none;stroke-width:1;stroke-linecap:round;stroke-linejoin:round;stroke-dasharray:none;stroke-opacity:1"
       id="rect29"
       width="4.463244"
       height="4.4632463"
       x="10.809307"
       y="16.503935"
       rx="0.94"
       ry="0.98113203" />
    <rect
       style="fill:#fff;fill-opacity:1;stroke:none;stroke-width:1;stroke-linecap:round;stroke-linejoin:round;stroke-dasharray:none;stroke-opacity:1"
       id="rect30"
       width="4.463244"
       height="4.4632463"
       x="32.916374"
       y="16.503935"
       rx="0.94"
       ry="0.98113203" />
    <rect
       style="fill:#fff;fill-opacity:1;stroke:none;stroke-width:1;stroke-linecap:round;stroke-linejoin:round;stroke-dasharray:none;stroke-opacity:1"
       id="rect31"
       width="4.463244"
       height="4.4632463"
       x="10.809307"
       y="21.982693"
       rx="0.94"
       ry="0.98113203" />
    <rect
       style="fill:#fff;fill-opacity:1;stroke:none;stroke-width:1;stroke-linecap:round;stroke-linejoin:round;stroke-dasharray:none;stroke-opacity:1"
       id="rect32"
       width="4.463244"
       height="4.4632463"
       x="16.335318"
       y="21.999483"
       rx="0.94"
       ry="0.98113203" />
    <rect
       style="fill:#fff;fill-opacity:1;stroke:none;stroke-width:1;stroke-linecap:round;stroke-linejoin:round;stroke-dasharray:none;stroke-opacity:1"
       id="rect33"
       width="4.463244"
       height="4.4632463"
       x="10.809307"
       y="27.461452"
       rx="0.94"
       ry="0.98113203" />
    <rect
       style="fill:#fff;fill-opacity:1;stroke:none;stroke-width:1;stroke-linecap:round;stroke-linejoin:round;stroke-dasharray:none;stroke-opacity:1"
       id="rect34"
       width="4.463244"
       height="4.4632463"
       x="16.335318"
       y="27.461452"
       rx="0.94"
       ry="0.98113203" />
    <rect
       style="fill:#fff;fill-opacity:1;stroke:none;stroke-width:1;stroke-linecap:round;stroke-linejoin:round;stroke-dasharray:none;stroke-opacity:1"
       id="rect35"
       width="4.463244"
       height="4.4632463"
       x="21.861328"
       y="27.461452"
       rx="0.94"
       ry="0.98113203" />
    <rect
       style="fill:#fff;fill-opacity:1;stroke:none;stroke-width:1;stroke-linecap:round;stroke-linejoin:round;stroke-dasharray:none;stroke-opacity:1"
       id="rect36"
       width="4.463244"
       height="4.4632463"
       x="21.768377"
       y="16.503935"
       rx="0.94"
       ry="0.98113203" />
    <rect
       style="fill:#fff;fill-opacity:1;stroke:none;stroke-width:1;stroke-linecap:round;stroke-linejoin:round;stroke-dasharray:none;stroke-opacity:1"
       id="rect37"
       width="4.463244"
       height="4.4632463"
       x="21.861328"
       y="21.982693"
       rx="0.94"
       ry="0.98113203" />
    <rect
       style="fill:#fff;fill-opacity:1;stroke:none;stroke-width:1;stroke-linecap:round;stroke-linejoin:round;stroke-dasharray:none;stroke-opacity:1"
       id="rect38"
       width="4.463244"
       height="4.4632463"
       x="16.335318"
       y="32.92342"
       rx="0.94"
       ry="0.98113203" />
    <rect
       style="fill:#fff;fill-opacity:1;stroke:none;stroke-width:1;stroke-linecap:round;stroke-linejoin:round;stroke-dasharray:none;stroke-opacity:1"
       id="rect40"
       width="4.463244"
       height="4.4632463"
       x="27.387339"
       y="21.768377"
       rx="0.94"
       ry="0.98113203" />
</svg>
