<?xml version="1.0" encoding="UTF-8"?>
<svg version="1.1" viewBox="0 0 48 48" xmlns="http://www.w3.org/2000/svg">
    <path d="m33.989 4.6811v10.013h10.011v-10.013zm4.0396 1.7986h1.9313v2.2411h2.2385v1.9313h-2.2385v2.2411h-1.9313v-2.2411h-2.2411v-1.9313h2.2411zm-30.167 10.437c-4.0755 0.03025-3.86 0.48551-3.86 5.8798v14.638c0 6.1064-0.22312 5.8824 5.8824 5.8824h14.636c6.2813 0 5.8824 0.22393 5.8824-5.8824v-14.638c0-6.165 0.34027-5.8798-5.8824-5.8798h-14.636c-0.77056 0-1.4402-0.0044-2.0224 0zm0.01562 3.2796h1.8949c0.41815 0 0.76003 0.3418 0.76003 0.76003v1.8923c-1e-6 0.41824-0.3419 0.76264-0.76003 0.76264h-1.8949c-0.41812 0-0.75743-0.34441-0.75743-0.76264v-1.8923c0-0.41824 0.33929-0.76003 0.75743-0.76003zm4.227 0h1.8923c0.41815 0 0.76003 0.3418 0.76003 0.76003v1.8923c0 0.34634-0.23893 0.62749-0.55701 0.71839-0.1002 0.04888-0.20949 0.08329-0.32796 0.08329h-1.8923c-0.41815 0-0.76003-0.34181-0.76003-0.76003v-1.8923c1e-6 -0.34562 0.23996-0.62685 0.55701-0.71839 0.10058-0.04932 0.2089-0.08329 0.32796-0.08329zm4.2244 0h1.8949c0.41812 0 0.75743 0.3418 0.75743 0.76003v1.8923c0 0.41825-0.33929 0.76264-0.75743 0.76264h-1.8949c-0.41815 0-0.76003-0.34441-0.76003-0.76264v-1.8923c0-0.41824 0.3419-0.76003 0.76003-0.76003zm4.2244 0h1.8923c0.41814 0 0.76003 0.3418 0.76003 0.76003v1.8923c0 0.41825-0.3419 0.76264-0.76003 0.76264h-1.8923c-0.41812 0-0.75743-0.34441-0.75743-0.76264v-1.8923c0-0.41824 0.3393-0.76003 0.75743-0.76003zm4.227 0h1.8923c0.41814 0 0.76003 0.3418 0.76003 0.76003v1.8923c0 0.41824-0.3419 0.76264-0.76003 0.76264h-1.8923c-0.41815 0-0.76264-0.34441-0.76264-0.76264v-1.8923c0-0.41824 0.3445-0.76003 0.76264-0.76003zm0 4.0839h1.8923c0.41814 0 0.76003 0.3418 0.76003 0.76003v1.8923c0 0.41824-0.3419 0.76003-0.76003 0.76003h-1.8923c-0.41815 0-0.76264-0.34181-0.76264-0.76003v-1.8923c0-0.41824 0.3445-0.76003 0.76264-0.76003zm-16.903 0.09891h1.8923c0.41815 0 0.76264 0.3418 0.76264 0.76003v1.8923c0 0.41824-0.3445 0.76264-0.76264 0.76264h-1.8923c-0.41812 0-0.75743-0.34441-0.75743-0.76264v-1.8923c0-0.41824 0.33929-0.76003 0.75743-0.76003zm8.4515 0h1.8923c0.41812 0 0.76003 0.3418 0.76003 0.76003v1.8923c0 0.41822-0.34191 0.76003-0.76003 0.76003h-1.8923c-0.41815 0-0.76003-0.34181-0.76003-0.76003v-1.8923c0-0.41824 0.3419-0.76003 0.76003-0.76003zm4.1463 4.1776h1.8923c0.41812 0 0.75743 0.34181 0.75743 0.76003v1.8923c0 0.41824-0.33931 0.76003-0.75743 0.76003h-1.8923c-0.41815 0-0.76003-0.3418-0.76003-0.76003v-1.8923c1e-6 -0.41824 0.3419-0.76003 0.76003-0.76003zm-4.1984 0.0052h1.8923c0.41815 0 0.76003 0.3418 0.76003 0.76003v1.8923c0 0.41824-0.3419 0.76003-0.76003 0.76003h-1.8923c-0.41814 0-0.76264-0.3418-0.76264-0.76003v-1.8923c0-0.41824 0.3445-0.76003 0.76264-0.76003zm-8.3994 0.0026h1.8923c0.41815 0 0.76264 0.3418 0.76264 0.76003v1.8923c-1e-6 0.41824-0.3445 0.76003-0.76264 0.76003h-1.8923c-0.41812 0-0.75743-0.3418-0.75743-0.76003v-1.8923c0-0.41824 0.33929-0.76003 0.75743-0.76003zm4.1984 0.02082h1.8949c0.41813 0 0.76003 0.3418 0.76003 0.76003v1.8923c0 0.41824-0.34191 0.76003-0.76003 0.76003h-1.8949c-0.41815 0-0.76003-0.34181-0.76003-0.76003v-1.8923c0-0.41824 0.3419-0.76003 0.76003-0.76003zm4.2531 4.1594h1.8923c0.41812 0 0.76003 0.34441 0.76003 0.76264v1.8897c0 0.41824-0.34191 0.76003-0.76003 0.76003h-1.8923c-0.41815 0-0.76003-0.3418-0.76003-0.76003v-1.8897c0-0.41824 0.3419-0.76264 0.76003-0.76264zm4.1151 0h1.8923c0.41815 0 0.76003 0.34441 0.76003 0.76264v1.8897c0 0.41824-0.3419 0.76003-0.76003 0.76003h-1.8923c-0.41815 0-0.76003-0.3418-0.76003-0.76003v-1.8897c0-0.41824 0.3419-0.76264 0.76003-0.76264zm-12.567 0.0026h1.8923c0.41815 0 0.76264 0.34181 0.76264 0.76003v1.8923c0 0.41823-0.3445 0.76003-0.76264 0.76003h-1.8923c-0.41812 0-0.75743-0.3418-0.75743-0.76003v-1.8923c0-0.41824 0.33931-0.76003 0.75743-0.76003zm16.872 0.02863h1.8923c0.41815 0 0.76264 0.3418 0.76264 0.76003v1.8897c0 0.41824-0.3445 0.76003-0.76264 0.76003h-1.8923c-0.41814 0-0.76003-0.34181-0.76003-0.76003v-1.8897c0-0.41824 0.3419-0.76003 0.76003-0.76003zm-12.77 0.06767h1.8923c0.41812 0 0.76003 0.3418 0.76003 0.76003v1.8897c0 0.41826-0.3419 0.76003-0.76003 0.76003h-1.8923c-0.41815 0-0.76003-0.3418-0.76003-0.76003v-1.8897c1e-6 -0.41826 0.3419-0.76003 0.76003-0.76003zm8.5322 4.2114h1.8949c0.41814 0 0.76003 0.34181 0.76003 0.76003v1.8923c0 0.41824-0.3419 0.76003-0.76003 0.76003h-1.8949c-0.41815 0-0.76003-0.3418-0.76003-0.76003v-1.8923c0-0.41824 0.3419-0.76003 0.76003-0.76003zm4.227 0h1.8897c0.41815 0 0.76003 0.34181 0.76003 0.76003v1.8923c0 0.41824-0.3419 0.76003-0.76003 0.76003h-1.8897c-0.41815 0-0.76003-0.3418-0.76003-0.76003v-1.8923c0-0.41824 0.3419-0.76003 0.76003-0.76003zm-12.759 0.04165h1.8923c0.41812 0 0.76003 0.34181 0.76003 0.76003v1.8923c0 0.41824-0.3419 0.76003-0.76003 0.76003h-1.8923c-0.41815 0-0.76003-0.3418-0.76003-0.76003v-1.8923c1e-6 -0.41824 0.34191-0.76003 0.76003-0.76003z" fill="#f8f8f8" stroke-width="1.3327"/>
</svg>
