<?xml version="1.0" encoding="UTF-8"?>
<svg version="1.1" viewBox="0 0 48 48" xmlns="http://www.w3.org/2000/svg">
    <path d="m14.948 4v18.481a9.0519 9.0519 0 0 0 6.0346 8.5333v4.9326h6.0346v-4.9326a9.0519 9.0519 0 0 0 6.0346-8.5333v-18.481h-6.0346v18.481a3.0173 3.0173 0 0 1-3.0173 3.0173 3.0173 3.0173 0 0 1-3.0173-3.0173v-18.481zm8.5392 33.965a3.0173 3.0173 0 0 0-2.9407 3.0173 3.0173 3.0173 0 0 0 3.0173 3.0173 3.0173 3.0173 0 0 0 3.0173-3.0173 3.0173 3.0173 0 0 0-3.0173-3.0173 3.0173 3.0173 0 0 0-0.07661 0z" fill="#fff" stroke-width="1.5087"/>
</svg>
