<?xml version="1.0" encoding="UTF-8"?>
<svg version="1.1" viewBox="0 0 48 48" xmlns="http://www.w3.org/2000/svg">
    <path d="m25.418 4.002c-0.34008 0.021308-0.71785 0.16844-0.71875 0.42773-0.02804 8.1151-0.20508 24.35-0.20508 24.35-9.1922-2.5681-9.6264 8.1406-2.4336 8.1406 2.9548 0 4.7004-1.0012 4.6934-4.7383l-0.039062-21.234 11.102 4.291-11.916-11.133c-0.088228-0.082439-0.27837-0.1163-0.48242-0.10352zm-4.8223 16.232a11.963 11.963 0 0 0-9.5645 7.2773 11.963 11.963 0 0 0-0.84766 3.3809h1.2129a10.767 10.767 0 0 1 0.74024-2.9238 10.767 10.767 0 0 1 8.459-6.5371v-1.1973zm0.072266 2.9473a9.0157 9.0157 0 0 0-6.9277 5.4512 9.0157 9.0157 0 0 0-0.59961 2.3242h1.1504a7.8888 7.8888 0 0 1 0.49023-1.8945 7.8888 7.8888 0 0 1 5.8867-4.7363v-1.1445zm-7.5195 10.029a9.0157 9.0157 0 0 0 2.5469 5.2461 9.0157 9.0157 0 0 0 4.9727 2.5117v-1.1504a7.8888 7.8888 0 0 1-4.1758-2.1582 7.8888 7.8888 0 0 1-2.2129-4.4492h-1.1309zm16.715 0a7.8888 7.8888 0 0 1-4.7734 6.1602 7.8888 7.8888 0 0 1-2.168 0.53125v1.1523a9.0157 9.0157 0 0 0 2.5996-0.64258 9.0157 9.0157 0 0 0 5.4844-7.2012h-1.1426zm-19.65 0.074218a11.963 11.963 0 0 0 3.4121 7.2617 11.963 11.963 0 0 0 6.9707 3.3789v-1.2031a10.767 10.767 0 0 1-6.125-3.0215 10.767 10.767 0 0 1-3.0586-6.416h-1.1992zm22.551 0a10.767 10.767 0 0 1-6.5586 8.75 10.767 10.767 0 0 1-3.2168 0.77344v1.1914a11.963 11.963 0 0 0 3.6758-0.85938 11.963 11.963 0 0 0 7.2988-9.8555h-1.1992z" fill="#fff"/>
</svg>
