<?xml version="1.0" encoding="UTF-8" standalone="no"?>
<svg
   version="1.1"
   viewBox="0 0 48 48"
   id="svg1"
   xmlns="http://www.w3.org/2000/svg"
   xmlns:svg="http://www.w3.org/2000/svg">
  <defs
     id="defs1" />
  <path
     id="path4"
     d="m 22.672412,25.966734 c -0.410575,1e-6 -0.82053,0.156304 -1.135134,0.470907 -0.629219,0.629283 -0.629219,1.64105 0,2.270269 l 1.405287,1.407765 a 9.9421331,9.9421331 0 0 0 -1.876194,5.792158 9.9421331,9.9421331 0 0 0 0.0347,0.78815 c -0.02109,0.08307 -0.0347,0.167942 -0.0347,0.257759 V 44 h 19.884675 v -7.046258 c 0,-0.09289 -0.01718,-0.179553 -0.03966,-0.265195 a 9.9421331,9.9421331 0 0 0 0.03966,-0.780714 9.9421331,9.9421331 0 0 0 -1.876194,-5.794637 L 40.47766,28.70791 c 0.629219,-0.629283 0.629219,-1.64105 0,-2.270269 -0.629283,-0.629217 -1.64105,-0.629217 -2.270269,0 l -1.405285,1.405286 a 9.9421331,9.9421331 0 0 0 -5.794637,-1.876193 9.9421331,9.9421331 0 0 0 -5.794637,1.873715 l -1.402808,-1.402808 c -0.3146,-0.314603 -0.727036,-0.470907 -1.137612,-0.470907 z m 4.124156,8.233441 a 1.849652,1.849652 0 0 1 1.848929,1.84893 1.849652,1.849652 0 0 1 -1.848929,1.851408 1.849652,1.849652 0 0 1 -1.851409,-1.851408 1.849652,1.849652 0 0 1 1.851409,-1.84893 z m 8.421803,0 a 1.849652,1.849652 0 0 1 1.851408,1.84893 1.849652,1.849652 0 0 1 -1.851408,1.848929 1.849652,1.849652 0 0 1 -1.846452,-1.848929 1.849652,1.849652 0 0 1 1.846452,-1.84893 z"
     style="fill:#fff;fill-opacity:1;stroke:none;stroke-width:1;stroke-dasharray:none" />
  <path
     d="m 14.101624,13.356257 a 0.56174803,0.69251548 0 0 1 0.574996,0.691487 v 2.989061 h 12.171715 c 0.955053,0 1.725039,0.767499 1.725039,1.722501 v 1.239227 c 0,0.955052 -0.76991,1.725039 -1.725039,1.725039 H 14.67662 v 2.986523 a 0.56174803,0.69251548 0 0 1 -0.842673,0.599791 L 10.088961,22.645555 6.3439737,19.978686 a 0.56174803,0.69251548 0 0 1 0,-1.199571 l 3.7449873,-2.664331 3.744986,-2.666869 a 0.56174803,0.69251548 0 0 1 0.267677,-0.09171 z"
     id="path3"
     style="fill:#fff;fill-opacity:1;stroke:none;stroke-width:1;stroke-dasharray:none" />
  <path
     d="m 33.900108,4.0001344 a 0.56174803,0.69251548 0 0 1 0.267677,0.091703 l 3.744987,2.6668695 3.744986,2.666869 a 0.56174803,0.69251548 0 0 1 0,1.1970971 l -3.744986,2.666869 -3.744987,2.664331 A 0.56174803,0.69251548 0 0 1 33.325112,15.356569 V 12.367508 H 21.153397 c -0.955053,0 -1.725039,-0.76991 -1.725039,-1.725039 V 9.4032419 c 0,-0.955052 0.76991,-1.722501 1.725039,-1.722501 H 33.325112 V 4.6916803 a 0.56174803,0.69251548 0 0 1 0.574996,-0.6914876 z"
     id="path2"
     style="fill:#fff;fill-opacity:1;stroke:none;stroke-width:1;stroke-dasharray:none" />
</svg>
