<?xml version="1.0" encoding="UTF-8"?>
<svg version="1.1" viewBox="0 0 48 48" xmlns="http://www.w3.org/2000/svg">
    <path d="m33.9 4.0002c-0.31508-0.0091678-0.57462 0.30295-0.575 0.69149v2.989h-12.172c-0.95513 0-1.725 0.76748-1.725 1.7225v1.2392c0 0.95513 0.76996 1.725 1.725 1.725h12.172v2.989c0.0015 0.53207 0.46892 0.8634 0.84268 0.59731l3.7449-2.6643 3.7449-2.6668c0.37228-0.26707 0.37228-0.93003 0-1.1971l-7.4899-5.3336c-0.08159-0.057714-0.17363-0.089246-0.26767-0.091703zm-19.798 9.3562c-0.09405 0.0025-0.18608 0.03399-0.26767 0.0917l-3.7449 2.6668-3.7449 2.6643c-0.37459 0.26653-0.37459 0.93304 0 1.1996l3.7449 2.6668 3.7449 2.6643c0.37453 0.26664 0.84273-0.06661 0.84268-0.59979v-2.9865h12.172c0.95513 0 1.725-0.76995 1.725-1.725v-1.2392c0-0.955-0.76996-1.7225-1.725-1.7225h-12.172v-2.989c-3.79e-4 -0.38854-0.25992-0.70066-0.575-0.69149zm8.5705 12.61c-0.41058 1e-6 -0.82053 0.1563-1.1351 0.47091-0.62922 0.62928-0.62922 1.641 0 2.2703l1.4053 1.4078c-1.5566 2.0109-1.8762 4.284-1.8762 6.8381v7.0463h19.885v-7.0463c0-2.8295-0.55105-4.736-1.8762-6.8405l1.4028-1.4053c0.62922-0.62928 0.62922-1.641 0-2.2703-0.62928-0.62922-1.641-0.62922-2.2703 0l-1.4053 1.4053c-1.6877-1.2162-3.7144-1.8724-5.7946-1.8762-2.08 3e-3 -4.1066 0.65837-5.7946 1.8737l-1.4028-1.4028c-0.3146-0.3146-0.72704-0.47091-1.1376-0.47091zm4.1242 8.2334c1.021 3.99e-4 1.8485 0.82796 1.8489 1.8489 9.7e-4 1.0219-0.82699 1.851-1.8489 1.8514-1.0229 9.71e-4 -1.8524-0.8285-1.8514-1.8514 3.99e-4 -1.0219 0.82947-1.8499 1.8514-1.8489zm8.4218 0c1.0219-9.71e-4 1.851 0.82699 1.8514 1.8489-3.99e-4 1.0219-0.82947 1.8499-1.8514 1.8489-1.02-0.0018-1.8461-0.82892-1.8464-1.8489 3.97e-4 -1.02 0.82645-1.8472 1.8464-1.8489z" fill="#fff" stroke-width="1.269"/>
</svg>
