<?xml version="1.0" encoding="UTF-8" standalone="no"?>
<!-- Created with Inkscape (http://www.inkscape.org/) -->

<svg
   width="48"
   height="48"
   viewBox="0 0 48 48"
   version="1.1"
   id="svg1"
   xml:space="preserve"
   xmlns="http://www.w3.org/2000/svg"
   xmlns:svg="http://www.w3.org/2000/svg"><defs
     id="defs1" /><path
     id="path1"
     class="st0"
     d="m 8,10 c -2.2,0 -4,1.8 -4,4 v 20 c 0,2.2 1.8,4 4,4 h 32 c 2.2,0 4,-1.799062 4,-4.039062 V 14 c 0,-2.2 -1.8,-4 -4,-4 z M 7.960937,12.839844 H 40 c 0.6,0 1.080078,0.521093 1.080078,1.121094 v 20 c 0.04,0.6 -0.440078,1.118203 -1.080078,1.158203 H 8 C 7.4,35.119141 6.9199219,34.6 6.9199219,34 V 14 c -0.04,-0.6 0.4410156,-1.120156 1.0410151,-1.160156 z"
     style="fill:#fff;fill-opacity:1;stroke:none;stroke-width:1;stroke-linecap:round;stroke-linejoin:round;stroke-dasharray:none;stroke-opacity:1" /><path
     class="st0"
     d="M 16.24,33.16 H 9.52 V 14.84 h 6.72 c 4.76,0 7.36,2.96 7.36,9.08 0,5.28 -1.8,9.2 -7.36,9.24 z m 2.92,-8.88 c 0,-3.68 -0.4,-6.56 -4.36,-6.56 H 13.92 V 30.2 h 1.56 c 2.32,0 3.68,-1.88 3.68,-5.92 z M 35.2,23.56 c 1.88,-0.56 3.16,-2.28 3.2,-4.28 0,-0.4 -0.08,-4.48 -5.24,-4.48 H 25.52 V 33.12 H 32 c 1.72,0 7.08,0 7.08,-5.16 0,-1.24 -0.56,-3.68 -3.88,-4.4 z m -5.32,-5.88 h 1.4 c 1.96,0 2.76,0.68 2.76,2.2 0,1.2 -0.88,2.2 -2.4,2.2 h -1.72 v -4.4 z m 1.8,12.52 h -1.8 v -4.72 h 1.92 c 2.28,0 2.84,1.32 2.84,2.36 0,2.36 -2.24,2.36 -2.96,2.36 z"
     id="path3"
     style="fill:#fff;fill-opacity:1;stroke:none;stroke-width:1;stroke-dasharray:none;stroke-opacity:1" /><style
     id="style1">.st0{fill:#f01414}.st1{fill:#fff}</style></svg>
