<?xml version="1.0" encoding="UTF-8"?>
<svg version="1.1" viewBox="0 0 48 48" xmlns="http://www.w3.org/2000/svg">
    <path d="m13.841 4a1.4431 1.4431 0 1 0 0 2.8862h20.315a1.4431 1.4431 0 1 0 0-2.8862zm-2.8479 5.6899c-0.8 0-1.4416 0.64163-1.4416 1.4416a1.437 1.437 0 0 0 1.4416 1.4416h26.014c0.8 0 1.4416-0.64163 1.4416-1.4416 0-0.8-0.64163-1.4416-1.4416-1.4416zm-2.895 5.6869c-0.8 0-1.4416 0.64163-1.4416 1.4416a1.437 1.437 0 0 0 1.4416 1.4416h31.801a1.4416 1.4416 0 1 0 0-2.8833zm-0.98762 5.6869c-1.7102 0-3.0837 1.3779-3.0837 3.0896v16.757a3.0823 3.0823 0 0 0 3.0837 3.0896h33.777a3.0823 3.0823 0 0 0 3.0867-3.0896v-16.757c0-1.7117-1.375-3.0896-3.0867-3.0896h-33.774z" fill="#fff" stroke-width="1.5094"/>
</svg>
