<?xml version="1.0" encoding="UTF-8"?>
<svg version="1.1" viewBox="0 0 48 48" xmlns="http://www.w3.org/2000/svg">
    <path d="m24 4-11.232 18.786c-1.3506 2.2589-2.3493 4.8028-2.3493 7.633 0 7.5007 6.0806 13.581 13.581 13.581s13.581-6.0806 13.581-13.581c0-2.8304-0.99873-5.3741-2.3493-7.633zm2.5143 12.805s-8.0989 4.2712-7.9974 10.748c0.06958 4.4407 2.679 5.8226 6.1862 6.0233 3.3823 0.1936 7.8008 0.35488 7.8452 2.4436 0.05191 2.4444-1.9062 6.3919-8.5483 6.3919s-11.993-5.351-11.993-11.993c0-2.4565 0.86618-4.7145 2.1242-6.8185 3.2894-5.5016 12.383-6.7949 12.383-6.7949z" fill="#fff" stroke-width="1.0975"/>
</svg>
