<?xml version="1.0" encoding="UTF-8" standalone="no"?>
<!-- Created with Inkscape (http://www.inkscape.org/) -->

<svg
   width="48"
   height="48"
   viewBox="0 0 48 48"
   version="1.1"
   id="svg1"
   xml:space="preserve"
   xmlns="http://www.w3.org/2000/svg"
   xmlns:svg="http://www.w3.org/2000/svg"><defs
     id="defs1" /><g
     id="layer1"><path
       id="path1"
       style="fill:#fff;fill-opacity:1;stroke:none;stroke-width:1;stroke-linecap:round;stroke-linejoin:round;stroke-dasharray:none;stroke-opacity:1"
       d="m 22.209379,5.4931311 c -0.905695,4.2215322 -3.11467,8.0994539 -8.581714,10.5220279 0.914089,0.875147 2.033305,1.442602 3.35765,1.702365 -5.315697,4.619173 -5.713777,4.781833 -7.9848413,6.356375 1.3215753,1.156822 2.5405873,1.698259 3.6570343,1.624312 -3.1841025,2.736339 -6.0704247,5.292036 -8.6575081,6.436323 4.4416638,2.164435 7.2930911,4.659259 16.1932731,5.894837 v 4.477498 h 7.613453 V 38.029371 C 36.706909,36.793793 39.558336,34.298969 44,32.134534 41.412917,30.990247 38.526595,28.43455 35.342492,25.698211 c 1.321576,0.176512 2.540587,-0.364926 3.657035,-1.624312 -2.271066,-1.574542 -2.669146,-1.737202 -7.984842,-6.356375 1.324345,-0.259763 2.443561,-0.827218 3.35765,-1.702365 C 28.905291,13.592585 26.696316,9.7146633 25.79062,5.4931311 Z" /><path
       id="rect16"
       style="fill:#fff;fill-opacity:1;stroke:none;stroke-linecap:round;stroke-linejoin:round;stroke-opacity:1"
       d="M 3,2 C 2.446,2 2,2.446 2,3 v 5.6640625 c 0,0.554 0.4519195,0.91923 1,1 l 12.322305,1.8158265 c 2.230106,0.435143 4.328927,-3.874227 4.874961,-6.4193421 0.203668,-0.9481661 1.041924,-1.6252825 2.011718,-1.625 h 3.582032 c 0.969794,-2.825e-4 1.80805,0.6768339 2.011718,1.625 0.816003,3.803461 2.444707,7.0107891 7.404297,9.0742191 2.965969,1.233987 6.386046,1.71875 9.792969,1.71875 0.548081,0.08077 1,-0.446 1,-1 V 3 C 46,2.446 45.554,2 45,2 Z" /><path
       id="rect17"
       style="fill:#fff;fill-opacity:1;stroke:none;stroke-linecap:round;stroke-linejoin:round;stroke-opacity:1"
       d="m -45.101562,36.148438 c 0.03337,7.17e-4 0.06736,0.0044 0.101562,0.0098 l 6.501953,1.029297 c 6.02e-4,2.6e-4 0.0014,-2.6e-4 0.002,0 2.239135,0.966131 4.943987,1.864416 8.632813,2.519531 v 2.800781 a 2.056992,2.056992 0 0 0 2.05664,2.056641 h 7.613282 a 2.056992,2.056992 0 0 0 2.05664,-2.056641 V 40.40625 L -3,42.800781 c 0.5472,0.08653 1,0.446 1,1 V 45 c 0,0.554 -0.446,1 -1,1 h -42 c -0.554,0 -1,-0.446 -1,-1 v -7.841797 c 0,-0.519375 0.397813,-1.020533 0.898438,-1.009765 z"
       transform="scale(-1,1)" /></g></svg>
