<?xml version="1.0" encoding="UTF-8" standalone="no"?>
<!-- Created with Inkscape (http://www.inkscape.org/) -->

<svg
   width="48"
   height="48"
   viewBox="0 0 48 48"
   version="1.1"
   id="svg1"
   xml:space="preserve"
   xmlns="http://www.w3.org/2000/svg"
   xmlns:svg="http://www.w3.org/2000/svg"><defs
     id="defs1" /><g
     id="layer1"><path
       id="rect1"
       style="fill:#fff;fill-opacity:1;stroke:none;stroke-width:1;stroke-miterlimit:0;stroke-dasharray:none"
       d="M 16.685547 20.410156 C 14.958711 20.410156 13.231395 21.071341 11.908203 22.394531 C 9.2618206 25.040915 9.2618206 29.302835 11.908203 31.949219 L 13.738281 33.779297 L 23.292969 24.224609 L 21.462891 22.394531 C 20.139699 21.071341 18.412383 20.410156 16.685547 20.410156 z M 31.314453 20.410156 C 29.587577 20.410156 27.860301 21.071341 26.537109 22.394531 L 24.707031 24.224609 L 34.261719 33.779297 L 36.091797 31.949219 C 38.738179 29.302835 38.738179 25.040915 36.091797 22.394531 C 34.768605 21.071341 33.04133 20.410156 31.314453 20.410156 z M 24 26.345703 L 15.154297 35.191406 L 24 44 L 32.845703 35.191406 L 24 26.345703 z " /><circle
       style="fill:#fff;fill-opacity:1;stroke:none;stroke-width:1;stroke-miterlimit:0;stroke-dasharray:none"
       id="path2"
       cx="24"
       cy="11.205894"
       r="7.2058945" /></g></svg>
