<?xml version="1.0" encoding="UTF-8" standalone="no"?>
<!-- Created with Inkscape (http://www.inkscape.org/) -->

<svg
   width="48"
   height="48"
   viewBox="0 0 48 48"
   version="1.1"
   id="svg1"
   xml:space="preserve"
   xmlns="http://www.w3.org/2000/svg"
   xmlns:svg="http://www.w3.org/2000/svg"><defs
     id="defs1"><style
       id="style1">.cls-1{fill:#fff;}</style></defs><path
     id="path1"
     class="cls-1"
     d="M 18.522599,9.5825441 C 15.027761,9.7500162 11.669892,11.003062 8.9219995,13.16894 5.7929137,19.350291 4.1106147,26.161943 3.9987711,33.089264 c 3e-6,0 2.8623561,4.957645 10.4149919,5.193665 0,0 1.275984,-1.543225 2.298737,-2.833467 -2.40065,-0.60694 -4.516093,-2.029039 -5.980401,-4.02586 0.303688,0.206579 0.618277,0.394717 0.943465,0.565465 0.03998,0.04516 0.08775,0.08299 0.141366,0.110634 0.108107,0.05165 0.215017,0.108467 0.316537,0.172098 0.803285,0.440209 1.633761,0.829476 2.486199,1.164733 1.604341,0.660607 3.263228,1.182145 4.957032,1.558099 2.927617,0.546151 5.929275,0.546151 8.856892,0 1.70226,-0.298349 3.365694,-0.788785 4.957032,-1.46283 1.376848,-0.523477 2.691329,-1.200972 3.918299,-2.016003 -1.514007,2.044312 -3.705454,3.483417 -6.183228,4.059664 1.022753,1.305977 2.264929,2.768932 2.264929,2.768932 7.615576,-0.188816 10.510262,-5.175228 10.510262,-5.175228 -0.111844,-6.92732 -1.794143,-13.738972 -4.923229,-19.920324 -2.747893,-2.165877 -6.105761,-3.4189238 -9.6006,-3.586396 l -0.470195,0.550099 c 3.112232,0.83045 6.013588,2.310131 8.512695,4.342397 -3.187869,-1.733892 -6.684845,-2.830766 -10.292064,-3.226834 -2.294622,-0.269464 -4.610805,-0.269464 -6.905426,0 -0.19584,0.01074 -0.392236,0.03829 -0.583902,0.0799 -2.684941,0.296137 -5.30392,1.022712 -7.756696,2.154297 C 10.622694,14.128752 9.8685364,14.55494 9.8685364,14.55494 12.491621,12.392118 15.557643,10.833516 18.85143,9.9912773 Z M 30.182228,22.391539 a 3.4773596,3.7920529 0 0 1 3.475761,3.792299 3.4773596,3.7920529 0 0 1 -3.475761,3.792298 3.4773596,3.7920529 0 0 1 -3.478836,-3.792298 3.4773596,3.7920529 0 0 1 3.478836,-3.792299 z m -12.526265,0.03073 a 3.8077874,3.8077874 0 0 1 0,7.584596 3.8077874,3.8077874 0 0 1 0,-7.584596 z"
     style="fill:#ffffff;fill-opacity:1;stroke:#ffffff;stroke-width:0.997553;stroke-dasharray:none;stroke-opacity:1" /></svg>
