<svg xmlns="http://www.w3.org/2000/svg" viewBox="0 0 48 48">
  <path fill="#fff" d="M19.732 11.793a.403.403 0 0 0-.123.002 25.435 25.435 0 0 0-6.468 1.99.397.397 0 0 0-.16.14c-4.08 6.015-5.193 11.933-4.64 17.734a.39.39 0 0 0 .16.282c2.696 1.96 5.314 3.455 7.913 4.252a.394.394 0 0 0 .435-.143 19.38 19.38 0 0 0 1.7-2.75.396.396 0 0 0-.215-.55c-.71-.266-1.73-.93-2.56-1.437a1.09 1.09 0 0 0 .283-.276.695.695 0 0 0 .14-.276c2.511 1.095 5.16 1.672 7.802 1.7 2.643-.028 5.292-.605 7.802-1.7a.695.695 0 0 0 .141.276c.073.098.188.224.282.276-.828.506-1.849 1.171-2.56 1.436a.396.396 0 0 0-.215.552 19.38 19.38 0 0 0 1.7 2.75c.1.135.275.191.436.142 2.6-.797 5.217-2.29 7.914-4.252a.394.394 0 0 0 .16-.282c.552-5.8-.56-11.72-4.64-17.735a.397.397 0 0 0-.16-.14 25.435 25.435 0 0 0-6.469-1.99.4.4 0 0 0-.415.2c-.229.42-.48.95-.696 1.427a24.556 24.556 0 0 0-6.559 0 21.496 21.496 0 0 0-.697-1.426.397.397 0 0 0-.29-.202zm-.836 10.134c1.54 0 2.801 1.385 2.77 3.081 0 1.696-1.23 3.081-2.77 3.081-1.525 0-2.77-1.385-2.77-3.08 0-1.697 1.214-3.082 2.77-3.082zm10.207 0c1.556 0 2.77 1.385 2.77 3.081s-1.245 3.081-2.77 3.081c-1.54 0-2.77-1.385-2.77-3.08-.03-1.697 1.23-3.082 2.77-3.082z"/>
</svg>
