<?xml version="1.0" encoding="UTF-8"?>
<svg version="1.1" viewBox="0 0 48 48" xmlns="http://www.w3.org/2000/svg">
    <path d="m17.268 9.8928c-3.0493 0.02616-6.3688 0.26414-9.9696 0.74572-5.0185 0.57729-4.0082 8.1338 0.98567 7.3725 1.6173-0.21632 3.1427-0.36112 4.6084-0.46578 3.2062 4.7483 6.1 9.096 8.791 13.183-1.5808-0.13726-3.303-0.44302-5.2318-0.97861-4.8695-1.493-6.9321 5.9334-1.9902 7.1655 13.753 3.8192 28.365-1.9989 29.462-10.577 0.44372-3.469-1.0786-7.0176-3.9074-9.7038-4.2421-4.0294-11.266-6.6245-21.457-6.7421-0.42457-0.0049-0.85587-0.0037-1.2915 0zm5.8834 7.8171c8.4014 1.0195 20.999 6.5128 7.7348 11.67-2.4132-3.678-5.0093-7.5899-7.7348-11.67z" fill="#fff" stroke-width="1.2044"/>
</svg>
