<?xml version="1.0" encoding="UTF-8"?>
<svg data-name="Layer 1" version="1.1" viewBox="0 0 48 48" xmlns="http://www.w3.org/2000/svg">
    <path d="m24 4s-11.548 2.133-15.635 2.133v20.539a11.49 11.49 0 0 0 0.81666 4.2036 15.778 15.778 0 0 0 2.0243 3.6969 22.127 22.127 0 0 0 2.8919 3.151 31.295 31.295 0 0 0 3.0908 2.5333c0.93576 0.73439 1.9429 1.3516 2.9497 1.9202 1.0068 0.56856 1.7526 0.97129 2.1909 1.1845l1.0318 0.4974a1.5162 1.5162 0 0 0 1.277 0l1.0318-0.4974c0.43826-0.17768 1.1604-0.58041 2.1909-1.1845 1.0345-0.60015 2.0179-1.2411 2.9497-1.9202a31.295 31.295 0 0 0 3.0908-2.5333 22.127 22.127 0 0 0 2.8919-3.151 15.778 15.778 0 0 0 2.0243-3.6969 11.49 11.49 0 0 0 0.81666-4.2036v-20.588c-4.0865 0-15.635-2.0844-15.635-2.0844zm0 6.2186a11.561 11.561 0 0 1 11.549 11.549 11.549 11.549 0 1 1-11.549-11.549zm0 2.369c-0.69886 0-1.8479 1.6465-2.4639 4.738h4.9277c-0.61594-3.0916-1.765-4.738-2.4639-4.738zm-3.7085 0.79352a9.2391 9.2391 0 0 0-4.31 3.9214h3.1255a16.784 16.784 0 0 1 1.1845-3.9214zm7.3916 0.02313a16.784 16.784 0 0 1 1.1845 3.9214h3.151v-0.02314a9.2391 9.2391 0 0 0-4.3355-3.8982zm-6.4778 6.2441c-0.08292 0.66332-0.08329 1.3616-0.08329 2.096 0 0.73439 0.08329 1.4327 0.08329 2.096h5.5894c0.08291-0.66332 0.08329-1.3616 0.08329-2.096 0-0.73439-0.08329-1.4327-0.08329-2.096zm-6.1354 0.02313a9.405 9.405 0 0 0-0.24986 2.096 9.405 9.405 0 0 0 0.24986 2.096h3.7663c-0.08292-0.69886-0.08329-1.3972-0.08329-2.096 0-0.69886 0.02406-1.3972 0.08329-2.096zm14.094 0.02313c0.08291 0.69886 0.08329 1.3972 0.08329 2.096 0 0.69886-0.02406 1.3972-0.08329 2.096h3.7918a9.405 9.405 0 0 0 0.24754-2.096l-0.02314-0.02313a9.405 9.405 0 0 0-0.24986-2.0729zm-7.6276 6.5148c0.61594 3.0915 1.765 4.738 2.4639 4.738 0.69886 0 1.8479-1.6465 2.4639-4.738zm-5.5547 0.02313a9.2391 9.2391 0 0 0 4.3355 3.9214 16.784 16.784 0 0 1-1.1845-3.9214zm12.912 0a16.784 16.784 0 0 1-1.1845 3.9214 9.2391 9.2391 0 0 0 4.3332-3.9214z" fill="#fff" stroke-width="1.1845"/>
</svg>
