<?xml version="1.0" encoding="UTF-8"?>
<svg data-name="Layer 1" version="1.1" viewBox="0 0 48 48" xmlns="http://www.w3.org/2000/svg">
    <path d="m24.16 4a20.814 20.219 0 0 0-0.50346 0.032692 0.34593 0.34593 0 0 0-0.01308 0.00872l-1.1159 2.0182a17.854 17.854 0 0 0-10.368 4.4636l-1.8634-0.50128a0.2455 0.2455 0 0 0-0.30077 0.31166l0.49038 1.8634a17.854 17.854 0 0 0-4.3742 10.39l-2.0073 1.1159a0.34593 0.34593 0 0 0 0 0.59282l2.0182 1.1159a17.854 17.854 0 0 0 4.4636 10.366l-0.50128 1.8634a0.2455 0.2455 0 0 0 0.31166 0.30077l1.8634-0.49038a17.854 17.854 0 0 0 10.39 4.3742l1.1159 2.0095a0.34593 0.34593 0 0 0 0.59064 0l1.1159-2.0204a17.854 17.854 0 0 0 10.368-4.4636l1.8634 0.50128a0.2455 0.2455 0 0 0 0.30077-0.31166l-0.49038-1.8634a17.854 17.854 0 0 0 4.3742-10.39l2.0095-1.1159a0.34593 0.34593 0 0 0 0-0.59064l-2.0204-1.1159a17.854 17.854 0 0 0-4.4636-10.368l0.50128-1.8634a0.2455 0.2455 0 0 0-0.31166-0.30077l-1.8634 0.49038a17.854 17.854 0 0 0-10.39-4.3742l-1.1159-2.0073a0.34593 0.34593 0 0 0-0.0741-0.04141zm-0.12641 4.627a15.232 15.232 0 0 1 15.243 15.243 15.243 15.243 0 1 1-15.243-15.243zm-2.7679 5.5359a0.76996 0.76996 0 0 0-0.76935 0.78025v8.9271h-5.1327a0.84808 0.84808 0 0 0-0.62551 1.4951l8.6699 9.2061a0.85924 0.85924 0 0 0 1.251 0l8.6699-9.2061v-0.05667a0.84808 0.84808 0 0 0-0.57974-1.4384h-5.1327v-8.9271a0.76996 0.76996 0 0 0-0.77153-0.78025z" fill="#fff" stroke-width="1.1159"/>
</svg>
