<?xml version="1.0" encoding="UTF-8"?>
<svg version="1.1" viewBox="0 0 48 48" xmlns="http://www.w3.org/2000/svg">
    <path d="m24.011 4c-2.8333 0-9.4117 0.27788-9.5117 2.8668a72.689 72.689 0 0 0-1.2109 8.4006c0 5 4.8674 8.9111 9.6007 9.4444v14.51c-3.8333 0.15556-6.7882 1.0896-6.7882 2.3785s3.4657 2.4002 7.9102 2.4002c4.4444 0 7.934-1.1113 7.934-2.4002 0-1.2111-2.9565-2.2118-6.8121-2.3785v-14.51c4.7333-0.55556 9.579-4.4 9.579-9.4444a75.1 75.1 0 0 0-1.1784-8.3898c-0.077774-2.6-6.6892-2.8776-9.5226-2.8776zm0 2.2222a25.556 25.556 0 0 1 6.4323 0.68793 25.422 25.422 0 0 1-6.4323 0.67925 25.389 25.389 0 0 1-6.4106-0.70095 25.556 25.556 0 0 1 6.4106-0.66623zm-7.5434 2.6454a25 25 0 0 0 7.5998 0.96571 24.956 24.956 0 0 0 7.5998-0.96571 56.2 56.2 0 0 1 0.84418 6.3997 5.6222 5.6222 0 0 1-0.41233 2.1094 8.7667 8.7667 0 0 1-1.1111 0.25608 10.689 10.689 0 0 1-6.4431-0.73351 18.478 18.478 0 0 0-8.9453-1.3889v-0.24306a54.522 54.522 0 0 1 0.86806-6.3997z" fill="#fff" stroke-width="1.1111"/>
</svg>
