<?xml version="1.0" encoding="UTF-8"?>
<!DOCTYPE svg  PUBLIC '-//W3C//DTD SVG 1.1//EN'  'http://www.w3.org/Graphics/SVG/1.1/DTD/svg11.dtd'>
<svg enable-background="new 0 0 48 48" version="1.1" viewBox="0 0 48 48" xml:space="preserve" xmlns="http://www.w3.org/2000/svg">
<g fill="#fff">
	<path d="m34.229 45.096c0.01 0.269-0.076 0.526-0.259 0.718-0.181 0.201-0.439 0.307-0.697 0.307h-6.495c-0.498 0-0.909-0.383-0.956-0.88-1.024-12.341-10.722-22.039-23.062-23.063-0.498-0.048-0.88-0.459-0.88-0.957v-6.495c0-0.268 0.105-0.517 0.306-0.698 0.172-0.163 0.411-0.258 0.65-0.258h0.067c16.749 1.12 30.217 14.578 31.326 31.326z"/>
	<path d="m45.88 45.115c9e-3 0.258-0.086 0.517-0.269 0.708-0.172 0.191-0.43 0.297-0.688 0.297h-6.38c-0.507 0-0.918-0.393-0.947-0.899-1.071-18.776-16.04-33.746-34.816-34.817-0.508-0.029-0.9-0.441-0.9-0.947v-6.38c0-0.258 0.105-0.517 0.296-0.689 0.182-0.172 0.412-0.268 0.66-0.268h0.048c11.23 0.546 21.809 5.242 29.787 13.21 7.968 7.977 12.654 18.556 13.209 29.785z"/>
	<path d="m22.551 45.067c0.028 0.268-0.058 0.536-0.239 0.736-0.182 0.201-0.44 0.316-0.717 0.316h-6.667c-0.469 0-0.871-0.345-0.947-0.813-0.871-5.767-5.52-10.415-11.288-11.286-0.468-0.076-0.813-0.479-0.813-0.946v-6.667c0-0.278 0.115-0.536 0.315-0.718 0.172-0.153 0.402-0.239 0.641-0.239h0.096c10.302 1.062 18.557 9.316 19.619 19.617z"/>
</g>
</svg>
