<?xml version="1.0" encoding="UTF-8"?>
<svg enable-background="new 0 0 48 48" version="1.1" viewBox="0 0 48 48" xml:space="preserve" xmlns="http://www.w3.org/2000/svg">
<g transform="matrix(1.4997 0 0 1.4997 -11.997 -12.368)">
	<path d="m24.002 10.914c-7.33 0-13.291 5.963-13.291 13.291 0 0.024 0.0047 0.04736 0.01367 0.06836v8.707c0 0.959 0.67547 2.0887 1.8555 3.0957 1.074 0.917 2.3216 1.5098 3.1816 1.5098h2.7812c0.478-1e-6 1.1545-0.31667 1.6465-0.76367 0.394-0.358 0.61133-0.75047 0.61133-1.1055v-9.8164c0-0.925-1.4478-1.8672-2.2578-1.8672h-2.7812c-0.736 0-1.741 0.42081-2.707 1.1328v-0.95898c-1e-6 -6.035 4.9113-10.945 10.947-10.945s10.945 4.9103 10.945 10.945c0 0.024 0.0056 0.04736 0.01563 0.06836v0.89453c-0.969-0.713-1.9759-1.1367-2.7129-1.1367h-2.7793c-0.811 0-2.2578 0.94219-2.2578 1.8672v9.8164c0 0.355 0.21438 0.74747 0.60938 1.1055 0.492 0.448 1.1694 0.76367 1.6484 0.76367h2.7773c0.861 0 2.1106-0.59277 3.1836-1.5098 1.179-1.007 1.8574-2.1367 1.8574-3.0957v-3.459c1e-3 -0.011 0.0039-0.0202 0.0039-0.0332h2e-3v-5.2832c0-7.328-5.963-13.291-13.293-13.291zm-8.1914 15.898h2.209v7.9922h-2.209c-0.184-0.038-0.753-0.27978-1.375-0.80078-0.624-0.52-0.87859-0.95566-0.93359-1.0977v-4.1934c0.028-0.076 0.12041-0.24828 0.31641-0.48828 0.167-0.202 0.37519-0.40733 0.61719-0.61133 0.623-0.52 1.192-0.76178 1.375-0.80078zm14.18 0h2.2109c0.183 0.039 0.752 0.28078 1.375 0.80078 0.241 0.204 0.44723 0.40738 0.61523 0.60938 0.195 0.24 0.29036 0.41424 0.31836 0.49024v4.1914c-0.055 0.142-0.3106 0.57961-0.93359 1.0996-0.623 0.521-1.192 0.76278-1.375 0.80078h-2.2109z" fill="#fff"/>
	
	
</g>
</svg>
