<?xml version="1.0" encoding="UTF-8"?>
<svg version="1.1" viewBox="0 0 48 48" xmlns="http://www.w3.org/2000/svg">
    <path d="m35.545 6.2088c-0.08185-0.0095-0.16883-0.0087-0.25781 2e-3 -5.9063 1.0673-11.872 2.1516-17.873 3.2305-0.54713 0.11823-0.86133 0.57079-0.86133 1.1543v23.711c-1.1346-0.3326-2.4718-0.32774-3.7578 0.01367-2.8992 0.77255-4.7683 3.0151-4.1738 5.0078 0.59422 1.9912 3.4233 2.9791 6.3203 2.207 2.503-0.66756 4.2954-2.4575 4.2812-4.2754h2e-3v-25.463l14.605-2.6953v21.916c-1.1347-0.33368-2.4727-0.32951-3.7598 0.01172-2.8986 0.77312-4.7666 3.0155-4.1719 5.0078 0.59404 1.9919 3.4245 2.98 6.3223 2.207 2.5013-0.66781 4.2924-2.4565 4.2792-4.2734h2e-3v-26.547c0-0.61033-0.38403-1.1471-0.95703-1.2148zm-23.551 13.409c-0.81537 3.0429-2.9806 5.5921-6.6543 5.5918-0.47175 4.3e-5 -0.91685-0.044753-1.3398-0.12695v2.3008c0.4317 0.0569 0.87385 0.09569 1.3398 0.0957 3.7726-1.06e-4 6.4093-1.9262 8.0039-4.623 0.57284 0.96568 1.2867 1.8283 2.1328 2.5449v-3.8164c-0.33456-0.62158-0.60197-1.2831-0.78516-1.9668zm16.002 0c-0.81537 3.0429-2.9787 5.5921-6.6523 5.5918-0.36335 2e-5 -0.70858-0.03259-1.043-0.08203v2.2852c0.3405 0.03455 0.68178 0.06641 1.043 0.06641 3.7726-1.05e-4 6.4093-1.9262 8.0039-4.623 0.83958 1.4152 1.9757 2.612 3.4062 3.4375v-2.9766c-0.99684-1.0079-1.6894-2.3142-2.0605-3.6992zm16.004 0c-0.79768 2.9769-2.8897 5.4752-6.4199 5.582v2.2695c2.7408-0.059263 4.8671-1.1475 6.4199-2.8027z" fill="#fff"/>
</svg>
