<?xml version="1.0" encoding="UTF-8"?>
<svg version="1.1" viewBox="0 0 48 48" xmlns="http://www.w3.org/2000/svg">
    <path d="m4 17.611v5.3887h12.73a6.1112 6.1112 0 0 0-6.0645-5.3887h-6.666zm13.633 0v6.666a6.1112 6.1112 0 0 0 5.3672 6.0586v-12.725h-5.3672zm7.3672 0.044922v12.732h5.3672v-12.732h-5.3672zm12.334 0a6.1112 6.1112 0 0 0-5.9805 5.3438h12.559a6.1223 6.1223 0 0 0-6.0781-5.3438h-0.5zm-33.334 7.3438v5.3887h6.666a6.1112 6.1112 0 0 0 6.0195-5.3887h-12.686zm27.303 0a6.1112 6.1112 0 0 0 6.0312 5.3887h0.54492a6.1223 6.1223 0 0 0 6.0391-5.3887h-12.615z" fill="#fff" stroke-width="1.1111"/>
</svg>
