<?xml version="1.0" encoding="UTF-8"?>
<svg version="1.1" viewBox="0 0 48 48" xmlns="http://www.w3.org/2000/svg">
    <path d="m19.036 4.0059c-11.522 0-14.521 16.321-5.1748 16.027 2.9655 0 5.4457-1.8761 5.3366-4.2054-0.31214-6.6651-8.9342-1.4549-7.9851-4.448 1.3968-4.4046 4.7233-5.3861 7.7945-5.3861 5.2847 0 7.8192 4.828 7.8192 11.532-1.4701 15.372-16.616 23.127-19.898 25.51 0.44356 1.0519 0.44554 0.96286 0.44554 0.96286 15.36-6.9449 26.676-16.488 26.765-25.866 0-7.4645-4.2746-14.363-15.102-14.126zm19.34 4.1881c-0.6205 0.01556-1.2484 0.2534-1.7624 0.76732-1.6445 1.6445-0.4795 4.4579 1.8465 4.4579 1.4418 0 2.6114-1.1695 2.6114-2.6114 0-1.5991-1.3304-2.6481-2.6955-2.6138zm0 11.025c-0.6205 0.01556-1.2484 0.25588-1.7624 0.76979-1.6445 1.6445-0.4795 4.4554 1.8465 4.4554 1.4418 0 2.6114-1.1671 2.6114-2.6089 0-1.5991-1.3304-2.6505-2.6955-2.6163z" fill="#fff" stroke-width="1.2673"/>
</svg>
