<?xml version="1.0" encoding="UTF-8"?>
<svg version="1.1" viewBox="0 0 48 48" xmlns="http://www.w3.org/2000/svg">
    <path d="m26.1 4.0029c-0.25905-0.00459-0.51709-0.00354-0.77602 0.00231-2.0715 0.046762-4.1749 0.42373-6.8572 1.0924-1.0201 0.34222-1.5566 2.7953-1.5798 3.8131-0.02315 1.0179 0.19862 1.5705 0.19862 1.5705s6.6202-0.61436 6.5939 0.41111c-0.02637 1.0255-6.4507 0.75062-6.4507 0.75062s0.28819 1.9712 0.91691 3.0995c0.64044 1.1178 2.7794 2.2218 4.3004 2.2218 1.1383 0 1.8344 0.01673 0.80374 1.4712-1.3248 1.8693-4.3281 5.4012-6.5153 4.6261-1.044-0.37002-1.7312-0.32292-2.6837 0.71597-1.1878 1.2956-0.4384 3.3827 1.4065 3.7392 0.83402 0.16116 1.3458 0.05985 2.1826-0.82914 0.5896-0.62649 1.5739-1.4943 2.6329-2.0463 1.059-0.55199 2.6219-1.6929 3.4736-2.5359 1.1365-1.125 1.7082-1.4915 2.1479-1.3765 0.32954 0.08617 0.59818 0.24606 0.59818 0.35568 0 0.45573-3.9933 4.5285-5.6931 5.8063-1.4947 1.1235-1.8584 1.3753-2.6837 1.2102-1.5804-0.36409-3.1231 0.49404-2.9701 2.5382 0 0.97209 1.135 1.9655 2.1779 1.9655 0.74651 0 2.1445-0.72931 2.3558-1.5151 0.18068-0.53756 0.6352-0.74264 1.4088-1.2218 0.77371-0.47915 2.8587-2.3312 4.633-4.118 2.5572-2.5753 3.3196-3.1883 3.6838-2.9586 0.81019 0.51096 0.70093 0.88801-0.77602 2.6583-2.019 2.4202-4.8822 5.0305-7.3976 6.7463-1.8196 1.2412-1.9885 2.0208-3.7485 1.5751-1.651 0.03228-2.5596 0.97894-2.8061 2.1479-0.09872 0.62069 0.07899 1.2661 0.80143 1.9886 0.49287 0.4929 1.3754 0.42083 1.6213 0.40649 0.55424-0.03228 1.5684-0.62286 1.9701-1.3072 0.1484-0.39034 0.97096-1.101 1.8454-1.5959 2.6605-1.5058 5.1118-3.5167 8.0443-6.6008 2.6967-2.8361 2.8109-2.9206 2.9978-2.1756 0.60367 2.4052-1.6356 6.0403-5.8756 9.534-3.1449 2.5912-4.4785 3.575-5.5453 3.3558-1.8415 0.06539-3.0363 2.4358-1.7299 3.8224 0.53236 0.56496 0.93356 0.70575 1.8731 0.63744 1.0245-0.19074 1.1067-0.59472 1.7414-1.5151 0.33938-0.80364 1.1982-1.2791 1.85-1.7091 2.162-1.4263 6.0854-4.8681 7.3168-6.4183 3.0197-3.802 3.734-7.4778 2.0301-10.449-1.0975-1.9135-3.5713-4.3703-5.9518-5.5499-2.0499-1.0158-2.0626-1.2365-0.65361-1.5451 1.8613-0.40773 3.4742-1.055 4.4136-1.7715 0.92058-0.70217 2.1779-3.3835 2.1779-3.3835s-6.5129 0.09998-6.5177-0.82452c-0.0047-0.9245 6.8133-0.3372 6.8133-0.3372s8.28e-4 -0.49988 0-1.5705-0.7225-3.6903-1.9077-4.0094c-2.2356-0.57593-4.0784-0.86627-5.8918-0.89843zm-0.74369 3.73c2.6939 0.01268 5.3877 0.35135 5.3813 0.97696-0.01265 1.2512-10.749 1.3527-10.763 0-0.0066-0.67634 2.6874-0.98964 5.3813-0.97696zm-0.98619 4.1942c0.26311-0.0038 0.52996-0.0039 0.79681 0 2.1347 0.03112 4.2549 0.30375 4.2196 0.7229-0.07048 0.83829-8.5596 1.0873-8.5224 0 0.01624-0.47568 1.6642-0.69605 3.506-0.7229zm-8.6471 12.285a1.0222 1.0222 0 0 1 1.0208 1.0208 1.0222 1.0222 0 0 1-1.0208 1.0231 1.0222 1.0222 0 0 1-1.0231-1.0231 1.0222 1.0222 0 0 1 1.0231-1.0208zm1.7276 5.125a1.0222 1.0222 0 0 1 1.0231 1.0231 1.0222 1.0222 0 0 1-1.0231 1.0208 1.0222 1.0222 0 0 1-1.0231-1.0208 1.0222 1.0222 0 0 1 1.0231-1.0231zm-0.50811 5.7232a1.0222 1.0222 0 0 1 1.0231 1.0231 1.0222 1.0222 0 0 1-1.0231 1.0231 1.0222 1.0222 0 0 1-1.0208-1.0231 1.0222 1.0222 0 0 1 1.0208-1.0231zm3.4251 5.7093a1.0222 1.0222 0 0 1 1.0231 1.0208 1.0222 1.0222 0 0 1-1.0231 1.0231 1.0222 1.0222 0 0 1-1.0208-1.0231 1.0222 1.0222 0 0 1 1.0208-1.0208z" fill="#fff" stroke-width="1.1825"/>
</svg>
