<?xml version="1.0" encoding="UTF-8" standalone="no"?>
<!-- Created with Inkscape (http://www.inkscape.org/) -->

<svg
   width="48"
   height="48"
   viewBox="0 0 48 48"
   version="1.1"
   id="svg1"
   xml:space="preserve"
   xmlns="http://www.w3.org/2000/svg"
   xmlns:svg="http://www.w3.org/2000/svg"><defs
     id="defs1" /><path
     style="color:#000000;fill:#fff;stroke-linecap:round;stroke-linejoin:round;stroke-miterlimit:0;-inkscape-stroke:none;paint-order:stroke fill markers;stroke:none"
     d="m 42.994141,16.171875 a 0.94792998,0.94792998 0 0 0 -0.652344,0.318359 c -1.274036,1.442854 -1.378654,3.331861 -1.263672,4.775391 0.05749,0.721765 0.175672,1.353257 0.267578,1.792969 0.01816,0.08689 0.0258,0.120785 0.04102,0.191406 L 26.851562,40.058594 10.648438,35.779297 C 7.4033353,34.922215 6.180306,33.169421 5.9375,31.197266 5.694694,29.22511 6.6027596,26.932396 8.1523438,25.382812 a 0.94792998,0.94792998 0 0 0 0,-1.341796 0.94792998,0.94792998 0 0 0 -1.3398438,0 c -1.9347964,1.934795 -3.0862891,4.704806 -2.7558594,7.388671 0.3304298,2.683866 2.3122029,5.180703 6.1093754,6.183594 l 16.773437,4.429688 a 0.94802477,0.94802477 0 0 0 0.960938,-0.296875 L 43.080078,24.1875 c 4.74e-4,-3.16e-4 0.0097,-0.0058 0.0098,-0.0059 3.92e-4,-4.2e-4 0.08109,-0.09597 0.109375,-0.140625 0.02828,-0.04466 0.04781,-0.08568 0.06445,-0.123047 0.03329,-0.07473 0.0496,-0.134861 0.06055,-0.183594 0.04379,-0.194931 0.02582,-0.254647 0.02148,-0.3125 -0.0087,-0.115707 -0.02112,-0.17058 -0.03516,-0.242188 -0.02807,-0.143215 -0.06701,-0.307075 -0.109375,-0.509765 -0.08473,-0.40538 -0.186534,-0.954074 -0.234375,-1.554688 -0.09568,-1.201226 0.05413,-2.532147 0.794922,-3.371093 a 0.94792998,0.94792998 0 0 0 -0.08203,-1.337891 0.94792998,0.94792998 0 0 0 -0.685546,-0.234375 z m -0.46875,6.427734 a 0.94802477,0.94802477 0 0 0 -0.841797,0.314453 c 0.0045,-0.0055 0.0196,-0.02547 0.01953,-0.02539 -7.84e-4,8.39e-4 0.381838,-0.248385 0.380859,-0.248047 -9.79e-4,3.38e-4 0.442585,-0.04085 0.441407,-0.04102 z"
     id="path7" /><path
     id="path8"
     style="color:#000000;fill:#fff;stroke-width:1;stroke-linecap:round;stroke-linejoin:round;stroke-miterlimit:0;paint-order:stroke fill markers;stroke:none;fill-opacity:1;stroke-dasharray:none"
     d="m 24.008331,5.9259952 c -0.247379,0.0096 -0.484915,0.116142 -0.657873,0.302399 L 6.7870107,24.066855 c -0.486684,0.524614 -0.238904,1.378679 0.452981,1.561367 L 26.766334,30.78567 c 0.357045,0.09429 0.736352,-0.02733 0.971997,-0.311656 L 43.273005,11.721566 c 0.450117,-0.543453 0.169945,-1.370611 -0.517782,-1.528658 L 24.257039,5.9494462 c -0.08258,-0.01894 -0.166249,-0.02665 -0.248708,-0.02345 z m -2.124817,5.9560278 13.548714,3.248013 -2.209365,2.525958 -13.740027,-3.410321 z" /></svg>
