<?xml version="1.0" encoding="UTF-8" standalone="no"?>
<!-- Created with Inkscape (http://www.inkscape.org/) -->

<svg
   width="48"
   height="48"
   viewBox="0 0 48 48"
   version="1.1"
   id="svg1"
   xml:space="preserve"
   xmlns="http://www.w3.org/2000/svg"
   xmlns:svg="http://www.w3.org/2000/svg"><defs
     id="defs1" /><path
     d="m 32.39749,43.999999 c -5.362569,0 -7.98583,-3.742499 -8.518423,-4.515736 -1.582812,1.557771 -3.972148,4.515736 -8.275946,4.515736 -4.970148,0 -9.1600371,-3.756242 -9.1600371,-9.846238 V 13.845932 c 0,-6.1037391 4.1966071,-9.8459327 9.1597321,-9.8459327 4.96343,0 9.159732,3.9745919 9.159732,9.7534007 0.980643,-0.347762 2.013681,-0.524704 3.05416,-0.523125 5.113374,0 9.159732,4.192027 9.159732,9.230582 0,1.412407 -0.266907,2.668763 -0.850499,3.872287 3.242583,1.452719 5.430973,4.721871 5.430973,8.436274 0,5.089857 -4.10957,9.230581 -9.159424,9.230581 z m -6.303767,-6.747185 c 1.317128,2.30627 3.534226,3.670121 6.303767,3.670121 3.366569,0 6.106792,-2.761295 6.106792,-6.153517 0,-2.683727 -1.712295,-5.01901 -4.17584,-5.840803 l -8.235024,8.325418 v -0.0013 z M 15.604037,7.076758 c -3.039196,0 -6.1070984,2.093112 -6.1070984,6.769174 v 20.308134 c 0,4.675757 3.0666814,6.768869 6.1070984,6.768869 2.412546,0 3.746469,-1.22704 5.897605,-3.394972 l 0.952802,-0.960132 c -0.49167,-1.475926 -0.74514,-3.114014 -0.74514,-4.876699 V 13.844406 c 0,-4.6757575 -3.06607,-6.7691752 -6.106793,-6.7691752 z m 9.159732,10.052068 v 14.563833 c 0,0.824541 0.06871,1.609076 0.199417,2.347804 l 6.636942,-6.687942 c 1.928204,-1.942251 2.323373,-3.360157 2.323373,-4.890443 0,-3.269151 -2.607076,-6.153517 -6.107098,-6.153517 -1.0887,0 -2.13037,0.282176 -3.052634,0.821792 z"
     id="path1"
     style="fill:#fff;fill-opacity:1;stroke:none;stroke-width:1;stroke-dasharray:none;stroke-opacity:1" /></svg>
