<?xml version="1.0" encoding="UTF-8" standalone="no"?>
<!-- Created with Inkscape (http://www.inkscape.org/) -->

<svg
   width="48"
   height="48"
   viewBox="0 0 48 48"
   version="1.1"
   id="svg1"
   xmlns="http://www.w3.org/2000/svg"
   xmlns:svg="http://www.w3.org/2000/svg">
  <defs
     id="defs1" />
  <g
     id="layer1">
    <path
       id="path1-1"
       style="display:inline;fill:#fff;fill-opacity:1;stroke:none;stroke-width:0;stroke-dasharray:none;stroke-opacity:1"
       d="m 15.385096,18.614841 v 8.926563 1.21102 h 1.582879 c 0,0 0.0517,-0.51651 0.0517,-0.982338 0.71242,0.864692 1.805414,1.320608 2.921168,1.218975 v -0.0338 c 2.13431,0.103298 3.891078,-1.660312 3.778228,-3.794138 0.09816,-2.121657 -1.657281,-3.86485 -3.778228,-3.752378 -2.219039,0 -2.895317,1.203069 -2.895317,1.203069 v -3.996968 z m -3.955209,2.785947 c -2.244447,0 -4.124235,0.956743 -4.124235,3.827942 0,2.312203 1.251931,3.710618 4.173948,3.710618 3.447133,0 3.684769,-2.245064 3.684768,-2.245064 H 13.47013 c -0.351641,0.822081 -1.20458,1.312845 -2.091945,1.203067 -1.325395,0.08857 -2.445791,-0.968435 -2.437952,-2.296764 h 6.367311 v -0.811325 c 0,-1.346668 -0.837066,-3.388474 -3.877657,-3.388474 z m 16.327914,0.0338 c -3.379375,0 -3.607214,1.855164 -3.607214,2.151601 h 1.694237 c 0,0 0.10173,-1.083754 1.795654,-1.083754 1.126458,0 1.972632,0.507457 1.972632,1.481463 v 0.355948 h -1.972632 c -2.617111,0 -4.006912,0.796614 -4.006912,2.312673 0,1.516063 1.312752,2.362389 3.006675,2.362389 2.354553,0 3.108091,-1.304484 3.108091,-1.304484 0,0.516646 0.04375,1.024099 0.04375,1.024099 h 1.489419 c 0,0 -0.04971,-0.635455 -0.04971,-1.041995 v -3.479946 c 0.0084,-2.286796 -1.839347,-2.777993 -3.473982,-2.777993 z m 10.038158,0.254533 -2.762083,5.478432 -2.718337,-5.444627 H 30.41847 l 3.726527,6.995688 -1.43175,2.70044 h 1.829459 l 4.945502,-9.729934 z m -26.143355,0.757635 a 2.0581161,2.0581161 0 0 1 1.996495,2.087968 H 8.997901 a 2.2105691,2.2105691 0 0 1 2.364376,-2.076037 2.0581161,2.0581161 0 0 1 0.290327,-0.01193 z m 7.882578,0.07953 a 2.4646575,2.4646575 0 0 1 2.497609,2.668623 2.540884,2.540884 0 1 1 -4.987263,0 2.4646575,2.4646575 0 0 1 2.489654,-2.668623 z m 10.028215,2.821741 v 0.465319 c 0,0.609812 -0.347725,2.117796 -2.541356,2.117796 -1.168806,0 -1.694238,-0.61049 -1.694238,-1.296528 0,-1.278912 1.745527,-1.286587 4.235594,-1.286587 z" />
    <path
       style="baseline-shift:baseline;display:inline;overflow:visible;vector-effect:none;fill:#fff;stroke:none;stroke-linecap:round;stroke-linejoin:round;enable-background:accumulate;stop-color:#000000"
       d="m 32.990431,11.823985 c -1.473724,-0.0038 -3.006742,0.137901 -4.546875,0.396484 -3.15082,0.529013 -6.317946,1.545075 -9.091797,2.828125 -1.917206,0.02723 -3.856823,0.213719 -5.705078,0.71875 -2.602321,0.711078 -4.996809,1.884264 -6.7578123,3.519531 -1.7610037,1.635268 -2.8839659,3.761136 -2.8554688,6.265625 0.028272,2.484699 1.0449915,4.520409 2.6503906,6.076172 1.6053995,1.555764 3.7853245,2.652541 6.1953125,3.382813 4.819977,1.460543 10.574398,1.467406 14.695313,0.464843 3.964823,-0.964588 8.743317,-3.764325 12.138672,-7.248046 1.697677,-1.741861 3.049155,-3.657434 3.748046,-5.63086 0.698892,-1.973426 0.727478,-4.029843 -0.253906,-5.914062 -1.216463,-2.335564 -3.409586,-3.725213 -6.021484,-4.378906 -1.305949,-0.326847 -2.721588,-0.476695 -4.195313,-0.480469 z m -0.0039,1.001953 c 1.407653,0.0037 2.745077,0.144432 3.955078,0.447266 2.420003,0.605667 4.313228,1.82503 5.378906,3.871093 0.842333,1.617247 0.827945,3.338323 0.197266,5.119141 -0.630679,1.780818 -1.895201,3.597017 -3.521484,5.265625 -3.252566,3.337216 -7.950937,6.074634 -11.658203,6.976562 C 23.429622,35.456504 17.774738,35.45033 13.168172,34.054453 10.864882,33.356515 8.82691,32.312966 7.379103,30.909922 5.9312959,29.506879 5.0586993,27.764242 5.0333999,25.540782 5.0083259,23.337113 5.9671998,21.50813 7.570509,20.019297 c 1.60331,-1.488832 3.858063,-2.608968 6.339844,-3.287109 1.12145,-0.306434 2.293535,-0.491306 3.464844,-0.611328 -1.769109,0.985167 -3.373775,2.040008 -4.484375,3.173828 a 0.5,0.5 0 0 0 0.0078,0.707031 0.5,0.5 0 0 0 0.707031,-0.0078 c 1.357777,-1.386166 3.508798,-2.75509 6.005859,-3.929688 3.227492,0.0046 6.30958,0.654201 8.337891,2.152344 a 0.5,0.5 0 0 0 0.699218,-0.105469 0.5,0.5 0 0 0 -0.105468,-0.699219 c -1.744937,-1.288838 -4.065266,-2.018491 -6.56836,-2.300781 2.13176,-0.818636 4.373233,-1.524592 6.634766,-1.904297 1.491997,-0.250501 2.9693,-0.384587 4.376953,-0.380859 z"
       id="path5" />
  </g>
</svg>
