<?xml version="1.0" encoding="UTF-8" standalone="no"?>
<!-- Created with Inkscape (http://www.inkscape.org/) -->

<svg
   width="48"
   height="48"
   viewBox="0 0 48 48"
   version="1.1"
   id="svg1"
   xml:space="preserve"
   xmlns="http://www.w3.org/2000/svg"
   xmlns:svg="http://www.w3.org/2000/svg"><defs
     id="defs1" /><g
     id="layer1"
     transform="matrix(0.28043021,0,0,0.28043021,15.231449,18.327039)"><g
       id="g4"
       transform="matrix(1.09611,0,0,1.09611,4.6176108,-1.2271242)"
       style="fill:#fff;fill-opacity:1;stroke:none;stroke-width:3.56595;stroke-dasharray:none"><path
         id="rect1"
         style="fill:#fff;fill-opacity:1;stroke:none;stroke-width:3.56595;stroke-miterlimit:0;stroke-dasharray:none"
         d="m 62.877596,33.804216 c -1.938994,0 -3.496302,1.564273 -3.496302,3.503267 v 34.997845 c 0,1.938994 1.557308,3.496303 3.496302,3.496303 H 85.88215 c 1.938994,0 3.496302,-1.557309 3.496302,-3.496303 V 37.307483 c 0,-1.938994 -1.557308,-3.503267 -3.496302,-3.503267 z m -0.494497,9.311865 h 23.993548 c 0.554,0 1.002923,0.448926 1.002923,1.002923 V 56.11926 c 0,0.554 -0.448923,0.995959 -1.002923,0.995959 H 62.383099 c -0.553997,0 -1.002923,-0.441959 -1.002923,-0.995959 V 44.119004 c 0,-0.553997 0.448926,-1.002923 1.002923,-1.002923 z m -1.002923,21.576781 h 3.997764 v 3.001805 h -3.997764 z m 22.001631,0.619862 h 3.997763 v 3.001805 h -3.997763 z" /></g><g
       id="g8"
       transform="matrix(1.09611,0,0,1.09611,-105.13621,-1.2264851)"
       style="fill:#fff;fill-opacity:1;stroke:none;stroke-width:3.56595;stroke-dasharray:none"><path
         id="rect5"
         style="fill:#fff;fill-opacity:1;stroke:none;stroke-width:3.56595;stroke-miterlimit:0;stroke-dasharray:none"
         d="m 62.882712,33.803633 c -1.938992,0 -3.503267,1.564274 -3.503267,3.503267 v 34.997845 c 0,1.938992 1.564275,3.496302 3.503267,3.496302 h 3.496302 v -4.993722 h 20.002748 v 4.993722 h 3.496303 c 1.938992,0 3.503267,-1.55731 3.503267,-3.496302 V 37.3069 c 0,-1.938993 -1.564275,-3.503267 -3.503267,-3.503267 z m -0.501462,9.311865 h 27.998276 c 0.554,0 1.002924,0.448923 1.002924,1.002923 v 12.000256 c 0,0.554 -0.448924,0.995959 -1.002924,0.995959 H 62.38125 c -0.553997,0 -1.002923,-0.441959 -1.002923,-0.995959 V 44.118421 c 0,-0.554 0.448926,-1.002923 1.002923,-1.002923 z m -1.002923,21.576781 h 4.004728 v 3.001805 h -4.004728 z m 25.999394,0.619862 h 4.004729 v 3.001805 h -4.004729 z" /></g><g
       id="g14"
       style="fill:#fff;fill-opacity:1;stroke:none;stroke-width:3.56595;stroke-dasharray:none"
       transform="matrix(1.09611,0,0,1.09611,3.8502578,-1.9442573)"><path
         id="rect9"
         style="fill:#fff;fill-opacity:1;stroke:none;stroke-width:3.56595;stroke-miterlimit:0;stroke-dasharray:none"
         d="m 17.060131,21.998538 v 1.998882 h 9.318829 v 5.418572 h -1.650645 c -7.395971,0 -13.351417,10.381965 -13.351417,23.276179 0,0.637596 0.02018,1.270064 0.04875,1.894411 -0.02645,0.196083 -0.04875,0.388444 -0.04875,0.592003 v 16.381081 c 0,2.442699 1.97295,4.408684 4.415649,4.408684 h 8.935768 5.300171 8.942733 c 2.442699,0 4.408684,-1.965985 4.408684,-4.408684 V 55.178585 c 0,-0.208536 -0.02101,-0.405264 -0.04875,-0.605933 0.02816,-0.619863 0.04875,-1.24757 0.04875,-1.880481 0,-12.894214 -5.95544,-23.276179 -13.351417,-23.276179 H 28.377842 V 23.99742 h 9.325794 v -1.998882 z m 10.321752,12.216164 a 1.5,1.5 0 0 1 1.49742,1.49742 1.5,1.5 0 0 1 -1.49742,1.504385 1.5,1.5 0 0 1 -1.504385,-1.504385 1.5,1.5 0 0 1 1.504385,-1.49742 z M 17.380509,40.970505 H 37.383257 L 34.381452,59.97033 H 20.382314 Z m 1.49742,21.994666 a 1.5,1.5 0 0 1 1.504385,1.504385 1.5,1.5 0 0 1 -1.504385,1.49742 1.5,1.5 0 0 1 -1.49742,-1.49742 1.5,1.5 0 0 1 1.49742,-1.504385 z m 17.000944,0 a 1.5,1.5 0 0 1 1.504384,1.504385 1.5,1.5 0 0 1 -1.504384,1.49742 1.5,1.5 0 0 1 -1.497421,-1.49742 1.5,1.5 0 0 1 1.497421,-1.504385 z" /></g><g
       id="g15"
       style="fill:#fff;fill-opacity:1;stroke:none;stroke-width:3.56595;stroke-dasharray:none"
       transform="matrix(1.09611,0,0,1.09611,-9.8606307,-1.9442573)"><path
         id="rect14"
         style="fill:#fff;fill-opacity:1;stroke:none;stroke-width:3.56595;stroke-miterlimit:0;stroke-dasharray:none"
         d="M 0.00346922,-35.996896 A 18,18 0 0 0 -18.000397,-17.999994 18,18 0 0 0 0.00346922,-0.00309212 18,18 0 0 0 17.721781,-14.998189 H 102.5872 v -6.00361 H 17.742676 A 18,18 0 0 0 0.00346922,-35.996896 Z m 0,3.997764 A 14,14 0 0 1 14.002607,-17.999994 14,14 0 0 1 0.00346922,-4.000856 14,14 0 0 1 -14.002634,-17.999994 14,14 0 0 1 0.00346922,-31.999132 Z" /></g></g></svg>
