<?xml version="1.0" encoding="UTF-8"?>
<svg version="1.1" viewBox="0 0 48 48" xmlns="http://www.w3.org/2000/svg">
    <path d="m31.342 8.7949c-5.2916-0.01088-9.9813 0.73779-14.347 2.271-5.105 1.7926-7.5977 3.7113-7.1485 5.5012 0.06119 0.2438 0.26282 0.44029 0.6013 0.58172 0.62819 0.26247 1.1011 0.1686 3.2023-0.63486 3.8583-1.4754 9.6799-2.1564 13.173-1.541 3.4704 0.61144 6.7612 2.0284 9.4138 4.0525 1.7361 1.3246 2.1488 1.4734 3.2246 1.1746 0.29744-0.08259 0.74747-0.33334 1.0012-0.55655 1.2226-1.0752 3.5379-6.0729 3.5379-7.6351 0-1.5147-2.458-2.5292-7.1569-2.9506-1.9075-0.17104-3.7375-0.25932-5.5012-0.2629zm-7.087 7.1569c-1.7056-0.01389-3.776 0.17782-5.2914 0.53977-1.6542 0.39507-2.783 1.0122-3.8847 2.1255-1.5449 1.5612-2.275 3.0478-4.3713 8.8937-1.1019 3.0728-2.0546 5.0216-2.6653 5.4565-0.28102 0.20013-0.85144 0.36267-1.692 0.47824-1.4429 0.19838-1.9408 0.45817-2.2402 1.1746-0.57707 1.3811 1.1479 2.8704 4.4245 3.8204 1.0611 0.30764 1.8377 0.45824 3.756 0.72715 0.84598 0.11858 4.5993-0.06315 5.5515-0.26849 1.8326-0.39521 3.3075-1.4911 4.0832-3.0345 0.23159-0.46079 0.78871-2.1586 1.2362-3.7728 1.1308-4.0796 1.0509-3.8651 1.4319-3.8651 0.56103 0 2.2679 0.78742 3.742 1.7256 2.325 1.4797 3.1897 1.5883 4.1644 0.52579 1.0967-1.1955 2.7999-5.0501 2.8191-6.3794 0.01017-0.70654-0.02993-0.8076-0.50062-1.239-1.1662-1.0687-4.1529-1.0447-7.6016 0.06432-0.72218 0.23225-1.347 0.38982-1.3872 0.34959-0.12224-0.12229 0.40129-1.4654 1.2921-3.3197 0.96744-2.0139 1.072-2.6812 0.50621-3.247-0.1868-0.1868-0.58961-0.41197-0.89496-0.50062-0.56189-0.16314-1.4545-0.2462-2.4779-0.2545z" fill="#fff" stroke-width="1.4319"/>
</svg>
