<?xml version="1.0" encoding="UTF-8" standalone="no"?>
<svg
   version="1.1"
   viewBox="0 0 48 48"
   id="svg1"
   xmlns="http://www.w3.org/2000/svg"
   xmlns:svg="http://www.w3.org/2000/svg">
  <defs
     id="defs1" />
  <path
     d="m 24.255034,15.95188 c 1.023375,0.0083 1.916044,0.09137 2.477927,0.254509 0.305341,0.08865 0.708152,0.313818 0.894945,0.500611 0.565765,0.565763 0.46122,1.233107 -0.50621,3.247007 -0.890793,1.854328 -1.414315,3.197463 -1.292072,3.319748 0.04022,0.04022 0.664995,-0.117345 1.387166,-0.349587 3.44862,-1.109003 6.435306,-1.132959 7.601456,-0.06432 0.470685,0.431349 0.510778,0.5324 0.500613,1.238935 -0.01922,1.329245 -1.72245,5.183813 -2.819153,6.379318 -0.974675,1.062509 -1.839293,0.953855 -4.164291,-0.525785 -1.474155,-0.938161 -3.180996,-1.725599 -3.74202,-1.725599 -0.381018,0 -0.301088,-0.214529 -1.431914,3.865021 -0.447444,1.614196 -1.004558,3.312017 -1.236142,3.772807 -0.775782,1.543316 -2.250682,2.639159 -4.083245,3.034368 -0.952194,0.205336 -4.705554,0.38706 -5.551529,0.268484 -1.918334,-0.268914 -2.6948612,-0.419508 -3.7559092,-0.727141 -3.276505,-0.949902 -5.0013885,-2.439264 -4.424328,-3.820345 0.299357,-0.716458 0.797333,-0.976236 2.24023,-1.174614 0.840576,-0.115569 1.410936,-0.278105 1.691949,-0.478229 0.610654,-0.434815 1.563363,-2.383564 2.6652202,-5.456308 2.096322,-5.845787 2.826312,-7.332257 4.371203,-8.893472 1.101658,-1.113284 2.230493,-1.730468 3.884639,-2.125533 1.515395,-0.361944 3.585799,-0.553649 5.29135,-0.539759 z"
     id="path3"
     style="fill:#fff;fill-opacity:1;stroke:none;stroke-width:1;stroke-dasharray:none" />
  <path
     d="m 31.341861,8.7951755 c 1.763688,0.0036 3.593673,0.09184 5.501126,0.262885 4.698824,0.421383 7.156705,1.4357805 7.156705,2.9504575 0,1.562218 -2.315262,6.55974 -3.53783,7.634965 -0.253763,0.223206 -0.703785,0.473948 -1.001222,0.556541 -1.075797,0.298754 -1.488617,0.14995 -3.22467,-1.174613 -2.65262,-2.02401 -5.943301,-3.441032 -9.413686,-4.052458 -3.492724,-0.615337 -9.31417,0.06563 -13.172461,1.541025 -2.10119,0.803446 -2.574007,0.897323 -3.202189,0.634853 C 10.109159,17.007401 9.9075318,16.810913 9.8463458,16.567116 9.3971258,14.777224 11.889829,12.858603 16.994745,11.06599 21.36065,9.5328405 26.051026,8.7842355 31.34252,8.7951175 Z"
     id="path2"
     style="fill:#fff;fill-opacity:1;stroke:none;stroke-width:1;stroke-dasharray:none" />
</svg>
