<?xml version="1.0" encoding="UTF-8"?>
<svg viewBox="0 0 48 48" xmlns="http://www.w3.org/2000/svg">
  <path fill="#fff" d="M16.648 5.376c-6.897 0-8.147 1.698-8.147 7.25v4.195H4.95v4.157h3.551v20.948h6.952V20.978H19.9v-4.157h-4.446v-2.694c0-2.75.548-3.703 3.302-3.703.348 0 .748 0 1.144.053V5.53a38.431 38.431 0 0 0-3.25-.154Zm6.598.698V36.47c0 1.456-.049 3.302-.2 5.553h6.902l.201-2.401c.999 1.897 3 3.001 5.55 3.001 2.602 0 4.75-1.148 5.848-3.099C42.9 37.17 43.05 33.77 43.05 29.072c0-8.602-1.699-12.754-7.204-12.754-2.347 0-4.197.852-5.648 2.701V6.074Zm9.856 14.75c2.648 0 2.947 2.846 2.947 8.398v.6c0 5.902-.049 8.604-2.848 8.604-2.552 0-3.052-2.057-3.052-6.457v-5.395c0-3.853.952-5.75 2.953-5.75z"/>
</svg>
