<?xml version="1.0" encoding="UTF-8"?>
<!DOCTYPE svg  PUBLIC '-//W3C//DTD SVG 1.1//EN'  'http://www.w3.org/Graphics/SVG/1.1/DTD/svg11.dtd'>
<svg enable-background="new 0 0 48 48" version="1.1" viewBox="0 0 48 48" xml:space="preserve" xmlns="http://www.w3.org/2000/svg">
<g fill="#fff">
	<path d="m18.35 32.94c-1.01 0.949-1.33 2.18-1.33 2.949v8.811c-6.49-2.24-14.25-7.88-14.25-20.72-0.02-6 3.02-11.58 8.07-14.83-0.12 1.83 0.12 3.66 0.71 5.4h0.07c1.42-1.64 3.14-2.99 5.06-4-0.17 0.82-0.26 1.64-0.26 2.48 0 0.88 0.11 1.75 0.32 2.6 0.17 0.13 0.33 0.27 0.48 0.43 0.74 0.88 1.62 1.63 2.59 2.24 2.46 1.41 4.19 2.23 4.19 2.23s-1.18 2.36-2.6 2.36c-5.83 0-7 3.78-7 3.78s0.61 3.99 3.95 6.27z"/>
	<path d="m28.5 45.49c-1.45 0.319-2.96 0.5-4.5 0.51-1.05 0-2.52-0.14-4.2-0.51h8.7z"/>
	<path d="m45.23 24.9c-0.04 2.34-0.44 4.6-1.181 6.699h-13.2c1.21-1.319 2.04-3.189 2.04-5.81 0.04-3.25-1.72-6.24-4.56-7.79 1.99-0.24 3.99 0.35 5.54 1.62-1.98-3.6-5.771-5.83-9.87-5.83h-0.7c0.471-4.859 3.181-9.219 7.341-11.789 0.96 2.04 2.2 3.94 3.69 5.64 2.57 2.91 5.9 6.42 7.27 10.05-0.39-2.18-1.08-4.3-2.04-6.29 0 0 5.67 3.32 5.67 13.5z"/>
	<path d="m44.8 42.03v-9.43h-23.33c-3.45 0.46-3.45 3.29-3.45 3.29v8.601h24.4c2.81-0.381 2.38-2.461 2.38-2.461zm-17.64-0.28c0 0.06-0.05 0.12-0.11 0.12h-4.32c-0.07 0-0.12-0.061-0.12-0.12v-6.14c0-0.07 0.05-0.12 0.12-0.12h1c0.06 0 0.11 0.05 0.11 0.12v5.359h3.2c0.07 0 0.12 0.05 0.12 0.11v0.671zm2.12 0c0 0.06-0.05 0.12-0.11 0.12h-1c-0.07 0-0.12-0.061-0.12-0.12v-6.14c0-0.07 0.05-0.12 0.12-0.12h1c0.061 0 0.11 0.05 0.11 0.12v6.14zm6.61-5.47c0 0.06-0.05 0.12-0.109 0.12h-2.261v5.35c0 0.06-0.05 0.12-0.119 0.12h-1.011c-0.06 0-0.109-0.061-0.109-0.12v-5.35h-2.25c-0.07 0-0.11-0.061-0.11-0.12v-0.67c0-0.07 0.04-0.12 0.11-0.12h5.75c0.06 0 0.109 0.05 0.109 0.12v0.67zm5.23 5.47c0 0.06-0.05 0.12-0.11 0.12h-4.37c-0.06 0-0.12-0.061-0.12-0.12v-6.14c0-0.07 0.061-0.12 0.12-0.12h4.19c0.07 0 0.12 0.05 0.12 0.12v0.659c0 0.07-0.05 0.12-0.12 0.12h-3.07v1.71h2.9c0.07 0 0.109 0.051 0.109 0.11v0.66c0 0.06-0.039 0.11-0.109 0.11h-2.9v1.989h3.24c0.07 0 0.12 0.05 0.12 0.11v0.672z"/>
</g>
</svg>
