<?xml version="1.0" encoding="UTF-8"?>
<svg version="1.1" viewBox="0 0 48 48" xmlns="http://www.w3.org/2000/svg">
    <path d="m39.276 5.2184c-0.59827 0.12207-1.097 0.39197-1.6266 0.82025-2.0802 1.6823-2.0939 4.4495-2.6616 8.0236-0.41174-0.31461-1.0865-0.61907-2.4673-0.03854-0.02099 0.0089-0.04089 0.01977-0.0618 0.02875-0.02073 0.13252-0.03343 0.2624-0.02101 0.38563 0.02855 0.28453 0.12079 0.54841 0.43937 0.87819 0.31861 0.32978 0.88368 0.71046 1.8178 1.083 1.7161 0.68443 2.8495 0.63768 3.8905 0.28684-0.08505-0.22294-0.17238-0.4417-0.28673-0.65279-0.61865-1.1421-0.86336-1.505-1.6226-1.6258 0.5511-2.3247 0.11544-5.3063 1.7477-6.972 1.0482-0.98599 1.5834-1.5455 5.3308 0.064838 0.20196 0.097606 0.33213-0.13216 0.17666-0.28076-0.73538-0.70308-2.4502-1.9721-3.6147-2.0746-0.28124-0.010303-0.53866 0.00105-0.77851 0.031795-0.08995 0.01153-0.1765 0.024113-0.26197 0.04153zm-8.0831 9.4392c-6.9135 3.6428-10.024 11.341-14.651 16.578-4.009 4.1083-9.9301 7.7564-11.68 9.4312-5.9947 5.7368 20.942-0.49732 29.26-10.484 2.4425-2.9324 5.42-8.2073 4.7848-12.268-1.2899 0.40037-2.8002 0.4262-4.69-0.32756-1.0442-0.41653-1.7659-0.87088-2.2602-1.3826-0.46678-0.48313-0.69196-1.0311-0.76342-1.5472z" fill="#fff" stroke-width="1.5977"/>
</svg>
