<?xml version="1.0" encoding="UTF-8"?>
<svg version="1.1" viewBox="0 0 48 48" xmlns="http://www.w3.org/2000/svg">
    <path d="m15.765 4v0.0046a5.8824 5.8824 0 0 0-5.8824 5.8823 5.8824 5.8824 0 0 0 3.5294 5.3883v17.459a5.8824 5.8824 0 0 0-3.5294 5.3837 5.8824 5.8824 0 0 0 5.8824 5.8824 5.8824 5.8824 0 0 0 5.8824-5.8824 5.8824 5.8824 0 0 0-3.4743-5.3608c0.50353-3.1329 4.509-6.085 8.6926-6.3741a5.8824 5.8824 0 0 0 5.3699 3.4995 5.8824 5.8824 0 0 0 5.8824-5.8824 5.8824 5.8824 0 0 0-5.8824-5.8824 5.8824 5.8824 0 0 0-5.4021 3.557c-3.167 0.13882-6.2814 1.2057-8.7155 2.9986v-9.4072a5.8824 5.8824 0 0 0 3.5294-5.3837 5.8824 5.8824 0 0 0-5.8824-5.8824zm0 3.5294a2.3529 2.3529 0 0 1 2.3529 2.3529 2.3529 2.3529 0 0 1-2.3529 2.3529 2.3529 2.3529 0 0 1-2.3529-2.3529 2.3529 2.3529 0 0 1 2.3529-2.3529zm16.471 14.118a2.3529 2.3529 0 0 1 2.3529 2.3529 2.3529 2.3529 0 0 1-2.3529 2.3529 2.3529 2.3529 0 0 1-2.3529-2.3529 2.3529 2.3529 0 0 1 2.3529-2.3529zm-16.471 14.118a2.3529 2.3529 0 0 1 2.3529 2.3529 2.3529 2.3529 0 0 1-2.3529 2.3529 2.3529 2.3529 0 0 1-2.3529-2.3529 2.3529 2.3529 0 0 1 2.3529-2.3529z" fill="#fff" stroke-width="1.1765"/>
</svg>
