<?xml version="1.0" encoding="UTF-8"?>
<svg viewBox="0 0 48 48" xmlns="http://www.w3.org/2000/svg">
  <g fill="#fff">
    <path d="M34.773 17.531a.516.516 0 0 0-.006.002H22.673a1.31 1.31 0 0 0-1.312 1.312V42.47a1.31 1.31 0 0 0 1.313 1.313h18.374a1.31 1.31 0 0 0 1.313-1.313V25.528l-.003-.002a.516.516 0 0 0-.138-.336l-7.082-7.496a.516.516 0 0 0-.343-.158l-.004-.003h-.013a.516.516 0 0 0-.005-.002zm.505 1.814 5.37 5.683h-4.48a.878.878 0 0 1-.89-.89zm-3.417 7.56a3.286 3.286 0 1 1-.001 6.571 3.286 3.286 0 0 1 .001-6.571zm0 7.766c3.655 0 6.571 1.022 6.571 2.24v3.137H25.29V36.91c0-1.218 2.916-2.24 6.572-2.24z"/>
    <path d="M15.615 3.572a2.321 2.321 0 0 0-1.271.309 2.321 2.321 0 0 0-.85 3.172 2.321 2.321 0 0 0 3.172.85 2.321 2.321 0 0 0 .85-3.173 2.321 2.321 0 0 0-1.9-1.158zm-4.058 3.522a1.11 1.11 0 0 0-.61.146 1.11 1.11 0 0 0-.406 1.518 1.11 1.11 0 0 0 1.518.406 1.11 1.11 0 0 0 .406-1.518 1.11 1.11 0 0 0-.908-.552zm8.013 0a1.11 1.11 0 0 0-.91.552 1.11 1.11 0 0 0 .406 1.518 1.11 1.11 0 0 0 1.518-.406 1.11 1.11 0 0 0-.406-1.518 1.11 1.11 0 0 0-.608-.146zM7.443 8.29a2.321 2.321 0 0 0-2.322 2.322 2.321 2.321 0 0 0 2.322 2.323 2.321 2.321 0 0 0 2.323-2.323A2.321 2.321 0 0 0 7.443 8.29zm16.239 0a2.321 2.321 0 0 0-2.32 2.322 2.321 2.321 0 0 0 2.32 2.323 2.321 2.321 0 0 0 2.322-2.323 2.321 2.321 0 0 0-2.322-2.322zm-8.09 3.355a3.588 3.588 0 0 0-3.588 3.588 3.588 3.588 0 0 0 3.588 3.588 3.588 3.588 0 0 0 3.588-3.588 3.588 3.588 0 0 0-3.588-3.588zm-8.149 2.477a1.11 1.11 0 0 0-1.109 1.111 1.11 1.11 0 0 0 1.11 1.11 1.11 1.11 0 0 0 1.109-1.11 1.11 1.11 0 0 0-1.11-1.111zm16.239 0a1.11 1.11 0 0 0-1.11 1.111 1.11 1.11 0 0 0 1.11 1.11 1.11 1.11 0 0 0 1.111-1.11 1.11 1.11 0 0 0-1.111-1.111zm0 3.41a2.321 2.321 0 0 0-2.32 2.32 2.321 2.321 0 0 0 2.32 2.323 2.321 2.321 0 0 0 2.322-2.322 2.321 2.321 0 0 0-2.322-2.32zm-16.291.104a2.321 2.321 0 0 0-1.9 1.158 2.321 2.321 0 0 0 .849 3.17 2.321 2.321 0 0 0 3.172-.85 2.321 2.321 0 0 0-.85-3.17 2.321 2.321 0 0 0-1.271-.308zm4.058 3.52a1.11 1.11 0 0 0-.908.554 1.11 1.11 0 0 0 .406 1.516 1.11 1.11 0 0 0 1.518-.407 1.11 1.11 0 0 0-.406-1.515 1.11 1.11 0 0 0-.61-.149zm8.227 0a1.11 1.11 0 0 0-.61.148 1.11 1.11 0 0 0-.406 1.515 1.11 1.11 0 0 0 1.518.407 1.11 1.11 0 0 0 .406-1.516 1.11 1.11 0 0 0-.908-.555zm-3.946 1.099a2.321 2.321 0 0 0-1.27.308 2.321 2.321 0 0 0-.849 3.172 2.321 2.321 0 0 0 3.17.85 2.321 2.321 0 0 0 .85-3.172 2.321 2.321 0 0 0-1.9-1.158z"/>
  </g>
</svg>
