<?xml version="1.0" encoding="UTF-8"?>
<svg version="1.1" viewBox="0 0 48 48" xmlns="http://www.w3.org/2000/svg">
    <path d="m15.512 4.0066c-0.76503-0.044243-1.4207 0.13228-1.8226 0.61191-1.2736 1.52-0.63499 4.2289 1.4212 6.1498 2.8438 2.6567 5.1684 3.6539 8.4724 3.6539 0.2092-4.1494-1.7729-7.0934-3.9763-8.7334-1.2372-0.92088-2.8197-1.6085-4.0947-1.6822zm15.377 1.8335c-1.3792-0.024255-2.793 0.95506-3.7263 1.8949-2.0174 2.0317-2.7393 4.1574-2.7393 6.7332 3.5679 0 5.9466-1.4843 7.2289-3.3534 1.2204-1.7791 1.7192-4.1736 0.58559-4.8777-0.43347-0.26923-0.88912-0.38888-1.3488-0.39697zm-6.8999 9.444c-7.9525 0.0056-14.429 6.4468-14.427 14.363 0.0022 7.9177 6.4844 14.353 14.438 14.352 7.9531-0.0011 14.438-6.4411 14.438-14.359 0-8.0569-6.5628-14.357-14.445-14.357a1.2624 1.2624 0 0 0-0.0022 0zm-0.17107 2.3182c0.25862-0.0059 0.51676-0.0024 0.77421 0.0088 3.6043 0.15642 7.065 1.9475 9.2664 5.0751 3.1248 4.4393 2.8764 10.386-0.47154 14.537a1.2624 1.2624 0 0 1-1.9169 1.634l-6.8275-6.7946c-0.20754 0.05379-0.42029 0.09426-0.64262 0.09431-1.3904 2.25e-4 -2.5699-1.1203-2.5705-2.5156-4.49e-4 -1.3954 1.1779-2.5127 2.5683-2.5134 1.3327 0 2.5705 1.0734 2.5705 2.5134 0 0.2344-0.04337 0.45632-0.10528 0.67113l2.4564 2.4454c0.899-1.3839 1.1364-3.0284 0.72157-4.5531-0.02825 0.0016-0.05256 0.01755-0.08115 0.01755-0.75663 1.12e-4 -1.4078-0.60134-1.408-1.362-1.12e-4 -0.32959 0.13763-0.61745 0.33776-0.85097-0.04406-0.05196-0.07664-0.10932-0.12282-0.1601-1.894-2.0826-5.0387-2.5383-7.4723-1.0835-2.4336 1.4549-3.4486 4.3866-2.4257 6.9854s3.7958 4.1133 6.5994 3.5903a0.44184 0.44184 0 1 1 0.1623 0.86852c-3.2099 0.59875-6.4068-1.1376-7.5864-4.1342s0.0045-6.3999 2.7964-8.0689c1.3958-0.83449 2.994-1.1234 4.518-0.90141 1.5242 0.22189 2.9728 0.95406 4.0618 2.1516 0.08767 0.0964 0.14929 0.20471 0.23029 0.30486 0.10216-0.02322 0.2012-0.06135 0.30924-0.06141 0.33243 0 0.66025 0.11206 0.93212 0.33995s0.47593 0.59711 0.47593 1.0198c0 0.41786-0.20629 0.77612-0.50883 1.0242 0.52734 1.8436 0.23268 3.8546-0.90361 5.505l1.158 1.1536c2.1189-2.9441 2.1531-6.9768-0.05044-9.9726-2.4462-3.3257-6.9141-4.3892-10.584-2.5178-3.6704 1.8714-5.4577 6.1276-4.2263 10.073 0.28867 0.92507 0.72799 1.7665 1.2765 2.509 0.15767-0.05956 0.32825-0.09859 0.50444-0.0987 0.33243 0 0.66244 0.11206 0.93431 0.33995s0.47154 0.59711 0.47154 1.0198c0 0.17952-0.04012 0.34639-0.10528 0.50225 1.7137 1.2579 3.8722 1.8873 6.1081 1.5769a0.44184 0.44184 0 1 1 0.12282 0.8751c-2.5073 0.34811-4.9525-0.34973-6.8604-1.7853-0.20394 0.11086-0.42403 0.19297-0.66893 0.193-0.75663 1.12e-4 -1.4078-0.60134-1.408-1.362-8.9e-5 -0.25926 0.0944-0.48634 0.22371-0.69086-0.62263-0.83108-1.1188-1.7745-1.4431-2.8139-1.3577-4.3507 0.61677-9.0589 4.6672-11.124 1.0125-0.51629 2.0822-0.82913 3.1582-0.95186 3.228-0.36821 6.5191 0.9818 8.5426 3.7329 2.459 3.3431 2.3914 7.8657-0.02851 11.124l1.4146 1.4102c3.0404-3.8442 3.2523-9.2994 0.37504-13.387-2.8851-4.0994-8.0893-5.712-12.712-4.0816 0.0021 0.03089 0.01097 0.06063 0.01097 0.09212 0 0.76066-0.65141 1.3619-1.408 1.362-0.33588 5.6e-5 -0.64174-0.13309-0.88826-0.33118-4.0581 2.5919-6.0463 7.572-4.7527 12.343 1.4176 5.2269 6.3494 8.6703 11.71 8.1763a0.44194 0.44194 0 1 1 0.08115 0.87948c-5.784 0.53306-11.117-3.1904-12.644-8.8233-1.3957-5.1476 0.75757-10.535 5.1453-13.33-0.02073-0.09228-0.0592-0.17772-0.05922-0.27634-2.25e-4 -0.76061 0.65142-1.3594 1.408-1.3598 0.33243 0 0.66025 0.10987 0.93212 0.33776 0.03827 0.03207 0.05912 0.08526 0.09431 0.12282 0.97807-0.35238 1.9827-0.57232 2.9872-0.66016 0.25873-0.02263 0.51778-0.03795 0.7764-0.04387z" fill="#fff" stroke-width="1.1229"/>
</svg>
