<?xml version="1.0" encoding="UTF-8"?>
<svg version="1.1" viewBox="0 0 48 48" xmlns="http://www.w3.org/2000/svg">
    <path d="m41.441 4s-0.87639 7.424-2.6152 14.814c-0.86942 3.6952-1.9633 7.3821-3.2246 10.062-0.20805 0.44213-0.42102 0.8516-0.63672 1.2324a4.5 4.5 0 0 0-2.6133-0.83789 4.5 4.5 0 0 0-3.2695 1.4219c-0.10795-0.13999-0.21497-0.26792-0.32226-0.41992-1.2297-1.7422-2.3944-4.1933-3.5645-6.6797-1.17-2.4864-2.3452-5.0067-3.748-6.9941-0.35297-0.50006-0.71972-0.96688-1.1133-1.3926a4.5 4.5 0 0 0 0.097657-0.88086 4.5 4.5 0 0 0-4.5-4.5 4.5 4.5 0 0 0-4.5 4.5 4.5 4.5 0 0 0 0.17188 1.2207c-0.58416 0.79617-1.1061 1.7232-1.5957 2.7637-1.3712 2.9139-2.4718 6.6852-3.3574 10.449-1.7712 7.5279-2.6504 15.023-2.6504 15.023l2.5586 0.2168s0.87639-7.424 2.6152-14.814c0.86942-3.6952 1.9633-7.3821 3.2246-10.062 0.22447-0.47702 0.45641-0.91616 0.68945-1.3203a4.5 4.5 0 0 0 2.8438 1.0234 4.5 4.5 0 0 0 3.1523-1.3047c0.052138 0.070625 0.10429 0.13147 0.15625 0.20508 1.2297 1.7422 2.3944 4.1933 3.5645 6.6797 1.17 2.4864 2.3452 5.0067 3.748 6.9941 0.42509 0.60224 0.87554 1.1492 1.3633 1.6406a4.5 4.5 0 0 0-0.064454 0.73047 4.5 4.5 0 0 0 4.5 4.5 4.5 4.5 0 0 0 4.5-4.5 4.5 4.5 0 0 0-0.2832-1.5684c0.51402-0.74061 0.98346-1.5778 1.4238-2.5137 1.3712-2.9139 2.4718-6.6852 3.3574-10.449 1.7712-7.5279 2.6504-15.023 2.6504-15.023l-2.5586-0.2168zm-25.51 7.3262a3 3 0 0 1 2.9785 2.6387c-7.48e-4 -5.07e-4 -0.001205-0.001446-0.001953-0.001953a3 3 0 0 1 0.023438 0.36328 3 3 0 0 1-0.21094 1.0879 3 3 0 0 1-0.013672 0.03125 3 3 0 0 1-0.58203 0.91406 3 3 0 0 1-2.1934 0.9668 3 3 0 0 1-2.0469-0.82031 3 3 0 0 1-0.4668-0.55859 3 3 0 0 1-0.044922-0.066407 3 3 0 0 1-0.29883-0.67188 3 3 0 0 1-0.039063-0.14453 3 3 0 0 1-0.10352-0.73828 3 3 0 0 1 3-3zm16.42 19.445a3 3 0 0 1 1.8105 0.60938 3 3 0 0 1 0.60156 0.60938 3 3 0 0 1 0.021484 0.029297 3 3 0 0 1 0.39453 0.75781 3 3 0 0 1 0.011718 0.03125 3 3 0 0 1 0.15625 0.84375 3 3 0 0 1 0.003906 0.11914 3 3 0 0 1-3 3 3 3 0 0 1-3-3 3 3 0 0 1 0.1875-1.0352 3 3 0 0 1 0.00586-0.017578 3 3 0 0 1 0.52734-0.89453 3 3 0 0 1 0.001953-0.003907 3 3 0 0 1 2.2773-1.0488z" color="#000000" fill="#fff" style="-inkscape-stroke:none"/>
</svg>
