<svg xmlns="http://www.w3.org/2000/svg" xml:space="preserve" viewBox="0 0 48 48">
  <path fill="#fff" fill-rule="evenodd" d="M14.724 11.748a5.43 5.43 0 0 0-1.729.236c-.372.089-.698.256-.906.52-.21.267-.28.632-.155 1.021.144.447.492.64.806.657.313.016.604-.097.766-.157a3.851 3.851 0 0 1 .83-.178c.589-.054 1.058.053 1.368.428.411.496.544.988.337 1.746-.2.734-.789 1.73-1.857 2.986-1.008-.393-2.093-.639-3.24-.639C6.007 18.368 2 22.373 2 27.311c0 4.937 4.007 8.944 8.944 8.944 4.938 0 8.945-4.007 8.945-8.944 0-2.982-1.477-5.604-3.722-7.229 2.669-2.477 6.937-4.455 11.566-4.89.886-.083 1.481-.004 1.834.119.346.12.4.242.415.276.015.038.05.157-.066.417s-.366.598-.782.941c-2.142 1.763-3.658 3.55-4.268 6.489-.282 1.354-.14 2.578.358 3.608.496 1.024 1.31 1.79 2.25 2.31.317.175.655.319 1.001.441 1.078 3.73 4.506 6.462 8.58 6.462 4.938 0 8.945-4.007 8.945-8.944 0-4.938-4.007-8.943-8.944-8.943-4.895 0-8.85 3.943-8.92 8.82-.415-.305-.812-.628-1.022-1.062-.275-.569-.394-1.303-.194-2.264.482-2.32 1.6-3.692 3.548-5.296.605-.498 1.084-1.08 1.365-1.71.282-.633.38-1.376.087-2.078-.297-.71-.917-1.19-1.665-1.45-.738-.256-1.649-.327-2.717-.227a23.53 23.53 0 0 0-9.43 3.005c.196-1.188-.047-2.275-.787-3.17-.539-.65-1.254-1-2.018-1.13a4.299 4.299 0 0 0-.579-.058zm-3.78 8.72c.649 0 1.264.12 1.858.288-1.04 1.425-1.765 2.835-2.18 3.954-.3.806-.571 1.662-.683 2.535a1.05 1.05 0 0 0 .913 1.173c.321.04.613-.042.82-.232.209-.19.327-.47.37-.806.034-.256.192-.983.547-1.938.393-1.059 1.096-2.417 2.147-3.774 1.823 1.23 3.054 3.277 3.054 5.643a6.843 6.843 0 0 1-6.846 6.845 6.842 6.842 0 0 1-6.843-6.845 6.84 6.84 0 0 1 6.843-6.844zm26.112 0a6.84 6.84 0 0 1 6.843 6.843 6.841 6.841 0 0 1-6.843 6.845c-2.754 0-5.099-1.641-6.185-3.983.997.024 2.01-.074 2.933-.413 1.198-.438 2.1-.81 2.86-1.132l-.269 1.082c-.14.56.203 1.134.763 1.274.56.14 1.134-.204 1.274-.765l.794-3.175a1.053 1.053 0 0 0-.478-1.157L36.101 24.3a1.053 1.053 0 0 0-1.44.36 1.053 1.053 0 0 0 .36 1.44l.921.552c-.743.317-1.64.688-2.86 1.135-.888.325-1.889.384-2.823.256a6.864 6.864 0 0 1-.049-.732 6.842 6.842 0 0 1 6.846-6.844z" clip-rule="evenodd"/>
</svg>
