<?xml version="1.0" encoding="UTF-8" standalone="no"?>
<!-- Created with Inkscape (http://www.inkscape.org/) -->

<svg
   width="48"
   height="48"
   viewBox="0 0 48 48"
   version="1.1"
   id="svg1"
   xml:space="preserve"
   xmlns="http://www.w3.org/2000/svg"
   xmlns:svg="http://www.w3.org/2000/svg"><defs
     id="defs1" /><path
     d="m 13.832956,34.802026 c 0,-1.458354 -0.812038,-2.502403 -2.137814,-2.850419 1.160054,-0.447449 1.856087,-1.392065 1.856087,-2.651552 0,-1.972092 -1.408637,-3.099002 -3.8281786,-3.099002 H 4.9999732 v 11.81598 h 4.9219436 c 2.4858302,0 3.9110392,-1.176627 3.9110392,-3.215007 z M 9.524184,27.327963 c 1.773226,0 2.684697,0.67946 2.684697,2.038381 0,1.35892 -0.911471,2.071525 -2.684697,2.071525 H 6.3588937 v -4.109906 z m 2.949852,7.440918 c 0,1.425209 -0.845182,2.10467 -2.6846968,2.10467 H 6.3588937 v -4.275628 h 3.4304455 c 1.8063698,0 2.6846968,0.712605 2.6846968,2.170958 z m 10.109045,-3.645884 c -0.513738,-1.027476 -1.524642,-1.65722 -2.817274,-1.65722 -2.204103,0 -3.679029,1.789798 -3.679029,4.375061 0,2.585263 1.441782,4.2922 3.679029,4.2922 1.292632,0 2.33668,-0.580027 2.817274,-1.640648 v 1.524643 h 1.325776 v -8.35239 h -1.325776 z m 0,2.684697 c 0,2.03838 -0.894899,3.198434 -2.552119,3.198434 -1.65722,0 -2.585263,-1.126909 -2.585263,-3.16529 0,-2.038381 0.928043,-3.248151 2.585263,-3.248151 1.65722,0 2.552119,1.143481 2.552119,3.215007 z m 10.589633,-1.044049 c 0,-2.204103 -1.010905,-3.297868 -3.016141,-3.297868 -1.292632,0 -2.369825,0.629744 -2.883563,1.723509 l -0.132577,-1.524643 h -1.259488 c 0.06629,0.712605 0.132578,1.474926 0.132578,2.353253 v 5.999137 h 1.325776 v -4.756222 c 0,-1.624076 1.027476,-2.668124 2.552119,-2.668124 1.325776,0 1.95552,0.712604 1.95552,2.237247 v 5.187099 h 1.325776 z m 9.413007,-3.065857 h -1.690365 l -3.944183,3.811606 v -7.706073 h -1.325776 v 12.213712 h 1.325776 v -4.027045 l 4.308772,4.027045 h 1.740081 l -4.5905,-4.341917 z"
     id="text2"
     style="font-size:16.5722px;font-family:'Font Awesome 5 Free';-inkscape-font-specification:'Font Awesome 5 Free, Normal';fill:#fff;stroke:none;stroke-width:1;stroke-linecap:round;stroke-linejoin:round;stroke-dasharray:none;stroke-opacity:1"
     aria-label="Bank" /><path
     d="m 6.5836092,21.338904 c 1.049598,1.068012 2.57796,1.602018 4.5850858,1.602018 0.9207,0 1.730916,-0.128898 2.430648,-0.386694 0.681318,-0.257796 1.307394,-0.681318 1.859814,-1.233738 l 0.202554,1.399464 h 1.675674 V 15.962016 H 10.929313 V 17.9139 h 4.05108 v 0.01841 c 0,0.957528 -0.331452,1.712502 -0.994356,2.228094 -0.662904,0.534006 -1.56519,0.791802 -2.725272,0.791802 -1.2889798,0 -2.2649218,-0.349866 -2.8909978,-1.049598 -0.626076,-0.699732 -0.957528,-1.804572 -0.975942,-3.31452 v -0.36828 c 0,-1.454706 0.349866,-2.541132 1.01277,-3.259278 0.681318,-0.73656 1.7125018,-1.086426 3.0935518,-1.086426 0.957528,0 1.767744,0.220968 2.430648,0.662904 0.64449,0.441936 0.975942,1.068012 0.975942,1.859814 h 2.430648 c 0,-0.994356 -0.27621,-1.822986 -0.791802,-2.504304 -0.515592,-0.662904 -1.233738,-1.178496 -2.11761,-1.509948 -0.883872,-0.331452 -1.878228,-0.5155922 -2.983068,-0.5155922 -2.0807818,0 -3.6827998,0.5524202 -4.7876398,1.6388462 -1.1048399,1.086426 -1.6572599,2.725272 -1.6572599,4.898124 0,2.20968 0.515592,3.86694 1.5836039,4.934952 z M 19.823273,10.08795 v 12.632004 h 9.059688 V 20.676 H 22.180265 V 10.08795 Z m 13.03713,12.42945 c 0.791802,0.294624 1.675674,0.423522 2.651616,0.423522 1.638846,0 2.94624,-0.313038 3.903768,-0.939114 0.957528,-0.626076 1.436292,-1.620432 1.436292,-2.964654 0,-0.810216 -0.239382,-1.454706 -0.699732,-1.951884 -0.46035,-0.515592 -1.01277,-0.883872 -1.65726,-1.141668 -0.64449,-0.257796 -1.47312,-0.534006 -2.48589,-0.791802 -0.699732,-0.18414 -1.270566,-0.349866 -1.675674,-0.497178 -0.405108,-0.147312 -0.754974,-0.331452 -1.01277,-0.55242 -0.27621,-0.220968 -0.405108,-0.497178 -0.405108,-0.82863 0,-0.441936 0.220968,-0.791802 0.699732,-1.031184 0.478764,-0.257796 1.123254,-0.36828 1.970298,-0.36828 0.791802,0 1.417878,0.147312 1.896642,0.441936 0.478764,0.294624 0.718146,0.718146 0.718146,1.252152 v 0.202554 h 2.320164 v -0.220968 c 0,-1.233738 -0.46035,-2.154438 -1.38105,-2.7621 -0.9207,-0.607662 -2.099196,-0.9022862 -3.553902,-0.9022862 -1.509948,0 -2.725272,0.2946242 -3.664386,0.8838722 -0.9207,0.589248 -1.399464,1.454706 -1.399464,2.596374 0,0.810216 0.220968,1.454706 0.662904,1.951884 0.441936,0.497178 0.975942,0.865458 1.602018,1.123254 0.626076,0.257796 1.436292,0.515592 2.449062,0.791802 0.754974,0.202554 1.344222,0.386694 1.767744,0.534006 0.405108,0.147312 0.754974,0.36828 1.049598,0.626076 0.27621,0.257796 0.423522,0.570834 0.423522,0.975942 0,0.497178 -0.239382,0.883872 -0.718146,1.160082 -0.478764,0.294624 -1.215324,0.423522 -2.191266,0.423522 -0.9207,0 -1.65726,-0.165726 -2.172852,-0.515592 -0.534006,-0.331452 -0.791802,-0.810216 -0.791802,-1.436292 0,-0.147312 0,-0.257796 0.01841,-0.331452 h -2.375406 l -0.01841,0.386694 c 0,0.865458 0.239382,1.583604 0.718146,2.172852 0.478764,0.589248 1.10484,1.01277 1.915056,1.28898 z"
     id="text1"
     style="font-weight:600;font-size:18.414px;font-family:'Archiv0 SemiBold';-inkscape-font-specification:'Archiv0 SemiBold, Semi-Bold';fill:#fff;stroke:none;stroke-width:1;stroke-linecap:round;stroke-linejoin:round;stroke-dasharray:none;stroke-opacity:1"
     aria-label="GLS" /></svg>
