<?xml version="1.0" encoding="UTF-8"?>
<svg version="1.1" viewBox="0 0 48 48" xmlns="http://www.w3.org/2000/svg">
    <path d="m24.746 4.7468v0.00186c-10.094 0.025824-18.455 7.8432-19.157 17.913 1.8199-1.6465 4.1921-2.6863 6.6667-2.766 1.2582-0.04639 2.5289 0.06867 3.7426 0.41295 3.1115 0.7984 5.5184 3.3843 6.5272 6.3783 0.56172 1.4441 0.74689 2.9913 1.0305 4.4327 0.55014 2.5948 2.7684 4.3823 5.0521 5.4706 2.4756 1.1702 5.0842 1.9846 7.7121 2.74 4.8196-3.6249 7.6623-9.2986 7.6804-15.329-0.01537-3.2392-0.84773-6.4221-2.42-9.2541-0.81573 1.0718-1.9263 1.9161-3.2292 2.3307-0.79515 0.36759-1.7215 0.19955-2.4981 0.56734-3.7302 2.0478-7.7239 6.2334-10.158 7.66-2.0664 1.211-3.6626-1.2436-2.7511-2.6004 2.1626-3.2194 4.7667-5.9124 5.9766-9.4996 0.42099-1.0867 0.32654-2.2454 0.26414-3.378 0.04436-1.5425 0.73876-2.9343 1.7857-4.0067-2.0014-0.69793-4.1044-1.0606-6.224-1.0733zm11.425 0.72917c-2.7618 0-5.3759 2.2635-5.0019 5 0.75362 5.5141-7.6445 14.258-6.5588 13.224 4.6104-4.3932 10.414-8.2217 11.561-8.2217 2.7618 0 5-2.2381 5-5v-0.0019c0-2.7619-2.2381-5-5-5zm-23.419 16.313c-4.8333 0-8.7519 3.9168-8.7519 8.75s4.5643 8.9103 8.7519 8.7519c5.0876-0.19248 17.259 2.8168 28.356 3.4003-10.29-3.0243-18.544-4.5369-19.604-12.152-0.82762-5.9484-3.9186-8.75-8.7519-8.75zm3.9007 19.66c2.5347 1.1821 5.2966 1.7979 8.0934 1.8043 0.91317-0.0015 1.8251-0.06806 2.7288-0.19903-3.3222-0.50484-6.6411-1.0439-9.9665-1.5086-0.26438-0.03242-0.57136-0.06349-0.85566-0.09673z" fill="#fff" stroke-width=".95238" style="paint-order:stroke markers fill"/>
</svg>
