<?xml version="1.0" encoding="UTF-8"?>
<svg width="48" height="48" version="1.1" viewBox="0 0 12.7 12.7" xmlns="http://www.w3.org/2000/svg">
    <path d="m5.0433 2.0579c-0.18152 0-0.32765 0.14613-0.32765 0.32765v0.98296c0 0.18152 0.14613 0.32765 0.32765 0.32765s0.32765-0.14613 0.32765-0.32765v-0.98296c0-0.18152-0.14613-0.32765-0.32765-0.32765zm-2.5758 1.0732c-0.083751 0-0.16748 0.032484-0.23166 0.096632-0.12836 0.12836-0.12836 0.33496 0 0.46332l0.69498 0.69498c0.12836 0.12836 0.33496 0.12836 0.46332 0 0.12836-0.12834 0.12836-0.33498 0-0.46332l-0.69498-0.69498c-0.064185-0.064148-0.14791-0.096632-0.23166-0.096632zm5.1516 0c-0.083751 0-0.16749 0.032484-0.23166 0.096632l-0.69562 0.69498c-0.12836 0.12834-0.12836 0.33498 0 0.46332 0.12836 0.12836 0.33496 0.12836 0.46332 0l0.69562-0.69498c0.12836-0.12836 0.12836-0.33496 0-0.46332-0.064184-0.064148-0.14791-0.096632-0.23166-0.096632zm-2.5867 0.92536a1.9659 1.9659 0 0 0-0.025598 6.399e-4 1.9659 1.9659 0 0 0-1.5211 0.78201 1.9659 1.9659 0 0 0-0.087673 2.2398 1.9659 1.9659 0 0 0 0.93368 0.76857 1.5727 1.5727 0 0 0-0.37565 0.4358 1.5727 1.5727 0 0 0 0 1.573 1.5727 1.5727 0 0 0 1.3618 0.78585h4.358a1.9659 1.9659 0 0 0 1.7464-1.0629 1.9659 1.9659 0 0 0-0.14271-2.0395 1.9659 1.9659 0 0 0-1.422-0.81849 2.4574 2.4574 0 0 0-2.1803-1.3311 2.4574 2.4574 0 0 0-0.72634 0.11071 1.9659 1.9659 0 0 0-1.3368-1.3631 1.9659 1.9659 0 0 0-0.58171-0.081273zm-0.0096 0.65594a1.3106 1.3106 0 0 1 0.40509 0.053755 1.3106 1.3106 0 0 1 0.91768 1.0207 2.4574 2.4574 0 0 0-1.0604 1.5243 1.3106 1.3106 0 0 1-1.3349-0.58427 1.3106 1.3106 0 0 1 0.058875-1.493 1.3106 1.3106 0 0 1 1.0137-0.52156zm-3.6368 0.98232c-0.18152 0-0.32765 0.14613-0.32765 0.32765 0 0.18151 0.14613 0.32765 0.32765 0.32765h0.98296c0.18152 0 0.32765-0.14614 0.32765-0.32765 0-0.18152-0.14613-0.32765-0.32765-0.32765zm6.2913 0.35005v6.4e-4a1.8021 1.8021 0 0 1 1.7419 1.3458 1.3106 1.3106 0 0 1 0.07423-0.010879 1.3106 1.3106 0 0 1 0.11967-0.011519 1.3106 1.3106 0 0 1 0.02112-0.00128 1.3106 1.3106 0 0 1 0.10111 0.00128 1.3106 1.3106 0 0 1 0.03456 0.00256 1.3106 1.3106 0 0 1 0.09407 0.010239 1.3106 1.3106 0 0 1 0.03904 0.00576 1.3106 1.3106 0 0 1 0.07807 0.016639 1.3106 1.3106 0 0 1 0.05504 0.014079 1.3106 1.3106 0 0 1 0.62395 0.39229 1.3106 1.3106 0 0 1 0.2099 1.4053 1.3106 1.3106 0 0 1-1.1941 0.77049h-4.358a0.91742 0.91742 0 0 1-0.79417-0.4582 0.91742 0.91742 0 0 1 0-0.91768 0.91742 0.91742 0 0 1 0.79417-0.45884h0.55739v-0.30461a1.8021 1.8021 0 0 1 1.8021-1.8021zm-4.5148 1.5429c-0.083751 0-0.16748 0.031844-0.23166 0.095992l-0.69498 0.69498c-0.12836 0.12834-0.12836 0.3356 0 0.46396s0.33496 0.12836 0.46332 0l0.69498-0.69562c0.12836-0.12836 0.12836-0.33496 0-0.46332-0.064185-0.064148-0.14791-0.095992-0.23166-0.095992z" fill="#fff" stroke-width=".32765"/>
</svg>
