<?xml version="1.0" encoding="UTF-8" standalone="no"?>
<!-- Created with Inkscape (http://www.inkscape.org/) -->

<svg
   width="48"
   height="48"
   viewBox="0 0 48 48"
   version="1.1"
   id="svg1"
   xml:space="preserve"
   xmlns="http://www.w3.org/2000/svg"
   xmlns:svg="http://www.w3.org/2000/svg"><defs
     id="defs1" /><g
     id="layer1"><path
       style="fill:#fff;fill-opacity:1;stroke:none;stroke-width:1;stroke-linecap:round;stroke-linejoin:round;stroke-dasharray:none"
       d="m 38.998674,6.0110545 -1.174142,1.396132 c -0.1076,2.288761 -1.026467,4.0525785 -2.756614,5.2914515 -0.08006,3.215334 -0.923678,5.476227 -2.530849,6.782676 l 8.301186,10.224631 -3.745657,-1.518509 3.441955,4.960463 c -4.109071,-0.887536 -6.977368,-2.777236 -8.604888,-5.669102 l 1.923445,5.669102 C 31.857379,31.60284 30.33887,29.341948 29.297582,26.365223 l 0.303702,6.175273 -2.429616,-3.948125 -0.101234,3.340722 -2.32838,-5.162933 -0.202469,3.138253 -2.935785,-2.733317 c -1.746534,0.98918 -3.636234,1.596584 -5.669102,1.82221 L 12.20641,34.976252 12.087807,33.350368 10.145939,35.149069 10.873,33.046665 7.0496188,35.10205 8.6458518,32.338028 6.8236408,32.64173 c 0.03282,0.02188 1.903994,-1.981723 3.061947,-2.693922 1.1983852,-0.737065 4.5456342,-3.602604 6.1484822,-6.54435 1.684369,-3.091364 4.89558,-6.779704 7.444488,-10.093388 1.223292,-1.590331 4.780845,-4.2558555 4.907918,-4.2558555 1.601825,-3.5811052 4.444427,-4.5852132 8.527802,-3.012326 z"
       id="path1" /><path
       style="fill:#fff;fill-opacity:1;stroke:none;stroke-width:1;stroke-linecap:round;stroke-linejoin:round;stroke-dasharray:none"
       d="m 21.175138,29.641092 c -1.253435,0.559082 -2.560116,0.967401 -3.924992,1.208085 l -0.449819,0.722281 7.233089,11.106671 5.462087,-8.410329 a 2.0961271,2.0961271 0 0 1 -1.678468,-0.629747 l -0.01799,-0.02827 a 2.0961271,2.0961271 0 0 1 -2.637226,-0.814819 l -0.475523,-1.056431 a 2.0961271,2.0961271 0 0 1 -1.575652,-0.295595 z"
       id="path8" /><path
       style="fill:#fff;fill-opacity:1;stroke:none;stroke-width:1;stroke-linecap:round;stroke-linejoin:round;stroke-dasharray:none"
       d="M 39.59458,8.8517465 C 39.238095,10.690197 38.359759,12.29641 37.021616,13.558138 36.863272,15.84942 36.181497,17.746734 35.104101,19.31839 L 37.38147,22.122689 46,8.8517465 Z"
       id="path7" /><path
       style="fill:#fff;fill-opacity:1;stroke:none;stroke-width:1;stroke-linecap:round;stroke-linejoin:round;stroke-dasharray:none"
       d="M 2.0000002,8.8517465 12.397243,24.816462 c 0.716287,-0.797707 1.374844,-1.641916 1.796706,-2.416169 1.88458,-3.458817 5.135138,-7.133622 7.623787,-10.368968 0.865775,-1.125544 2.088317,-2.1608395 3.200141,-3.0690525 0.04556,-0.03721 0.09126,-0.07407 0.13623,-0.110526 z"
       id="path6" /></g></svg>
