<?xml version="1.0" encoding="UTF-8"?>
<svg data-name="Layer 1" version="1.1" viewBox="0 0 48 48" xmlns="http://www.w3.org/2000/svg">
    <path d="m23.148 4.0725a4.7536 4.7536 0 0 0-3.9264 4.6797 3.1391 3.1391 0 0 0 0 0.5005 4.7664 4.7664 0 1 0-5.1251 7.943 3.4851 3.4851 0 0 0 0.44795 0.2052l-0.44795 0.2052a4.7407 4.7407 0 1 0 5.1251 7.9455 3.3057 3.3057 0 0 0 0 0.498 4.7536 4.7536 0 1 0 9.507 0 3.3057 3.3057 0 0 0 0-0.498 4.7664 4.7664 0 1 0 5.1251-7.9455l-0.45045-0.2052a3.4851 3.4851 0 0 0 0.45045-0.2052 4.7407 4.7407 0 1 0-5.1251-7.943 3.1391 3.1391 0 0 0 0-0.5005 4.7536 4.7536 0 0 0-5.5806-4.6797zm0.13764 8.5986a4.7536 4.7536 0 0 1 5.4304 4.7047 4.7536 4.7536 0 0 1-4.7548 4.7548 4.7536 4.7536 0 0 1-0.67568-9.4595zm18.126 13.776a17.361 17.361 0 0 0-17.335 17.362v0.17768h0.19269l-0.01251 0.01251a17.349 17.349 0 0 0 17.335-17.36v-0.19269zm-35.003 0.01251v0.19269a17.361 17.361 0 0 0 17.372 17.335h0.18018v-0.17768a17.361 17.361 0 0 0-17.362-17.35z" fill="#fff" stroke-width="1.2813"/>
</svg>
