<?xml version="1.0" encoding="UTF-8"?>
<svg enable-background="new 0 0 48 48" version="1.1" viewBox="0 0 48 48" xml:space="preserve" xmlns="http://www.w3.org/2000/svg">
<path d="m36.104 17.362v17.092c0 0.176-0.049 0.36-0.137 0.537-0.929 0.88-2.093 1.652-3.451 2.278v5.71c0 1.701-1.624 3.079-3.618 3.079-1.995 0-3.618-1.378-3.618-3.079l0.011-4.049c-0.283 0.011-0.577 0.021-0.86 0.021-0.577 0-1.145-0.021-1.711-0.068v4.097c0 1.701-1.624 3.079-3.618 3.079-1.995 0-3.618-1.378-3.618-3.079v-6.004c-1.711-0.87-3.305-1.945-3.305-2.708l-0.157-9.093-0.127-7.802c0-0.069 0-0.137 0.02-0.196l0.01 9e-3 0.069 0.01c2.15 0.401 7.812 1.33 13.844 1.33 3.901 0 7.333-0.381 10.266-1.164z" fill="#fff"/><path d="m36.188 15.804c-0.233-3.97-2.385-7.411-5.514-9.435l2.023-3.041c0.146-0.225 0.088-0.528-0.137-0.684-0.225-0.147-0.528-0.088-0.684 0.146l-2.045 3.08c-1.711-0.938-3.666-1.457-5.738-1.457-2.053 0-3.979 0.508-5.681 1.417l-2.022-3.04c-0.147-0.235-0.45-0.293-0.675-0.137-0.225 0.146-0.293 0.45-0.137 0.675l1.984 2.992c-3.157 2.034-5.328 5.485-5.562 9.475-0.01 0.069-0.01 0.127-0.01 0.205 0 0.059 0.039 0.108 0.098 0.127 2.112 0.391 7.685 1.31 13.667 1.31 4 0 7.48-0.411 10.355-1.212 0.059-0.02 0.088-0.068 0.088-0.127 0-0.089 0-0.187-0.01-0.294zm-18.352-3.628c-0.625 0-1.134-0.489-1.134-1.085 0-0.606 0.509-1.085 1.134-1.085 0.626 0 1.125 0.479 1.125 1.085 0 0.597-0.499 1.085-1.125 1.085zm12.72 0c-0.625 0-1.134-0.489-1.134-1.085 0-0.606 0.509-1.085 1.134-1.085 0.627 0 1.135 0.479 1.135 1.085-1e-3 0.597-0.508 1.085-1.135 1.085z" fill="#fff"/><path d="m10.943 18.319h7e-3v12.752c0 1.433-1.161 2.594-2.594 2.594s-2.594-1.161-2.594-2.594v-12.752h8e-3c-5e-3 -0.067-8e-3 -0.134-8e-3 -0.203 0-1.433 1.162-2.594 2.594-2.594 1.433 0 2.594 1.161 2.594 2.594 0 0.07-2e-3 0.136-7e-3 0.203z" fill="#fff"/><path d="m42.23 18.319h8e-3v12.752c0 1.433-1.161 2.594-2.595 2.594-1.433 0-2.594-1.161-2.594-2.594v-12.752h8e-3c-6e-3 -0.067-8e-3 -0.134-8e-3 -0.203 0-1.433 1.161-2.594 2.594-2.594 1.434 0 2.595 1.161 2.595 2.594 0 0.07-3e-3 0.136-8e-3 0.203z" fill="#fff"/>
</svg>
