<?xml version="1.0" encoding="UTF-8" standalone="no"?>
<!-- Created with Inkscape (http://www.inkscape.org/) -->

<svg
   width="48"
   height="48"
   viewBox="0 0 48 48"
   version="1.1"
   id="svg1"
   xml:space="preserve"
   xmlns="http://www.w3.org/2000/svg"
   xmlns:svg="http://www.w3.org/2000/svg"><defs
     id="defs1" /><path
     d="m 24.004432,4.1213651 c -11.042029,0 -20.3409677,8.8726269 -19.9950829,19.8047939 0,12.046378 5.2719568,18.992963 5.2719568,18.992963 0.228084,0.724339 0.9972411,1.123442 1.7215391,0.895358 l 5.911475,-1.863257 c 0.72434,-0.228095 1.123442,-0.993783 0.895358,-1.71807 l -2.416462,-7.674436 c -0.228095,-0.72434 -0.993783,-1.123442 -1.71807,-0.895358 l -4.0515821,1.272204 c 0,0 -2.6346819,0.02949 -2.6376609,-9.008879 8.715e-4,-9.309451 7.620083,-16.8558364 17.018792,-16.8558364 9.398709,0 17.017741,7.5467004 17.018792,16.8558364 -0.0019,9.260474 -2.58583,8.929399 -2.58583,8.929399 l -4.072294,-1.282507 c -0.724339,-0.228095 -1.493507,0.171019 -1.721539,0.895358 l -2.416462,7.674436 c -0.228095,0.72434 0.171018,1.490038 0.895358,1.71807 l 5.914839,1.863257 c 0.72434,0.228095 1.490038,-0.171018 1.71807,-0.895358 0,0 5.244307,-7.539815 5.244307,-18.90255 C 44.027722,12.988841 35.047303,4.1219959 24.004853,4.1219959 Z"
     fill="#fff"
     id="path1"
     style="fill:#fff;stroke-width:1;stroke:none;stroke-dasharray:none" /></svg>
