<?xml version="1.0" encoding="UTF-8"?>
<svg version="1.1" viewBox="0 0 48 48" xmlns="http://www.w3.org/2000/svg">
    <path d="m24 4.0001c-2.329 0.00412-4.6568 0.15281-6.9833 0.4324-0.78492 0.042936-0.64356 1.2385 0.12972 1.0972 4.5714-0.54936 9.1378-0.58084 13.702 0 0.75732 0.12781 0.90561-1.0301 0.14053-1.0972-2.3304-0.29659-4.6597-0.43653-6.9887-0.4324zm-0.03243 2.8593c-1.8669 4e-3 -3.7219 0.12199-5.5672 0.34052-0.78492 0.04294-0.64358 1.2385 0.12972 1.0972 3.6105-0.42756 7.2525-0.45843 10.937 0 0.76626 0.13586 0.91143-1.0431 0.13512-1.0972-1.8898-0.23512-3.7677-0.34453-5.6347-0.34052zm0.06216 2.889c-1.4025-0.0011-2.8141 0.06931-4.2375 0.2162-0.73508 0.07569-0.62158 1.1783 0.11351 1.1026 2.7707-0.28592 5.498-0.27708 8.1886 0 0.73508 0.07566 0.84859-1.0269 0.11351-1.1026-1.3819-0.14232-2.7756-0.21506-4.1781-0.2162zm-0.02162 2.3755c-1.158 0-10.65-0.13243-12.853 5.4834-0.39805 0.0427-1.1888 0.22924-1.7107 0.61617-0.17017 0.12619-0.95655 0.88196-1.308 1.735-0.0997 0.24197-0.25291 0.37304-0.39997 0.47564-0.62133 0.43342-0.82103 0.835-0.99723 1.4269-0.29513 0.99141-0.19394 3.0583-0.18107 3.6295 0.01457 0.64784 0.17041 1.4113 0.86751 2.0566 0.52718 0.48805 0.87168 1.1884 1.1729 1.6458 1.3436 1.3437 1.8071 1.352 2.5404 1.5053l0.0027 8.8751c0.13758 0.86217 0.04825 1.0338 0.81076 1.3837-0.10402 0.68657-0.05693 1.2898-0.03784 1.908l-2.5106 0.24052c-0.64675 0.10848-0.41935 0.89453 0.27025 0.89453h28.652c0.6896 0 0.917-0.78605 0.27025-0.89453l-2.5106-0.24052c0.0191-0.61816 0.06619-1.2214-0.03784-1.908 0.76251-0.34992 0.67318-0.52151 0.81076-1.3837l0.0027-8.8751c0.73321-0.15334 1.2036-0.1685 2.5404-1.5053 0.30123-0.4575 0.64572-1.1578 1.1729-1.6458 0.69709-0.64521 0.85294-1.4087 0.86751-2.0566 0.01287-0.57105 0.11406-2.638-0.18107-3.6295-0.1762-0.59186-0.3759-0.99343-0.99723-1.4269-0.14706-0.1026-0.30028-0.23368-0.39997-0.47564-0.35154-0.85303-1.1379-1.6088-1.308-1.735-0.52181-0.38693-1.3126-0.63293-1.7107-0.67563-2.2032-5.6158-11.679-5.4239-12.837-5.4239zm-0.0081 1.1215c3.4724 0 3.6025 0.2189 3.6025 0.2189l-0.54321 4.6078s-2.0393 0.05405-3.0592 0.05405-3.0592-0.05405-3.0592-0.05405l-0.54322-4.6078s0.12996-0.2189 3.6025-0.2189zm-5.678 2.035c0.53669 4.43e-4 0.97125 0.4362 0.9702 0.97291-4.43e-4 0.53564-0.43456 0.96976-0.9702 0.9702-0.53564-4.42e-4 -0.96976-0.43456-0.9702-0.9702-1e-3 -0.53669 0.4335-0.97246 0.9702-0.97291zm11.356 0c0.53669 4.43e-4 0.97125 0.4362 0.9702 0.97291-4.43e-4 0.53564-0.43456 0.96976-0.9702 0.9702-0.53564-4.42e-4 -0.96976-0.43456-0.9702-0.9702-0.0011-0.53669 0.4335-0.97246 0.9702-0.97291zm-14.099 0.05675c0.50624-6.23e-4 0.91677 0.40992 0.91615 0.91615-8.71e-4 0.50518-0.41097 0.91407-0.91615 0.91345-0.50413-8.85e-4 -0.91258-0.40933-0.91345-0.91345-6.09e-4 -0.50517 0.40828-0.91528 0.91345-0.91615zm16.842 0c0.50518 8.72e-4 0.91407 0.41098 0.91345 0.91615-8.86e-4 0.50413-0.40933 0.91258-0.91345 0.91345-0.50518 6.09e-4 -0.91528-0.40827-0.91615-0.91345-6.22e-4 -0.50624 0.40992-0.91677 0.91615-0.91615zm-21.282 3.389v10.751c-1.1333-0.06752-2.0996-1.1157-1.5918-1.2215l0.19999-0.04324c0.35675-0.61809 0.30537-6.0415 0-8.0967-0.02087-0.14046-0.37024-0.2108-0.37024-0.2108-0.06462-0.30555 0.63674-1.0798 1.762-1.1783zm25.723 0c1.1253 0.09849 1.9132 0.87275 1.8485 1.1783 0 0-0.34938 0.07034-0.37024 0.2108-0.30535 2.0553-0.35674 7.4786 0 8.0967l0.19999 0.04324c0.50795 0.10581-0.54494 1.154-1.6783 1.2215zm-24.436 0.6486h23.15v8.9534c-3.8157 0.59269-7.6942 0.62456-11.575 0.59726-3.8807 0.0273-7.7592-0.0046-11.575-0.59726zm0 10.188c4.1264 0.4777 7.8331 0.46454 11.575 0.52429 3.7416-0.05975 7.4483-0.04658 11.575-0.52429l0.04594 10.18h-23.242zm3.4079 1.708c-0.83901-2.77e-4 -1.5191 0.67987-1.5188 1.5188-2.76e-4 0.83901 0.67987 1.5191 1.5188 1.5188 0.83901 2.77e-4 1.5191-0.67987 1.5188-1.5188 2.77e-4 -0.83901-0.67987-1.5191-1.5188-1.5188zm16.337 0c-0.83901-2.77e-4 -1.5191 0.67987-1.5188 1.5188-2.77e-4 0.83901 0.67987 1.5191 1.5188 1.5188 0.83901 2.77e-4 1.5191-0.67987 1.5188-1.5188 2.76e-4 -0.83901-0.67987-1.5191-1.5188-1.5188zm-12.367 1.0459c-0.73868 0.03243-0.69004 1.1405 0.04865 1.108h8.3021c0.73868 0 0.73868-1.108 0-1.108h-8.3021c-0.0081-1.78e-4 -0.01616-1.78e-4 -0.02432 0-0.0081-1.78e-4 -0.01616-1.78e-4 -0.02432 0zm0.02432 1.9674c-0.73868 0.01622-0.71436 1.1242 0.02432 1.108h8.3021c0.73868 0 0.73868-1.108 0-1.108h-8.3021c-0.0081-1.79e-4 -0.01616-1.79e-4 -0.02432 0zm0.02432 1.9674c-0.73868 0-0.73868 1.108 0 1.108h8.3021c0.73868 0 0.73868-1.108 0-1.108zm-3.3944 4.7051h15.088c-0.05363 0.62155-0.06156 1.2433 0 1.8647h-15.088c0.06156-0.62155 0.05363-1.2433 0-1.8647z" fill="#fff" stroke-width="1.3837"/>
</svg>
