<?xml version="1.0" encoding="UTF-8" standalone="no"?>
<!-- Created with Inkscape (http://www.inkscape.org/) -->

<svg
   width="48"
   height="48"
   viewBox="0 0 48 48"
   version="1.1"
   id="svg1"
   xml:space="preserve"
   xmlns="http://www.w3.org/2000/svg"
   xmlns:svg="http://www.w3.org/2000/svg"><defs
     id="defs1"><style
       id="style1">.cls-1{fill:#fff;}</style><style
       id="style1-1">.i,.j{fill:none;stroke:#fff;stroke-linejoin:round;}.j{stroke-width:1px;}</style><style
       id="style1-0">.i,.j{fill:none;stroke:#fff;stroke-linejoin:round;}.j{stroke-width:1px;}</style><style
       id="style1-6">.i,.j{fill:none;stroke:#fff;stroke-linejoin:round;}.j{stroke-width:1px;}</style><style
       id="style1-62">.d{fill:#fff;}.e{fill:none;stroke:#fff;stroke-linecap:round;stroke-linejoin:round;}</style><style
       id="style1-2">.b{fill:none;stroke:#fff;stroke-linecap:round;stroke-linejoin:round;}</style><style
       id="style1-9">.c{fill:none;stroke:#fff;stroke-linecap:round;stroke-linejoin:round;stroke-width:1px;}</style><style
       id="style1-7">.b{fill:none;stroke:#fff;stroke-linecap:round;stroke-linejoin:round;}</style></defs><path
     id="rect50"
     style="display:inline;fill:#fff;fill-opacity:1;stroke:none;stroke-width:1;stroke-linecap:round;stroke-linejoin:round;stroke-dasharray:none;stroke-opacity:1"
     d="m 24,3.9238281 c -0.939655,-1e-7 -1.879006,0.3392729 -2.617188,1.0175781 L 4.25,20.685547 C 3.4528995,21.417931 3,22.45076 3,23.533203 v 17.777344 c 0,1.519519 1.2441533,2.763672 2.7636719,2.763672 H 22.5 v -0.607422 l -7.810547,-7.8125 h -0.002 c -0.386349,0.15052 -0.805873,0.232422 -1.244141,0.232422 C 11.547213,35.886719 10,34.339506 10,32.443359 10,30.547213 11.547213,29 13.443359,29 c 1.896147,0 3.445313,1.547213 3.445313,3.443359 0,0.352397 -0.055,0.693072 -0.154297,1.013672 v 0.002 L 22.5,39.224609 V 19.041016 C 21.351507,18.481701 20.556641,17.302435 20.556641,15.943359 20.556641,14.047212 22.103854,12.5 24,12.5 c 1.896146,0 3.443359,1.547212 3.443359,3.443359 0,1.359076 -0.794866,2.538342 -1.943359,3.097657 v 14.041015 l 5.496094,-5.49414 v -0.002 c -0.126671,-0.357915 -0.195313,-0.74218 -0.195313,-1.142532 0,-1.896146 1.547213,-3.443359 3.44336,-3.443359 1.896146,0 3.443359,1.547213 3.443359,3.443359 0,1.896147 -1.547213,3.44336 -3.443359,3.44336 -0.390482,0 -0.766767,-0.06673 -1.117188,-0.1875 h -0.002 l -7.625,7.625 v 6.75 H 42.236328 C 43.755847,44.074219 45,42.830066 45,41.310547 V 23.533203 c 0,-1.082394 -0.453027,-2.115272 -1.25,-2.847656 L 26.617188,4.9414062 C 25.879007,4.2631007 24.939655,3.9238281 24,3.9238281 Z" /></svg>
