<?xml version="1.0" encoding="UTF-8"?>
<svg data-name="Layer 1" version="1.1" viewBox="0 0 48 48" xmlns="http://www.w3.org/2000/svg">
    <path d="m23.983 4c-6.0351 0-13.106 2.5641-13.106 11.199 0 8.635 8.2351 16.27 8.2351 16.27v6.3303a1.1764 1.1764 0 0 0 1.1764 1.1764h3.5293l-4.2232 2.8699a1.1764 1.1764 0 0 0-0.47104 1.3166 1.1764 1.1764 0 0 0 1.1764 0.83638h7.0586a1.1764 1.1764 0 0 0 0-2.3529h-3.2467l4.2232-2.8699a1.1764 1.1764 0 0 0 0.51929-0.97654v-6.3303s8.2695-7.6352 8.2695-16.27c0-8.635-7.1056-11.199-13.141-11.199zm-0.84786 8.3729a1.1764 1.1764 0 0 1 1.0133 0.34466l5.0458 5.1171a1.1772 1.1772 0 0 1-1.6819 1.6475l-2.4816-2.5413 0.71689 4.7058a1.1764 1.1764 0 0 1-0.58822 1.1764 1.1764 1.1764 0 0 1-0.57673 0.08272 1.1764 1.1764 0 0 1-0.8111-0.33087l-4.9286-4.7747a1.1773 1.1773 0 0 1 1.6337-1.6957l2.4126 2.3529-0.75366-4.7977a1.1764 1.1764 0 0 1 0.64796-1.1764 1.1764 1.1764 0 0 1 0.35155-0.11029z" fill="#fff" stroke-width="1.1764"/>
</svg>
