<?xml version="1.0" encoding="UTF-8"?>
<svg version="1.1" viewBox="0 0 48 48" xmlns="http://www.w3.org/2000/svg">
    <path d="m24 4c-3.2185-1e-6 -6.1869 1.0429-8.6038 2.8112l-2.0401-2.0401c-0.93874-0.93874-2.3554-1.0332-3.1768-0.21179l-0.3329 0.33231c-0.8214 0.8214-0.72696 2.2387 0.21179 3.1774l2.0541 2.0541c-1.7766 2.471-2.8252 5.5199-2.8252 8.8278 0 0.18307 0.01355 0.36248 0.02106 0.54351v0.9197c0 0.3319 0.2672 0.59909 0.59909 0.59909h28.185c0.3319 0 0.59909-0.2672 0.59909-0.59909v-0.92731c0.0072-0.17852 0.02049-0.3554 0.02049-0.53591 3e-6 -3.3078-1.0489-6.3563-2.8252-8.8273l2.0547-2.0547c0.93875-0.93875 1.0332-2.356 0.21179-3.1774l-0.3329-0.3323c-0.8214-0.8214-2.2381-0.72696-3.1768 0.21179l-2.0401 2.0401c-2.4168-1.7684-5.3852-2.8112-8.6038-2.8112zm-7.1523 8.1989a2.0968 2.0968 0 0 1 2.0968 2.0968 2.0968 2.0968 0 0 1-2.0968 2.0968 2.0968 2.0968 0 0 1-2.0968-2.0968 2.0968 2.0968 0 0 1 2.0968-2.0968zm14.259 1e-6a2.0968 2.0968 0 0 1 2.0968 2.0968 2.0968 2.0968 0 0 1-2.0968 2.0968 2.0968 2.0968 0 0 1-2.0968-2.0968 2.0968 2.0968 0 0 1 2.0968-2.0968zm-21.179 10.164c-0.3319 0-0.59909 0.2672-0.59909 0.59909l-1e-6 2.0728 2e-6 6.0658c-1e-6 6.683 6.3155 12.899 14.891 12.899 8.5758 0 14.417-6.2024 14.451-12.899l0.03042-5.9593c0.0062-0.03464 0.01054-0.07001 0.01054-0.10648v-2.0728c0-0.3319-0.2672-0.59909-0.59909-0.59909zm13.091 0.822h2.5105v2.2794h1.8897c0.33189 0 0.59909 0.33286 0.59909 0.74653l-3e-6 3.6595c1.2e-5 0.02768-0.0012 0.05504-0.0035 0.08191 0.02088 0.35692-0.10408 0.72072-0.37795 0.99458l-0.75296 0.75296 2.2097 3.8268a7.3779 7.3779 0 0 0 2.3975-5.4427l1.8447 3e-6a9.2224 9.2224 0 0 1-3.302 7.0709l0.92146 1.596 0.10414 2.012-1.7499-1.0619-0.8612-1.4913a9.2224 9.2224 0 0 1-8.3007 0.18546l-0.75355 1.3058-1.73 1.0619 0.08425-2.012 4.014-6.9528-0.85066-0.85125c-0.27386-0.27387-0.39942-0.63767-0.37853-0.99459-0.0023-0.02687-0.0035-0.05423-0.0035-0.0819v-3.6595c-1e-6 -0.41367 0.2672-0.74653 0.59909-0.74653h1.8903zm2.4736 9.9061-0.30013 0.30013c-0.5089 0.5089-1.3282 0.5089-1.8371 0l-0.20184-0.20184-2.0804 3.6033a7.3779 7.3779 0 0 0 6.452-0.18253z" fill="#fff" stroke-width=".54865"/>
</svg>
