<?xml version="1.0" encoding="UTF-8" standalone="no"?>
<!-- Created with Inkscape (http://www.inkscape.org/) -->

<svg
   width="48"
   height="48"
   viewBox="0 0 48 48"
   version="1.1"
   id="svg1"
   xml:space="preserve"
   xmlns="http://www.w3.org/2000/svg"
   xmlns:svg="http://www.w3.org/2000/svg"><defs
     id="defs1"><style
       id="style1">.a{fill:#fff;}</style></defs><g
     id="layer1"><path
       id="path1"
       style="fill:#fff;stroke-width:0.955704"
       d="m 8.2309511,6.727515 a 1.9114096,1.9114096 0 0 0 -1.911463,1.911463 v 33.44956 A 1.9114096,1.9114096 0 0 0 8.2309511,44 H 39.769049 a 1.9114096,1.9114096 0 0 0 1.911463,-1.911462 V 8.638978 A 1.9114096,1.9114096 0 0 0 39.769049,6.727515 H 29.300722 A 5.3246409,5.3246409 0 0 1 29.324642,7.21994 5.3246409,5.3246409 0 0 1 24.000001,12.544581 5.3246409,5.3246409 0 0 1 18.67536,7.21994 5.3246409,5.3246409 0 0 1 18.71072,6.727515 Z m 9.2032049,14.651082 a 6.5752489,6.5752489 0 0 1 3.822926,0.955731 3.1633828,3.1633828 0 0 1 1.414358,2.752278 3.7176917,3.7176917 0 0 1 -0.888654,2.503725 4.6829535,4.6829535 0 0 1 -2.503725,1.414878 v 0.06656 a 4.9505508,4.9505508 0 0 1 2.866674,1.147086 3.2493962,3.2493962 0 0 1 0.955732,2.475126 4.185987,4.185987 0 0 1 -1.595833,3.555134 7.5500677,7.5500677 0 0 1 -4.68298,1.261482 11.401558,11.401558 0 0 1 -4.530104,-0.850175 v -2.867194 a 10.512752,10.512752 0 0 0 2.00714,0.755017 8.5153295,8.5153295 0 0 0 2.169375,0.286512 4.2624432,4.2624432 0 0 0 2.417928,-0.554303 2.0547653,2.0547653 0 0 0 0.783616,-1.796547 1.6151411,1.6151411 0 0 0 -0.898533,-1.567753 6.6899334,6.6899334 0 0 0 -2.866674,-0.458626 h -1.204284 v -2.503725 h 1.213643 a 5.5144167,5.5144167 0 0 0 2.666481,-0.477866 1.7202686,1.7202686 0 0 0 0.850694,-1.634311 c 0,-1.185073 -0.745555,-1.777827 -2.236453,-1.777827 a 5.1321347,5.1321347 0 0 0 -1.577113,0.258432 7.8272222,7.8272222 0 0 0 -1.767947,0.888654 l -1.538634,-2.284292 a 8.5153295,8.5153295 0 0 1 5.122367,-1.547994 z m 12.892495,0.229313 h 2.752798 v 15.692611 h -3.34506 v -9.069569 -1.490795 l 0.0572,-1.624952 c -0.554308,0.544751 -0.955945,0.955767 -1.147086,1.080008 l -1.777307,1.433597 -1.596352,-1.99726 z" /><path
       id="path5"
       style="fill:#fff;stroke:none;stroke-width:0.220139;stroke-linecap:round;stroke-linejoin:round;stroke-miterlimit:0;stroke-dasharray:none;paint-order:stroke fill markers"
       d="m 23.334489,4 v 3.372619 h -1.924463 l 1.294762,1.533434 1.295281,1.533435 1.294761,-1.533435 1.294762,-1.533434 H 24.665649 V 4 Z" /></g></svg>
