<?xml version="1.0" encoding="UTF-8" standalone="no"?>
<!-- Created with Inkscape (http://www.inkscape.org/) -->

<svg
   width="48"
   height="48"
   viewBox="0 0 48 48"
   version="1.1"
   id="svg1"
   xml:space="preserve"
   xmlns="http://www.w3.org/2000/svg"
   xmlns:svg="http://www.w3.org/2000/svg"><defs
     id="defs1" /><path
     id="path38"
     style="baseline-shift:baseline;display:inline;overflow:visible;opacity:1;vector-effect:none;fill:#fff;stroke:none;stroke-linecap:round;stroke-linejoin:round;stroke-opacity:1;enable-background:accumulate;stop-color:#000000;stop-opacity:1"
     d="m 23,4.7695312 v 6.8066408 l -9.355469,5.40039 -6.1093748,-3.527343 -1,1.732422 6.2050778,3.582031 v 10.582031 l -6.2050778,3.582031 1,1.732422 L 13.740234,31.078125 23,36.423828 v 6.960938 h 2 v -6.960938 l 9.164062,-5.291016 6.109376,3.527344 1,-1.732422 -6.013672,-3.470703 V 18.652344 l 6.013672,-3.470703 -1,-1.732422 -6.015626,3.472656 L 25,11.576172 V 4.7695312 Z m 1,8.5390628 9.259766,5.345703 V 29.345703 L 24,34.691406 14.740234,29.345703 V 18.654297 Z" /><circle
     style="display:inline;fill:#fff;stroke:none;stroke-linecap:round;stroke-linejoin:round;stroke-opacity:1"
     id="circle11"
     cx="13.74093"
     cy="18.076923"
     r="2.8" /><circle
     style="display:inline;fill:#fff;stroke:none;stroke-linecap:round;stroke-linejoin:round;stroke-opacity:1"
     id="circle12"
     cx="13.74093"
     cy="29.923077"
     r="2.8" /><circle
     style="display:inline;fill:#fff;stroke:none;stroke-linecap:round;stroke-linejoin:round;stroke-opacity:1"
     id="circle13"
     cx="24"
     cy="35.846153"
     r="2.8" /><circle
     style="display:inline;fill:#fff;stroke:none;stroke-linecap:round;stroke-linejoin:round;stroke-opacity:1"
     id="circle14"
     cx="34.259071"
     cy="29.923077"
     r="2.8" /><circle
     style="display:inline;fill:#fff;stroke:none;stroke-linecap:round;stroke-linejoin:round;stroke-opacity:1"
     id="circle15"
     cx="34.259071"
     cy="18.076923"
     r="2.8" /><circle
     style="display:inline;fill:#fff;stroke:none;stroke-linecap:round;stroke-linejoin:round;stroke-opacity:1"
     id="circle16"
     cx="24"
     cy="12.153846"
     r="2.8" /></svg>
