<?xml version="1.0" encoding="UTF-8"?>
<svg version="1.1" viewBox="0 0 48 48" xmlns="http://www.w3.org/2000/svg">
    <path d="m31.821 4c-4.3744 0-4.7326 3.1299-4.7326 5.6316s1.6729 7.6922 3.2025 7.6922 7.6922-4.7463 7.6922-8.8062-5.0614-4.5176-6.1621-4.5176zm7.0891 10.222c-3.0163 0-6.5307 4.5888-6.5307 5.7182 0 1.1293 3.8598 2.3705 5.7182 2.3705v0.01675c1.8441 0 4.1885-0.25833 4.1742-3.532 0-0.81484-0.34533-4.5734-3.3617-4.5734zm-15.217 2.2113c-1.728-0.02502-3.0152 0.72572-3.68 1.3905-8.6487 8.6487-15.527 24.559-14.097 25.989 1.4295 1.4295 17.357-5.5032 26.005-14.08v0.01396c1.3295-1.3295 2.959-5.1767-1.9014-10.051-2.4302-2.4374-4.5989-3.2361-6.3269-3.2612z" fill="#fff" stroke-width="1.4296"/>
</svg>
