<?xml version="1.0" encoding="UTF-8"?>
<svg enable-background="new 0 0 48 48" version="1.1" viewBox="0 0 48 48" xml:space="preserve" xmlns="http://www.w3.org/2000/svg">
<path d="m25.374 16.185c-4.4445 0-8.0612 3.6167-8.0612 8.0612 0 4.4436 3.6167 8.0603 8.0612 8.0603s8.0612-3.6167 8.0612-8.0603c0-4.4445-3.6167-8.0612-8.0612-8.0612z" fill="#fff"/><path d="m24 4c-9.3598 0-16.947 7.584-16.947 16.946 0 9.3616 7.5868 16.947 16.947 16.947 9.3598 0 16.946-7.5849 16.946-16.947 0-9.3626-7.5859-16.946-16.946-16.946zm1.3739 30.503c-5.6566 0-10.259-4.6008-10.259-10.261 0-5.6585 4.6018-10.262 10.259-10.262s10.26 4.6036 10.26 10.262c0 5.6603-4.6027 10.261-10.26 10.261z" fill="#fff"/><path d="m38.752 42.468c-0.18976 0.22418-1.1656 1.333-1.7655 1.333-0.04558 0-0.08837-0.0074-0.13023-0.01954-3.106-0.87719-7.5384-1.3814-12.15-1.3814-3.4148 0-8.4826 0.2772-13.244 1.5944-0.01488 0.0028-0.0307 0.0056-0.04744 0.0056-0.03349 0-0.06512-0.0084-0.09302-0.02233-0.17581-0.10139-1.7144-0.99626-2-1.4548-0.025116-0.04372-0.049301-0.11628-0.00279-0.21209 0.26325-0.57766 4.3757-4.3134 6.1357-4.5952 0.03349-0.0047 0.06511-0.0028 0.09488 0.01209 0.05116 0.0186 5.3087 2.0334 8.4463 1.9107 4.5348-0.17953 8.6342-2.159 8.6742-2.1804 0.03628-0.01861 0.07907-0.02233 0.11814-0.01581 1.8409 0.40185 5.7943 4.6064 5.9571 4.7869 0.06791 0.06418 0.06977 0.17023 0.0074 0.23906z" fill="#fff"/>
</svg>
