<?xml version="1.0" encoding="UTF-8"?>
<svg version="1.1" viewBox="0 0 48 48" xmlns="http://www.w3.org/2000/svg">
    <path d="m25.195 6.2324c-0.92901 0.038507-1.7247 0.67737-1.9631 1.5761-0.3683 1.318-0.67701 2.6143-0.95592 3.898-3.706 0.21969-7.9171 0.14172-12.64-0.58687-2.655-0.46564-3.2722 3.5595-0.59969 3.9108 4.5658 0.70442 8.7627 0.85463 12.494 0.68682-0.26689 1.6907-0.46546 3.3268-0.60738 4.9077-6.5327 1.7552-11.192 4.6428-13.975 7.8318-1.6731 1.9173-2.7099 3.9525-2.9164 6.02-0.20653 2.0674 0.6078 4.2254 2.3065 5.5048 2.355 1.7737 5.4056 1.9462 8.3367 1.2301 2.252-0.55018 4.5283-1.6211 6.7247-3.0625 0.1496 0.89223 0.32291 1.8657 0.32291 1.8657 0.52153 2.9097 4.9108 1.9225 4.1363-0.93029 0 0-0.30718-1.5157-0.58688-3.9415 3.3743-3.0442 6.3173-6.9248 7.983-11.251 1.0556-0.15054 4.7153 0.59688 6.1481 2.7627 0.52499 1.133 0.54512 2.6501-0.29984 4.6284-0.84489 1.9783-2.5738 4.3137-5.2639 6.653-2.2144 1.8477 0.64142 5.1352 2.7806 3.2009 3.0557-2.6571 5.2002-5.4227 6.3813-8.1881 1.1811-2.7653 1.3786-5.6364 0.24859-8.0753-1.13-2.4389-3.4977-4.1943-6.571-5.0538-0.68979-0.19291-1.5616-0.19769-2.3296-0.3101 0.0555-0.34017 0.20803-0.6561 0.24603-0.99948 0.16039-1.2706-0.53901-2.3933-2.1143-2.3859-1.5753 0.0073-2.0902 1.616-2.5705 3.1471-1.4727 0.05687-2.9584 0.12018-4.6386 0.39467 0.15323-1.396 0.34707-2.8317 0.60482-4.3106 8.4935-0.99841 13.649-3.4418 13.649-3.4418 1.9184-0.88619 1.2982-3.7591-0.81496-3.775-0.31029-0.0018-0.61667 0.06922-0.89441 0.20758 0 0-4.1223 1.9505-11.092 2.9318 0.18491-0.7718 0.37282-1.5425 0.592-2.327 0.41016-1.3938-0.67026-2.7783-2.122-2.7191zm2.9395 17.647c-0.91259 1.8562-1.9983 3.6581-3.2573 5.3075-0.03894-1.5733-0.0094-3.297 0.07688-5.1384 0.75397-0.19319 2.484-0.36776 3.1804-0.16914zm-7.4833 1.2301c-0.09618 3.1707 0.01403 5.9161 0.19733 8.2137-0.02972 0.0233-0.05216 0.05633-0.08201 0.07945-2.4059 1.8643-4.9499 3.1635-7.0963 3.6878-2.1464 0.52437-3.7315 0.29156-4.7821-0.49974-0.54341-0.40932-0.72473-0.79869-0.63557-1.6914 0.08922-0.89278 0.64449-2.2286 1.8888-3.6545 1.9058-2.1841 5.3821-4.5325 10.51-6.1353z" fill="#fff" stroke-width="1.3121"/>
</svg>
