<?xml version="1.0" encoding="UTF-8"?>
<svg enable-background="new 0 0 48 48" version="1.1" viewBox="0 0 48 48" xml:space="preserve" xmlns="http://www.w3.org/2000/svg">
<g transform="matrix(.93015 0 0 .93015 1.677 1.6746)" fill="#fff">
	<path d="m23.91 9.29c-6.697 0-12.142 5.446-12.142 12.128 0 3.937 1.872 7.769 5.006 10.219 0 0 0 0.015 0.013 0.015 0.464 0.515 1.806 2.104 1.716 3.406-0.026 0.529 0.438 1.291 0.916 1.514 0.052 0.026 0.116 0.034 0.18 0.051v0.182c-0.232 0.09-0.387 0.322-0.387 0.592 0 0.26 0.155 0.495 0.387 0.595v0.683c-0.232 0.09-0.387 0.323-0.387 0.595 0 0.27 0.155 0.506 0.387 0.593v0.725c-0.232 0.103-0.387 0.335-0.387 0.592 0 0.272 0.155 0.513 0.387 0.595v0.542c0 0.492 0.387 0.889 0.877 0.889h0.026c0.555 1.369 1.884 2.298 3.407 2.298 1.509 0 2.85-0.932 3.404-2.298h0.04c0.488 0 0.864-0.402 0.864-0.889v-0.542c0.244-0.079 0.402-0.322 0.402-0.595 0-0.257-0.155-0.489-0.402-0.592v-0.728c0.244-0.087 0.402-0.323 0.402-0.593 0-0.271-0.155-0.505-0.402-0.595v-0.682c0.244-0.1 0.402-0.335 0.402-0.595 0-0.27-0.155-0.502-0.402-0.592v-0.182h0.141c0.091 0 0.168-0.017 0.259-0.051 0.399-0.17 0.916-0.881 0.761-1.446-0.258-0.955 0.762-2.491 1.665-3.482 1.521-1.188 2.787-2.75 3.651-4.49 0.89-1.803 1.368-3.779 1.368-5.728-0.011-6.689-5.456-12.134-12.152-12.134zm-4.258 8.259c-1.541 1.311-3.409 1.647-4.167 0.756-0.76-0.892-0.126-2.679 1.417-3.992 1.542-1.311 3.408-1.648 4.167-0.759 0.758 0.894 0.125 2.681-1.417 3.995zm7.277 24.361h-0.077c-0.296 0-0.556 0.207-0.631 0.489-0.26 1.058-1.215 1.807-2.311 1.807-1.097 0-2.052-0.749-2.31-1.807-0.078-0.282-0.336-0.489-0.633-0.489h-0.077v-0.091h6.039zm0-1.381h-6.039v-0.617h6.039zm0-1.91h-6.039v-0.58h6.039zm0-2.646v0.776h-6.039v-0.776c0-0.013 0-0.027-0.012-0.037h6.063c-0.012 0.011-0.012 0.024-0.012 0.037z"/>
	<path d="m23.911 7.77c0.358 0 0.646-0.287 0.646-0.645v-3.98c0-0.352-0.29-0.643-0.646-0.645-0.356 0-0.644 0.293-0.644 0.647v3.977c1e-3 0.359 0.29 0.646 0.644 0.646z"/>
	<path d="m14.128 12.002c0.252-0.252 0.252-0.661 0-0.91l-2.815-2.815c-0.249-0.249-0.658-0.249-0.913 0-0.251 0.25-0.249 0.661 2e-3 0.915l2.813 2.811c0.252 0.25 0.661 0.25 0.913-1e-3z"/>
	<path d="m37.601 7.917c-0.249-0.252-0.662-0.25-0.914 2e-3l-2.812 2.812c-0.25 0.252-0.25 0.661-3e-3 0.912 0.255 0.252 0.663 0.252 0.912 0l2.817-2.815c0.247-0.249 0.247-0.657 0-0.911z"/>
</g>
</svg>
