<?xml version="1.0" encoding="UTF-8"?>
<svg version="1.1" viewBox="0 0 48 48" xmlns="http://www.w3.org/2000/svg">
    <path d="m21.986 4-2.2466 3.3521c-0.4432-1.4729-1.294-1.2894-3.0951-1.2894s-4.5643 0.042437-4.5329 3.4713c0.03135 3.4287 0.95668 4.7615 2.5204 4.7315 0.84338-0.0162 2.0878 0.0084 2.0878 0.0084-0.2703 2.3683 0.20573 2.9633 0.56844 4.0313-9.4476 4.3335-12.414 12.832-11.59 23.492l2.0564-2.209c0.58026 2.2211 1.2715 3.1171 1.9289 4.4117h2.8046c-1.5326-1.7364-2.1872-4.0576-3.0282-6.255l3.6134-3.6134-1.6844 5.0387c17.381-13.432 21.348 1.7702 28.635-6.9446 0.38777 4.056 0.41024 8.0592-2.2696 11.774h2.9258c4.5635-13.309-0.062108-21.32-10.589-25.923 1.4567-5.6381-1.8841-9.4025-7.1766-9.5987-0.15788-0.5671 0.16278-1.6727 0.9279-3.2832zm-5.6677 4.14c1.8479 0 2.1369 0.012452 1.6405 1.5946l-0.75026 2.3887c-2.8169 0-2.8589 0.02815-2.8589-1.3605 0-2.6068 0.06875-2.6228 1.9687-2.6228zm-0.45559 1.279c-0.11828 0-0.21526 0.09698-0.21526 0.21526v0.907c0 0.11828 0.09698 0.21108 0.21526 0.21108h0.907c0.11828 0 0.21317-0.0928 0.21317-0.21108v-0.907c0-0.11828-0.09489-0.21526-0.21317-0.21526zm5.1411 0.07942c0.62339 1.8861 3.0353 0.4361 4.9927 1.7806 1.9573 1.3444 3.6691 3.8003 0.67921 7.5465-1.9127-2.388-3.7888-2.3744-5.2017 0.61024-3.6543-2.1927-3.045-5.7513-0.47022-9.9373zm3.1787 9.4566c0.08544 0.0077 0.16442 0.04182 0.2278 0.10867l4.8986 6.1442c0.63596 0.79761-0.19073 1.2578-0.79833 0.62069l-0.4117-0.4326-1.0178 0.87147c-0.86991 0.74526-1.2062 0.81573-1.8516 0.0042-0.60301-0.7582-0.14192-1.1055 0.57889-1.7032l0.99478-0.8255-0.65622-0.87356-0.70428 0.5977c-0.61135 0.53037-1.2275-0.49448-0.7001-0.91536l0.57471-0.50575-1.7346-2.2842c-0.24978-0.38078 0.22953-0.83992 0.59979-0.80669zm4.652 0.92999c7.6954 2.6622 12.237 9.9607 8.4681 12.213-4.3774 2.6166-9.3575-4.2243-21.705 1.465l2.5873-8.1463-10.215 10.731c0.076078-6.6792 3.2053-12.265 10.514-16.017 1.3073 0.83728 2.4992 1.9049 4.2194 1.9164-0.08512 0.93786-0.32329 1.8965 0.48903 2.7147-0.43602 1.6187 1.3259 5.3913 4.7544 3.1097 5.6292-0.08464 3.3962-3.7258 0.12957-7.1118zm-8.8798 18.184a1.6013 1.6013 0 0 0-1.6029 1.6008 1.6013 1.6013 0 0 0 1.6029 1.6029 1.6013 1.6013 0 0 0 1.6008-1.6029 1.6013 1.6013 0 0 0-1.6008-1.6008zm9.8286 0a1.6013 1.6013 0 0 0-1.6029 1.6008 1.6013 1.6013 0 0 0 1.6029 1.6029 1.6013 1.6013 0 0 0 1.6008-1.6029 1.6013 1.6013 0 0 0-1.6008-1.6008z" fill="#fff"/>
</svg>
