<?xml version="1.0" encoding="UTF-8"?>
<svg version="1.1" viewBox="0 0 48 48" xmlns="http://www.w3.org/2000/svg">
    <path d="m15.76 8.032c-9.499 0.14065-16.736 10.481-7.4571 19.869l2.4749 6.4456c0.4107 1.4743-0.98366 4.7164-0.36711 5.6215 0.7108-1.3899 0.88902-3.377 1.8281-3.6062 1.6507 1.1546 4.0957 1.5459 5.4767 3.0343 0.51657-1.4436-1.5784-2.1829-3.3315-3.0093 1.6379 0.27069 2.7731-0.60753 3.9858 0.80664 0.17875-0.71514-0.04674-1.2629-0.51945-1.7057l-0.74171-1.0014c1.3707 0.71987 4.7783 0.71441 5.5616 1.9754 0.30304-2.3863-2.5605-1.5685-3.9133-2.2826 0.87842 0.10779 1.7494-0.32319 2.6172-0.20478-0.23258-0.66936-0.63098-0.95946-1.2212-0.90903-4.6541 1.0983-4.9813-6.6836-4.9173-8.8905 6.25-2.6225 12.556 2.0825 17.581-2.4349 1.6443-2.4332 8.4357 3.9221 10.526 9.3026 3.1263-1.3093-5.7918-9.8577-8.3811-12.172 1.3528-3.5584-3.9191-8.7381-8.6808-6.4531-3.3513-3.1493-7.0831-4.4324-10.519-4.3828zm13.838 6.8627a1.918 2.0139 0 0 1 1.9155 2.0104 1.918 2.0139 0 0 1-0.22226 0.94399 1.226 1.2876 0 0 0-1.2212-1.2237 1.226 1.2876 0 0 0-1.2262 1.2911 1.226 1.2876 0 0 0 0.42455 0.97396 1.918 2.0139 0 0 1-1.5883-1.9854 1.918 2.0139 0 0 1 1.918-2.0104zm3.8359 10.441c-3.708 0-6.7129 3.0048-6.7129 6.7129 0 3.7068 3.0048 6.7129 6.7129 6.7129 3.7068 0 6.7129-3.0061 6.7129-6.7129 0-3.708-3.0061-6.7129-6.7129-6.7129zm-20.191 1.9329c0.45558-9e-3 0.8233 0.23543 0.89405 0.73921l1.0114 4.7774c-0.54432 0.15599-0.7821 0.69518-0.67428 1.6682 0.23054-0.26941 0.32583-0.73071 0.85659-0.58188l1.2512 1.5933c-4.2544 0.32861-4.5827-2.0505-5.3218-5.9861 0.22504-1.4614 1.2236-2.1939 1.9829-2.2101z" fill="#fff" stroke-width="1.2786"/>
</svg>
