<?xml version="1.0" encoding="UTF-8"?>
<svg data-name="Layer 1" version="1.1" viewBox="0 0 48 48" xmlns="http://www.w3.org/2000/svg">
    <path d="m43.606 5.6762c-6.4998-0.1247-12.91 1.5279-18.54 4.7794-0.75366 0.4436-1.6985 0.39856-2.4066-0.1147-4.8925-3.6059-11.73-2.8699-15.743 1.6944-4.0131 4.5644-3.8678 11.44 0.33464 15.831 0.78979 0.8677 1.0261 2.1051 0.61176 3.2028-0.37438 1.1006-0.97201 2.2306-0.79619 3.3872 1.1846 7.7929 11.365 7.8523 18.276 7.8742 6.5336-0.02219 16.812-0.6085 17.507-7.105 0.6195-5.7864-6.0142-13.903-13.362-15.834-1.1733-0.29779-2.0861-1.2193-2.3728-2.3953-0.1311-0.55556 0.03486-1.1394 0.43858-1.5429 4.4925-4.352 10.054-7.442 16.122-8.9583 0.47149-0.1051 0.41275-0.79483-0.06972-0.81868zm-25.426 8.6592c0.83364-3.48e-4 1.5095 0.67553 1.5092 1.5092-5.61e-4 1.3438-1.6251 2.0161-2.5752 1.066-0.95006-0.95006-0.27774-2.5746 1.066-2.5752z" fill="#fff" stroke-width="1.2322"/>
</svg>
