<?xml version="1.0" encoding="UTF-8"?>
<svg data-name="Layer 1" version="1.1" viewBox="0 0 48 48" xmlns="http://www.w3.org/2000/svg">
    <path d="m7.207 4a3.1989 3.1989 0 0 0-3.1853 3.5144 38.472 38.472 0 0 0 1.3137 7.1404 0.67119 0.67119 0 0 0 1.1157 0.29844l8.7525-8.7386a0.67119 0.67119 0 0 0 0-0.97343 4.884 4.884 0 0 0-3.255-1.2412zm9.4191 6.0581a0.67119 0.67119 0 0 0-0.42396 0.19803l-8.8529 8.839a0.68547 0.68547 0 0 0-0.14225 0.75588 41.286 41.286 0 0 0 3.6399 6.5546 0.67119 0.67119 0 0 0 1.1157 0.04463l3.9411-3.9579a0.65691 0.65691 0 0 0 0.08647-0.84234c-0.61407-0.95681-1.2009-1.9259-1.7293-2.9398a0.67119 0.67119 0 0 1 0.11436-0.8005l2.4852-2.4852a3.5845 3.5845 0 0 0 0.84234-3.4279c-0.12853-0.51411-0.25672-0.97109-0.37097-1.4281a0.67119 0.67119 0 0 0-0.70567-0.51042zm1.7684 15.268a0.65691 0.65691 0 0 0-0.4909 0.22314l-3.8993 3.8993a0.68547 0.68547 0 0 0 0 0.9288 41.942 41.942 0 0 0 5.1544 5.0401 0.67119 0.67119 0 0 0 0.9288-0.1562l3.9133-3.9133a0.67119 0.67119 0 0 0-0.07252-1.0153 36.287 36.287 0 0 1-5.0401-4.7835 0.65691 0.65691 0 0 0-0.49369-0.22314zm16.225 4.7528a3.2132 3.2132 0 0 0-2.0501 0.92601l-2.6135 2.6693a0.67119 0.67119 0 0 1-0.8005 0.1283l-1.1715-0.65546a0.68547 0.68547 0 0 0-0.8256 0.10041l-3.9718 3.969a0.67119 0.67119 0 0 0 0.11436 1.0571 40.1 40.1 0 0 0 6.8559 3.4v-0.07252a0.67119 0.67119 0 0 0 0.72798-0.14225l9.1821-9.1681a0.68547 0.68547 0 0 0-0.35702-1.1575 27.619 27.619 0 0 1-3.9551-0.9288 3.2132 3.2132 0 0 0-1.1352-0.12551zm8.5154 4.3735a0.68547 0.68547 0 0 0-0.42675 0.19524l-7.4388 7.4388a0.67119 0.67119 0 0 0 0.34307 1.1436 36.973 36.973 0 0 0 4.8839 0.75587 3.1989 3.1989 0 0 0 3.4977-3.1992v-4.6831a4.3985 4.3985 0 0 0-0.14225-1.1436 0.68547 0.68547 0 0 0-0.71682-0.50764z" fill="#fff" stroke-width="1.528"/>
</svg>
