<?xml version="1.0" encoding="UTF-8"?>
<svg version="1.1" viewBox="0 0 48 48" xmlns="http://www.w3.org/2000/svg">
    <path d="m24 4c-0.69658 1e-7 -1.3919 0.26928-1.9256 0.80305l-5.6102 5.6102c-1.0676 1.0675-1.0676 2.7837 0 3.8513l5.6102 5.6102c1.0675 1.0676 2.7837 1.0676 3.8513 0l5.6102-5.6102c1.0676-1.0675 1.0676-2.7837 0-3.8513l-5.6102-5.6102c-0.53376-0.53377-1.229-0.80305-1.9256-0.80305zm-11.662 11.662c-0.69658 0-1.3919 0.26649-1.9256 0.80027l-5.6102 5.6102c-1.0676 1.0676-1.0676 2.7865 0 3.8541l5.6102 5.6102c1.0676 1.0676 2.7865 1.0676 3.8541 0l5.6102-5.6102c1.0676-1.0676 1.0676-2.7865 0-3.8541l-5.6102-5.6102c-0.53382-0.53378-1.2318-0.80027-1.9284-0.80027zm23.325 0c-0.69665 0-1.3947 0.26649-1.9284 0.80027l-5.6102 5.6102c-1.0676 1.0676-1.0676 2.7865 0 3.8541l5.6102 5.6102c1.0676 1.0676 2.7865 1.0676 3.8541 0l5.6102-5.6102c1.0676-1.0676 1.0676-2.7865 0-3.8541l-5.6102-5.6102c-0.53375-0.53378-1.229-0.80027-1.9256-0.80027zm-11.662 11.662c-0.69658-2e-6 -1.3919 0.26649-1.9256 0.80027l-5.6102 5.6102c-1.0676 1.0676-1.0676 2.7865 0 3.8541l5.6102 5.6102c1.0675 1.0676 2.7837 1.0676 3.8513 0l5.6102-5.6102c1.0676-1.0676 1.0676-2.7865 0-3.8541l-5.6102-5.6102c-0.53376-0.53378-1.229-0.80027-1.9256-0.80027z" fill="#fff" stroke-width="1.5223"/>
</svg>
