<?xml version="1.0" encoding="UTF-8" standalone="no"?>
<!-- Created with Inkscape (http://www.inkscape.org/) -->

<svg
   width="48"
   height="48"
   viewBox="0 0 48 48"
   version="1.1"
   id="svg1"
   xml:space="preserve"
   xmlns="http://www.w3.org/2000/svg"
   xmlns:svg="http://www.w3.org/2000/svg"><defs
     id="defs1" /><path
     id="path1"
     style="fill:#fff;fill-opacity:1;stroke-width:1;stroke-linecap:round;stroke-linejoin:round;stroke-miterlimit:0;paint-order:stroke fill markers;stroke:none;stroke-dasharray:none"
     d="M 30.332781,6.1825548 C 29.834887,6.2245728 29.491135,6.639237 29.180575,6.9773815 28.058198,8.19944 26.442483,10.394938 26.161405,10.974949 h -5.868436 c 0,0 -1.735345,-3.0307934 -3.067992,-4.0952128 C 16.302072,6.1425856 15.902102,6.0621142 14.836592,6.8582548 12.750468,8.4169919 12.349875,12.570191 12.547803,14.328062 8.9770623,19.139543 3.9999998,32.101569 3.9999998,41.682258 l 39.9952062,0.138656 c 0,-9.43506 -6.904712,-24.869448 -9.959744,-27.553392 C 33.972107,11.904866 33.638824,8.775415 31.832602,6.973475 31.200777,6.3431705 30.72003,6.1498737 30.332781,6.1825548 Z M 29.27822,15.67751 c 0.220529,2.99e-4 0.656171,-0.03031 0.656171,0.554621 0,0.805285 -0.0039,1.179546 -0.0039,1.179546 0,0.0456 0.03642,0.08202 0.08202,0.08202 h 1.269379 c 0.463266,0 0.464459,0.431628 0.464788,0.652265 0,1.363624 -1.104829,2.470407 -2.468454,2.470407 -1.363625,0 -2.468454,-1.106783 -2.468454,-2.470407 0,-1.363625 1.104829,-2.468454 2.468454,-2.468454 z m -11.988797,0.10155 c 0.220527,2.99e-4 0.656171,-0.03031 0.656171,0.554622 0,0.805283 -0.0039,1.179545 -0.0039,1.179545 0,0.04559 0.03643,0.08202 0.08202,0.08202 h 1.269379 c 0.463264,0 0.464525,0.43163 0.464788,0.652266 0,1.363624 -1.104835,2.470407 -2.468454,2.470407 -1.363624,0 -2.470407,-1.106783 -2.470408,-2.470407 10e-7,-1.363622 1.106784,-2.468454 2.470408,-2.468454 z m 7.465901,3.603084 c 1.16844,0 1.317244,1.215656 0.216771,2.316129 l -0.833884,0.833884 c -0.59109,0.591092 -1.168349,0.612689 -1.781037,0 L 21.52329,21.698273 c -1.081387,-1.081388 -0.763363,-2.314176 0.220677,-2.314176 1.003492,0 2.007867,-0.002 3.011357,-0.002 z" /></svg>
