<?xml version="1.0" encoding="UTF-8"?>
<svg data-name="Layer 1" version="1.1" viewBox="0 0 48 48" xmlns="http://www.w3.org/2000/svg">
    <path d="m43.214 26.34-3.7418 1.4344v11.225a1.3471 1.3471 0 1 1-2.6816 0v-0.63611a46.511 46.511 0 0 0-18.273-6.9847l0.39913 1.2473a0.97287 0.97287 0 0 1-0.93545 1.2473h-0.63611l1.3221 4.4278a0.97287 0.97287 0 0 1-0.93545 1.2473h-4.1534a0.91051 0.91051 0 0 1-0.87309-0.66105l-2.3698-7.9326h-2.2825a2.0331 2.0331 0 0 1-2.0455-2.0455v-0.92298a1.9582 1.9582 0 0 1-2.0081-1.8834v-4.3904a1.9582 1.9582 0 0 1 1.9582-1.9707v-0.91051a2.0455 2.0455 0 0 1 2.0455-2.058h5.9744c8.232 0 17.212-3.5547 22.85-7.3339v-0.69847a1.3471 1.3471 0 0 1 2.6816 0v11.3l3.7418 1.4219a1.1724 1.1724 0 0 1 0.74836 1.0851v2.719a1.16 1.16 0 0 1-0.78578 1.0727z" fill="#fff" stroke-width="1.2473"/>
</svg>
