<?xml version="1.0" encoding="UTF-8"?>
<svg data-name="Layer 1" version="1.1" viewBox="0 0 48 48" xmlns="http://www.w3.org/2000/svg">
    <path d="m10.775 4.0076a1.8435 1.8435 0 0 0-1.6699 1.8359v25.838a1.8582 1.8582 0 0 0 2.9492 1.4746l2.3418-1.5801v-17.172a2.1189 2.1189 0 0 1 3.3906-1.6973l12.268 8.3184 0.99609-0.66992a1.8435 1.8435 0 0 0 0.01563-3.0977l-19.012-12.889a1.8435 1.8435 0 0 0-1.2793-0.36133zm6.9922 10.49a1.8435 1.8435 0 0 0-1.668 1.8359v25.838a1.8582 1.8582 0 0 0 2.9492 1.4746l18.994-12.801a1.8435 1.8435 0 0 0 0.01563-3.0977l-19.01-12.891a1.8435 1.8435 0 0 0-1.2812-0.35938z" fill="#fff" stroke-width="1.4748"/>
</svg>
