<?xml version="1.0" encoding="UTF-8"?>
<svg data-name="Layer 1" version="1.1" viewBox="0 0 48 48" xmlns="http://www.w3.org/2000/svg">
    <path d="m5.5992 10.32a1.6 1.6 0 0 0-1.5989 1.5989v24.161a1.6 1.6 0 0 0 1.5989 1.5989h36.802a1.6 1.6 0 0 0 1.5989-1.5989v-24.161a1.6 1.6 0 0 0-1.5989-1.5989zm0.4401 1.3724 11.495 11.482 1.1328 1.1328 1.4401 1.4114a5.7199 5.7199 0 0 0 7.8931 0l1.3594-1.4114 1.1328-1.1198 11.495-11.495 1.1198 1.1198-11.372 11.388 10.958 8.9738-1.026 1.2109-11-9.052-1.5859 1.5208a7.1732 7.1732 0 0 1-10.161 0l-1.5182-1.5208-11.042 9.052-1.026-1.2109 10.961-8.9738-11.375-11.388z" fill="#fff" stroke-width="1.3333"/>
</svg>
