<?xml version="1.0" encoding="UTF-8"?>
<svg data-name="Layer 1" version="1.1" viewBox="0 0 48 48" xmlns="http://www.w3.org/2000/svg">
    <path d="m13.374 8.564a9.3845 9.3845 0 0 0-9.3735 9.3735 9.3622 9.3622 0 0 0 7.9695 9.2603v4.4582l5.0372-4.345h9.909a9.3735 9.3735 0 0 0 0-18.747zm0.75754 7.989a1.6272 1.6272 0 0 1 0.24598 0.0022 1.6272 1.6272 0 0 1 0 3.2435 1.6275 1.6275 0 1 1-0.24598-3.2457zm6.0712 0a1.6272 1.6272 0 0 1 0.39836 0.0065 1.6272 1.6272 0 0 1-0.23945 3.2392 1.6161 1.6161 0 0 1-1.6152-1.6174 1.6272 1.6272 0 0 1 1.4563-1.6283zm5.9102 0a1.6272 1.6272 0 0 1 0.24598 0.0022 1.6272 1.6272 0 0 1 0 3.2435 1.6275 1.6275 0 1 1-0.24598-3.2457zm11.124 1.4737a10.399 10.399 0 0 1-10.388 10.242h-9.5172l-3.3436 2.9192a8.9164 8.9164 0 0 0 7.6778 4.4582h10.031l4.4582 3.7899v-3.8443l-0.03265-0.0566a8.9164 8.9164 0 0 0 1.1145-17.508z" fill="#fff" stroke-width="1.1146"/>
</svg>
