<?xml version="1.0" encoding="UTF-8"?>
<svg version="1.1" viewBox="0 0 48 48" xmlns="http://www.w3.org/2000/svg">
    <path d="m22.566 4c-1.8816 0.0028257-3.5142 1.2996-3.9428 3.1318-8.3506 1.8538-14.617 9.3082-14.617 18.209 0 3.7141 1.1039 7.1694 2.9815 10.08-0.44876 0.66788-0.68871 1.4542-0.68933 2.2588-9.22e-4 2.2412 1.8161 4.0582 4.0572 4.0572 0.80782-0.0013 1.5969-0.24381 2.266-0.69648 2.9032 1.8638 6.3449 2.96 10.044 2.96 8.9493 0 16.44-6.332 18.242-14.75 1.8106-0.4467 3.0832-2.0706 3.0841-3.9356-0.0024-1.8691-1.2821-3.4945-3.0984-3.9356-1.5546-7.1582-7.2206-12.798-14.397-14.302-0.44909-1.8061-2.0698-3.0747-3.9308-3.0769zm3.6756 5.7555c5.9281 1.3504 10.582 5.9789 11.976 11.89-1.0059 0.4719-1.7741 1.3358-2.1252 2.39-6.3907-0.26049-11.637 1.4264-15.661 3.573 2.0741-3.8171 3.7466-8.9783 3.5897-15.776 0.98164-0.37827 1.7779-1.1232 2.2206-2.0775zm-7.3298 0.0477c0.47534 0.9912 1.3327 1.747 2.3757 2.0942 0.159 6.8948-1.6634 11.801-3.771 15.327-2.0338 3.4027-4.2263 5.367-5.4788 6.7716-0.52742-0.243-1.1009-0.36989-1.6816-0.37209-0.42121 0.0012-0.83966 0.06797-1.2403 0.19797-1.5403-2.4592-2.4448-5.3591-2.4448-8.4818 0-7.5541 5.213-13.85 12.241-15.537zm16.119 16.894c0.36581 0.0031 0.73736 0.01366 1.1115 0.03101 0.37163 0.99864 1.1213 1.8109 2.0871 2.2612-1.6487 7.0812-7.9719 12.346-15.564 12.346-3.1089 0-5.9961-0.898-8.4484-2.4258 0.1274-0.39786 0.19257-0.81301 0.1932-1.2308-2e-3 -0.61536-0.14385-1.2222-0.41503-1.7746 0.19184-0.21651 0.46242-0.49837 0.78235-0.83006 2.9712-2.9341 9.4446-8.0796 19.17-8.3649 0.35703-0.0105 0.71708-0.01498 1.0829-0.01197z" fill="#fff" stroke-width="1.3067"/>
</svg>
