<?xml version="1.0" encoding="UTF-8" standalone="no"?>
<!-- Created with Inkscape (http://www.inkscape.org/) -->

<svg
   width="48"
   height="48"
   viewBox="0 0 48 48"
   version="1.1"
   id="svg1"
   xmlns="http://www.w3.org/2000/svg"
   xmlns:svg="http://www.w3.org/2000/svg">
  <defs
     id="defs1" />
  <g
     id="layer1">
    <path
       d="m 35.656237,5.00075 -15.697,9.4114 1.1621,-1.1556 -0.28997,-0.74625 -2.7867,-1.9552 -1.4712,-0.71214 h -1.049 l -1.4712,0.71214 -2.7867,1.9552 -0.28997,0.74625 1.1621,1.1556 -3.7183999,3.5607 -0.37313,1.0746 1.6034,1.5543 2.4476999,2.3048 h 7.9017 l 2.4477,-2.3048 1.1642,-1.1301 14.897,8.0191 c 2.6326,-7.4249 2.3566,-15.306 -2.8529,-22.491 z m -23.321,9.6076 1.1684,1.1002 h 5.0915 l 1.1684,-1.1002 0.85287,3.1471 -2.4392,2.2345 h -4.2558 l -2.4392,-2.2345 0.85286,-3.1471 z m -2.7888999,7.2088 -0.2516,2.9339 3.4348999,3.2537 3.3198,0.03625 3.3198,-0.03625 3.4349,-3.2537 -0.2516,-2.9339 -3.3155,3.2366 -3.1876,0.0021 -3.1876,-0.0021 z m -0.57568,6.727 -0.33262,3.8806 3.7312999,3.5799 3.6801,0.03625 3.6801,-0.03625 3.7313,-3.5799 -0.33262,-3.8806 -3.5735,3.5735 h -7.0105 l -3.5734999,-3.5735 z m -0.68656,8.0148 -0.42643,4.9658 c 2.6425999,1.0768 5.4062999,1.3488 8.1917999,1.4755 2.7855,-0.1267 5.5492,-0.3987 8.1918,-1.4755 l -0.42643,-4.9658 -3.8806,4.0021 h -7.7696 l -3.8805999,-4.0021 z"
       style="fill:#fff;stroke:none;stroke-width:1;stroke-dasharray:none"
       id="path1" />
  </g>
</svg>
