<?xml version="1.0" encoding="UTF-8"?>
<svg version="1.1" viewBox="0 0 48 48" xmlns="http://www.w3.org/2000/svg">
    <path d="m18.087 4.2322a7.8589 7.8589 0 0 1 7.3231 5.0062 6.2131 6.2131 0 0 1 4.2765-1.7121 6.2131 6.2131 0 0 1 6.1825 6.8089 5.6135 5.6135 0 0 1 2.5171-0.59962 5.6135 5.6135 0 0 1 5.6135 5.6135c-0.0038 2.4712-1.3039 4.0736-3.6679 5.4642l-0.31895 0.14799h-14.728l-0.80375 3.7559 6.2897 0.51414-7.5999 14.538 2.3398-11.807-5.7998-0.3266 1.3995-6.6724h-13.301l-0.66086-0.32916c-2.2964-1.3472-3.1461-2.8348-3.1487-5.1338a5.4642 5.4642 0 0 1 6.5066-5.3622 7.8589 7.8589 0 0 1-0.27557-2.0477 7.8589 7.8589 0 0 1 7.8563-7.8589z" fill="#fff" stroke-width="1.2758"/>
</svg>
