<?xml version="1.0" encoding="UTF-8"?>
<svg version="1.1" viewBox="0 0 48 48" xmlns="http://www.w3.org/2000/svg">
    <path d="m18.725 9.4518c-0.03439 0.04705 0.0976 2.3074 0.2934 5.0242 0.19581 2.7168 0.3501 5.3833 0.36163 5.57 0.41684-0.04353 0.44715-0.0043 1.5193-0.14784 0.81503-0.1091 3.9598-0.20015 6.987-0.20015s6.1581 0.08835 6.9574 0.1956l1.4511 0.1956 0.19332-2.4541c0.10612-1.3492 0.27894-3.7449 0.38438-5.3244 0.06038-1.6081 0.07051-2.8089 0.07051-2.8089 0-1e-6 -0.90184 0.72898-2.0697 1.84l-1.3374 1.2714-2.7065-3.0204-1.4579 1.5261-1.4602 1.5239-1.5239-1.5034-1.5261-1.5034-1.2941 1.4806-1.2941 1.4761-1.7399-1.6126c-0.95848-0.88743-1.7737-1.5754-1.8082-1.5284zm-5.3812 5.6405-0.75738 1.865-1.9901 0.07733 1.5375 1.2987-0.53904 1.9151 1.7081-1.0621 1.6558 1.1054-0.48445-1.9537 1.5671-1.2305-2.0083-0.14556zm-4.2304 5.0037-1.4101 3.4685-3.7027 0.14556 2.8635 2.4154-1.0053 3.564 3.1796-1.9765 3.0795 2.0561-0.89839-3.6345 2.909-2.2926-3.7323-0.26838zm18.773 0.82106c-3.0002 0-6.0015 0.08092-6.9165 0.24109l-1.4124 0.24791 0.02274 1.9674c0.03354 3.1514 1.7237 5.6715 4.749 7.0802 2.0219 0.94144 5.0925 0.94144 7.1143 0 3.0252-1.4087 4.7154-3.9289 4.749-7.0802l0.01819-1.9674-1.4079-0.24791c-0.91505-0.16016-3.9164-0.24109-6.9165-0.24109zm0.45033 11.631c-0.26433-2e-3 -0.52949 8.39e-4 -0.79604 0.0068-3.7317 0.08419-7.6585 0.9205-10.938 2.4131-1.8787 0.8552-4.0667 2.4882-4.8468 3.5822h32.244c-1.434-2.1289-5.8612-4.3838-10.876-5.4949-1.2566-0.27841-2.6043-0.43838-3.9984-0.489-0.26138-0.0095-0.52489-0.01623-0.78922-0.01819z" fill="#fff" stroke-width="1.1645"/>
</svg>
