<?xml version="1.0" encoding="UTF-8"?>
<svg version="1.1" viewBox="0 0 48 48" xmlns="http://www.w3.org/2000/svg">
    <path d="m7.5704 4.9989 5e-3 0.0075v-5e-3zm5e-3 0.0075c0.0013 2.0016 0.76702 3.8667 1.3452 5.0306 0.58631 1.1649 2.1265 3.7729 4.3155 4.4681 2.1891 0.69897 4.9275 0.80214 5.9132-0.72509 0.81546-1.2546 1.1455-2.3581-2.4428-3.5704a13.211 13.211 0 0 0-2.2878-0.47756c-0.88331-0.11521-4.7389-1.2355-5.8232-3.0329zm32.872-0.0075c0 0.0034 5e-6 0.0066 0 0.01l5e-3 -0.0075zm0 0.01-1.0226 1.6952c-1.083 1.7961-4.9399 2.9177-5.8232 3.0329a13.237 13.237 0 0 0-2.2903 0.47756c-3.5883 1.211-3.2583 2.3133-2.4428 3.5704 0.98828 1.5259 3.7317 1.4242 5.9207 0.72009 2.1904-0.69897 3.7269-3.3081 4.3055-4.4731 0.5815-1.163 1.3501-3.0235 1.3527-5.0231zm-20.25 12.994c-1.7025 0.05645-2.8988 1.9237-3.6405 2.9079-0.79114 1.0497-2.2334 2.7945-4.4481 3.0979-2.2134 0.30084-4.7545 0.0438-8.1085-4.7056 0 0 2.6113 6.3371 6.9459 7.0834 4.3359 0.74505 6.3835-1.3519 7.5484-2.6103s1.446-2.0501 3.5454-2.3778c0 0 1.3046-0.06441 0.95512-1.3702-0.34948-1.3032-0.55835-1.7978-2.4453-2.0078l-5e-3 -5e-3c-0.11801-0.01312-0.23404-0.01626-0.34754-0.0125zm7.4284 5e-3c-0.05788 0.0022-0.11602 0.0059-0.17502 0.0125l5e-3 -5e-3c-1.887 0.21123-2.0958 0.70449-2.4453 2.0103-0.34948 1.3058 0.95262 1.3702 0.95262 1.3702 2.0995 0.32772 2.3805 1.1207 3.5454 2.3753 1.1649 1.2597 3.2151 3.3567 7.5484 2.6103 4.3333-0.74249 6.9434-7.0784 6.9434-7.0784-3.3553 4.7532-5.8963 5.0102-8.111 4.7081-2.2134-0.3034-3.6569-2.0482-4.4506-3.0979-0.76766-1.0169-2.0188-2.9748-3.813-2.9054zm-6.4683 5.7482c0 2.5283-0.33028 5.7766 0 8.6186 0.3226 2.842 2.8404 10.626 2.8404 10.626s2.5151-7.7844 2.8429-10.626c0.32516-2.842 0-6.0915 0-8.6186-0.66568 1.2456-2.8429 1.3002-2.8429 1.3002s-2.1798-0.05329-2.8404-1.3002z" fill="#fff" stroke-width="1.2802"/>
</svg>
