<?xml version="1.0" encoding="UTF-8"?>
<svg data-name="Layer 1" version="1.1" viewBox="0 0 48 48" xmlns="http://www.w3.org/2000/svg">
    <path d="m31.139 4.0009a9.5809 9.5809 0 0 0-6.3168 2.2632 0.47654 0.47654 0 0 0 0 0.66376 0.464 0.464 0 0 0 0.66376 0 8.6404 8.6404 0 0 1 12.127 12.264 0.48908 0.48908 0 0 0 0 0.66621 0.47654 0.47654 0 0 0 0.31351 0.12492 0.42638 0.42638 0 0 0 0.3527-0.1641 9.5809 9.5809 0 0 0-7.1397-15.818zm0.19594 2.2117a7.2108 7.2108 0 0 0-5.0211 1.8174 0.46693 0.46693 0 0 0 0.61478 0.70295 6.2702 6.2702 0 0 1 4.2251-1.5431 6.2702 6.2702 0 0 1 4.6782 10.446 0.47654 0.47654 0 0 0 0 0.66621 0.43892 0.43892 0 0 0 0.31351 0.12491 0.43892 0.43892 0 0 0 0.30127-0.1641 7.2108 7.2108 0 0 0-5.1117-12.051zm-0.24003 2.9588a4.2387 4.2387 0 0 0-2.7628 1.0532 0.47654 0.47654 0 0 0 0 0.66621 0.464 0.464 0 0 0 0.66621 0 3.3483 3.3483 0 0 1 2.1701-0.81562 3.3107 3.3107 0 0 1 3.2845 3.3482 3.2731 3.2731 0 0 1-0.79113 2.1946 0.47654 0.47654 0 0 0 0 0.66376 0.55178 0.55178 0 0 0 0.31351 0.12736 0.464 0.464 0 0 0 0.3527-0.1641 4.2011 4.2011 0 0 0 1.041-2.8216 4.2387 4.2387 0 0 0-4.274-4.252zm-0.02694 3.2747a11.286 11.286 0 0 0-1.254 0.21309l-3.8748 0.77643-4.3769 0.8793-4.252 0.86461c-0.50162 0.10032-0.99001 0.18811-1.4916 0.31351a1.3544 1.3544 0 0 0-1.0532 1.0018 3.3734 3.3734 0 0 0-0.07593 0.7152v17.194a2.2197 2.2197 0 0 1 0 0.28902 1.3418 1.3418 0 0 1-1.1536 1.379l-1.6557 0.338a11.462 11.462 0 0 0-2.1946 0.60253 3.6242 3.6242 0 0 0 1.4671 6.9854 8.3896 8.3896 0 0 0 2.0819-0.34045 4.0882 4.0882 0 0 0 2.7702-2.3807 5.8564 5.8564 0 0 0 0.41394-2.3587v-15.362a0.85275 0.85275 0 0 1 0.75439-0.94054h0.08573l2.6844-0.57804 4.4896-0.90135 4.3892-0.89155c0.31351-0.05016 0.61478-0.12491 0.92829-0.12491a0.55178 0.55178 0 0 1 0.57804 0.45067 1.1537 1.1537 0 0 1 0 0.36495v10.508a1.8936 1.8936 0 0 1 0 0.3772 1.254 1.254 0 0 1-0.99197 0.99197l-2.1823 0.46292a7.8378 7.8378 0 0 0-1.9692 0.62702 3.6117 3.6117 0 0 0 1.7439 6.8483 8.3018 8.3018 0 0 0 2.0697-0.34046 4.0506 4.0506 0 0 0 2.6697-2.1946 5.0914 5.0914 0 0 0 0.46537-2.3195v-22.083a2.3576 2.3576 0 0 0 0-0.42618 0.95308 0.95308 0 0 0-1.0654-0.94054z" fill="#fff" stroke-width="1.254"/>
</svg>
