<?xml version="1.0" encoding="UTF-8"?>
<svg version="1.1" viewBox="0 0 48 48" xmlns="http://www.w3.org/2000/svg">
    <path d="m24.011 7.8795a12.439 12.439 0 0 0-12.439 12.439v0.31281a9.9827 9.9827 0 0 0 0.37396 19.46 1.6979 1.6979 0 0 0 2.0109-1.6369v-18.063a10.031 10.031 0 1 1 20.062 0v18.063a1.6979 1.6979 0 0 0 2.0109 1.6369 9.9827 9.9827 0 0 0 0.42099-19.46v-0.31281a12.439 12.439 0 0 0-12.439-12.439zm-7.6696 13.018v16.642h2.8294v-11.127a22.807 22.807 0 0 0-0.13171-3.0575h0.13171l3.0951 14.123h3.3703l3.168-14.1h0.06115a25.806 25.806 0 0 0-0.15758 2.8529v11.247h2.9258l-0.01176-16.581h-4.8167l-2.8176 13.03h-0.07291l-2.8294-13.03z" fill="#fff" stroke-width="1.2042"/>
</svg>
