<?xml version="1.0" encoding="UTF-8"?>
<svg version="1.1" viewBox="0 0 48 48" xmlns="http://www.w3.org/2000/svg">
    <path d="m26.467 5.5555a2.7892 2.7892 0 0 0-2.7192 2.625 2.5303 2.5303 0 0 0 2.6135 2.7882 2.4832 2.4832 0 0 0 2.7537-2.5997 2.7068 2.7068 0 0 0-2.648-2.8135zm-5.0822 4.1582c-0.08293 3.15e-4 -0.16927 0.0017-0.25974 0.0069h-2.0848c-1.3416 0-1.7886 0.57768-1.4826 1.6251a9.1561 9.1561 0 0 0 1.7423 3.4019c2.9775 3.1187 6.6965 3.5306 10.592 2.3538a7.4026 7.4026 0 0 0 5.2615-5.0155c0.62375-1.883 0.1757-2.3538-1.7308-2.3538h-1.1539c-2.1419 0-2.1641 0.09415-2.7054 2.0595-0.54136 1.9654-1.86 3.307-3.2134 3.2364-1.3534-0.07061-2.684-1.5057-3.1077-3.3651v-0.14022c-0.1986-1.2688-0.61331-1.8137-1.8573-1.809zm-5.7833 6.7165c-2.7299 4e-3 -5.4536 0.9884-6.9762 2.7537-0.50606 0.58844-1.0357 1.2459-0.29422 1.9285a1.5417 1.5417 0 0 0 2.248 0 8.8619 8.8619 0 0 1 2.7422-1.5768 4.0955 4.0955 0 0 1 4.896 2.425 3.6483 3.6483 0 0 1-2.448 4.542 11.769 11.769 0 0 1-3.2824 0.4942c-0.9415 0.04707-1.1769 0.46082-1.1769 1.2964s0.3413 1.1769 1.1769 1.1769a13.381 13.381 0 0 1 3.2824 0.52868 4.837 4.837 0 0 1 3.1077 5.3557 4.7075 4.7075 0 0 1-4.9443 3.2939 6.3316 6.3316 0 0 1-5.3534-3.0824 20.701 20.701 0 0 1-1.8481-4.8845c-0.27068-0.92974-0.24641-1.7055-1.5998-1.6113-1.3534 0.094151-1.1535 1.046-1.0711 1.8228a20.278 20.278 0 0 0 0.63441 3.5306 11.322 11.322 0 0 0 18.37 5.1443 6.9318 6.9318 0 0 0-0.71716-10.675l-1.1056-0.77693c0.57667-0.61198 1.0946-1.1409 1.5653-1.6941a5.3548 5.3548 0 0 0-0.11723-7.0613 9.98 9.98 0 0 0-2.425-1.8366c-1.3858-0.74585-3.0259-1.0965-4.6639-1.0941zm19.848 5.3534a8.8972 8.8972 0 0 0-6.1579 1.9653 16.7 16.7 0 0 1-4.6501 2.7422c-1.3416 0.50606-1.377 1.1412-1.1769 2.271 0.20007 1.1298 1.1545 0.7544 1.8136 0.63671a6.5435 6.5435 0 0 0 1.9193-0.8114c1.3652-0.80028 2.6473-1.7416 4.0478-2.4595a4.3545 4.3545 0 0 1 5.5074 0.77693 6.7906 6.7906 0 0 1 0.44823 8.1784c-1.4711 2.1655-3.825 2.7422-6.8613 1.5653-0.83558-0.31776-1.4721-0.51783-1.9193 0.58844s0.17552 1.4712 1.0229 1.8596a11.557 11.557 0 0 0 5.1213 1.1769h0.03448a9.1561 9.1561 0 0 0 8.2382-13.617 8.8972 8.8972 0 0 0-7.3877-4.873z" fill="#fff" stroke-width="1.1769"/>
</svg>
