<?xml version="1.0" encoding="UTF-8"?>
<svg data-name="Layer 1" version="1.1" viewBox="0 0 48 48" xmlns="http://www.w3.org/2000/svg">
    <path d="m29.906 4.0585a3.7842 3.7842 0 0 0-4.405 3.1633l-13.774 2.3331a3.7842 3.7842 0 1 0-4.0108 5.4249l2.3331 17.381a3.7842 3.7842 0 1 0 4.9322 5.1835l17.923 3.1165a3.7842 3.7842 0 1 0 5.5383-3.7842l1.4634-7.4919a3.7842 3.7842 0 0 0 3.5329-3.7472 3.7842 3.7842 0 0 0-4.7819-3.7842l-6.61-11.53a3.7842 3.7842 0 0 0-2.1409-6.265zm-4.0256 5.1934a3.5193 3.5193 0 0 0 0.78098 1.1234l-2.5228 4.5405a6.6349 6.6349 0 0 0-2.3577-0.42867 6.8872 6.8872 0 0 0-4.8066 1.9684l-5.1465-3.8728a3.6959 3.6959 0 0 0 0.22666-0.99778zm2.5351 2.0941a3.5066 3.5066 0 0 0 1.8157 0l6.6715 11.53a3.1787 3.1787 0 0 0-0.61591 0.84503l-7.6324-1.8034a4.2887 4.2887 0 0 0 0-0.5691 6.8745 6.8745 0 0 0-2.7617-5.4619zm-17.837 2.8751 5.1589 3.8728a6.9124 6.9124 0 0 0-0.82039 3.2545 6.8493 6.8493 0 0 0 2.1187 4.9445l-4.2251 5.9916a3.0147 3.0147 0 0 0-0.75634-0.17492l-2.2961-17.383a3.4184 3.4184 0 0 0 0.82039-0.50505zm17.622 9.7018 7.5683 1.8034a3.7842 3.7842 0 0 0 2.1064 3.2791l-1.4264 7.4796a3.6959 3.6959 0 0 0-1.1727 0.26607l-8.438-10.709a6.8493 6.8493 0 0 0 1.3624-2.1187zm-3.0155 3.3924 8.438 10.709a4.4148 4.4148 0 0 0-0.36462 0.61837l-17.925-3.1288a3.7842 3.7842 0 0 0-0.84503-2.0448l4.2251-5.9916a6.8241 6.8241 0 0 0 3.0672 0.7317 6.8367 6.8367 0 0 0 3.4048-0.8943z" fill="#fff" stroke-width="1.2614"/>
</svg>
