<?xml version="1.0" encoding="UTF-8"?>
<svg version="1.1" viewBox="0 0 48 48" xmlns="http://www.w3.org/2000/svg">
    <path d="m22.429 4c-0.75396 0-1.3618 0.66368-1.3618 1.4899v4.247c0 0.82623 0.60787 1.4899 1.3618 1.4899h3.147c0.75396 0 1.3618-0.66368 1.3618-1.4899v-4.247c0-0.82623-0.60787-1.4899-1.3618-1.4899zm-10.602 4.3723c-0.31702 0.01604-0.62173 0.13993-0.85498 0.37318l-2.2252 2.2252c-0.53312 0.53314-0.48957 1.432 0.09469 2.0163l2.9994 3.0022c0.58433 0.58426 1.4832 0.62504 2.0163 0.0919l2.2252-2.2252c0.53314-0.53314 0.49514-1.4348-0.08912-2.0191l-3.0022-2.9994c-0.29212-0.29212-0.6627-0.44833-1.0276-0.46508-0.04562-0.0021-0.09117-0.0023-0.13646 0zm24.215 0c-0.36444 0.01626-0.7355 0.17016-1.0276 0.4623l-3.0022 3.0049c-0.58426 0.58433-0.62226 1.4832-0.08912 2.0163l2.2252 2.2252c0.53314 0.53314 1.432 0.49235 2.0163-0.0919l3.0022-3.0022c0.58426-0.58433 0.62504-1.4832 0.0919-2.0163l-2.2252-2.2252c-0.26657-0.26657-0.62698-0.38944-0.99144-0.37318zm-12.039 5.5671a10.065 10.065 0 0 0-10.065 10.065 10.065 10.065 0 0 0 10.065 10.065 10.065 10.065 0 0 0 10.065-10.065 10.065 10.065 0 0 0-10.065-10.065zm-18.506 7.1266c-0.82623 0-1.4955 0.60787-1.4955 1.3618v3.147c0 0.75397 0.66925 1.3618 1.4955 1.3618h4.2442c0.82623 0 1.4899-0.60787 1.4899-1.3618v-3.147c0-0.75396-0.66368-1.3618-1.4899-1.3618zm32.768 0c-0.82623 0-1.4899 0.60787-1.4899 1.3618v3.147c0 0.75397 0.66368 1.3618 1.4899 1.3618h4.247c0.8263 0 1.4872-0.60787 1.4872-1.3618v-3.147c-1e-6 -0.75396-0.6609-1.3618-1.4872-1.3618zm-25.396 10.48c-0.36444 0.01626-0.7355 0.17295-1.0276 0.46508l-2.9994 2.9994c-0.58426 0.58419-0.62783 1.4859-0.09469 2.0191l2.2252 2.2252c0.53314 0.53314 1.4348 0.49235 2.0191-0.0919l3.0022-3.0022c0.58426-0.58433 0.62226-1.4832 0.08912-2.0163l-2.2252-2.2252c-0.26657-0.26657-0.6242-0.38944-0.98865-0.37318zm22.132 0c-0.31625 0.01627-0.61894 0.13993-0.85219 0.37318l-2.2252 2.2252c-0.53314 0.53314-0.49514 1.432 0.08912 2.0163l3.0022 3.0022c0.58418 0.58426 1.4859 0.62504 2.0191 0.0919l2.2252-2.2252c0.53314-0.53314 0.49235-1.432-0.0919-2.0163l-3.0022-3.0049c-0.29212-0.29214-0.66318-0.44604-1.0276-0.4623-0.04556-2e-3 -0.09128-0.0023-0.13646 0zm-12.571 5.2273c-0.75396 0-1.3618 0.66368-1.3618 1.4899v4.2442c0 0.8263 0.60787 1.4927 1.3618 1.4927h3.147c0.75396 0 1.3618-0.66647 1.3618-1.4927v-4.2442c0-0.82623-0.60787-1.4899-1.3618-1.4899z" fill="#fff" stroke-width="1.4259"/>
</svg>
