<?xml version="1.0" encoding="UTF-8"?>
<svg version="1.1" viewBox="0 0 48 48" xmlns="http://www.w3.org/2000/svg">
    <path d="m11.778 5.7353c-1.6353 0.034775-3.2191 0.2694-4.266 0.69079l-0.40707 0.16242 0.094573 1.8359c0.051525 1.0096 0.18714 2.2779 0.30017 2.8186 0.45117 2.1585 1.8129 4.0499 3.7213 5.1624 0.60363 0.35192 0.99785 0.49657 1.1883 0.43792 0.6558-0.20197 1.6088-0.87006 2.4979-1.7517 1.7071-1.6927 2.402-3.7958 2.3212-7.0189l-0.039062-1.5893-0.83265-0.24672c-1.2558-0.37242-2.9433-0.53642-4.5785-0.50164zm-0.55921 1.6447h1.9675v2.2493h2.3869v1.9532l-1.1596 0.04112-1.1575 0.04112-0.04112 1.1596-0.04112 1.1575h-1.9428l-0.04112-1.1575-0.04112-1.1596-1.1657-0.04112-1.1637-0.04112 0.082237-1.8833 1.1596-0.04112 1.1575-0.04112v-2.2368zm-7.2183 11.941v20.843c0 1.1663 0.93895 2.1053 2.1053 2.1053h35.789c1.1663 0 2.1053-0.93895 2.1053-2.1053v-20.843zm23.063 1.8462c0.07219 0.0054 0.14441 0.04113 0.22615 0.10897 0.27671 0.22965 0.31952 2.2442 0.05345 2.5103-0.43315 0.43315-0.64138 0.06812-0.6949-1.2171-0.04075-0.9784-0.0098-1.2006 0.18503-1.3261 0.08599-0.05538 0.15807-0.08143 0.23026-0.07607zm5.2159 1.9737c0.61776 0.072 0.52604 0.5453-0.2796 1.4268-0.76836 0.8407-1.1504 0.97547-1.4062 0.49754-0.12767-0.23856-0.10449-0.35068 0.11514-0.59622 0.14895-0.16653 0.48257-0.54346 0.74219-0.83676 0.35184-0.3975 0.56192-0.52244 0.82854-0.49137zm-10.341 0.27755c0.23262-0.01107 0.56612 0.219 1.1143 0.7278 0.86806 0.80567 0.92578 0.93278 0.58594 1.2726-0.12139 0.12139-0.27501 0.22204-0.34128 0.22204s-0.50997-0.3727-0.98684-0.82648c-0.77562-0.73805-0.85018-0.85544-0.70724-1.1225 0.09253-0.17288 0.19555-0.26679 0.33512-0.27343zm5.1788 1.5522c0.42363-0.01334 0.86194 0.04289 1.3014 0.17064 1.5009 0.43633 2.7446 2.0992 2.7446 3.6698 0 0.57496-0.47175 1.8715-0.85938 2.3643-0.15695 0.19954-0.32802 0.35777-0.38035 0.35156-0.05233-0.0063-0.40939-0.25727-0.79564-0.55921-0.77999-0.60973-1.604-0.93683-2.6768-1.0629-0.67474-0.0793-0.73207-0.11966-1.0547-0.7278-0.18764-0.35372-0.63593-0.93815-0.99713-1.2994l-0.65584-0.65584 0.24877-0.40502c0.70844-1.1507 1.8541-1.8062 3.1251-1.8462zm-6.1924 2.5596c0.45606 0.04108 0.91655 0.16927 1.4288 0.38857 0.91926 0.39348 1.9879 1.5851 2.2944 2.5576l0.23643 0.75041 0.80592-0.07196c3.7198-0.3373 5.6695 4.1251 2.9092 6.6592-0.40805 0.3746-0.90906 0.66765-1.3816 0.80798-1.0124 0.30064-11.688 0.31829-12.522 0.02056-1.1444-0.40842-1.7625-1.1095-2.0765-2.3561-0.43273-1.7185 0.94813-3.5227 2.8434-3.7192l0.74219-0.07813 0.01645-0.83059c0.03619-1.9203 1.3338-3.492 3.2957-3.9946 0.50005-0.1281 0.95224-0.17472 1.4083-0.13363zm12.751 0.66817c1.0509 0.03509 1.2142 0.07414 1.2582 0.30427 0.02778 0.14524-0.03563 0.31844-0.1398 0.38445-0.34175 0.21658-2.3111 0.14872-2.5062-0.08635-0.13965-0.16832-0.13899-0.2552 0.0041-0.42763 0.14098-0.16988 0.43454-0.20645 1.3837-0.17476zm-2.4733 3.8076c0.16787 0.0052 0.40264 0.17255 0.90049 0.6065 0.8157 0.71099 1.0793 1.2466 0.72368 1.472-0.31494 0.19962-0.43994 0.14016-1.2932-0.62705-0.84784-0.76236-0.96382-1.1036-0.48314-1.4062 0.04832-0.03043 0.09618-0.04697 0.15214-0.04523z" fill="#f9f9f9" stroke-width="1.0526"/>
</svg>
