<?xml version="1.0" encoding="UTF-8" standalone="no"?>
<svg
   version="1.1"
   viewBox="0 0 48 48"
   id="svg1"
   xmlns="http://www.w3.org/2000/svg"
   xmlns:svg="http://www.w3.org/2000/svg">
  <defs
     id="defs1" />
  <path
     d="m 19.619245,22.505175 h 2.92729 c 0.08489,0 0.15353,0.06864 0.15353,0.153531 v 7.952312 0.08489 -0.06864 0.150963 -0.153531 0.150963 h -2.927289 c -0.08489,0 -0.153531,-0.06607 -0.153531,-0.150963 v -7.952705 c 0,-0.08489 0.06864,-0.153531 0.153531,-0.153531 z"
     id="path6"
     style="fill:#fff;fill-opacity:1;stroke:none;stroke-width:1;stroke-dasharray:none" />
  <path
     d="m 31.323163,17.236604 h 2.924669 c 0.08489,0 0.150963,0.06607 0.150963,0.150963 v 13.224158 c 0,0.08489 -0.06607,0.150963 -0.150963,0.150963 h -2.924669 c -0.0849,0 -0.153531,-0.06607 -0.153531,-0.150963 V 17.387567 c 0,-0.08489 0.06864,-0.150963 0.153531,-0.150963 z"
     id="path5"
     style="fill:#fff;fill-opacity:1;stroke:none;stroke-width:1;stroke-dasharray:none" />
  <path
     d="m 13.75209,17.236604 h 10.959255 c 2.154199,0 3.899647,1.742827 3.899647,3.897026 v 9.477794 c 0,0.0849 -0.07076,0.153059 -0.153531,0.150963 h -2.886283 c -0.0849,0 -0.150976,-0.06864 -0.150976,-0.153531 v -8.392768 c 0,-1.182183 -0.956963,-2.139133 -2.139133,-2.139133 h -6.294642 c -0.08489,0 -0.15353,0.06864 -0.15353,0.153531 v 10.378488 c 0,0.0849 -0.06864,0.153531 -0.153531,0.153531 h -2.927289 c -0.0849,0 -0.150963,-0.06819 -0.150963,-0.150963 V 17.384764 c 0,-0.08276 0.06607,-0.148409 0.150963,-0.148409 z"
     id="path4"
     style="fill:#fff;fill-opacity:1;stroke:none;stroke-width:1;stroke-dasharray:none" />
  <path
     style="color:#000000;fill:#fff;fill-opacity:1;stroke:none;stroke-width:1;stroke-linecap:round;stroke-linejoin:round;stroke-miterlimit:0;stroke-dasharray:none;paint-order:stroke fill markers"
     d="M 24,4 C 12.968251,4 4,12.968251 4,24 4,35.031749 12.968251,44 24,44 35.031749,44 44,35.031749 44,24 44,12.968251 35.031749,4 24,4 Z m 0,2.3529412 C 33.760127,6.3529412 41.647059,14.239873 41.647059,24 41.647059,33.760127 33.760127,41.647059 24,41.647059 14.239873,41.647059 6.3529412,33.760127 6.3529412,24 6.3529412,14.239873 14.239873,6.3529412 24,6.3529412 Z"
     id="path7" />
</svg>
