<?xml version="1.0" encoding="UTF-8" standalone="no"?>
<svg
   version="1.1"
   viewBox="0 0 48 48"
   id="svg1"
   xmlns="http://www.w3.org/2000/svg"
   xmlns:svg="http://www.w3.org/2000/svg">
  <defs
     id="defs1" />
  <path
     d="m 19.619245,22.505175 h 2.92729 c 0.08489,0 0.15353,0.06864 0.15353,0.153531 v 7.952312 0.08489 -0.06864 0.150963 -0.153531 0.150963 h -2.927289 c -0.08489,0 -0.153531,-0.06607 -0.153531,-0.150963 v -7.952705 c 0,-0.08489 0.06864,-0.153531 0.153531,-0.153531 z"
     id="path6"
     style="fill:#fff;fill-opacity:1;stroke:none;stroke-width:1;stroke-dasharray:none" />
  <path
     d="m 31.323163,17.236604 h 2.924669 c 0.08489,0 0.150963,0.06607 0.150963,0.150963 v 13.224158 c 0,0.08489 -0.06607,0.150963 -0.150963,0.150963 h -2.924669 c -0.0849,0 -0.153531,-0.06607 -0.153531,-0.150963 V 17.387567 c 0,-0.08489 0.06864,-0.150963 0.153531,-0.150963 z"
     id="path5"
     style="fill:#fff;fill-opacity:1;stroke:none;stroke-width:1;stroke-dasharray:none" />
  <path
     d="m 13.75209,17.236604 h 10.959255 c 2.154199,0 3.899647,1.742827 3.899647,3.897026 v 9.477794 c 0,0.0849 -0.07076,0.153059 -0.153531,0.150963 h -2.886283 c -0.0849,0 -0.150976,-0.06864 -0.150976,-0.153531 v -8.392768 c 0,-1.182183 -0.956963,-2.139133 -2.139133,-2.139133 h -6.294642 c -0.08489,0 -0.15353,0.06864 -0.15353,0.153531 v 10.378488 c 0,0.0849 -0.06864,0.153531 -0.153531,0.153531 h -2.927289 c -0.0849,0 -0.150963,-0.06819 -0.150963,-0.150963 V 17.384764 c 0,-0.08276 0.06607,-0.148409 0.150963,-0.148409 z"
     id="path4"
     style="fill:#fff;fill-opacity:1;stroke:none;stroke-width:1;stroke-dasharray:none" />
  <path
     d="m 14.30735,5.391982 c 0.637128,-0.05171 1.253019,0.139945 1.701559,0.588524 0.897157,0.897157 0.769068,2.470326 -0.286585,3.526005 L 9.463579,15.765256 C 8.407926,16.820909 6.834731,16.948998 5.937574,16.051841 5.0404035,15.154684 5.1685052,13.584004 6.224158,12.528324 L 12.485523,6.266959 C 13.01335,5.739133 13.670248,5.443561 14.30735,5.391851 Z"
     id="path3"
     style="fill:#fff;fill-opacity:1;stroke:none;stroke-width:1;stroke-dasharray:none" />
  <path
     d="m 24,4 c 11.045722,-6.642e-4 20,8.953753 20,20 6.64e-4,11.045723 -8.953753,20 -20,20 -11.045723,6.64e-4 -20,-8.953753 -20,-20 0,-1.943928 0.034521,-2.658588 1.0209616,-2.658588 0.9420544,0 0.5987554,1.219547 0.5987554,2.658588 7.9e-5,10.150793 8.229006,18.379405 18.379405,18.379405 10.150793,0 18.379405,-8.229005 18.379405,-18.379405 0,-10.150793 -8.229005,-18.379405 -18.379405,-18.379405 -1.263684,0 -2.54343,0.212826 -2.54343,-0.6192325 0,-0.9750033 0.81504,-1.0004847 2.54343,-1.0004847 z"
     id="path2"
     style="fill:#fff;fill-opacity:1;stroke:none;stroke-width:1;stroke-dasharray:none" />
</svg>
