<?xml version="1.0" encoding="UTF-8"?>
<svg version="1.1" viewBox="0 0 48 48" xmlns="http://www.w3.org/2000/svg">
    <path d="m24 4c-1.7284 0-2.5435 0.025486-2.5435 1.0005 0 0.83208 1.2798 0.61924 2.5435 0.61924 10.151 0 18.38 8.2292 18.38 18.38 0 10.151-8.2292 18.38-18.38 18.38-10.151 0-18.38-8.2292-18.38-18.38 0-1.4391 0.3433-2.6586-0.59877-2.6586-0.98646 0-1.021 0.71468-1.021 2.6586 0 11.047 8.954 20.001 20 20 11.047 0 20.001-8.954 20-20 0-11.047-8.954-20.001-20-20zm-9.6929 1.392c-0.63712 0.05171-1.2941 0.34729-1.8219 0.87513l-6.2615 6.2615c-1.0557 1.0557-1.1838 2.6264-0.28659 3.5235 0.89718 0.89718 2.4704 0.76909 3.5261-0.28659l6.259-6.259c1.0557-1.0557 1.1838-2.6289 0.28659-3.5261-0.44855-0.44859-1.0645-0.64025-1.7016-0.58854zm-0.55527 11.845c-0.08489 0-0.15097 0.06565-0.15097 0.14841v13.227c0 0.08277 0.06607 0.15097 0.15097 0.15097h2.9273c0.0849 0 0.15353-0.06864 0.15353-0.15353v-10.379c0-0.0849 0.06864-0.15353 0.15353-0.15353h6.2948c1.1822 0 2.1392 0.95699 2.1392 2.1392v8.393c0 0.0849 0.06608 0.15353 0.15097 0.15353h2.8864c0.08278 0.0021 0.15353-0.06608 0.15353-0.15097v-9.478c0-2.1542-1.7454-3.8971-3.8997-3.8971zm17.572 0c-0.0849 0-0.15353 0.06608-0.15353 0.15097v13.224c0 0.08489 0.06864 0.15097 0.15353 0.15097h2.9248c0.08489 0 0.15097-0.06608 0.15097-0.15097v-13.224c0-0.08489-0.06608-0.15097-0.15097-0.15097zm-11.704 5.2687 0.15353 0.0128c-0.0849 0-0.15353 0.06864-0.15353 0.15353v7.9529c0 0.08489 0.06864 0.15097 0.15353 0.15097h2.9273v-8.1167c1e-6 -0.0849-0.06864-0.15353-0.15353-0.15353z" fill="#fff" stroke-width="1.3101"/>
</svg>
