<?xml version="1.0" encoding="UTF-8"?>
<svg version="1.1" viewBox="0 0 48 48" xmlns="http://www.w3.org/2000/svg">
    <path d="m21.085 4.0003c-0.45273-0.0062-0.91476 0.07747-1.3566 0.26043l-12.207 5.0329a3.5071 3.5071 0 0 0-1.8957 4.5514l11.547 28.002a3.5071 3.5071 0 0 0 4.5544 1.8957l12.207-5.0329a3.504 3.504 0 0 0 1.8926-4.5544l-2.2863-5.5416c2.9458 0.12714 5.9185 0.79925 9.0907 2.035v-12.019c-1.3039-0.56281-2.6289-0.97654-3.9669-1.3021l-2.7193-6.3834a23.928 23.928 0 0 0-8.9907 1.6928l-2.6709-6.4804c-0.5473-1.3256-1.838-2.1406-3.1978-2.1561zm-0.0091 2.3166a1.1318 1.1318 0 0 1 1.0568 0.72677l2.7012 6.553c-2.4652 1.2543-4.8201 2.9354-7.0497 5.0844l5.1025 11.967c2.814-1.183 5.4898-1.8202 8.1519-2.0047l2.6376 6.3986a1.1334 1.1334 0 0 1-0.62987 1.5171l-12.207 5.0329c-0.61397 0.25272-1.2629-0.01589-1.5171-0.62987l-11.547-27.999a1.138 1.138 0 0 1 0.63289-1.5202l12.207-5.0329a1.2171 1.2171 0 0 1 0.46029-0.09387z" fill="#fff" stroke-width="1.5504"/>
</svg>
