<?xml version="1.0" encoding="UTF-8"?>
<svg version="1.1" viewBox="0 0 48 48" xmlns="http://www.w3.org/2000/svg">
    <path d="m24 4s-11.548 2.133-15.635 2.133v20.539a11.49 11.49 0 0 0 0.81666 4.2036 15.778 15.778 0 0 0 2.0243 3.6969 22.127 22.127 0 0 0 2.8919 3.151 31.295 31.295 0 0 0 3.0908 2.5333c0.93576 0.73439 1.9429 1.3516 2.9497 1.9202 1.0068 0.56856 1.7526 0.97129 2.1909 1.1845l1.0318 0.4974a1.5162 1.5162 0 0 0 1.277 0l1.0318-0.4974c0.43826-0.17768 1.1604-0.58041 2.1909-1.1845 1.0345-0.60015 2.0179-1.2411 2.9497-1.9202a31.295 31.295 0 0 0 3.0908-2.5333 22.127 22.127 0 0 0 2.8919-3.151 15.778 15.778 0 0 0 2.0243-3.6969 11.49 11.49 0 0 0 0.81666-4.2036v-20.588c-4.0865 0-15.635-2.0844-15.635-2.0844zm1.4922 10.873a3.0442 3.0442 0 0 1 2.6651 1.3279 6.6924 6.6924 0 0 1 0.87681 3.8242 6.6688 6.6688 0 0 1-0.93465 3.8149 3.3285 3.3285 0 0 1-5.3303 0 6.5858 6.5858 0 0 1-0.93696-3.8381 6.4792 6.4792 0 0 1 0.98323-3.8011 3.056 3.056 0 0 1 2.6767-1.3279zm-13.929 0.155h2.8664l1.705 7.9237h0.06015l1.6935-7.8658h2.9011v10.01h-1.7629v-6.8826a17.069 17.069 0 0 1 0.09485-1.7166l-1.8971 8.5044-2.0844 0.0347-1.9063-8.5159h-0.07172a14.463 14.463 0 0 1 0.17814 1.7999v6.716h-1.7768zm18.501 0h2.679a3.1982 3.1982 0 0 1 2.723 1.2909 5.9225 5.9225 0 0 1 0.97166 3.6252 6.1239 6.1239 0 0 1-1.0064 3.7895 3.4824 3.4824 0 0 1-2.915 1.3025h-2.4523zm-4.6177 1.3973a1.3622 1.3622 0 0 0-1.2794 0.88838 6.2779 6.2779 0 0 0-0.42799 2.7114 6.2897 6.2897 0 0 0 0.42799 2.6073 1.374 1.374 0 0 0 1.2678 0.89994c1.1253 0 1.6819-1.1845 1.6819-3.5535s-0.5569-3.5535-1.6703-3.5535zm6.4893 0.16657v6.7739h0.59225a1.6346 1.6346 0 0 0 1.5176-0.85136 5.3658 5.3658 0 0 0 0.48583-2.524v-0.04627c0-2.2387-0.61659-3.3522-1.8485-3.3522z" fill="#fff" stroke-width="1.1845"/>
</svg>
