<?xml version="1.0" encoding="UTF-8"?>
<svg version="1.1" viewBox="0 0 48 48" xmlns="http://www.w3.org/2000/svg">
    <path d="m6.7532 8.8545c-1.5253 0-2.7532 1.2279-2.7532 2.7532v24.785c0 1.5253 1.2279 2.7532 2.7532 2.7532h32.383c1.5253 0 2.7532-1.228 2.7532-2.7532v-7.2542h-11.139c-0.92233 0-1.6616-0.83862-1.6616-1.8821v-6.4852c0-1.0421 0.73929-1.8821 1.6616-1.8821h11.139v-7.281c0-1.5253-1.2279-2.7532-2.7532-2.7532zm10.626 4.7617h1.6616v2.3015c1.2128 0.15969 2.1541 0.64402 2.8231 1.4438 0.66766 0.80257 0.99515 1.8541 0.98138 3.1646l-0.03227 0.05109h-2.4548c0-0.80808-0.19656-1.4436-0.58614-1.9117-0.38958-0.47356-0.93804-0.71251-1.6401-0.71251-0.73924 0-1.2849 0.19268-1.6401 0.57538-0.35517 0.37719-0.53236 0.88437-0.53236 1.5245 0 0.60021 0.18494 1.0804 0.55387 1.4438 0.36893 0.36205 1.0494 0.72668 2.0461 1.097 1.4771 0.47906 2.5803 1.0777 3.3044 1.788 0.73236 0.71171 1.097 1.6811 1.097 2.9146 0 1.2045-0.36988 2.1678-1.1078 2.885-0.73236 0.7186-1.7391 1.1423-3.0221 1.2745v2.038h-1.6616v-2.0273c-1.2541-0.12528-2.2878-0.56833-3.1028-1.3282-0.80945-0.75989-1.1971-1.8757-1.1696-3.3528l0.02151-0.05109h2.4548c0 0.96914 0.24401 1.6601 0.73133 2.0703 0.48732 0.41161 1.1037 0.61572 1.8498 0.61572 0.79431 0 1.403-0.18744 1.8283-0.56463 0.42538-0.37582 0.63723-0.88824 0.63723-1.5353 0-0.59194-0.19387-1.08-0.58345-1.4627-0.38408-0.38958-1.0429-0.75191-1.9762-1.0782-1.4771-0.47493-2.584-1.0628-3.3233-1.7746-0.73787-0.71722-1.1078-1.6946-1.1078-2.928 0-1.1632 0.35321-2.1135 1.0567-2.8527 0.70483-0.74475 1.6665-1.1878 2.8931-1.3282zm14.463 6.6492c-0.76265 0-1.3766 0.61398-1.3766 1.3766v4.7429c0 0.76265 0.61397 1.3766 1.3766 1.3766h10.782c0.76265-1e-6 1.3766-0.61398 1.3766-1.3766v-4.7429c0-0.76265-0.61397-1.3766-1.3766-1.3766zm2.5086 1.753a1.9961 1.9961 0 0 1 0 3.9901 1.9961 1.9961 0 1 1 0-3.9901z" fill="#fff" stroke-width="1.3766"/>
</svg>
