<?xml version="1.0" encoding="UTF-8"?>
<svg version="1.1" viewBox="0 0 48 48" xmlns="http://www.w3.org/2000/svg">
    <path d="m20.251 8.7676c-1.0863-0.046151-2.2892 0.11578-3.6092 0.51901v-0.00199c-6.2633 2.2165-14.053 10.461-12.422 22.192 0.084888 0.3753 0.1804 0.73257 0.28237 1.0778 0.034334 0.11783 0.071309 0.23172 0.10738 0.346 0.065215 0.20322 0.13173 0.40213 0.20283 0.59457 1.0266 2.8355 2.6208 4.4841 4.508 5.1861 4.5451 1.8816 10.737-1.2983 14.351-6.5323l-0.02983 6.0153c-0.0033 0.56305 0.4511 1.0218 1.0142 1.0241l14.858 0.0517c0.5646 1e-3 1.0223-0.4575 1.0201-1.0221l-0.03182-7.0096 2.4896-0.02187c0.5615-0.0055 1.0125-0.46458 1.0082-1.0261l-0.11334-15.28c-0.0044-0.55531-0.45289-1.0047-1.0082-1.0102l-16.044-0.14715c-1.1611-2.8507-3.3544-4.8182-6.584-4.9554zm7.2104 6.9977 14.397 0.13124 0.09744 13.262-1.4616 0.01392-0.01193-2.5513c-0.0034-0.55839-0.45575-1.0099-1.0142-1.0122l-12.713-0.04971c1.1105-3.3485 1.3453-6.8539 0.70593-9.7935zm-8.5785 0.98632c2.5574 0.03983 4.3603 3.2246 2.4638 8.7774-3.2526 8.9468-11.942 8.3002-8.4135-2.7939 1.5142-4.1421 3.9606-6.0145 5.9497-5.9835zm-0.28237 2.2848c-1.5646-0.02128-3.4879 1.2648-4.679 4.1103-2.7759 7.6213 4.0594 8.0671 6.6178 1.9209 1.4918-3.8146 0.07286-6.0039-1.9388-6.0312zm7.3596 8.5547 12.492 0.04971 0.04176 9.5589-12.81-0.04375 0.04375-8.9723c0.04095-0.11337 0.08489-0.22573 0.12329-0.34004v-2e-3c8.88e-4 -0.0019 0.0011-0.0041 2e-3 -6e-3 0.03781-0.08085 0.07066-0.16334 0.10738-0.24459z" fill="#fff" style="paint-order:stroke fill markers"/>
</svg>
