<?xml version="1.0" encoding="UTF-8"?>
<svg version="1.1" viewBox="0 0 48 48" xmlns="http://www.w3.org/2000/svg">
    <path d="m32.968 5.4727c-0.04548 0.00277-0.09131 0.00883-0.13765 0.01752-0.19015 0.03567-0.43229 0.15418-0.5356 0.2653-0.9504 1.6136-1.6412 3.1102-2.693 4.6527-0.1189 0.01694-0.78947-0.12671-1.4917-0.32036-1.7353-0.47855-2.5278-0.59316-4.1621-0.59316-1.6539 9e-6 -2.9015 0.19405-4.4224 0.68576-0.59321 0.19177-1.1414 0.32506-1.2189 0.29533-0.96871-1.503-1.819-3.2733-2.8031-4.8429-0.28567-0.15289-0.80749-0.12333-1.0912 0.06257-0.35635 0.23349-0.58992 0.77421-0.51307 1.1838 0.03441 0.18341 0.5512 1.2653 1.1488 2.4052 0.59758 1.1399 1.0862 2.1529 1.0862 2.2525 0 0.11275-0.34746 0.43857-0.92103 0.86346-1.1619 0.86071-2.7546 2.5132-3.4939 3.624-1.2397 1.8632-2.1913 4.726-2.2575 6.7926-0.01064 0.32843-0.01401 0.65239-0.0075 0.7208l29.12 0.03003c0.08783-0.14211-0.13404-2.2463-0.31535-2.9883-0.2084-0.85298-0.85076-2.563-1.2889-3.4338-0.79765-1.585-2.7882-3.8543-4.3148-4.918-0.41025-0.28585-0.77699-0.57618-0.81591-0.64572 0.54615-1.606 1.5859-3.2051 2.28-4.8279 0.0963-0.71791-0.46905-1.323-1.1513-1.2814zm-15.695 9.9611c0.70427-9.08e-4 1.349 0.60487 1.349 1.4616 0 1.0694-1.0903 1.7405-2.0147 1.2389-0.31963-0.17342-0.67137-0.81158-0.66825-1.2088 0.0032-0.40423 0.33795-1.0821 0.6307-1.2739 0.22626-0.14825 0.46853-0.21744 0.70329-0.21774zm13.412 0.0025c0.37158-0.01308 0.75389 0.14974 1.0387 0.52308 0.49839 0.65343 0.41507 1.5773-0.18521 2.0823-0.37276 0.31366-1.0737 0.33797-1.5417 0.05256-0.45186-0.27551-0.65929-0.7249-0.60317-1.309 0.07862-0.81827 0.67215-1.3272 1.2914-1.349zm7.9288 2.0022c-0.04921 3e-3 -0.08436 0.01179-0.10011 0.02753-0.04495 0.04495 0.07058 0.52772 0.25528 1.0737 0.73923 2.1851 0.7899 2.6365 0.82592 7.0654 0.0178 2.1895 0.05376 4.0362 0.07759 4.1046 0.07695 0.22116 0.38346 0.13407 1.1938-0.33788 2.1041-1.2254 3.1335-3.0825 3.1335-5.6538 0-0.66537-0.0592-1.343-0.15017-1.6994-0.43318-1.6967-1.7168-3.2767-3.3087-4.0745-0.51183-0.25652-1.5827-0.5266-1.9272-0.50557zm-29.118 0.09511c-1.3315-0.0034-2.5359 0.8572-3.4539 1.5517-1.345 1.2614-1.9315 2.5722-2.0248 4.5301-0.043134 0.90615-0.014712 1.2404 0.15768 1.9221 0.40464 1.6001 1.2525 2.8507 2.5203 3.7116 0.65231 0.44296 1.556 0.98089 1.7094 0.93354-0.03428-2.7471-0.01364-5.041 0.11012-7.8638h0.0025c0.09994-1.043 0.53115-2.8632 0.91102-3.8468 0.18518-0.47949 0.33537-0.8966 0.33537-0.92603-0.08984-0.0082-0.17903-0.01229-0.2678-0.01251zm-0.13014 7.8538 0.04755 11.853c0.449 0.41686 2.2951 1.8226 3.4839 2.4853 2.4679 1.3757 5.8015 2.4023 8.9074 2.7431 1.1482 0.12598 4.0974 0.04434 5.376-0.14766 3.2607-0.48966 6.2141-1.552 8.8599-3.1886 1.1417-0.70624 2.445-1.6827 2.5253-1.8921l0.01502-7.0078c4.84e-4 -0.21669-0.6205 0.32513-1.0337 0.83343-1.462 1.7987-3.0798 2.9741-4.8855 3.549-1.5513 0.4939-2.363 0.63373-3.176 0.55062-0.93391-0.09547-2.4006-0.42551-3.1585-0.71079-0.75508-0.28422-1.0743-0.30017-1.7394-0.08259-0.67183 0.21974-1.1046 0.12234-1.6418-0.37292-0.49748-0.45856-0.84094-1.0992-0.84094-1.5642 0-0.39783 0.38493-1.169 0.76085-1.5242 1.0819-1.0222 2.791-0.32282 3.1235 1.2789 0.11033 0.53149 0.13093 0.55822 0.6282 0.78588 0.81791 0.37446 1.8323 0.5406 3.2862 0.5406 1.9215 0 2.7154-0.24441 4.4074-1.354 1.5759-1.0334 3.2355-2.9456 3.992-4.5976 0.29951-0.65419 0.42884-1.9116 0.22275-2.1599z" fill="#fff" stroke-width="1.2814"/>
</svg>
