<?xml version="1.0" encoding="UTF-8"?>
<svg version="1.1" viewBox="0 0 48 48" xmlns="http://www.w3.org/2000/svg">
    <path d="m36.689 9.5261-2.3718 3.1624c3.4907 2.6186 5.8911 6.5952 5.8911 11.312 0 4.7166-2.4001 8.6937-5.8911 11.312l2.3691 3.1624c4.412-3.3183 7.3136-8.5459 7.3136-14.474 0-5.9263-2.9003-11.155-7.311-14.474zm-25.138 4.7012c-0.24433 0-0.44478 0.18017-0.48387 0.40984l-0.36489 2.5912a7.2321 7.2321 0 0 0-1.6526 0.96246l-2.4326-0.98361a0.48865 0.48865 0 0 0-0.59757 0.21153l-1.954 3.3845c-0.12215 0.21012-0.069344 0.47517 0.11634 0.62666l2.0624 1.6182a7.6718 7.6718 0 0 0-0.06875 0.95188c0 0.3225 0.02965 0.63914 0.06875 0.95188l-2.0624 1.6182c-0.18569 0.14658-0.2385 0.41165-0.11634 0.62666l1.954 3.3845c0.12217 0.21018 0.37768 0.29948 0.59757 0.21153l2.4326-0.98361c0.50331 0.38604 1.0564 0.71325 1.6526 0.96246l0.36489 2.5912c0.03908 0.22965 0.23954 0.40984 0.48387 0.40984h3.9106c0.24432 0 0.44478-0.18017 0.48387-0.40984l0.36489-2.5912a7.2321 7.2321 0 0 0 1.6526-0.96246l2.4326 0.98361a0.48865 0.48865 0 0 0 0.59757-0.21153l1.954-3.3845c0.12217-0.21012 0.0667-0.47517-0.11898-0.62666l-2.0598-1.6182c0.03908-0.31273 0.0661-0.62937 0.0661-0.95188 0-0.3225-0.027-0.63914-0.0661-0.95188l2.0651-1.6182c0.18568-0.14658 0.24115-0.41165 0.11898-0.62666l-1.9566-3.3845c-0.12217-0.21018-0.37503-0.29948-0.59493-0.21153l-2.4326 0.98361c-0.50331-0.38604-1.0564-0.71325-1.6526-0.96246l-0.36753-2.5912c-0.04397-0.22965-0.24219-0.40984-0.48652-0.40984zm21.253 0.4733-2.2237 2.9667c1.9532 1.4634 3.2946 3.6867 3.2946 6.3327s-1.3413 4.8694-3.2946 6.3327l2.2237 2.9667c2.8754-2.1639 4.8652-5.4411 4.8652-9.2994 0-3.8582-1.9897-7.1355-4.8652-9.2994zm-3.6172 4.8255-3.3554 4.4738 3.3554 4.4738a5.5993 5.5993 0 0 0 2.2449-4.4738 5.5993 5.5993 0 0 0-2.2449-4.4738zm-15.682 1.0524c1.891 0 3.4215 1.5304 3.4215 3.4215 0 1.891-1.5304 3.4215-3.4215 3.4215s-3.4188-1.5304-3.4188-3.4215c0-1.891 1.5277-3.4215 3.4188-3.4215z" fill="#fff" stroke-width="1.3538"/>
</svg>
