<?xml version="1.0" encoding="UTF-8"?>
<svg version="1.1" viewBox="0 0 48 48" xmlns="http://www.w3.org/2000/svg">
    <path d="m6.3094 9.1745c-1.2791 0-2.3094 1.0275-2.3094 2.3066v25.038c0 1.2792 1.0303 2.3066 2.3094 2.3066h13.633c1.2791 0 2.3094-1.0275 2.3094-2.3066v-25.038c0-1.2792-1.0303-2.3066-2.3094-2.3066zm30.536 0.66183-2.3206 3.0941c3.4156 2.5624 5.7638 6.4545 5.7638 11.07 0 4.6153-2.3478 8.508-5.7638 11.07l2.3178 3.0941c4.3173-3.2474 7.1572-8.3629 7.1572-14.164 0-5.7996-2.8385-10.916-7.1544-14.164zm-28.266 1.709h9.0924c1.4195 1e-6 2.5607 1.1412 2.5607 2.5607v18.204c0 1.4196-1.1412 2.5635-2.5607 2.5635h-9.0924c-1.4195 0-2.5607-1.144-2.5607-2.5635v-18.204c0-1.4195 1.1412-2.5607 2.5607-2.5607zm24.462 3.3538-2.1754 2.9042c1.9112 1.4321 3.2226 3.6074 3.2226 6.1966 0 2.5893-1.3114 4.7647-3.2226 6.1966l2.1754 2.9042c2.8136-2.1173 4.7612-5.3254 4.7612-9.1008 0-3.7753-1.9476-6.9833-4.7612-9.1008zm-3.5409 4.7221-3.2812 4.3787 3.2812 4.3787a5.479 5.479 0 0 0 2.1977-4.3787 5.479 5.479 0 0 0-2.1977-4.3787z" fill="#fff" stroke-width="1.4298"/>
</svg>
