<?xml version="1.0" encoding="UTF-8"?>
<svg viewBox="0 0 48 48" xmlns="http://www.w3.org/2000/svg">
  <path fill="#fff" d="M14.3 5A9.28 9.28 0 0 0 5 14.3v19.4a9.28 9.28 0 0 0 9.3 9.3h7.634c.865 0 1.566-.701 1.566-1.566V6.566C23.5 5.701 22.8 5 21.934 5Zm14.46 0c-.865 0-1.566.701-1.566 1.566v34.868c0 .865.701 1.566 1.566 1.566h4.94a9.28 9.28 0 0 0 9.3-9.3V14.3A9.28 9.28 0 0 0 33.7 5ZM14.292 8.257h6.076v31.485l-6.076.001a6.062 6.062 0 0 1-6.076-6.076V14.333a6.063 6.063 0 0 1 6.076-6.076zm.208 4.696a3.562 3.562 0 1 0 0 7.125 3.562 3.562 0 0 0 0-7.125zm20.191 9.377a3.8 3.8 0 1 1 0 7.6 3.8 3.8 0 0 1 0-7.6z"/>
</svg>
