<?xml version="1.0" encoding="UTF-8"?>
<svg version="1.1" viewBox="0 0 48 48" xmlns="http://www.w3.org/2000/svg">
    <path d="m40.965 4.0031-0.0031 0.0031c-3.7293-0.06749-6.6112 1.3666-10.135 3.6849-2.3921 1.5759-5.119 4.0923-7.8265 6.9804-0.15853-0.31078-0.3843-0.64652-0.72961-0.98712-0.18835-0.18521-0.40775-0.36959-0.6683-0.55794-1.794-1.2871-5.7061 0.62752-8.409 2.8909-2.7044 2.2633-9.1937 11.885-9.1937 11.885s9.5019-6.2425 11.395-7.054c0.81619-0.35002 1.6617-0.24083 2.3084-0.03678a120.48 120.48 0 0 0-2.1367 2.7314l8.8902 8.8872a120.51 120.51 0 0 0 2.7315-2.1337c0.19934 0.64353 0.30852 1.4862-0.03678 2.2992-0.81148 1.8961-7.0509 11.401-7.0509 11.401s9.6205-6.4909 11.882-9.1937c2.2649-2.7044 4.181-6.6133 2.8939-8.4089-0.18521-0.25898-0.37273-0.47995-0.55794-0.6683-0.34217-0.34374-0.67792-0.57265-0.98712-0.72961 2.888-2.706 5.4061-5.4344 6.9804-7.8265 2.8566-4.3368 4.3684-7.6991 3.3906-12.872-0.97001-0.18521-1.8743-0.2786-2.7376-0.2943zm-6.1343 5.8001h0.0061a3.4139 3.4139 0 0 1 2.3636 0.99939 3.4139 3.4139 0 0 1 0 4.8283 3.4139 3.4139 0 0 1-4.8283 0 3.4139 3.4139 0 0 1-0.0031-4.8283 3.4139 3.4139 0 0 1 2.4617-0.99939zm-19.007 18.743 0.0031 0.0031a3.6163 3.6163 0 0 0-2.569 1.0638c-1.1568 1.331-0.88069 2.6674-1.1711 4.0251-0.54151 2.3905-4.0497 6.3305-4.0497 6.3305s3.9354-3.5097 6.3274-4.0497c1.4503-0.28724 3.0489-0.23708 4.0251-1.1741a3.6305 3.6305 0 0 0 0-5.1318 3.6179 3.6179 0 0 0-2.5659-1.0668z" fill="#fff" stroke-width="1.5696"/>
</svg>
