<?xml version="1.0" encoding="UTF-8"?>
<svg data-name="Layer 1" version="1.1" viewBox="0 0 48 48" xmlns="http://www.w3.org/2000/svg">
    <defs>
        <style>.cls-1{fill:#fff;}</style>
    </defs>
    <path d="m21.191 6.7701c-0.50203 0.0012-1.0046 0.025281-1.508 0.071155-8.1202 0.75415-14.607 7.0841-15.56 15.183-1.7088 14.725 14.782 24.558 26.924 16.053 0.28869-0.27137 0.01496-0.74597-0.36495-0.6335-9.5364 3.8307-19.923-3.192-19.923-13.469 0-10.277 10.387-17.3 19.923-13.469 0.42307 0.24288 0.78803-0.39063 0.36495-0.6335-2.8958-2.034-6.3418-3.1117-9.8561-3.1033zm19.492 4.6641c-0.65684 0.0078-1.3154 0.08193-1.9625 0.22494-1.4572 0.49358-5.8472 5.6167-7.7627 8.0611s-5.8462 6.523-6.5279 6.5347c-0.68162 0.01175-1.8216-3.8648-2.3504-3.9824-0.52884-0.11752-4.8647 1.0107-4.9234 2.3504-0.05876 1.3397 1.5531 12.358 5.5248 10.834 3.0908-1.1862 2.4638-0.78667 6.2501-4.9464 3.7863-4.1597 16.218-18.146 14.984-18.558-1.0447-0.35845-2.1371-0.53166-3.2318-0.51874z" fill="#fff" stroke-width="1.1752"/>
</svg>
