<?xml version="1.0" encoding="UTF-8"?>
<svg version="1.1" viewBox="0 0 48 48" xmlns="http://www.w3.org/2000/svg">
    <g transform="matrix(1.1111 0 0 1.1111 8.4444 -9.3333)" fill="#fff">
        <path d="m2 20c-1.108 0-2 0.892-2 2v24c0 1.108 0.892 2 2 2h16c1.108 0 2-0.892 2-2h-16c-1.108 0-2-0.892-2-2z"/>
        <path d="m6 16c-1.108 0-2 0.892-2 2v24c0 1.108 0.892 2 2 2h16c1.108 0 2-0.892 2-2h-16c-1.108 0-2-0.892-2-2z"/>
        <path d="m10 12c-1.108 0-2 0.892-2 2v24c0 1.108 0.892 2 2 2h16c1.108 0 2-0.892 2-2v-24c0-1.108-0.892-2-2-2zm2.4297 13c1.212 0 2.0215 0.83962 2.0215 2.0996 0 1.308-0.83404 2.1719-2.082 2.1719-1.2 0-1.998-0.83947-1.998-2.1055 0-1.302 0.8226-2.166 2.0586-2.166zm2.7832 0.05469h1.4648c1.356 0 2.1602 0.74391 2.1602 2.0039 0 1.32-0.90014 2.1602-2.2441 2.1602h-1.3809zm4.3867 0h1.5469c0.918 0 1.4766 0.4488 1.4766 1.2168 0 0.56048-0.2924 1.0072-0.7793 1.2344l1.043 1.7129h-0.92383l-0.88867-1.5508c-0.0099 1.27e-4 -0.0193 2e-3 -0.0293 2e-3h-0.67188v1.5488h-0.77344zm-7.2305 0.62305c-0.72 0-1.1934 0.56988-1.1934 1.4219 0 0.906 0.49791 1.4941 1.2539 1.4941 0.732 0 1.2168-0.56374 1.2168-1.4277 0-0.894-0.50935-1.4883-1.2773-1.4883zm3.6055 0.04883v2.8262h0.70898c0.87 0 1.3555-0.50458 1.3555-1.3926 1e-6 -0.912-0.52188-1.4336-1.4219-1.4336zm4.3984 0.0059v1.2832h0.77344c0.438 0 0.67774-0.23291 0.67774-0.62891 0-0.408-0.2873-0.6543-0.7793-0.6543zm-9.5 5.4863 14.26 0.08203a0.5 0.5 0 0 1 0.49609 0.50195 0.5 0.5 0 0 1-0.50195 0.49805l-14.26-0.082074a0.5 0.5 0 0 1-0.49609-0.50391 0.5 0.5 0 0 1 0.50195-0.49609zm2e-3 3 12.516 0.08203a0.5 0.5 0 0 1 0.49609 0.50195 0.5 0.5 0 0 1-0.50391 0.49805l-12.516-0.082074a0.5 0.5 0 0 1-0.49609-0.50391 0.5 0.5 0 0 1 0.50391-0.49609z"/>
    </g>
</svg>
