<?xml version="1.0" encoding="UTF-8"?>
<svg version="1.1" viewBox="0 0 48 48" xmlns="http://www.w3.org/2000/svg">
    <path d="m18.038 5.9676-3.9588 3.9323h-5.9057c-2.3115 0-4.1738 1.8594-4.1738 4.1708v23.788c0 2.3115 1.8623 4.1738 4.1738 4.1738h31.655c2.3115 0 4.1708-1.8623 4.1708-4.1738v-23.788c0-2.3115-1.8594-4.1708-4.1708-4.1708h-5.9057l-3.9558-3.9323zm5.891 10.047a9.9512 9.9512 0 0 1 10.021 9.8527l0.0029 0.0972a9.9512 9.9512 0 0 1-9.9293 9.9529 9.9512 9.9512 0 0 1-9.9735-9.9028 9.9512 9.9512 0 0 1 9.8792-10zm0.02946 4.0177a5.9347 5.9347 0 0 0-5.894 5.9617 5.9347 5.9347 0 0 0 5.9529 5.9057 5.9347 5.9347 0 0 0 5.9175-5.9352v-0.05596a5.9347 5.9347 0 0 0-5.9764-5.8763z" fill="#fff" stroke-width="1.5081"/>
</svg>
