<?xml version="1.0" encoding="UTF-8"?>
<svg version="1.1" viewBox="0 0 48 48" xmlns="http://www.w3.org/2000/svg">
    <path d="m38.783 4-17.392 17.455-6.2113-6.2113-5.2165 5.2165 11.428 11.428 22.608-22.608zm-33.541 22.608c-0.62113 0-1.2423 0.62113-1.2423 1.2423v4.9691c0 0.74536 0.62113 1.2423 1.2423 1.2423h13.044l-7.4536-7.4536zm26.709 0-7.4536 7.4536h15.528c0.62113 0 1.2423-0.62114 1.2423-1.2423v-4.9691c0-0.62113-0.62113-1.2423-1.2423-1.2423zm-26.709 9.9381c-0.62113 0-1.2423 0.62113-1.2423 1.2423v4.9691c0 0.74536 0.62113 1.2423 1.2423 1.2423h34.783c0.62113 0 1.2423-0.62113 1.2423-1.2423v-4.9691c0-0.62113-0.62113-1.2423-1.2423-1.2423z" fill="#fff" stroke-width="1.2423"/>
</svg>
