<?xml version="1.0" encoding="UTF-8"?>
<svg viewBox="0 0 48 48" xmlns="http://www.w3.org/2000/svg">
  <g fill="#fff">
    <path d="M24 9.966c-8.283 0-14.997 6.714-14.997 14.996h29.993c0-8.282-6.714-14.996-14.997-14.996zm5.08 4.489a.824.824 0 0 1 .822.822.824.824 0 0 1-.822.825.824.824 0 0 1-.825-.825.824.824 0 0 1 .825-.822zm4.017 3.686a.824.824 0 0 1 .822.823.824.824 0 0 1-.822.824.824.824 0 0 1-.825-.824.824.824 0 0 1 .825-.823zm-4.545.902a.824.824 0 0 1 .823.825.824.824 0 0 1-.823.824.824.824 0 0 1-.824-.824.824.824 0 0 1 .824-.825z"/>
    <path d="M9 24.966c0 5.63 3.123 10.545 7.725 13.111l.003-.004-2.252 5.38c-.206.536.03 1.13.542 1.383l1.578.661a1.102 1.102 0 0 0 1.4-.606v-.004l2.263-5.399a14.92 14.92 0 0 0 3.745.475c8.27 0 14.996-6.727 14.996-14.997h-3.803a11.253 11.253 0 0 1-.504 3.326v.001a11.224 11.224 0 0 1-7.895 7.515l-.003.001a11.197 11.197 0 0 1-6.122-.15l-.004-.002a11.113 11.113 0 0 1-.516-.175l-.004-.002c-.17-.062-.338-.128-.504-.198l-.003-.002c-.166-.07-.33-.145-.492-.223l-.006-.001a11.17 11.17 0 0 1-.477-.246l-.005-.002a11.228 11.228 0 0 1-5.506-7.047 11.14 11.14 0 0 1-.21-1.009l-.014-.084a11.59 11.59 0 0 1-.115-1.127v-.002c-.01-.19-.014-.381-.014-.573z"/>
    <path d="M30.203 2.434a7.776 7.776 0 0 0-6.831 4.063 7.758 7.758 0 0 1 2.177 3.52 7.776 7.776 0 0 0 6.068-7.452 7.693 7.693 0 0 0-1.414-.131Z"/>
    <path d="M18.08 4.412c-.584 0-1.15.067-1.699.186a7.782 7.782 0 0 0 9.17 5.426 7.782 7.782 0 0 0-7.47-5.612z"/>
  </g>
</svg>
