<?xml version="1.0" encoding="UTF-8" standalone="no"?>
<!-- Created with Inkscape (http://www.inkscape.org/) -->

<svg
   width="48"
   height="48"
   viewBox="0 0 48 48"
   version="1.1"
   id="svg1"
   xml:space="preserve"
   xmlns="http://www.w3.org/2000/svg"
   xmlns:svg="http://www.w3.org/2000/svg"><defs
     id="defs1" /><path
     id="path3"
     style="color:#000000;display:inline;fill:#fff;stroke:none;stroke-linecap:round;stroke-linejoin:round;stroke-miterlimit:0;-inkscape-stroke:none;paint-order:stroke fill markers"
     d="m 25.979533,24.345649 c -0.01417,0.08505 -0.03382,0.169105 -0.05884,0.251623 -0.125375,0.403951 -0.375588,0.757756 -0.714678,1.010567 6.463717,3.882649 9.654801,5.938652 10.047063,5.259233 0.392262,-0.679419 -2.856856,-2.550302 -9.273545,-6.521423 z" /><path
     id="path9"
     style="color:#000000;display:inline;fill:#fff;stroke:none;stroke-linecap:round;stroke-linejoin:round;stroke-miterlimit:0;-inkscape-stroke:none;paint-order:stroke fill markers"
     d="M 24,6 C 23.402793,6 23.402344,11.517554 23.402344,22.09375 23.595657,22.032376 23.79718,22.000765 24,22 c 0.20272,1.33e-4 0.404241,0.03109 0.597656,0.0918 C 24.597656,11.466096 24.597207,6 24,6 Z" /><path
     id="path7"
     style="color:#000000;fill:#fff;stroke-linecap:round;stroke-linejoin:round;stroke-miterlimit:0;-inkscape-stroke:none;paint-order:stroke fill markers;stroke:none"
     d="M 26.052734 21.447266 C 25.924684 21.447264 25.796637 21.496311 25.699219 21.59375 C 25.324903 21.968066 25.009752 22.286334 24.648438 22.648438 A 1.5 1.5 0 0 0 24 22.5 A 1.5 1.5 0 0 0 22.5 24 A 1.5 1.5 0 0 0 22.652344 24.654297 C 4.6142564 42.810945 5.189055 43.385743 23.345703 25.347656 A 1.5 1.5 0 0 0 24 25.5 A 1.5 1.5 0 0 0 25.5 24 A 1.5 1.5 0 0 0 25.351562 23.351562 C 25.713666 22.990248 26.031934 22.675097 26.40625 22.300781 C 26.601462 22.105528 26.601462 21.789003 26.40625 21.59375 C 26.308839 21.496319 26.180785 21.447267 26.052734 21.447266 z " /><path
     id="rect30"
     style="fill:#fff;fill-opacity:1;stroke:none;stroke-width:1.3;stroke-linecap:round;stroke-linejoin:round;stroke-miterlimit:0;stroke-dasharray:none;stroke-opacity:1;paint-order:stroke fill markers"
     d="M 9 4 C 6.2300028 4 4 6.2300028 4 9 L 4 39 C 4 41.769997 6.2300028 44 9 44 L 39 44 C 41.769997 44 44 41.769997 44 39 L 44 9 C 44 6.2300028 41.769997 4 39 4 L 9 4 z M 9 5 L 39 5 C 41.215998 5 43 6.7840022 43 9 L 43 39 C 43 41.215998 41.215998 43 39 43 L 9 43 C 6.7840022 43 5 41.215998 5 39 L 5 9 C 5 6.7840022 6.7840022 5 9 5 z " /></svg>
