<?xml version="1.0" encoding="UTF-8" standalone="no"?>
<!-- Created with Inkscape (http://www.inkscape.org/) -->

<svg
   width="48"
   height="48"
   viewBox="0 0 48 48"
   version="1.1"
   id="svg1"
   xmlns="http://www.w3.org/2000/svg"
   xmlns:svg="http://www.w3.org/2000/svg">
  <defs
     id="defs1" />
  <g
     id="layer1">
    <path
       id="rect1"
       style="fill:#fff;stroke-linecap:round;stroke-linejoin:round"
       d="M 4,2 C 2.892,2 2,2.892 2,4 v 40 c 0,1.108 0.892,2 2,2 h 40 c 1.108,0 2,-0.892 2,-2 V 4 C 46,2.892 45.108,2 44,2 Z m 19.558594,8.251953 c 0.119513,4.34e-4 0.243891,0.02272 0.363281,0.07617 0.685818,0.307031 1.257818,0.742087 1.708984,1.054687 0.225583,0.156301 0.421534,0.280951 0.558594,0.34375 0.102792,0.04713 0.154615,0.05052 0.164063,0.05274 v 0.002 c 0.144981,-0.04183 0.278063,-0.0694 0.429687,-0.06445 0.153117,0.005 0.345262,0.0629 0.480469,0.189453 0.270416,0.253115 0.242686,0.507751 0.253906,0.681641 0.02243,0.347777 0.01117,0.60728 0.28711,0.914062 0.251872,0.280026 0.4573,0.406915 0.507812,0.421875 0.0037,0.0011 0.0074,0.0026 0.0098,0.0039 l 0.002,0.002 0.002,0.002 c 0.0045,-0.0094 0.01436,-0.02373 0.0332,-0.04687 -8.5e-4,-0.0011 0.0099,-0.02634 0.01563,-0.0918 0.0083,-0.09477 -0.01038,-0.240569 0.06055,-0.464844 0.03546,-0.112138 0.110214,-0.253475 0.240234,-0.359375 0.130021,-0.105899 0.295102,-0.156619 0.441407,-0.167969 0.292608,-0.02271 0.558892,0.05501 0.943359,0.201172 1.460495,0.555243 2.543286,1.20291 3.736328,2.210938 0.09144,0.07726 0.269714,0.195382 0.455078,0.341797 0.185364,0.146413 0.393861,0.322471 0.525391,0.615234 0.131529,0.292763 0.101481,0.713648 -0.109375,1.029297 -0.210857,0.315648 -0.544956,0.576918 -1.050781,0.867187 -0.250366,0.143674 -0.447568,0.482233 -0.664063,0.931641 -0.216496,0.449407 -0.439473,1.003809 -0.972656,1.369141 -0.510493,0.349789 -1.060782,0.289319 -1.482422,0.318359 -0.21082,0.01453 -0.388862,0.03985 -0.496094,0.07813 -0.107233,0.03826 -0.133041,0.06081 -0.164062,0.11914 -0.04389,0.08254 -0.08524,0.184101 -0.148438,0.300782 -0.0632,0.11668 -0.146682,0.272224 -0.353515,0.390625 -0.206832,0.118405 -0.501874,0.10275 -0.699219,0.01563 -0.197346,-0.08714 -0.357716,-0.216872 -0.552735,-0.400391 -0.05582,-0.05253 -0.07918,-0.07344 -0.09375,-0.08008 h -0.002 l -0.002,-0.002 c -0.01019,-0.0019 -0.02107,0.0031 -0.04102,0.0039 -0.04911,0.0019 -0.199262,0.04703 -0.435546,0.105469 -0.472567,0.11687 -1.247609,0.165794 -2.306641,-0.386719 -0.921228,-0.480619 -1.411545,-0.561459 -1.576172,-0.511719 -0.08231,0.02487 -0.145922,0.06518 -0.248047,0.212891 -0.102124,0.147715 -0.217334,0.395906 -0.341797,0.728516 -0.152903,0.408617 -0.447645,0.711889 -0.773437,0.832031 -0.325792,0.12014 -0.624491,0.08324 -0.855469,0.04492 -1.706405,-0.283118 -3.074647,-1.481499 -4.175781,-2.84961 -1.101135,-1.36811 -1.951254,-2.938016 -2.578125,-4.080078 -0.184422,-0.335987 -0.398242,-0.739765 -0.419922,-1.214843 -0.01084,-0.237539 0.04901,-0.544085 0.283203,-0.757813 0.234198,-0.213724 0.550408,-0.265565 0.867188,-0.240234 1.306719,0.104489 2.511707,-0.813052 3.636718,-1.644532 0.562506,-0.415739 1.090041,-0.809306 1.691407,-0.978515 0.300685,-0.08461 0.633812,-0.102482 0.955078,0.0039 0.260917,0.08641 0.477904,0.293402 0.683593,0.515625 0.04145,-0.02881 0.07299,-0.04755 0.164063,-0.125 0.134181,-0.114121 0.295131,-0.262476 0.517578,-0.380859 0.139029,-0.07399 0.326202,-0.133537 0.525391,-0.132813 z M 23.533203,11.25 c -0.0059,0.0039 -0.01535,0.0091 -0.03125,0.01758 -0.07205,0.03835 -0.198005,0.140793 -0.337891,0.259766 -0.139884,0.118972 -0.283401,0.261233 -0.537109,0.357422 -0.126854,0.04809 -0.300939,0.07848 -0.480469,0.03125 -0.179529,-0.04723 -0.330137,-0.167463 -0.429687,-0.296875 -0.146202,-0.190062 -0.263235,-0.261792 -0.363281,-0.294922 -0.100046,-0.0331 -0.207931,-0.03618 -0.371094,0.0098 -0.326327,0.09182 -0.813844,0.412788 -1.365234,0.820313 -1.10278,0.815049 -2.51815,1.979421 -4.3125,1.835937 -0.03627,-0.0029 -0.05006,-0.0059 -0.05469,-0.0078 h -0.002 v -0.002 h -0.002 c 0.01618,0.141461 0.135499,0.477001 0.283203,0.746093 0.628506,1.145042 1.456682,2.661585 2.480469,3.933594 1.023786,1.272009 2.228225,2.268859 3.5625,2.490235 0.168397,0.02799 0.290183,0.02238 0.345703,0.002 0.05552,-0.02048 0.10224,-0.03001 0.18164,-0.242188 0.136439,-0.364616 0.270695,-0.677743 0.457032,-0.947265 0.186339,-0.269523 0.450503,-0.501633 0.78125,-0.601563 0.661498,-0.199866 1.342587,0.06786 2.328125,0.582031 0.889163,0.46389 1.248507,0.390535 1.603515,0.302735 0.177504,-0.0439 0.363489,-0.122153 0.638672,-0.132813 0.275183,-0.01066 0.609126,0.112166 0.859375,0.347657 0.0652,0.06136 0.07259,0.0578 0.117188,0.0918 0.02345,-0.04844 0.03814,-0.07816 0.07031,-0.138672 0.161338,-0.303412 0.445602,-0.497115 0.710938,-0.591796 0.265336,-0.09468 0.52328,-0.118206 0.763672,-0.134766 0.480785,-0.03311 0.889248,-0.07996 0.986328,-0.146484 0.216457,-0.148314 0.411749,-0.513621 0.634765,-0.976563 0.223016,-0.462942 0.486571,-1.030253 1.070313,-1.365234 0.43401,-0.249058 0.648603,-0.455528 0.714844,-0.554688 0.0215,-0.03217 0.03318,-0.04789 0.03906,-0.05469 v -0.002 h -0.002 -0.002 v -0.002 h -0.002 v -0.002 h -0.002 v -0.002 l -0.002,-0.002 c -0.01225,-0.02726 -0.09696,-0.131691 -0.234375,-0.240234 -0.13742,-0.108544 -0.311978,-0.220922 -0.480468,-0.363282 -1.128939,-0.953865 -2.069296,-1.515935 -3.445313,-2.039062 -0.210747,-0.08012 -0.251071,-0.07717 -0.332031,-0.0918 -0.0019,0.0207 9.4e-5,0.0122 -0.002,0.03516 -0.01429,0.163566 -0.04719,0.413098 -0.238282,0.638672 -0.256688,0.303011 -0.722252,0.476094 -1.103515,0.363281 -0.381264,-0.112811 -0.660677,-0.370599 -0.966797,-0.710937 -0.481922,-0.53579 -0.495162,-1.127366 -0.513672,-1.4375 -0.284543,0.0546 -0.553266,0.0041 -0.77539,-0.09766 -0.244672,-0.11209 -0.473155,-0.265612 -0.71251,-0.431454 -0.472804,-0.327592 -0.9873,-0.709559 -1.527344,-0.955078 z m -2.59375,13.107422 h 1.882813 l -2.814454,2.416016 c -0.329209,-0.06695 -1.281883,0.140601 -1.189453,-0.111329 z m 9.738281,0.527344 H 33 l -1.949219,10.001953 h -2.320312 c 0.0793,-0.391524 0.21081,-0.844242 0.136719,-0.921875 -10e-4,-8.72e-4 -0.0048,-0.0051 -0.0059,-0.0059 h -0.002 c -0.05613,-0.0242 -0.192273,0.08852 -0.457031,0.433594 -1.3575,1.2826 -4.036368,0.695363 -4.361328,-1.273437 -0.514601,-2.358701 0.969028,-5.36015 3.548828,-5.59961 0.9469,-0.0997 1.9054,0.361067 2.34375,1.222657 z M 10.5,25.28125 c 0.8594,-0.0052 1.717773,0.0082 2.570312,0.105469 1.61859,0.1835 2.561521,1.934281 2.0625,3.425781 -0.3657,1.6997 -2.079112,2.768527 -3.757812,2.728516 -0.7347,0.02777 -1.4699882,0.01073 -2.2050781,0.01563 L 8.5273438,34.886719 H 6.0527344 L 7.921875,25.289062 c 0.8575,0.021 1.7187553,-0.0026 2.578125,-0.0078 z m 0.783203,1.757812 c -0.13526,-0.0014 -0.27117,0.01228 -0.40625,0.04297 h -0.820312 l -0.5273441,2.681641 c 1.0584001,-0.05413 2.5249941,0.293084 3.0527341,-0.916016 0.5079,-1.03561 -0.351988,-1.798694 -1.298828,-1.808594 z M 19.351562,27.5 c 0.8662,-0.0068 1.717502,0.129676 2.482422,0.566406 0.8953,0.5942 0.85709,1.782741 0.66211,2.712891 l -0.804688,4.107422 h -2.300781 c 0.02995,-0.304317 0.21435,-0.889536 0.142578,-0.988281 -9.28e-4,-10e-4 -0.0049,-0.005 -0.0059,-0.0059 h -0.002 l -0.002,-0.002 -0.002,-0.002 c -0.04821,-0.01841 -0.15939,0.07664 -0.371093,0.365234 -1.117499,1.08082 -3.455272,1.234916 -4.207032,-0.333984 -0.5605,-1.3998 0.40565,-3.022209 1.84375,-3.355469 1.1295,-0.36807 2.326794,-0.273219 3.496094,-0.287109 0.3486,-1.27308 -1.3868,-1.338236 -2.244141,-1.197266 -0.623799,-0.23584 -2.259847,1.132594 -1.867187,0.0293 0.20391,-0.43537 -0.04232,-1.306553 0.603516,-1.314453 C 17.602492,27.656052 18.485302,27.5068 19.351562,27.5 Z m 14.417969,0.1875 h 2.173828 l 0.990235,4.988281 2.550781,-4.988281 h 2.462891 c -1.6818,2.87 -3.297991,5.781047 -5.025391,8.623047 -0.6015,1.12076 -1.885384,1.532349 -3.083984,1.417969 -0.406919,-0.04963 -1.192882,0.224192 -0.863282,-0.455078 0.15548,-0.38451 -0.08202,-1.228171 0.548829,-1.056641 0.914499,0.1644 1.688811,-0.393805 1.988281,-1.240235 z m -5.396484,1.509766 c -0.854,1e-6 -1.871439,0.776723 -1.912109,1.714843 -0.2505,0.9054 -0.326073,2.554955 1.048828,2.490235 1.567359,-0.0452 2.121335,-1.921775 1.978515,-3.234375 -0.15017,-0.69125 -0.602834,-0.970735 -1.115234,-0.970703 z m -9.857422,2.380859 c -0.04178,-2.8e-4 -0.08232,0.0018 -0.123047,0.0059 -1.14035,0.1127 -1.857259,1.890935 -0.255859,1.958985 1.05434,0.0656 1.795653,-0.925675 1.871093,-1.896485 h -1.105468 c -0.131003,-0.04632 -0.261375,-0.06752 -0.386719,-0.06836 z" />
  </g>
</svg>
