<?xml version="1.0" encoding="UTF-8" standalone="no"?>
<!-- Created with Inkscape (http://www.inkscape.org/) -->

<svg
   width="48"
   height="48"
   viewBox="0 0 48 48"
   version="1.1"
   id="svg1"
   xmlns="http://www.w3.org/2000/svg"
   xmlns:svg="http://www.w3.org/2000/svg">
  <defs
     id="defs1" />
  <path
     style="fill:#fff;stroke:none;stroke-width:1;stroke-dasharray:none;stroke-opacity:1"
     d="m 24,3.9999997 c -7.456349,0 -13.465508,6.0091593 -13.465508,13.4655083 0,10.461147 10.348987,23.258923 13.019918,26.263721 0.445747,0.445748 0.958551,0.26519 1.223742,0 C 27.337794,40.613141 37.465508,27.926655 37.465508,17.465508 37.465508,10.009159 31.456348,3.9999997 24,3.9999997 Z m -5.007996,4.67326 h 10.015991 c 1.335466,0 2.33663,1.114193 2.33663,2.4496583 v 18.473503 c 0,1.335465 -1.001164,2.447484 -2.33663,2.447484 H 18.992004 c -1.335465,0 -2.33663,-1.112019 -2.33663,-2.447484 V 11.122918 c 0,-1.3354653 1.001165,-2.4496583 2.33663,-2.4496583 z"
     id="path3" />
  <path
     style="fill:#fff;stroke:none;stroke-width:1;stroke-dasharray:none;stroke-opacity:1"
     d="m 24,29.261685 c -0.556444,0 -1.002035,0.445589 -1.002035,1.002034 0,0.556444 0.445591,1.002033 1.002035,1.002033 0.556443,0 1.002034,-0.445589 1.002034,-1.002033 0,-0.556445 -0.44559,-1.002034 -1.002034,-1.002034 z"
     id="path2" />
  <path
     style="fill:#fff;stroke:none;stroke-width:1;stroke-dasharray:none;stroke-opacity:1"
     d="m 18.88115,11.122918 c -0.445155,0 -0.667299,0.33343 -0.667299,0.667296 v 16.026022 c 0,0.333866 0.333432,0.667297 0.667299,0.667297 h 10.015991 c 0.445156,0 0.667298,-0.333431 0.667298,-0.667297 V 11.790214 c 0,-0.333866 -0.333432,-0.667296 -0.667298,-0.667296 z"
     id="path1" />
</svg>
