<?xml version="1.0" encoding="UTF-8" standalone="no"?>
<!-- Created with Inkscape (http://www.inkscape.org/) -->

<svg
   width="48"
   height="48"
   viewBox="0 0 48 48"
   version="1.1"
   id="svg1"
   xmlns="http://www.w3.org/2000/svg"
   xmlns:svg="http://www.w3.org/2000/svg">
  <defs
     id="defs1" />
  <path
     d="m 14.812641,4.0191379 -9.2871091,0.00586 h -0.002 c -1.425244,0.2055232 -1.4668,1.5058588 -1.4668,1.5058588 -0.621715,8.2673303 4.010427,17.1376633 4.982422,18.8964833 3.4978631,6.196129 8.6486091,11.013319 14.7246121,14.613327 2.105792,1.143947 10.698606,5.487198 18.722656,4.882812 0,0 1.302402,-0.04167 1.50586,-1.464844 v -9.189453 c 0,0 0.242388,-2.28379 -1.914063,-2.488281 -2.731711,-0.25613 -6.816406,-1.199219 -6.816406,-1.199219 0,0 -2.009873,-0.673321 -3.263672,0.626953 -0.568795,0.589894 -2.232718,2.22837 -3.957031,3.916016 -3.036833,-1.519003 -5.837682,-3.507634 -8.238232,-5.910156 -2.405035,-2.416811 -4.405242,-5.205099 -5.923828,-8.257813 1.68051,-1.716951 3.308873,-3.368952 3.896485,-3.935547 1.300274,-1.254832 0.626953,-3.263672 0.626953,-3.263672 0,1e-6 -0.943088,-4.0846937 -1.199219,-6.8164051 C 17.024336,4.0532145 15.253034,4.01886 14.812641,4.0191379 Z"
     style="display:inline;fill:#fff;fill-opacity:1;stroke:none;stroke-width:1;stroke-dasharray:none;stroke-opacity:1"
     id="path1" />
</svg>
