<?xml version="1.0" encoding="UTF-8" standalone="no"?>
<!-- Created with Inkscape (http://www.inkscape.org/) -->

<svg
   width="48"
   height="48"
   viewBox="0 0 48 48"
   version="1.1"
   id="svg1"
   xml:space="preserve"
   xmlns="http://www.w3.org/2000/svg"
   xmlns:svg="http://www.w3.org/2000/svg"><defs
     id="defs1"><style
       id="style1">.a{fill:none;stroke:#fff;stroke-linecap:round;stroke-linejoin:round;}</style></defs><g
     id="layer1"><g
       id="g1"
       transform="translate(1.5833478,3.2663757)"><path
         style="color:#000000;fill:#fff;stroke:none;stroke-width:1;stroke-linecap:round;stroke-linejoin:round;stroke-dasharray:none"
         d="m 17.792514,4.523735 a 0.50010031,0.50010031 0 0 0 -0.66999,0.4707505 V 34.052096 a 0.50010031,0.50010031 0 0 0 0.328158,0.47075 l 6.678407,2.422119 a 0.50010031,0.50010031 0 0 0 0.671943,-0.470751 v -24.73491 c 0.0015,-0.358624 0.327046,-0.585364 0.664129,-0.462937 0.604449,0.218214 1.00528,0.787198 1.00596,1.429831 v 10.208058 a 0.50010031,0.50010031 0 0 0 0.335972,0.472705 c 3.616638,1.252246 7.407026,-1.496858 7.342535,-5.322802 -0.0078,-4.573939 -2.880127,-8.6600646 -7.182363,-10.2139166 h -0.002 z"
         id="path1" /><path
         id="path2"
         style="color:#000000;fill:#fff;stroke:none;stroke-width:1;stroke-linecap:round;stroke-linejoin:round;stroke-dasharray:none"
         d="m 15.011621,22.823653 a 0.50010031,0.50010031 0 0 0 -0.234399,0.02344 L 4.4968909,26.527151 a 0.50010031,0.50010031 0 0 0 -0.00195,0.002 c -1.632898,0.588098 -2.4828784,2.404808 -1.8888619,4.035562 a 0.50010031,0.50010031 0 0 0 0.021486,0.04883 c 0.4376973,0.885619 1.1540111,1.604744 2.0392677,2.043173 a 0.50010031,0.50010031 0 0 0 0.01172,0.0039 C 8.1399428,34.268078 12.09108,34.4626 15.693333,33.203638 l 0.01367,-0.0039 c 0.05046,-0.01544 0.284723,-0.09371 0.416058,-0.136733 v -4.89307 l -4.453573,1.568518 a 0.50010031,0.50010031 0 0 0 -0.002,0.002 c -0.775781,0.278586 -1.619715,0.275775 -2.4045392,0.02734 0.0256,-0.02104 0.02788,-0.0318 0.09962,-0.06641 l 5.7505782,-2.037314 a 0.50010031,0.50010031 0 0 0 0.332065,-0.47075 v -3.87539 a 0.50010031,0.50010031 0 0 0 -0.433637,-0.494191 z m 2.678003,4.854004 a 0.50010031,0.50010031 0 0 0 -0.234398,0.02344 l -0.332065,0.117199 v 4.918463 c 0.273943,-0.08955 0.623618,-0.204087 0.656316,-0.214864 a 0.50010031,0.50010031 0 0 0 0.343785,-0.474658 v -3.87539 a 0.50010031,0.50010031 0 0 0 -0.433638,-0.49419 z" /><path
         id="path3"
         style="color:#000000;fill:#fff;stroke:none;stroke-width:1;stroke-linecap:round;stroke-linejoin:round;stroke-dasharray:none"
         d="m 32.644254,23.636235 c -2.01969,0.0052 -4.041449,0.299623 -6.002557,0.884855 -0.120704,0.03606 -0.507089,0.169357 -0.839928,0.283231 v 4.908697 l 6.389314,-2.299059 a 0.50010031,0.50010031 0 0 0 0.002,-0.002 c 1.183718,-0.431473 2.481146,-0.433093 3.666385,-0.0059 0.145763,0.05244 0.181659,0.14422 0.181659,0.259792 0,0.115572 -0.03589,0.207355 -0.181659,0.259792 l -10.057652,3.605831 v 4.93409 l 14.339333,-5.154815 c 0.927612,-0.320935 1.672844,-1.026722 2.043175,-1.935742 a 0.50010031,0.50010031 0 0 0 0.002,-0.0059 c 0.672722,-1.711478 -0.178661,-3.658235 -1.892769,-4.324654 a 0.50010031,0.50010031 0 0 0 -0.002,0 c -2.183461,-0.838516 -4.47587,-1.304286 -6.781932,-1.392718 -0.288257,-0.01105 -0.576794,-0.01637 -0.865321,-0.01563 z m -7.842586,1.509918 c -0.247786,0.08512 -0.596941,0.2043 -0.662176,0.226584 a 0.50010031,0.50010031 0 0 0 -0.337925,0.472704 v 3.87539 a 0.50010031,0.50010031 0 0 0 0.668037,0.470751 l 0.332064,-0.119153 z m 0,6.742865 -0.669989,0.240259 a 0.50010031,0.50010031 0 0 0 -0.330112,0.47075 v 3.873437 a 0.50010031,0.50010031 0 0 0 0.668037,0.47075 l 0.332064,-0.119153 z" /></g></g></svg>
