<?xml version="1.0" encoding="UTF-8" standalone="no"?>
<!-- Created with Inkscape (http://www.inkscape.org/) -->

<svg
   width="48"
   height="48"
   viewBox="0 0 48 48"
   version="1.1"
   id="svg1"
   xml:space="preserve"
   xmlns="http://www.w3.org/2000/svg"
   xmlns:svg="http://www.w3.org/2000/svg"><defs
     id="defs1" /><g
     id="layer1"><path
       id="path1"
       style="display:inline;fill:#fff;fill-opacity:1;stroke:none;stroke-width:1;stroke-linecap:round;stroke-linejoin:round;stroke-dasharray:none"
       d="M 8.8441839,7.3062978 C 5.5179998,10.313222 3.6745219,13.579641 3.9233249,16.105007 3.3873295,15.876398 2.7262561,15.923475 2,16.180781 V 43.12293 c 1.1057533,0.832972 2.2919039,1.597037 3.5413247,2.275452 H 29.659773 c 3.6822,-4.429651 4.086701,-14.146842 3.02205,-15.825644 1.824563,-2.077483 2.717446,-3.722189 3.917967,-9.355871 C 32.899417,19.071036 29.352743,18.322349 26.780358,20.096519 23.811566,17.418128 19.340309,15.221482 15.973635,15.50773 14.958108,12.340311 11.97074,9.1691178 8.8441839,7.3062978 Z M 9.4436907,21.346792 a 2.2610073,2.2610073 0 0 1 2.2620793,2.26208 2.2610073,2.2610073 0 0 1 -2.2620793,2.259851 2.2610073,2.2610073 0 0 1 -2.259851,-2.259851 2.2610073,2.2610073 0 0 1 2.259851,-2.26208 z M 23.44407,28.565389 a 2.2610073,2.2610073 0 0 1 2.262079,2.26208 2.2610073,2.2610073 0 0 1 -2.262079,2.259851 2.2610073,2.2610073 0 0 1 -2.259852,-2.259851 2.2610073,2.2610073 0 0 1 2.259852,-2.26208 z" /><path
       id="path2"
       style="fill:#fff;fill-opacity:1;stroke:none;stroke-width:1;stroke-linecap:round;stroke-linejoin:round;stroke-dasharray:none"
       d="m 22.49789,2.6016178 -4.007547,6.7940611 -1.633931,2.6429951 c 2.67e-4,6.47e-4 -2.66e-4,0.0016 0,0.0023 0.10613,0.258457 0.203999,0.516004 0.287042,0.775015 3.709745,-0.315469 8.638716,2.102766 11.910033,5.054092 2.834515,-1.954961 6.741826,-1.127902 10.819273,0.134689 -1.322854,6.207766 -2.306181,8.020038 -4.316669,10.309222 0.22802,0.359555 0.394682,1.05294 0.485764,1.973964 l 1.757579,0.06622 L 41.80919,23.47621 46,16.772677 42.076359,9.8682139 l -3.80441,-6.999407 -7.880405,-0.0552 z" /></g></svg>
