<?xml version="1.0" encoding="UTF-8"?>
<svg enable-background="new 0 0 48 48" version="1.1" viewBox="0 0 48 48" xml:space="preserve" xmlns="http://www.w3.org/2000/svg">
<path d="m39.853 33.654c-0.11088 0.18289-0.30292 0.28577-0.49724 0.28577-0.0983 0-0.19661-0.024-0.28806-0.07544-0.27206-0.15889-0.36579-0.50639-0.20804-0.78187 1.6312-2.8154 2.4942-6.0366 2.4942-9.3127s-0.86303-6.4962-2.4942-9.3139c-0.15889-0.2732-0.06516-0.62298 0.20804-0.78187 0.26977-0.15775 0.62298-0.06744 0.7853 0.20918 1.7318 2.9903 2.644 6.4081 2.644 9.8854s-0.91561 6.8962-2.644 9.8854z" fill="#fff"/><path d="m36.495 32.363c-0.09831 0-0.19775-0.02401-0.28577-0.07544-0.27434-0.15889-0.36807-0.50639-0.21033-0.78187 1.3557-2.3422 2.0713-5.0216 2.0713-7.7387 0-2.7183-0.71672-5.3942-2.0724-7.7398-0.16003-0.2732-0.0663-0.62298 0.20918-0.78073 0.26977-0.16118 0.62298-0.0663 0.78187 0.20804 1.4551 2.5194 2.2256 5.3931 2.2256 8.3114 0 2.9194-0.76815 5.7932-2.2233 8.3114-0.10745 0.18632-0.29949 0.28577-0.4961 0.28577z" fill="#fff"/><path d="m33.839 30.688c-0.09602 0-0.19432-0.02401-0.28577-0.07316-0.27205-0.16118-0.36579-0.50639-0.21147-0.78416 1.0619-1.8335 1.6198-3.9299 1.6198-6.0618 0-2.1307-0.55554-4.2248-1.6175-6.0561-0.15889-0.2732-0.06516-0.62298 0.21147-0.78187 0.26977-0.15775 0.6207-0.06516 0.78187 0.20918 1.1591 2.005 1.7718 4.2969 1.7718 6.6288 0 2.3296-0.61269 4.6215-1.7741 6.6333-0.10516 0.18289-0.29949 0.28577-0.4961 0.28577z" fill="#fff"/><path d="m29.453 32.185c0 0.33264-0.19432 0.64127-0.50067 0.7773-0.1166 0.0583-0.22862 0.08002-0.35664 0.08002-0.20576 0-0.40808-0.08002-0.57154-0.22747l-5.5325-5.0193-5.6583 0.10288h-0.02286c-0.21719 0-0.43437-0.09145-0.5944-0.25034-0.17146-0.16346-0.26291-0.37722-0.26291-0.60698v-6.5385c0-0.4801 0.38865-0.85731 0.85731-0.85731h5.2582l5.9783-4.9496c0.16003-0.12574 0.35436-0.19432 0.54754-0.19432 0.12345 0 0.25262 0.02286 0.3635 0.08002 0.30978 0.13717 0.49381 0.4458 0.49381 0.7773v16.826z" fill="#fff"/><path d="m23.018 44c-7.0346 0-13.598-3.7859-17.123-9.8831-0.15889-0.27206-0.065156-0.62298 0.20804-0.77958 0.2732-0.16118 0.62298-0.06744 0.78187 0.20804 3.323 5.744 9.5059 9.3116 16.135 9.3116 0.31549 0 0.57154 0.2572 0.57154 0.57154 0 0.31435-0.2572 0.57154-0.57269 0.57154z" fill="#fff"/><path d="m5.5798 13.883c3.5264-6.0961 10.088-9.8831 17.122-9.8831 0.31549 0 0.57154 0.25605 0.57154 0.57154s-0.25605 0.57154-0.57154 0.57154c-6.6288 0-12.811 3.5676-16.134 9.3116-0.10402 0.18632-0.29606 0.28692-0.49496 0.28692-0.097162 0-0.19547-0.024-0.28577-0.07659-0.27205-0.15889-0.36579-0.50753-0.20804-0.78187z" fill="#fff"/><path d="m22.791 8.2969c-5.5028 0-10.636 2.964-13.397 7.7341-0.10516 0.18289-0.2972 0.28577-0.49381 0.28577-0.09716 0-0.19547-0.02401-0.28577-0.07659-0.2732-0.15889-0.36693-0.50753-0.20918-0.78187 2.964-5.1222 8.476-8.3045 14.386-8.3045 0.31549 0 0.57154 0.25605 0.57154 0.57154s-0.25605 0.57154-0.57154 0.57154z" fill="#fff"/><path d="m12.205 17.629c-0.10631 0.18289-0.29834 0.28577-0.49496 0.28577-0.09716 0-0.19547-0.024-0.28577-0.07659-0.27206-0.15889-0.36579-0.50753-0.20804-0.78187 2.365-4.09 6.7682-6.631 11.488-6.631 0.31549 0 0.57154 0.25605 0.57154 0.57154s-0.25605 0.57154-0.57154 0.57154c-4.3129 0-8.3365 2.3216-10.499 6.0606z" fill="#fff"/><path d="m23.362 39.809c0 0.31435-0.25605 0.57154-0.57269 0.57154-5.9098 0-11.421-3.1812-14.383-8.3034-0.15889-0.26977-0.06516-0.62298 0.20918-0.78187 0.2732-0.16118 0.62184-0.06516 0.78073 0.21033 2.7594 4.769 7.8919 7.7318 13.395 7.7318 0.31549 0 0.57154 0.25491 0.57154 0.57154z" fill="#fff"/><path d="m22.703 37.113c-4.7198 0-9.1207-2.5411-11.486-6.6288-0.15889-0.27205-0.06516-0.62298 0.20804-0.78187 0.2732-0.16118 0.62298-0.06516 0.78187 0.21033 2.1616 3.7356 6.183 6.0572 10.497 6.0572 0.31549 0 0.57154 0.25491 0.57154 0.57154 0 0.31435-0.25605 0.57154-0.57269 0.57154z" fill="#fff"/>
</svg>
