<?xml version="1.0" encoding="UTF-8"?>
<svg enable-background="new 0 0 48 48" version="1.1" viewBox="0 0 48 48" xml:space="preserve" xmlns="http://www.w3.org/2000/svg">
<g transform="matrix(.90909 0 0 .90909 2.1823 2.1818)" fill="#fff">
	
	<path transform="matrix(1.1,0,0,1.1,-2.4005,-2.4)" d="m8.2285 19.967c-2.216 0-4 1.784-4 4v10.797h21.143v2.6426h-21.143v2.5605c0 2.216 1.784 4 4 4h20c2.216 0 4-1.784 4-4v-10.867h-21.252v-2.6426h21.252v-2.4902c0-2.216-1.784-4-4-4h-20z" stroke-linecap="round" stroke-linejoin="round" stroke-miterlimit="0"/><circle cx="17.376" cy="11.205" r="5.198"/>
	
		<path d="m36.859 2.2c-0.039-0.12-0.148-0.2-0.274-0.2h-1.118c-0.126 0-0.233 0.079-0.272 0.2l-2.441 7.63c-0.027 0.085-0.013 0.178 0.039 0.252 0.056 0.076 0.142 0.119 0.233 0.119h0.957c0.127 0 0.24-0.08 0.274-0.201l0.688-2.2h2.127l0.704 2.203c0.041 0.118 0.152 0.198 0.274 0.198h0.993c0.093 0 0.179-0.043 0.231-0.119 0.054-0.074 0.066-0.168 0.043-0.255zm-1.547 4.26 0.589-1.841c0.034-0.114 0.066-0.228 0.101-0.35 0.032 0.12 0.071 0.241 0.111 0.368l0.587 1.823z"/>
		<path d="m45.779 2.287c0-0.156-0.129-0.286-0.285-0.286h-0.876c-0.156 0-0.287 0.129-0.287 0.286v3.192c0 0.626 5e-3 1.203 0.023 1.773-0.209-0.404-0.445-0.823-0.7-1.25l-2.302-3.859c-0.052-0.086-0.144-0.14-0.247-0.14h-1.008c-0.157 0-0.287 0.129-0.287 0.285v7.629c0 0.156 0.126 0.286 0.287 0.286h0.869c0.16 0 0.287-0.128 0.287-0.286v-3.259c0-0.719-5e-3 -1.318-0.021-1.878 0.227 0.428 0.486 0.894 0.792 1.41l2.281 3.872c0.052 0.087 0.146 0.141 0.246 0.141h0.94c0.156 0 0.287-0.128 0.287-0.286v-7.63z"/>
		<path d="m28.245 3.409h1.901v6.508c0 0.157 0.124 0.286 0.285 0.286h0.938c0.158 0 0.286-0.128 0.286-0.286v-6.507h1.911c0.158 0 0.289-0.127 0.289-0.286v-0.837c0-0.156-0.131-0.284-0.289-0.284h-5.322c-0.159 0-0.285 0.128-0.285 0.284v0.836c1e-3 0.157 0.127 0.286 0.286 0.286z"/>
	
</g>
</svg>
