<?xml version="1.0" encoding="UTF-8" standalone="no"?>
<!-- Created with Inkscape (http://www.inkscape.org/) -->

<svg
   width="48"
   height="48"
   viewBox="0 0 48 48"
   version="1.1"
   id="svg1"
   xml:space="preserve"
   xmlns="http://www.w3.org/2000/svg"
   xmlns:svg="http://www.w3.org/2000/svg"><defs
     id="defs1"><style
       id="style1">.a{fill:none;stroke:#fff;stroke-linecap:round;stroke-linejoin:round;}.b{fill:#fff;}</style></defs><path
     style="baseline-shift:baseline;display:inline;overflow:visible;opacity:1;vector-effect:none;fill:#fff;stroke-width:1;stroke-linecap:round;stroke-linejoin:round;enable-background:accumulate;stop-color:#000000;stop-opacity:1"
     d="m 14.517559,18.994682 a 0.86404557,0.86404557 0 0 0 -1.217095,0.109201 c -2.720575,3.2581 -2.734596,8.00663 -0.03177,11.279467 a 0.86413198,0.86413198 0 0 0 0.667118,0.313705 h 0.02779 a 0.86404557,0.86404557 0 0 0 0.86368,-0.863681 0.86404557,0.86404557 0 0 0 -0.839854,-0.839855 l 0.613511,0.28988 c -2.180112,-2.639881 -2.168614,-6.443629 0.02581,-9.071623 a 0.86404557,0.86404557 0 0 0 -0.109201,-1.217094 z"
     id="path7" /><path
     style="baseline-shift:baseline;display:inline;overflow:visible;opacity:1;vector-effect:none;fill:#fff;stroke-width:1;stroke-linecap:round;stroke-linejoin:round;enable-background:accumulate;stop-color:#000000;stop-opacity:1"
     d="m 8.9919903,14.134246 a 0.86404557,0.86404557 0 0 0 -1.2170944,0.115157 c -5.0331944,6.101058 -5.0331944,14.929063 0,21.030121 a 0.86404557,0.86404557 0 0 0 1.2170944,0.117143 0.86404557,0.86404557 0 0 0 0.1171429,-1.217094 c -4.5133189,-5.470883 -4.5133189,-13.359334 0,-18.830219 A 0.86404557,0.86404557 0 0 0 8.9919903,14.134246 Z"
     id="path8" /><path
     style="baseline-shift:baseline;display:inline;overflow:visible;opacity:1;vector-effect:none;fill:#fff;stroke-width:1;stroke-linecap:round;stroke-linejoin:round;enable-background:accumulate;stop-color:#000000;stop-opacity:1"
     d="m 23.967198,18.211629 c 0.02201,0.154172 0.03375,0.312454 0.03375,0.472525 0,1.346892 -0.807281,2.514588 -1.961574,3.041631 1.154726,0.527387 1.961574,1.694399 1.961574,3.041631 0,1.304748 -0.757707,2.437749 -1.854363,2.98604 1.097092,0.54809 1.854363,1.682932 1.854363,2.988026 0,1.837879 -1.501563,3.339441 -3.339441,3.339441 -0.0085,0.0025 -0.01813,0.0091 -0.02383,0.0139 -0.001,0.001 -0.005,0.0049 -0.006,0.006 -0.04683,0.06562 0.05877,0.245054 0.08935,0.327591 0.496348,1.33991 1.877316,1.526936 2.039005,1.5228 l 1.395735,-0.006 -0.004,5.295058 c 0.0015,0.825464 0.331374,1.508289 0.829896,1.949662 0.498522,0.441373 1.142128,0.650477 1.778918,0.649226 0.63679,-0.0012 1.280066,-0.211894 1.776932,-0.655182 0.496867,-0.443289 0.823458,-1.12817 0.821955,-1.953633 l 0.002,-5.295058 h 3.176639 l -0.002,5.297044 c 0.0015,0.825462 0.32939,1.508289 0.827912,1.949662 0.498522,0.441372 1.142127,0.650477 1.778917,0.649226 0.63679,-0.0012 1.280066,-0.211893 1.776931,-0.655182 0.496866,-0.443288 0.823459,-1.12817 0.821956,-1.953633 l 0.004,-5.293073 1.395736,0.006 c 0.935703,0.02005 2.182653,-1.111052 2.175998,-2.195851 v -9.857505 c 0,0 -0.241643,0.0033 -0.478482,0.02581 -2.301059,0 -4.17728,-1.876219 -4.17728,-4.177279 0,-0.535072 0.10125,-1.047951 0.285898,-1.51883 z"
     id="path24" /><path
     style="baseline-shift:baseline;display:inline;overflow:visible;opacity:1;vector-effect:none;fill:#fff;stroke-width:1;stroke-linecap:round;stroke-linejoin:round;enable-background:accumulate;stop-color:#000000;stop-opacity:1"
     d="m 36.933838,4.1609613 c -0.198482,-0.00447 -0.390439,0.1090335 -0.476496,0.3017806 L 35.184702,7.299877 C 33.914572,6.730185 32.512368,6.4093595 31.041175,6.3965205 29.447398,6.3826118 27.926853,6.733502 26.564099,7.3713514 L 25.259692,4.4627419 c -0.08449,-0.1881654 -0.274315,-0.3066122 -0.480466,-0.2997951 -0.06643,0.00183 -0.131862,0.016669 -0.192583,0.043679 -0.256996,0.1147422 -0.371819,0.4164847 -0.256117,0.6730503 l 1.332202,2.9681713 c -2.640589,1.5691078 -4.540633,4.2812346 -4.983351,7.4988506 1.299546,0.0069 2.42891,0.764075 2.974128,1.858334 0.02694,-0.0044 0.0552,-0.0079 0.08339,-0.0079 h 13.784624 c 0.764438,-0.998703 1.967443,-1.64391 3.317602,-1.64391 0.138652,0 0.275727,0.0065 0.410978,0.01985 C 40.861481,12.205756 38.875846,9.3559275 36.092031,7.762488 L 37.384526,4.8796889 C 37.500478,4.6236634 37.386661,4.3221348 37.130395,4.2066386 37.06625,4.1777134 37.000001,4.1624649 36.93384,4.1609747 Z M 26.276217,11.316339 c 0.421052,1.5e-5 0.762378,0.341341 0.762393,0.762393 -1.5e-5,0.421051 -0.341341,0.762377 -0.762393,0.762393 -0.421051,-1.6e-5 -0.762378,-0.341342 -0.762394,-0.762393 1.6e-5,-0.421052 0.341343,-0.762378 0.762394,-0.762393 z m 9.255929,0 c 0.421052,1.5e-5 0.762379,0.341341 0.762394,0.762393 -1.5e-5,0.421051 -0.341342,0.762377 -0.762394,0.762393 -0.421052,-1.6e-5 -0.762377,-0.341342 -0.762393,-0.762393 1.6e-5,-0.421052 0.341341,-0.762378 0.762393,-0.762393 z"
     id="path1" /><circle
     style="fill:#fff;fill-opacity:1;stroke:none;stroke-width:1;stroke-linecap:round;stroke-linejoin:round;stroke-dasharray:none;stroke-opacity:1"
     id="path27"
     cx="20.6625"
     cy="18.685146"
     r="2.3380058" /><circle
     style="fill:#fff;fill-opacity:1;stroke:none;stroke-width:1;stroke-linecap:round;stroke-linejoin:round;stroke-dasharray:none;stroke-opacity:1"
     id="circle27"
     cx="20.6625"
     cy="24.76543"
     r="2.3380058" /><circle
     style="fill:#fff;fill-opacity:1;stroke:none;stroke-width:1;stroke-linecap:round;stroke-linejoin:round;stroke-dasharray:none;stroke-opacity:1"
     id="circle28"
     cx="20.6625"
     cy="30.742474"
     r="2.3380058" /><circle
     style="fill:#fff;fill-opacity:1;stroke:none;stroke-width:1;stroke-linecap:round;stroke-linejoin:round;stroke-dasharray:none;stroke-opacity:1"
     id="circle29"
     cx="40.839119"
     cy="19.730459"
     r="3.160882" /></svg>
