<?xml version="1.0" encoding="UTF-8"?>
<!DOCTYPE svg  PUBLIC '-//W3C//DTD SVG 1.1//EN'  'http://www.w3.org/Graphics/SVG/1.1/DTD/svg11.dtd'>
<svg enable-background="new 0 0 48 48" version="1.1" viewBox="0 0 48 48" xml:space="preserve" xmlns="http://www.w3.org/2000/svg">
<path d="m45.499 23.057v-3.498c0-0.256-0.198-0.453-0.454-0.453h-15.281l-5.427-6.183 2.824-2.615-12.063-4.276 2.394 12.434 2.894-2.278 2.545 2.917h-19.976c-0.256 0-0.454 0.197-0.454 0.453v3.498c0 0.244 0.197 0.441 0.454 0.441h23.799l0.431 0.488c-2.581 0.396-5.195 1.349-7.299 2.918-3.881 2.881-4.811 6.101-4.462 8.691h-12.469c-0.256 0-0.454 0.198-0.454 0.441v3.498c0 0.245 0.197 0.442 0.454 0.442h14.711c1.929 1.65 5.323 2.872 8.739 2.872 2.338 0 4.683-0.569 6.578-1.929 0.429-0.314 0.848-0.628 1.223-0.943h10.841c0.257 0 0.454-0.197 0.454-0.442v-3.498c0-0.243-0.197-0.441-0.454-0.441h-7.102c0.686-1.324 0.987-2.604 1.011-3.789 0.035-0.929 0.058-1.87-0.349-2.603-0.756-1.348-4.067-4.637-4.067-4.637l-0.93-1.069h11.435c0.256 3e-3 0.454-0.195 0.454-0.439zm-24.439-7.461c-0.163-0.197-0.419-0.302-0.674-0.302-0.197 0-0.383 0.059-0.546 0.186l-1.754 1.372-1.813-9.448 9.192 3.254-1.731 1.604c-0.36 0.326-0.383 0.884-0.07 1.255l4.916 5.59h-4.452l-3.068-3.511zm12.806 9.565c0.012 0.011 0.034 0.024 0.046 0.034 0.896 0.906 3.348 3.439 3.903 4.439 0.291 0.534 0.278 1.348 0.245 2.138-0.034 1.289-0.417 2.568-1.15 3.823-0.174 0.302-0.371 0.593-0.593 0.896-0.641 0.883-1.452 1.769-2.442 2.591-0.348 0.302-0.72 0.616-1.128 0.896-0.092 0.081-0.185 0.152-0.277 0.221-1.604 1.139-3.706 1.754-6.068 1.754-2.822 0-5.449-0.86-7.215-1.975-0.454-0.266-0.86-0.581-1.186-0.896-0.267-0.244-0.476-0.5-0.651-0.743-0.127-0.197-0.546-0.86-0.825-1.85-0.081-0.267-0.151-0.581-0.208-0.896-0.303-2.105 0.208-5.078 4.102-7.97 1.836-1.374 4.3-2.35 6.902-2.742 0.325-0.059 0.594-0.268 0.707-0.582 0.093-0.268 0.058-0.569-0.104-0.802h4.498l1.444 1.664z" fill="#fff"/>
</svg>
