<?xml version="1.0" encoding="UTF-8"?>
<svg enable-background="new 0 0 48 48" version="1.1" viewBox="0 0 48 48" xml:space="preserve" xmlns="http://www.w3.org/2000/svg">
<path d="m24 4c-11.029 0-20 8.9708-20 20 0 11.028 8.9708 20 20 20 11.028 0 20-8.9717 20-20 0-11.029-8.9717-20-20-20zm13.322 13.512-11.196 6.4201 0.36895 0.25753c0.51324 0.34703 0.63379 1.0402 0.30137 1.5553-0.22466 0.32329-0.57078 0.49132-0.92968 0.49132-0.22192 0-0.43653-0.06667-0.6274-0.18996l-0.12237-0.07854v12.294c0 0.61461-0.5032 1.1187-1.1187 1.1187-0.61461 0-1.1187-0.50411-1.1187-1.1187v-12.461l-0.51416 0.29132c-0.179 0.09954-0.36895 0.14429-0.55982 0.14429-0.37991 0-0.76073-0.20091-0.9726-0.5589-0.30228-0.53699-0.11233-1.2192 0.4137-1.5324l0.6484-0.36895-4.7653-3.2329c-0.51416-0.34703-0.6484-1.0402-0.30228-1.5553 0.34703-0.5032 1.0411-0.63744 1.5553-0.29132l4.4968 3.0429v-4.1388c0-0.61461 0.5032-1.1187 1.1187-1.1187 0.61552 0 1.1187 0.5032 1.1187 1.1187v4.3288l11.096-6.3534c0.5379-0.31324 1.2192-0.12329 1.5205 0.4137 0.3169 0.5379 0.12694 1.2201-0.41096 1.5224z" fill="#fff"/>
</svg>
