<?xml version="1.0" encoding="UTF-8" standalone="no"?>
<svg
   data-name="Layer 1"
   viewBox="0 0 48 48"
   version="1.1"
   id="svg2"
   xmlns="http://www.w3.org/2000/svg"
   xmlns:svg="http://www.w3.org/2000/svg">
  <defs
     id="defs1">
    <style
       id="style1">.cls-1{fill:#fff;}</style>
  </defs>
  <path
     id="path3"
     d="M 22.890944,4.0458409 A 13.434737,13.434737 0 0 0 10.565437,17.434827 c 0,10.512198 10.290401,23.236198 12.946231,26.280957 a 0.82230814,0.82230814 0 0 0 1.24362,0 C 27.333332,40.604351 37.434564,27.935913 37.434564,17.434827 A 13.434737,13.434737 0 0 0 22.890944,4.0458409 Z m -5.935951,5.132915 h 4.97882 v 7.8350201 a 4.3448984,4.3448984 0 0 0 0.431902,2.222455 1.5001567,1.5001567 0 0 0 1.434611,0.720561 1.7779635,1.7779635 0 0 0 1.710249,-1.054798 8.0897341,8.0897341 0 0 0 0.523058,-3.333682 V 9.1787559 h 5.011375 V 23.624709 h -3.711326 l -0.677154,-1.944647 h -0.199673 a 3.5892639,3.5892639 0 0 1 -1.111227,1.655989 2.5780471,2.5780471 0 0 1 -1.556153,0.544762 2.2224544,2.2224544 0 0 1 -1.111227,-0.256104 2.5113735,2.5113735 0 0 1 -0.790014,-0.811716 24.280315,24.280315 0 0 1 0.145416,3.001615 v 4.065095 h -5.078657 z"
     style="fill:#fff;fill-opacity:1;stroke:none;stroke-width:1;stroke-dasharray:none" />
</svg>
