<?xml version="1.0" encoding="UTF-8" standalone="no"?>
<svg
   version="1.1"
   viewBox="0 0 48 48"
   id="svg1"
   xmlns="http://www.w3.org/2000/svg"
   xmlns:svg="http://www.w3.org/2000/svg">
  <defs
     id="defs1" />
  <path
     d="M 25.821,34.84 19.377168,46 c -5.153287,0 -15.380168,2e-6 -15.380168,2e-6 -1.2567643,-0.149468 -1.9234309,-0.816135 -2,-2 l 0,-36.0947919 c 0,0 9.298,16.1047899 12.474,21.6047899 1.962,3.402 5.599,5.496 9.526,5.5 0.6116,-0.0039 1.222,-0.05876 1.824,-0.1641 z"
     id="path13"
     style="fill:#fff;fill-opacity:1" />
  <path
     id="path12"
     style="fill:#fff;fill-opacity:1"
     d="M 3.9960938 2.0039062 C 3.7369548 2.0172966 3.502769 2.059602 3.2929688 2.1328125 L 9.5664062 12.998047 L 13.701172 20.158203 C 15.304172 15.856203 19.410953 13.0027 24.001953 13 L 46.001953 13 L 46.001953 4.0039062 C 45.946998 2.8427726 45.280331 2.1761058 44.001953 2.0039062 L 24.003906 2.0039062 L 3.9960938 2.0039062 z " />
  <path
     d="m 46.001002,44.000002 c -0.132317,1.240114 -0.798984,1.906781 -2,2 0,0 -13.404708,-2e-6 -20.001002,-2e-6 L 33.526,29.5 C 34.4949,27.831 34.995,25.93 35,24 34.9981,21.445 34.1066,18.97 32.479,17 h 13.522 z"
     id="path1"
     style="fill:#fff;fill-opacity:1" />
  <circle
     cx="24"
     cy="24"
     r="7"
     fill="#fff"
     style="paint-order:markers fill stroke"
     id="circle1" />
</svg>
