<?xml version="1.0" encoding="UTF-8"?>
<svg enable-background="new 0 0 48 48" version="1.1" viewBox="0 0 48 48" xml:space="preserve" xmlns="http://www.w3.org/2000/svg">
<g fill="#fff">
	<path d="m45.5 23.993c0 11.852-9.646 21.502-21.5 21.502s-21.5-9.65-21.5-21.502c0-8.044 5.18-13.84 9.071-17.498 0.123-0.124 0.316-0.178 0.494-0.192 0.178 0.014 0.342 0.083 0.466 0.221l3.521 3.74c0.124 0.138 0.192 0.315 0.192 0.494s-0.083 0.357-0.219 0.48c-4.851 4.564-7.017 8.495-7.017 12.757 0 8.264 6.729 14.992 14.992 14.992 8.264 0 14.992-6.73 14.992-14.992 0-5.591-3.755-9.962-6.907-12.662-0.138-0.11-0.219-0.288-0.232-0.465-0.016-0.178 0.04-0.357 0.164-0.494l3.33-3.905c0.245-0.288 0.685-0.33 0.973-0.082 7.59 6.479 9.18 13.153 9.18 17.606z"/>
	<path d="m28.796 4.398v11.99c0 0.369-0.301 0.684-0.685 0.684h-0.261v9.523c0 0.37-0.301 0.685-0.685 0.685h-6.331c-0.383 0-0.686-0.315-0.686-0.685l-0.082-9.7h-0.178c-0.383 0-0.685-0.301-0.685-0.686v-11.647c0-0.37 0.301-0.685 0.685-0.685h0.767v-0.685c0-0.37 0.316-0.685 0.686-0.685h5.267c0.382 0 0.685 0.315 0.685 0.685v0.52h0.821c0.381 0 0.682 0.302 0.682 0.686z"/>
</g>
</svg>
