<?xml version="1.0" encoding="UTF-8"?>
<svg enable-background="new 0 0 48 48" version="1.1" viewBox="0 0 48 48" xml:space="preserve" xmlns="http://www.w3.org/2000/svg">
<g transform="matrix(.93023 0 0 .93023 1.6716 1.6762)" fill="#fff">
	<path d="m45.393 31.263c0.073-0.11 0.11-0.259 0.11-0.395l-0.148-16.687c-0.148-2.334-1.124-3.593-3.002-3.767l-27.876-0.988-0.074-3.792c-0.025-0.358-0.247-0.667-0.605-0.766l-3.73-1.01c-0.112-0.026-0.223-0.051-0.359-0.015l-6.534 1.161c-0.346 0.062-0.63 0.346-0.667 0.703-0.037 0.335 0.136 0.681 0.47 0.827l3.347 1.532 0.815 33.116c0 0.049 0.025 0.172 0.037 0.21 0.049 0.296 0.247 0.542 0.519 0.642l5.509 1.988c0.099 0.038 0.186 0.05 0.285 0.05 0.16 0 0.321-0.05 0.469-0.148 0.209-0.148 0.345-0.407 0.345-0.667v-3.248l16.144-0.26c0.086 0 0.159-0.023 0.246-0.049 1.174 2.643 3.816 4.471 6.893 4.471 4.188 0 7.571-3.372 7.571-7.559 0-1.272-0.334-2.482-0.89-3.533 0.147-0.081 0.26-0.195 0.346-0.345zm-7.807 11.276c-3.248 0-5.917-2.668-5.917-5.94 0-3.263 2.669-5.903 5.917-5.903 3.273 0 5.928 2.644 5.928 5.903 0 3.272-2.655 5.94-5.928 5.94zm5.743-10.855c-1.396-1.618-3.434-2.632-5.743-2.632-4.163 0-7.546 3.385-7.546 7.547 0 0.531 0.048 1.038 0.146 1.507l-15.871 0.26c0.037-0.05 0.037-0.111 0.037-0.173l0.148-27.125 27.766 0.977c0.815 0.084 1.347 0.482 1.445 2.197l0.148 16.429z"/>
	<path d="m39.525 15.22v9.398c0 0.443-0.372 0.815-0.815 0.815h-5.213c-0.456 0-0.815-0.372-0.815-0.815v-9.398c0-0.458 0.359-0.815 0.815-0.815h5.213c0.443-2e-3 0.815 0.357 0.815 0.815z"/>
	<path d="m30.409 14.095v11.635c0 0.456-0.369 0.827-0.815 0.827h-13.228c-0.457 0-0.814-0.371-0.814-0.827v-11.635c0-0.458 0.358-0.815 0.814-0.815h13.228c0.446-1e-3 0.815 0.356 0.815 0.815z"/>
	<path d="m23.998 37.582c-0.45 0-0.816-0.368-0.816-0.816v-4.495c0-0.449 0.367-0.815 0.816-0.815s0.817 0.366 0.817 0.815v4.495c-1e-3 0.45-0.368 0.816-0.817 0.816z"/>
	<path d="m21.394 37.582c-0.453 0-0.818-0.368-0.818-0.816v-4.495c0-0.449 0.365-0.815 0.818-0.815 0.449 0 0.817 0.366 0.817 0.815v4.495c-1e-3 0.45-0.368 0.816-0.817 0.816z"/>
	<path d="m18.891 37.582c-0.449 0-0.817-0.368-0.817-0.816v-4.495c0-0.449 0.368-0.815 0.817-0.815 0.451 0 0.818 0.366 0.818 0.815v4.495c-1e-3 0.45-0.367 0.816-0.818 0.816z"/>
	<path d="m16.567 37.582c-0.449 0-0.816-0.368-0.816-0.816v-4.495c0-0.449 0.367-0.815 0.816-0.815 0.454 0 0.818 0.366 0.818 0.815v4.495c0 0.45-0.364 0.816-0.818 0.816z"/>
	
<path d="m37.685 39.282c-0.449 0-0.816-0.368-0.816-0.816v-4.495c0-0.449 0.367-0.815 0.816-0.815 0.454 0 0.818 0.366 0.818 0.815v4.495c0 0.45-0.364 0.816-0.818 0.816z"/></g>
</svg>
