<svg version="1.1" viewBox="0 0 48 48" xmlns="http://www.w3.org/2000/svg">
 <path d="m24 2a22 22 0 0 0-22 22 22 22 0 0 0 22 22 22 22 0 0 0 22-22 22 22 0 0 0-22-22zm-11.465 9h22.93c2.5127 0 4.5352 2.0225 4.5352 4.5352v3.5527c0-2.5127-2.0224-4.5352-4.5352-4.5352h-22.93c-2.5127 0-4.5352 2.0225-4.5352 4.5352v-3.5527c0-2.5127 2.0225-4.5352 4.5352-4.5352zm1.7324 7.1816h19.463c1.877 0 3.4294 1.3309 3.7754 3.1035-1.0677 0.93012-2.1329 1.8683-3.3496 2.5879-2.3966 1.0397-5.0857 0.44214-7.5605 0.042969-5.3032-0.9942-10.543-2.2785-15.783-3.5586 0.62187-1.2861 1.9256-2.1758 3.4551-2.1758zm-6.2676 3.5527c7.5612 1.8262 11.214 2.7607 16.484 3.8105 4.793 0.95474 8.8169 1.6466 11.697-0.58594 1.336-1.0355 2.5608-2.0915 3.8184-3.1758v10.682c0 2.5127-2.0224 4.5352-4.5352 4.5352h-22.93c-2.5127 0-4.5352-2.0225-4.5352-4.5352v-10.73z" fill="#fff"/>
</svg>
