<?xml version="1.0" encoding="UTF-8"?>
<!DOCTYPE svg  PUBLIC '-//W3C//DTD SVG 1.1//EN'  'http://www.w3.org/Graphics/SVG/1.1/DTD/svg11.dtd'>
<svg enable-background="new 0 0 48 48" version="1.1" viewBox="0 0 48 48" xml:space="preserve" xmlns="http://www.w3.org/2000/svg">
<g fill="#fff">
	<path d="m46 13.715v24.99c0 1.357-1.107 2.46-2.46 2.46h-18.286c1.319-1.345 2.729-2.73 3.553-3.364 0.428-0.324 1.797-1.061 2.045-1.194 0.271 0.044 1.555 0.234 2.334 0.234 0.147 0 0.271 0 0.37-0.023 2.718-0.451 4.166-1.895 5.122-3.113 0.632-0.814 1.062-2.063 1.172-3.431 0.116-1.296-0.09-2.491-0.529-3.19-0.201-0.316-0.426-0.384-0.597-0.384-0.215 0-0.362 0.116-0.384 0.124v0.013l-4.183 4.32c-0.122 0.011-0.262 0.011-0.395 0.011-0.836 0-1.558-0.223-1.806-0.553-0.335-0.461-0.37-1.33-0.35-2.189 0.181-0.325 2.695-2.764 4.269-4.229 0.011-0.011 0.022-0.023 0.022-0.034 0.09-0.124 0.135-0.464-0.261-0.767-0.677-0.53-1.647-0.631-2.346-0.631-0.969 0-1.851 0.191-2.368 0.372-1.615 0.586-3.431 1.544-4.569 4.207-0.426 1.005-0.396 2.81-0.224 4.051 0.058 0.519-0.586 1.556-1.169 2.279-1.403 1.751-5.441 5.491-7.619 7.49h-10.445v-11.7h6.07l-0.012 0.203h0.031l0.011 1.985c0 0.071 0.068 0.135 0.134 0.135h6.646c0.078 0 0.135-0.065 0.135-0.135v-4.59c0-0.025 0-0.046-0.012-0.057 0-0.024-0.011-0.033-0.024-0.057-0.045-0.134-0.147-0.407-0.519-0.428h-3.102l-0.463-0.463c-0.022-0.034-0.057-0.046-0.089-0.046h-2.02c-0.035 0-0.068 0.012-0.102 0.046l-0.586 0.597c-0.034 0.023-0.046 0.056-0.046 0.091v0.508l0.012 1.083h-10.955v-8.382h10.966v-0.159h0.01l0.012 1.987c0 0.068 0.068 0.134 0.134 0.134h6.646c0.078 0 0.135-0.068 0.135-0.134v-4.59c0-0.025 0-0.045-0.011-0.058 0-0.022-0.011-0.034-0.024-0.056-0.045-0.135-0.147-0.406-0.519-0.428h-3.102l-0.463-0.463c-0.022-0.033-0.057-0.045-0.089-0.045h-2.02c-0.035 0-0.068 0.011-0.102 0.045l-0.586 0.598c-0.035 0.025-0.046 0.058-0.046 0.091v0.699l0.011 1.253h-10.956v-9.532c0-1.355 1.105-2.46 2.459-2.46h11.168c2.549 0 6.983 4.659 9.238 4.771h19.112c1.141 0.021 2.043 0.969 2.022 2.108z"/>
	<path d="m27.363 36.278-4.932 4.885h-1.951l5.912-5.855c0.272-0.271 0.714-0.271 0.981 0 0.259 0.269 0.259 0.709-0.01 0.97z"/>
	<path d="M5.759,29.464v11.699H4.438C3.083,41.152,1.99,40.036,2,38.68v-9.216H5.759z"/>
</g>
</svg>
