<?xml version="1.0" encoding="UTF-8"?>
<svg version="1.1" viewBox="0 0 48 48" xmlns="http://www.w3.org/2000/svg">
    <path d="m12 4c-2.216 0-4 1.9096-4 4.2839v31.43c0 2.3743 1.784 4.2865 4 4.2865h24c2.216 0 4-1.9122 4-4.2865v-25.312l-9.3333-10.401h-3.3333zm2 3.5703h13.333v6.1172c0 2.3743 1.784 4.2839 4 4.2839h5.3333v19.599c0 1.5828-1.1893 2.8568-2.6667 2.8568h-20c-1.4773 0-2.6667-1.2739-2.6667-2.8568v-27.143c0-1.5829 1.1893-2.8568 2.6667-2.8568zm16.667 0 6 6.8307h-3.3333c-1.4773 0-2.6667-1.2739-2.6667-2.8568zm-15.438 17.443v1.3568h4.5521l-4.7448 5.987v0.98438h6.9714v-1.3438h-4.901l4.7943-6.0365v-0.94792zm8.1953 0v8.3281h1.5599v-8.3281zm3.5156 0v8.3281h1.5469v-2.6641h1.0443c2.052 0 3.4323-1.1761 3.4323-2.9401 0-1.68-1.2227-2.724-3.1667-2.724zm1.5469 1.3568h1.1641c1.02 0 1.7057 0.6239 1.7057 1.5599 0 0.888-0.56548 1.3906-1.5495 1.3906h-1.3203z" fill="#fff" stroke-width="1.3801"/>
</svg>
